<?xml version="1.0" encoding="UTF-8"?>
<svg width="80px" height="80px" viewBox="0 0 80 80" version="1.1" xmlns="http://www.w3.org/2000/svg" xmlns:xlink="http://www.w3.org/1999/xlink">
    <!-- Generator: Sketch 3.8.1 (29687) - http://www.bohemiancoding.com/sketch -->
    <title>icon_menu_report</title>
    <desc>Created with Sketch.</desc>
    <defs></defs>
    <g id="Page-2" stroke="none" stroke-width="1" fill="none" fill-rule="evenodd">
        <g id="icon_menu_report">
            <g id="011-presentation" transform="translate(0.000000, 9.000000)">
                <g id="Layer_1">
                    <g id="Group">
                        <path d="M78.736875,7.75375 C79.4346875,7.75375 80,7.18828125 80,6.490625 L80,1.4128125 C80,0.715 79.4346875,0.1496875 78.736875,0.1496875 L12.4478125,0.1496875 C11.75,0.1496875 11.1846875,0.71515625 11.1846875,1.4128125 L11.1846875,6.49046875 C11.1846875,7.18828125 11.7501562,7.75359375 12.4478125,7.75359375 L13.26375,7.75359375 L13.26375,30.29375 C12.6676562,30.3953125 12.2135937,30.9126563 12.2135937,31.5376563 L12.2135937,33.60875 C11.42,33.8539063 10.6520312,34.1725 9.91609375,34.5614063 L8.4509375,33.0960938 C8.21390625,32.8592188 7.8928125,32.72625 7.55765625,32.72625 C7.22265625,32.72625 6.90109375,32.859375 6.664375,33.09625 L2.8215625,36.939375 C2.32828125,37.4326563 2.32828125,38.2325 2.82171875,38.725625 L4.286875,40.190625 C3.89765625,40.9265625 3.579375,41.6946875 3.3340625,42.488125 L1.263125,42.488125 C0.5653125,42.488125 0,43.0534375 0,43.75125 L0,49.1860938 C0,49.8839063 0.56546875,50.4492188 1.263125,50.4492188 L3.33421875,50.4492188 C3.579375,51.2428125 3.89796875,52.0107813 4.286875,52.746875 L2.82171875,54.2120313 C2.3284375,54.7054688 2.3284375,55.5051563 2.82171875,55.9984375 L6.66453125,59.84125 C7.1578125,60.3342188 7.95765625,60.3345313 8.4509375,59.84125 L9.91625,58.3759375 C10.651875,58.765 11.4198438,59.0832813 12.21375,59.32875 L12.21375,61.3996875 C12.21375,62.0975 12.7792188,62.6628125 13.476875,62.6628125 L18.9117188,62.6628125 C19.6095312,62.6628125 20.1748438,62.0975 20.1748438,61.3996875 L20.1748438,59.32875 C20.9685938,59.0834375 21.7365625,58.765 22.4723438,58.3760938 L23.9376563,59.84125 C24.4307813,60.334375 25.230625,60.3345313 25.7239063,59.8410938 L29.5665625,55.9982813 C30.0598438,55.505 30.0598438,54.7053125 29.5665625,54.2121875 L28.1015625,52.746875 C28.1314062,52.6904688 28.1579687,52.6323438 28.1871875,52.575625 L78.736875,52.575625 C79.4346875,52.575625 80,52.0103125 80,51.3125 L80,46.2345313 C80,45.536875 79.4346875,44.9714063 78.736875,44.9714063 L77.9209375,44.9714063 L77.9209375,7.75375 L78.736875,7.75375 L78.736875,7.75375 Z M29.8623437,47.9226563 L28.0857812,47.9226563 C27.4960937,47.9226563 26.985,48.330625 26.8540625,48.9054688 C26.5814062,50.103125 26.1103125,51.2392188 25.4539062,52.281875 C25.14,52.7809375 25.2126562,53.4307813 25.6296875,53.8478125 L26.8865625,55.1051563 L24.8303125,57.161875 L23.5729687,55.9048438 C23.1560937,55.4879688 22.50625,55.4148438 22.0070312,55.7290625 C20.964375,56.385625 19.828125,56.85625 18.6309375,57.1292188 C18.0560937,57.2598438 17.648125,57.77125 17.648125,58.3609375 L17.648125,60.1370313 L14.74,60.1370313 L14.74,58.360625 C14.74,57.7709375 14.3320312,57.2598438 13.7571875,57.1289063 C12.5598437,56.85625 11.4240625,56.3851563 10.3807812,55.72875 C9.8815625,55.4146875 9.231875,55.4878125 8.815,55.9045313 L7.5578125,57.1615625 L5.50125,55.105 L6.75828125,53.848125 C7.1753125,53.4310938 7.248125,52.78125 6.9340625,52.2821875 C6.27734375,51.2384375 5.8065625,50.1025 5.534375,48.9057813 C5.40375,48.3307813 4.8925,47.9226563 4.30265625,47.9226563 L2.52609375,47.9226563 L2.52609375,45.0142188 L4.30265625,45.0142188 C4.8925,45.0142188 5.40359375,44.6060938 5.534375,44.0310938 C5.80640625,42.8348438 6.27734375,41.6989063 6.93421875,40.655 C7.248125,40.1557813 7.175,39.5060938 6.75796875,39.0890625 L5.50109375,37.8323438 L7.55765625,35.7754688 L8.8146875,37.0326563 C9.231875,37.4495313 9.88140625,37.5226563 10.380625,37.2084375 C11.4240625,36.551875 12.5598437,36.0810938 13.7565625,35.8089063 C14.3315625,35.6782813 14.7396875,35.1667188 14.7396875,34.5770313 L14.7396875,32.8004688 L17.648125,32.8004688 L17.648125,34.5770313 C17.648125,35.166875 18.05625,35.6779688 18.63125,35.8089063 C19.8278125,36.0809375 20.9639063,36.551875 22.0070312,37.2084375 C22.50625,37.5225 23.1559375,37.449375 23.573125,37.0326563 L24.8301562,35.7754688 L26.8865625,37.8321875 L25.6296875,39.0892188 C25.2126562,39.50625 25.1398437,40.1559375 25.4539062,40.655 C26.1104687,41.6982813 26.58125,42.8342188 26.8540625,44.0315625 C26.9846875,44.6064063 27.4960937,45.0142188 28.0857812,45.0142188 L29.8621875,45.0142188 L29.8621875,47.9226563 L29.8623437,47.9226563 Z M77.47375,50.0492188 L32.0457812,50.0492188 C32.2576562,49.8234375 32.3882812,49.5201563 32.3882812,49.1860938 L32.3882812,47.731875 L76.6576563,47.731875 C76.9303125,47.731875 77.1823438,47.6446875 77.38875,47.4976563 L77.4735938,47.4976563 L77.4735938,50.0492188 L77.47375,50.0492188 Z M77.47375,5.22734375 L68.2048437,5.22734375 C67.5070312,5.22734375 66.9417187,5.7928125 66.9417187,6.49046875 C66.9417187,7.188125 67.5070312,7.75359375 68.2048437,7.75359375 L75.3945312,7.75359375 L75.3945312,44.97125 L32.3885937,44.97125 L32.3885937,43.75125 C32.3885937,43.0534375 31.823125,42.488125 31.1254687,42.488125 L29.054375,42.488125 C28.8092187,41.6945313 28.4904687,40.9264063 28.1015625,40.1904688 L29.5667187,38.7253125 C30.06,38.2320313 30.06,37.4323438 29.5667187,36.9392188 L25.7240625,33.09625 C25.4871875,32.8592188 25.1659375,32.72625 24.8307813,32.72625 C24.495625,32.72625 24.1746875,32.859375 23.9375,33.0960938 L22.4723437,34.5614063 C21.7365625,34.1723438 20.9684375,33.8540625 20.1748437,33.60875 L20.1748437,31.5376563 C20.1748437,30.84 19.609375,30.2745313 18.9117187,30.2745313 L15.7901562,30.2745313 L15.7901562,7.75375 L63.8267187,7.75375 C64.524375,7.75375 65.0898438,7.18828125 65.0898438,6.490625 C65.0898438,5.79296875 64.5242187,5.2275 63.8267187,5.2275 L13.7109375,5.2275 L13.7109375,2.6759375 L77.4735937,2.6759375 L77.4735937,5.22734375 L77.47375,5.22734375 Z" id="Shape" fill="#000000"></path>
                        <path d="M42.3182812,25.43625 L37.240625,25.43625 C36.5428125,25.43625 35.9775,26.0015625 35.9775,26.699375 L35.9775,40.24875 C35.9775,40.9465625 36.5428125,41.511875 37.240625,41.511875 L42.3182812,41.511875 C43.0160937,41.511875 43.5814062,40.9464062 43.5814062,40.24875 L43.5814062,26.699375 C43.5814062,26.0017187 43.0159375,25.43625 42.3182812,25.43625 L42.3182812,25.43625 Z M41.0551562,38.9854687 L38.50375,38.9854687 L38.50375,27.9625 L41.0551562,27.9625 L41.0551562,38.9854687 L41.0551562,38.9854687 Z" id="Shape" fill="#31BBA5"></path>
                        <path d="M51.39625,19.2882812 L46.3185938,19.2882812 C45.6207813,19.2882812 45.0554688,19.8535937 45.0554688,20.5514062 L45.0554688,40.24875 C45.0554688,40.9465625 45.6207813,41.511875 46.3185938,41.511875 L51.39625,41.511875 C52.0940625,41.511875 52.659375,40.9465625 52.659375,40.24875 L52.659375,20.5515625 C52.659375,19.8539062 52.0939063,19.2882812 51.39625,19.2882812 L51.39625,19.2882812 Z M50.133125,38.985625 L47.5817188,38.985625 L47.5817188,21.8146875 L50.133125,21.8146875 L50.133125,38.985625 L50.133125,38.985625 Z" id="Shape" fill="#31BBA5"></path>
                        <path d="M60.4740625,22.4882812 L55.3964062,22.4882812 C54.6985937,22.4882812 54.1332812,23.0535937 54.1332812,23.7514063 L54.1332812,40.24875 C54.1332812,40.9465625 54.6985937,41.511875 55.3964062,41.511875 L60.4740625,41.511875 C61.171875,41.511875 61.7371875,40.9465625 61.7371875,40.24875 L61.7371875,23.7515625 C61.7371875,23.0539062 61.171875,22.4882812 60.4740625,22.4882812 L60.4740625,22.4882812 Z M59.2109375,38.985625 L56.6595312,38.985625 L56.6595312,25.0145312 L59.2109375,25.0145312 L59.2109375,38.985625 L59.2109375,38.985625 Z" id="Shape" fill="#000000"></path>
                        <path d="M63.2110938,13.3040625 L63.2110938,40.2490625 C63.2110938,40.946875 63.7764063,41.5121875 64.4742188,41.5121875 L69.551875,41.5121875 C70.2496875,41.5121875 70.815,40.946875 70.815,40.2490625 L70.815,13.3040625 C70.815,12.60625 70.2496875,12.0409375 69.551875,12.0409375 L64.4742188,12.0409375 C63.7767188,12.0409375 63.2110938,12.6064063 63.2110938,13.3040625 L63.2110938,13.3040625 Z M65.7375,14.5671875 L68.2889063,14.5671875 L68.2889063,38.9859375 L65.7375,38.9859375 L65.7375,14.5671875 L65.7375,14.5671875 Z" id="Shape" fill="#000000"></path>
                        <path d="M21.0510938,17.7432812 L27.78375,17.7432812 C28.4815625,17.7432812 29.046875,17.1779687 29.046875,16.4801562 C29.046875,15.7823437 28.4815625,15.2170312 27.78375,15.2170312 L21.0510938,15.2170312 C20.3532813,15.2170312 19.7879688,15.7823437 19.7879688,16.4801562 C19.7879688,17.1776562 20.3534375,17.7432812 21.0510938,17.7432812 L21.0510938,17.7432812 Z" id="Shape" fill="#000000"></path>
                        <path d="M31.4621875,19.2029687 L21.05125,19.2029687 C20.3534375,19.2029687 19.788125,19.7682812 19.788125,20.4660937 C19.788125,21.1639062 20.3534375,21.7292187 21.05125,21.7292187 L31.4621875,21.7292187 C32.16,21.7292187 32.7253125,21.1639062 32.7253125,20.4660937 C32.7253125,19.7682812 32.1598438,19.2029687 31.4621875,19.2029687 L31.4621875,19.2029687 Z" id="Shape" fill="#000000"></path>
                        <path d="M31.4621875,23.18875 L21.05125,23.18875 C20.3534375,23.18875 19.788125,23.7540625 19.788125,24.451875 C19.788125,25.1496875 20.3534375,25.715 21.05125,25.715 L31.4621875,25.715 C32.16,25.715 32.7253125,25.1496875 32.7253125,24.451875 C32.7253125,23.7542188 32.1598438,23.18875 31.4621875,23.18875 L31.4621875,23.18875 Z" id="Shape" fill="#000000"></path>
                        <path d="M31.4621875,27.1748438 L21.05125,27.1748438 C20.3534375,27.1748438 19.788125,27.7401563 19.788125,28.4379688 C19.788125,29.1357813 20.3534375,29.7010938 21.05125,29.7010938 L31.4621875,29.7010938 C32.16,29.7010938 32.7253125,29.1357813 32.7253125,28.4379688 C32.7253125,27.7401563 32.1598438,27.1748438 31.4621875,27.1748438 L31.4621875,27.1748438 Z" id="Shape" fill="#000000"></path>
                        <path d="M16.1940625,38.556875 C11.8314063,38.556875 8.28203125,42.10625 8.28203125,46.4689062 C8.28203125,48.2078125 8.835625,49.8578125 9.88296875,51.2407812 C10.3040625,51.7967187 11.09625,51.9065625 11.6525,51.485 C12.2085938,51.06375 12.3179688,50.2715625 11.8967188,49.7154687 C11.1848438,48.7751562 10.8082813,47.6526562 10.8082813,46.4690625 C10.8082813,43.4992187 13.224375,41.0832812 16.1942188,41.0832812 C19.1640625,41.0832812 21.58,43.4992187 21.58,46.4690625 C21.58,48.2653125 20.6885938,49.9371875 19.1942188,50.9423437 C19.1342188,50.9828125 19.0732813,51.0217187 19.0115625,51.0595312 L18.9454688,51.0989062 C18.8976563,51.1273438 18.849375,51.1551563 18.7998438,51.1825 L18.736875,51.2175 C18.6704688,51.2529688 18.6035938,51.2875 18.5242188,51.3260937 C18.5226563,51.3267188 18.5203125,51.3279688 18.5175,51.3292187 C18.4510938,51.3609375 18.3842188,51.3909375 18.3184375,51.4190625 L18.2478125,51.4485938 C18.1954688,51.4701562 18.1425,51.4909375 18.0867188,51.511875 L18.0196875,51.5370312 C17.9479688,51.5628125 17.875625,51.5876562 17.8026563,51.6104688 C17.7985938,51.6117187 17.7946875,51.6129688 17.7909375,51.6142187 L17.7909375,51.6140625 C17.7175,51.6370313 17.6432813,51.6575 17.5665625,51.6776562 L17.4970313,51.6948438 C17.4407813,51.70875 17.384375,51.7220313 17.3257813,51.7342188 L17.2528125,51.7496875 C17.17625,51.765 17.0992188,51.779375 17.0340625,51.7892188 C17.0235938,51.7907813 17.0232813,51.7907813 17.0126563,51.7926563 C16.93375,51.8046875 16.854375,51.814375 16.7728125,51.8229688 L16.6992188,51.8298438 C16.639375,51.8354688 16.579375,51.84 16.5185938,51.8435938 L16.4448438,51.8478125 C16.281875,51.8551563 16.1073438,51.8554688 15.9470313,51.8479687 L15.8695313,51.8434375 C15.8090625,51.8398437 15.7489063,51.8353125 15.6859375,51.8296875 L15.6140625,51.8228125 C15.5367188,51.8145313 15.4598438,51.8053125 15.3809375,51.7934375 C15.3759375,51.7926563 15.3703125,51.7917187 15.3667188,51.7910938 C15.2890625,51.779375 15.2120313,51.765 15.1328125,51.7492188 L15.060625,51.7339063 C15.0040625,51.721875 14.9476563,51.70875 14.87875,51.6915625 L14.8198438,51.676875 C14.7490625,51.6582813 14.6785938,51.6385937 14.596875,51.6135938 C14.593125,51.6123438 14.5892188,51.61125 14.5857813,51.61 C14.5125,51.5870313 14.4404688,51.5623438 14.368125,51.53625 L14.3014063,51.51125 C13.6489063,51.2640625 12.9278125,51.5967188 12.6810938,52.2492188 C12.434375,52.9017188 12.77125,53.6335938 13.4235938,53.8801562 L13.511875,53.9129687 C13.618125,53.9514062 13.725625,53.9879688 13.8339063,54.0217188 C13.8395313,54.0235938 13.8445313,54.0251563 13.8484375,54.02625 C13.9571875,54.06 14.0678125,54.0910938 14.1767188,54.1196875 C14.2096875,54.1282813 14.2432813,54.1367188 14.2842188,54.1465625 C14.3673438,54.1671875 14.4510938,54.1864063 14.5332813,54.2042188 L14.6407813,54.2270313 C14.7475,54.2484375 14.8546875,54.2679688 14.9729688,54.2864063 C14.9798438,54.2878125 14.9904688,54.289375 14.996875,54.2903125 C15.1128125,54.3078125 15.229375,54.3221875 15.3448438,54.3348438 C15.3770313,54.3384375 15.4096875,54.34125 15.4548438,54.3454688 C15.5429688,54.35375 15.6314063,54.3603125 15.7203125,54.3654688 L15.8296875,54.3717188 C15.9504688,54.3770313 16.071875,54.3807813 16.1959375,54.3807813 C16.3178125,54.3807813 16.4390625,54.3770313 16.5634375,54.3715625 L16.6692188,54.365625 C16.7582813,54.3601563 16.8467188,54.3535938 16.9475,54.3442188 C16.98,54.34125 17.0126563,54.3382813 17.0432813,54.335 C17.1603125,54.3223438 17.2770313,54.308125 17.404375,54.28875 C17.5203125,54.2710938 17.6345313,54.25 17.7460938,54.2278125 L17.8535938,54.2053125 C17.9378125,54.1875 18.0215625,54.1679688 18.1125,54.1454688 C18.145625,54.1373438 18.1792188,54.1289063 18.2101563,54.1209375 C18.3209375,54.091875 18.4314063,54.060625 18.5340625,54.0289063 C18.5403125,54.026875 18.5482813,54.0245313 18.55625,54.0220313 C18.664375,53.9882813 18.7709375,53.951875 18.8764063,53.9139063 L18.978125,53.8760938 C19.056875,53.8464063 19.1346875,53.8159375 19.2171875,53.7817188 L19.3110938,53.7425 C19.4129688,53.6989063 19.5139063,53.6535938 19.61375,53.6059375 C19.6203125,53.6026563 19.6307813,53.5975 19.6375,53.594375 C19.73625,53.5467188 19.8334375,53.4967188 19.9360938,53.4415625 L20.0265625,53.3915625 C20.0982813,53.351875 20.169375,53.3110938 20.2426563,53.2675 L20.33125,53.2142188 C20.4248438,53.156875 20.5170313,53.098125 20.6060938,53.0378125 C22.7982813,51.5632813 24.106875,49.1078125 24.106875,46.4692188 C24.1064063,42.10625 20.5570313,38.556875 16.1940625,38.556875 L16.1940625,38.556875 Z" id="Shape" fill="#000000"></path>
                    </g>
                </g>
            </g>
        </g>
    </g>
</svg>