<?xml version="1.0" encoding="UTF-8"?>
<svg width="80px" height="80px" viewBox="0 0 80 80" version="1.1" xmlns="http://www.w3.org/2000/svg" xmlns:xlink="http://www.w3.org/1999/xlink">
    <!-- Generator: Sketch 3.8.1 (29687) - http://www.bohemiancoding.com/sketch -->
    <title>icon_menu_poll</title>
    <desc>Created with Sketch.</desc>
    <defs></defs>
    <g id="Page-2" stroke="none" stroke-width="1" fill="none" fill-rule="evenodd">
        <g id="icon_menu_poll">
            <g id="017-tasks-2">
                <g id="Layer_1">
                    <g id="Group">
                        <path d="M21.3095312,8.75890625 L35.2401562,8.75890625 C35.9378125,8.75890625 36.5032812,8.19359375 36.5032812,7.49578125 C36.5032812,6.79796875 35.9376562,6.23265625 35.2401562,6.23265625 L21.3095312,6.23265625 C20.611875,6.23265625 20.0464062,6.79796875 20.0464062,7.49578125 C20.04625,8.19359375 20.611875,8.75890625 21.3095312,8.75890625 L21.3095312,8.75890625 Z" id="Shape" fill="#31BBA5"></path>
                        <path d="M21.3095313,14.3335937 L49.1707813,14.3335937 C49.8685938,14.3335937 50.4339063,13.768125 50.4339063,13.0704687 C50.4339063,12.3728125 49.8684375,11.8073437 49.1707813,11.8073437 L21.3095313,11.8073437 C20.611875,11.8073437 20.0464063,12.3728125 20.0464063,13.0704687 C20.0464063,13.768125 20.611875,14.3335937 21.3095313,14.3335937 L21.3095313,14.3335937 Z" id="Shape" fill="#31BBA5"></path>
                        <path d="M21.3095312,31.7007812 L35.2401562,31.7007812 C35.9378125,31.7007812 36.5032812,31.1354687 36.5032812,30.4376562 C36.5032812,29.7398437 35.9376562,29.1745312 35.2401562,29.1745312 L21.3095312,29.1745312 C20.611875,29.1745312 20.0464062,29.7398437 20.0464062,30.4376562 C20.04625,31.1353125 20.611875,31.7007812 21.3095312,31.7007812 L21.3095312,31.7007812 Z" id="Shape" fill="#31BBA5"></path>
                        <path d="M21.3095312,37.2757813 L48.8640625,37.2757813 C49.561875,37.2757813 50.1271875,36.7104688 50.1271875,36.0126563 C50.1271875,35.3148438 49.5617187,34.7495313 48.8640625,34.7495313 L21.3095312,34.7495313 C20.611875,34.7495313 20.0464062,35.315 20.0464062,36.0126563 C20.04625,36.7101563 20.611875,37.2757813 21.3095312,37.2757813 L21.3095312,37.2757813 Z" id="Shape" fill="#31BBA5"></path>
                        <path d="M21.3095312,54.6429688 L35.2401562,54.6429688 C35.9378125,54.6429688 36.5032812,54.0776563 36.5032812,53.3798438 C36.5032812,52.6820313 35.9376562,52.1167188 35.2401562,52.1167188 L21.3095312,52.1167188 C20.611875,52.1167188 20.0464062,52.6820313 20.0464062,53.3798438 C20.04625,54.0775 20.611875,54.6429688 21.3095312,54.6429688 L21.3095312,54.6429688 Z" id="Shape" fill="#31BBA5"></path>
                        <path d="M48.6664063,57.6915625 L21.3095313,57.6915625 C20.611875,57.6915625 20.0464063,58.256875 20.0464063,58.9546875 C20.0464063,59.6523438 20.6120313,60.2178125 21.3095313,60.2178125 L48.6665625,60.2178125 C49.364375,60.2178125 49.9296875,59.6521875 49.9296875,58.9546875 C49.9295313,58.2571875 49.3642188,57.6915625 48.6664063,57.6915625 L48.6664063,57.6915625 Z" id="Shape" fill="#31BBA5"></path>
                        <path d="M74.0121875,63.2528125 L66.6740625,60.3103125 L66.6740625,58.6989062 C68.6954688,57.5998437 70.22875,55.7151562 70.8679688,53.45875 C73.320625,53.4459375 75.3121875,51.4476562 75.3121875,48.9921875 C75.3121875,47.5164062 74.5925,46.2060937 73.4857813,45.3921875 L73.4857813,42.0379687 C73.4857813,35.7951562 68.406875,30.7160937 62.1640625,30.7160937 L61.3257812,30.7160937 C60.3896875,30.7160937 59.4807812,30.8323437 58.6103125,31.0475 L58.6103125,24.2054687 C58.6103125,23.5076562 58.045,22.9423437 57.3471875,22.9423437 L53.595625,22.9423437 C52.8978125,22.9423437 52.3325,23.5078125 52.3325,24.2054687 C52.3325,24.903125 52.8978125,25.4685937 53.595625,25.4685937 L56.0842187,25.4685937 L56.0842187,32.0073437 C52.769375,33.7465625 50.4176562,37.0792187 50.0548437,40.9820312 L2.52625,40.9820312 L2.52625,25.4685937 L49.3676563,25.4685937 C50.0654688,25.4685937 50.6307812,24.903125 50.6307812,24.2054687 C50.6307812,23.5078125 50.0654688,22.9423437 49.3676563,22.9423437 L1.263125,22.9423437 C0.56546875,22.9423437 0,23.5078125 0,24.2054687 L0,42.2451562 C0,42.9429687 0.565625,43.5082812 1.263125,43.5082812 L50.0039062,43.5082812 L50.0039062,45.3789062 C49.795625,45.5304687 49.6009375,45.6996875 49.421875,45.884375 L1.263125,45.884375 C0.56546875,45.884375 0,46.4496875 0,47.1475 L0,65.1871875 C0,65.885 0.565625,66.4503125 1.263125,66.4503125 L45.1989063,66.4503125 C44.1315625,67.9179687 43.333125,69.8957812 43.333125,72.4540625 L43.333125,78.7348437 C43.333125,79.4325 43.8985938,79.9995312 44.59625,79.9995312 L49.3679688,79.9995312 C50.0657813,79.9995312 50.6310938,79.4342187 50.6310938,78.7364062 C50.6310938,78.03875 50.0657813,77.4732812 49.3679688,77.4732812 L45.859375,77.4732812 L45.859375,72.4542187 C45.859375,67.2014062 49.993125,65.69375 50.161875,65.6348437 C50.1814063,65.6282812 50.2009375,65.62125 50.22,65.6135937 L57.1346875,62.9059375 C57.1660938,62.9446875 57.199375,62.9825 57.2360938,63.0184375 L60.8632813,66.5510937 C61.0992188,66.7809375 61.4154688,66.909375 61.7445313,66.909375 C61.7510938,66.909375 61.7578125,66.909375 61.764375,66.9092187 C62.1004688,66.9040625 62.4207813,66.7648437 62.6539063,66.5228125 L66.2014063,62.8425 L73.103125,65.6101562 C73.120625,65.6171875 73.1457813,65.6264062 73.1634375,65.6326562 C73.339375,65.6940625 77.4735938,67.2015625 77.4735938,72.4545312 L77.4735938,77.4735937 L67.084375,77.4735937 L58.1173438,77.4735937 L56.2475,77.4735937 L54.6782813,77.4735937 L53.4095313,77.4735937 C52.7117188,77.4735937 52.1464063,78.0392187 52.1464063,78.7367187 C52.1464063,79.4345312 52.7117188,79.9998437 53.4095313,79.9998437 L54.6782813,79.9998437 L56.2475,79.9998437 L58.1173438,79.9998437 L67.084375,79.9998437 L78.7367188,79.9998437 C79.4345313,79.9998437 79.9998438,79.4220312 79.9998438,78.724375 L79.9998438,72.454375 C80,66.800625 76.1051562,63.9735937 74.0121875,63.2528125 L74.0121875,63.2528125 Z M71.1954688,47.0848437 C72.09875,47.250625 72.7859375,48.0421875 72.7859375,48.9923437 C72.7859375,49.9425 72.09875,50.73375 71.1954688,50.8996875 L71.1954688,47.0848437 L71.1954688,47.0848437 Z M52.53,42.038125 C52.5301562,37.1882812 56.4759375,33.2425 61.3259375,33.2425 L62.1642187,33.2425 C67.0140625,33.2425 70.9596875,37.1882812 70.9596875,42.038125 L70.9596875,44.1009375 C70.9579687,44.0985937 70.9560937,44.0965625 70.9546875,44.0942187 C70.943125,44.078125 70.9314062,44.0620312 70.9189062,44.0464062 C70.906875,44.0314062 70.8945312,44.0170312 70.8817188,44.0028125 C70.8671875,43.9860937 70.8526562,43.9698437 70.8371875,43.95375 C70.8251562,43.9414062 70.8125,43.9296875 70.8,43.9176562 C70.7828125,43.9014062 70.765625,43.8854687 70.7475,43.87 C70.7348437,43.859375 70.7217187,43.8495312 70.70875,43.8392187 C70.6898437,43.824375 70.6707812,43.8096875 70.6509375,43.7959375 C70.6365625,43.7859375 70.621875,43.776875 70.6070312,43.7676562 C70.5878125,43.7553125 70.5684375,43.743125 70.5484375,43.731875 C70.5309375,43.721875 70.5125,43.713125 70.4945312,43.7040625 C70.4765625,43.6951562 70.4585937,43.6860937 70.4403125,43.6779687 C70.4182812,43.668125 70.3954687,43.66 70.3729687,43.6515625 C70.3571875,43.645625 70.34125,43.639375 70.3253125,43.6342187 C70.2998437,43.6257812 70.2735937,43.6190625 70.2476562,43.6123437 C70.2359375,43.6090625 70.2245312,43.6053125 70.2126562,43.6023437 C67.4639062,42.9770312 66.6034375,39.4232812 66.5959375,39.3915625 C66.48625,38.9073437 66.1032812,38.5323437 65.616875,38.4329687 C65.1307812,38.3328125 64.6310937,38.5278125 64.3403125,38.9301562 C61.016875,43.525 53.701875,43.5709375 53.6007812,43.5709375 L53.6003125,43.5709375 L53.595625,43.5709375 C53.5521875,43.5709375 53.5090625,43.5732812 53.4667187,43.5775 C53.4534375,43.5789062 53.440625,43.5815625 53.4273437,43.5834375 C53.3985937,43.5871875 53.3696875,43.5907812 53.3415625,43.5965625 C53.3235937,43.6003125 53.3060938,43.6057812 53.288125,43.6101562 C53.265625,43.6157812 53.2426562,43.6204687 53.2207813,43.6275 C53.2003125,43.6339062 53.180625,43.6421875 53.160625,43.6495312 C53.1423438,43.65625 53.1232813,43.6621875 53.1051563,43.6696875 C53.0820312,43.6795312 53.06,43.6909375 53.0379687,43.701875 C53.0235938,43.7089062 53.0090625,43.715 52.995,43.7226562 C52.9721875,43.735 52.9509375,43.7489062 52.9289063,43.7625 C52.9164063,43.7703125 52.9032813,43.7773437 52.8907812,43.785625 C52.8704688,43.799375 52.85125,43.8146875 52.8315625,43.8296875 C52.8189062,43.8392187 52.8057812,43.848125 52.7934375,43.858125 C52.7757812,43.8728125 52.7592187,43.88875 52.7423437,43.9040625 C52.729375,43.9157812 52.7159375,43.9270312 52.7035937,43.9392187 C52.6879687,43.9548437 52.67375,43.9715625 52.6590625,43.9879687 C52.6467187,44.0015625 52.63375,44.0145312 52.621875,44.02875 C52.60875,44.0446875 52.596875,44.0617187 52.5845312,44.0785937 C52.5726562,44.094375 52.5601562,44.1095312 52.5490625,44.1259375 C52.5421875,44.1360937 52.5364062,44.146875 52.5298437,44.1573437 L52.5298437,42.038125 L52.53,42.038125 Z M52.3326562,47.0759375 L52.3326562,50.9085937 C51.4017187,50.7659375 50.685625,49.9623437 50.685625,48.9925 C50.6854687,48.0221875 51.4015625,47.2185937 52.3326562,47.0759375 L52.3326562,47.0759375 Z M56.8542188,60.3026562 L49.325625,63.2510937 C48.9067188,63.395 48.415,63.625 47.8967188,63.9435937 C47.8275,63.931875 47.7567188,63.924375 47.6842188,63.924375 L2.52625,63.924375 L2.52625,48.4109375 L48.1984375,48.4109375 C48.1734375,48.6014062 48.159375,48.7951562 48.159375,48.9923437 C48.159375,51.4554687 50.1635938,53.459375 52.6270313,53.459375 C52.6379688,53.459375 52.6489063,53.4579687 52.6598438,53.4576562 C53.2989063,55.7145312 54.8325,57.5995312 56.8542188,58.69875 L56.8542188,60.3026562 L56.8542188,60.3026562 Z M64.1475,61.1846875 L64.1475,61.1890625 L64.1475,61.3325 L61.7159375,63.8554687 L59.3804687,61.580625 L59.3804687,59.5935937 C59.8945312,59.689375 60.4234375,59.7420312 60.9648437,59.7420312 L62.5634375,59.7420312 C63.1046875,59.7420312 63.63375,59.6896875 64.1475,59.59375 L64.1475,61.1846875 L64.1475,61.1846875 Z M62.56375,57.215625 L60.9651562,57.215625 C57.5982812,57.215625 54.8590625,54.4764062 54.8590625,51.1096875 L54.8590625,46.0329687 C57.0639062,45.8429687 61.6545312,45.0853125 64.9264062,42.0559375 C65.5957812,43.3776562 66.7596875,44.9709375 68.6692187,45.7528125 L68.6692187,51.1098437 C68.6690625,54.4765625 65.9303125,57.215625 62.56375,57.215625 L62.56375,57.215625 Z" id="Shape" fill="#000000"></path>
                        <path d="M12.9045313,7.3603125 C13.6021875,7.3603125 14.1676563,6.795 14.1676563,6.0971875 C14.1676563,5.399375 13.6020313,4.8340625 12.9045313,4.8340625 L6.53328125,4.8340625 C5.835625,4.8340625 5.27015625,5.399375 5.27015625,6.0971875 L5.27015625,14.4692187 C5.27015625,15.1670312 5.83578125,15.7323437 6.53328125,15.7323437 L15.31625,15.7323437 C16.0139063,15.7323437 16.579375,15.166875 16.579375,14.4692187 L16.579375,12.2103125 C16.579375,11.5125 16.01375,10.9471875 15.31625,10.9471875 C14.6185938,10.9471875 14.053125,11.5126562 14.053125,12.2103125 L14.053125,13.2057812 L7.79640625,13.2057812 L7.79640625,7.3603125 L12.9045313,7.3603125 L12.9045313,7.3603125 Z" id="Shape" fill="#000000"></path>
                        <path d="M17.7851562,5.17796875 C17.2773437,4.69953125 16.4779687,4.72328125 15.9995312,5.2309375 L11.80375,9.6828125 L10.5067187,8.27 C10.035,7.75578125 9.23578125,7.72203125 8.72203125,8.19359375 C8.208125,8.66546875 8.1740625,9.46453125 8.645625,9.97828125 L10.8609375,12.3915625 C11.0982812,12.6501563 11.4323437,12.7982813 11.7832812,12.800625 L11.7915625,12.800625 C12.139375,12.800625 12.4720312,12.6571875 12.7107812,12.4039063 L17.8378125,6.96359375 C18.3164062,6.4559375 18.2926562,5.65625 17.7851562,5.17796875 L17.7851562,5.17796875 Z" id="Shape" fill="#000000"></path>
                        <path d="M12.9045313,30.3023437 C13.6021875,30.3023437 14.1676563,29.7370312 14.1676563,29.0392187 C14.1676563,28.3414062 13.6020313,27.7760937 12.9045313,27.7760937 L6.53328125,27.7760937 C5.835625,27.7760937 5.27015625,28.3414062 5.27015625,29.0392187 L5.27015625,37.41125 C5.27015625,38.1090625 5.83578125,38.674375 6.53328125,38.674375 L15.31625,38.674375 C16.0139063,38.674375 16.579375,38.1090625 16.579375,37.41125 L16.579375,35.1525 C16.579375,34.4546875 16.01375,33.889375 15.31625,33.889375 C14.6185938,33.889375 14.053125,34.4546875 14.053125,35.1525 L14.053125,36.1479687 L7.79640625,36.1479687 L7.79640625,30.3021875 L12.9045313,30.3021875 L12.9045313,30.3023437 Z" id="Shape" fill="#000000"></path>
                        <path d="M17.7851562,28.1198438 C17.2773437,27.6414063 16.4779687,27.6651563 15.9995312,28.1729688 L11.80375,32.6248438 L10.5067187,31.2120313 C10.035,30.6976563 9.23578125,30.6640625 8.72203125,31.135625 C8.208125,31.6075 8.1740625,32.4065625 8.645625,32.9203125 L10.8610937,35.3335938 C11.0984375,35.5921875 11.4325,35.7403125 11.7834375,35.7426563 L11.7917187,35.7426563 C12.1395312,35.7426563 12.4721875,35.5992187 12.7109375,35.3459375 L17.8379687,29.905625 C18.3164062,29.3979688 18.2926562,28.5984375 17.7851562,28.1198438 L17.7851562,28.1198438 Z" id="Shape" fill="#000000"></path>
                        <path d="M15.31625,56.8317188 C14.6185938,56.8317188 14.053125,57.3970313 14.053125,58.0948438 L14.053125,59.0903125 L7.79640625,59.0903125 L7.79640625,53.2445313 L12.9046875,53.2445313 C13.6023438,53.2445313 14.1678125,52.6789063 14.1678125,51.9814063 C14.1678125,51.2835938 13.6021875,50.7182813 12.9046875,50.7182813 L6.53328125,50.7182813 C5.835625,50.7182813 5.27015625,51.2835938 5.27015625,51.9814063 L5.27015625,60.3534375 C5.27015625,61.05125 5.83578125,61.6165625 6.53328125,61.6165625 L15.31625,61.6165625 C16.0139063,61.6165625 16.579375,61.05125 16.579375,60.3534375 L16.579375,58.0946875 C16.579375,57.3970313 16.01375,56.8317188 15.31625,56.8317188 L15.31625,56.8317188 Z" id="Shape" fill="#000000"></path>
                        <path d="M15.9995312,51.1153125 L11.80375,55.5671875 L10.5067187,54.154375 C10.035,53.64 9.23578125,53.6065625 8.72203125,54.0779687 C8.208125,54.5498437 8.1740625,55.3489062 8.645625,55.8626562 L10.8610937,58.2759375 C11.0984375,58.5345312 11.4325,58.6826562 11.7834375,58.685 L11.7917187,58.685 C12.1395312,58.685 12.4721875,58.5415625 12.7109375,58.2882812 L17.8379687,52.8479687 C18.3164062,52.3403125 18.2926562,51.5407812 17.7851562,51.0623437 C17.2773437,50.58375 16.4779687,50.6075 15.9995312,51.1153125 L15.9995312,51.1153125 Z" id="Shape" fill="#000000"></path>
                        <path d="M1.263125,20.5664062 L57.3473438,20.5664062 C58.0451563,20.5664062 58.6104688,20.0010937 58.6104688,19.3032812 L58.6104688,1.263125 C58.6104688,0.5653125 58.0451563,0 57.3473438,0 L53.5957813,0 C52.8979687,0 52.3326562,0.56546875 52.3326562,1.263125 C52.3326562,1.96078125 52.898125,2.52625 53.5957813,2.52625 L56.0842187,2.52625 L56.0842187,18.0398437 L2.52625,18.0398437 L2.52625,2.52625 L49.3676563,2.52625 C50.0654688,2.52625 50.6307813,1.96078125 50.6307813,1.263125 C50.6307813,0.56546875 50.0654688,0 49.3678125,0 L1.263125,0 C0.565625,0 0,0.565625 0,1.263125 L0,19.303125 C0,20.0007812 0.565625,20.5664062 1.263125,20.5664062 L1.263125,20.5664062 Z" id="Shape" fill="#000000"></path>
                    </g>
                </g>
            </g>
        </g>
    </g>
</svg>