<?xml version="1.0" encoding="UTF-8"?>
<svg width="80px" height="80px" viewBox="0 0 80 80" version="1.1" xmlns="http://www.w3.org/2000/svg" xmlns:xlink="http://www.w3.org/1999/xlink">
    <!-- Generator: Sketch 3.8.1 (29687) - http://www.bohemiancoding.com/sketch -->
    <title>icon_menu_meter</title>
    <desc>Created with Sketch.</desc>
    <defs></defs>
    <g id="Page-2" stroke="none" stroke-width="1" fill="none" fill-rule="evenodd">
        <g id="icon_menu_meter">
            <g id="meter" transform="translate(7.000000, 0.000000)">
                <g id="Layer_1">
                    <g id="Group">
                        <path d="M33.253012,7.71084337 C22.889253,7.71084337 14.4578313,16.1422651 14.4578313,26.5060241 C14.4578313,36.8697831 22.889253,45.3012048 33.253012,45.3012048 C43.6167711,45.3012048 52.0481928,36.8697831 52.0481928,26.5060241 C52.0481928,16.1422651 43.6167711,7.71084337 33.253012,7.71084337 L33.253012,7.71084337 Z M49.088,27.9516145 C48.3546988,36.0456867 41.5346506,42.4096386 33.253012,42.4096386 C24.9713735,42.4096386 18.1513253,36.0456867 17.4180241,27.9518072 L22.6506024,27.9518072 L22.6506024,25.060241 L17.4180241,25.060241 C17.6952289,21.9996145 18.8422169,19.1874699 20.6106988,16.8724819 L23.5558554,19.8176386 L25.6005783,17.7729157 L22.5659759,14.7383133 C25.0565783,12.4744096 28.2667952,10.9918072 31.8072289,10.6710361 L31.8072289,15.9036145 L34.6987952,15.9036145 L34.6987952,10.6710361 C38.2392289,10.9918072 41.4494458,12.4744096 43.9398554,14.7381205 L39.9413976,18.7365783 L41.9861205,20.7813012 L45.8951325,16.8722892 C47.6636145,19.1874699 48.8106024,21.9996145 49.0878072,25.0600482 L43.8554217,25.0600482 L43.8554217,27.9516145 L49.088,27.9516145 L49.088,27.9516145 Z" id="Shape" fill="#000000"></path>
                        <path d="M34.6987952,26.2261205 L34.6987952,19.7590361 L31.8072289,19.7590361 L31.8072289,26.2261205 C29.5849639,26.857253 27.9518072,28.9035181 27.9518072,31.3253012 C27.9518072,34.2482892 30.3300241,36.626506 33.253012,36.626506 C36.176,36.626506 38.5542169,34.2482892 38.5542169,31.3253012 C38.5542169,28.9035181 36.9210602,26.857253 34.6987952,26.2261205 L34.6987952,26.2261205 Z M33.253012,33.7349398 C31.924241,33.7349398 30.8433735,32.6540723 30.8433735,31.3253012 C30.8433735,29.9965301 31.924241,28.9156627 33.253012,28.9156627 C34.5817831,28.9156627 35.6626506,29.9965301 35.6626506,31.3253012 C35.6626506,32.6540723 34.5817831,33.7349398 33.253012,33.7349398 L33.253012,33.7349398 Z" id="Shape" fill="#31BBA5"></path>
                        <path d="M21.686747,48.1927711 C16.6378795,48.1927711 12.5301205,52.3005301 12.5301205,57.3493976 C12.5301205,62.3982651 16.6378795,66.5060241 21.686747,66.5060241 C26.7356145,66.5060241 30.8433735,62.3982651 30.8433735,57.3493976 C30.8433735,52.3005301 26.7356145,48.1927711 21.686747,48.1927711 L21.686747,48.1927711 Z M21.686747,63.6144578 C18.7298313,63.6144578 16.2465542,61.5546988 15.5919036,58.7951807 L22.6506024,58.7951807 L22.6506024,55.9036145 L15.5919036,55.9036145 C16.2465542,53.1440964 18.7298313,51.0843373 21.686747,51.0843373 C25.1413976,51.0843373 27.9518072,53.894747 27.9518072,57.3493976 C27.9518072,60.8040482 25.1413976,63.6144578 21.686747,63.6144578 L21.686747,63.6144578 Z" id="Shape" fill="#31BBA5"></path>
                        <path d="M44.8192771,48.1927711 C39.7704096,48.1927711 35.6626506,52.3005301 35.6626506,57.3493976 C35.6626506,62.3982651 39.7704096,66.5060241 44.8192771,66.5060241 C49.8681446,66.5060241 53.9759036,62.3982651 53.9759036,57.3493976 C53.9759036,52.3005301 49.8681446,48.1927711 44.8192771,48.1927711 L44.8192771,48.1927711 Z M50.9141205,58.7951807 C50.2594699,61.5546988 47.7761928,63.6144578 44.8192771,63.6144578 C41.3646265,63.6144578 38.5542169,60.8040482 38.5542169,57.3493976 C38.5542169,53.894747 41.3646265,51.0843373 44.8192771,51.0843373 C47.7761928,51.0843373 50.2594699,53.1440964 50.9141205,55.9036145 L42.8915663,55.9036145 L42.8915663,58.7951807 L50.9141205,58.7951807 L50.9141205,58.7951807 Z" id="Shape" fill="#31BBA5"></path>
                        <path d="M60.7228916,34.6987952 L60.7228916,24.5783133 C60.7228916,11.0257349 49.6971566,0 36.1445783,0 L30.3614458,0 C16.8088675,0 5.78313253,11.0257349 5.78313253,24.5783133 L5.78313253,25.060241 L0,25.060241 L0,37.5903614 L5.78313253,37.5903614 L5.78313253,42.4096386 L0,42.4096386 L0,54.939759 L5.78313253,54.939759 L5.78313253,55.4216867 C5.78313253,68.9742651 16.8088675,80 30.3614458,80 L36.1445783,80 C49.6971566,80 60.7228916,68.9742651 60.7228916,55.4216867 L60.7228916,47.2289157 L66.5060241,47.2289157 L66.5060241,34.6987952 L60.7228916,34.6987952 L60.7228916,34.6987952 Z M5.78313253,52.0481928 L2.89156627,52.0481928 L2.89156627,45.3012048 L5.78313253,45.3012048 L5.78313253,52.0481928 L5.78313253,52.0481928 Z M5.78313253,34.6987952 L2.89156627,34.6987952 L2.89156627,27.9518072 L5.78313253,27.9518072 L5.78313253,34.6987952 L5.78313253,34.6987952 Z M57.8313253,55.4216867 C57.8313253,67.3798554 48.102747,77.1084337 36.1445783,77.1084337 L34.6987952,77.1084337 L34.6987952,68.9156627 L31.8072289,68.9156627 L31.8072289,77.1084337 L30.3614458,77.1084337 C18.4032771,77.1084337 8.6746988,67.3798554 8.6746988,55.4216867 L8.6746988,24.5783133 C8.6746988,12.6201446 18.4032771,2.89156627 30.3614458,2.89156627 L36.1445783,2.89156627 C48.102747,2.89156627 57.8313253,12.6201446 57.8313253,24.5783133 L57.8313253,55.4216867 L57.8313253,55.4216867 Z M63.6144578,44.3373494 L60.7228916,44.3373494 L60.7228916,37.5903614 L63.6144578,37.5903614 L63.6144578,44.3373494 L63.6144578,44.3373494 Z" id="Shape" fill="#000000"></path>
                    </g>
                </g>
            </g>
        </g>
    </g>
</svg>