<?xml version="1.0" encoding="UTF-8"?>
<svg width="80px" height="80px" viewBox="0 0 80 80" version="1.1" xmlns="http://www.w3.org/2000/svg" xmlns:xlink="http://www.w3.org/1999/xlink">
    <!-- Generator: Sketch 3.8.1 (29687) - http://www.bohemiancoding.com/sketch -->
    <title>icon_menu_bill</title>
    <desc>Created with Sketch.</desc>
    <defs></defs>
    <g id="Page-2" stroke="none" stroke-width="1" fill="none" fill-rule="evenodd">
        <g id="icon_menu_bill">
            <g id="invoice" transform="translate(5.000000, 0.000000)">
                <g id="Layer_1">
                    <g id="Group">
                        <path d="M14.6989966,61.2139281 L14.6857412,61.2139281 C13.9512358,61.2139281 13.3616042,61.8101094 13.3616042,62.5446148 C13.3616042,63.2791202 13.9644912,63.8753015 14.6989966,63.8753015 C15.433502,63.8753015 16.0296833,63.2791202 16.0296833,62.5446148 C16.0296833,61.8101094 15.433502,61.2139281 14.6989966,61.2139281 L14.6989966,61.2139281 Z" id="Shape" fill="#000000"></path>
                        <path d="M22.6834288,61.2139281 L22.6701734,61.2139281 C21.935668,61.2139281 21.3460364,61.8101094 21.3460364,62.5446148 C21.3460364,63.2791202 21.9489234,63.8753015 22.6834288,63.8753015 C23.4179341,63.8753015 24.0141155,63.2791202 24.0141155,62.5446148 C24.0141155,61.8101094 23.4179341,61.2139281 22.6834288,61.2139281 L22.6834288,61.2139281 Z" id="Shape" fill="#000000"></path>
                        <path d="M33.2894682,42.5836903 L22.6435066,42.5836903 C21.9075977,42.5836903 21.3128199,43.1798716 21.3128199,43.914377 C21.3128199,44.6488824 21.9075977,45.2450637 22.6435066,45.2450637 L33.2894682,45.2450637 C34.0253771,45.2450637 34.6201549,44.6488824 34.6201549,43.914377 C34.6201549,43.1798716 34.0253771,42.5836903 33.2894682,42.5836903 L33.2894682,42.5836903 Z" id="Shape" fill="#000000"></path>
                        <path d="M27.9664094,50.5681225 L22.6435066,50.5681225 C21.9075977,50.5681225 21.3128199,51.1643038 21.3128199,51.8988092 C21.3128199,52.6333146 21.9075977,53.2294959 22.6435066,53.2294959 L27.9664094,53.2294959 C28.7023183,53.2294959 29.2970961,52.6333146 29.2970961,51.8988092 C29.2972521,51.1643038 28.7023183,50.5681225 27.9664094,50.5681225 L27.9664094,50.5681225 Z" id="Shape" fill="#000000"></path>
                        <path d="M50.5890193,46.5759064 C49.1212561,46.5759064 47.9274899,45.3822962 47.9274899,43.914377 C47.9274899,43.1798716 47.3327121,42.5836903 46.5968032,42.5836903 C45.8608943,42.5836903 45.2661164,43.1798716 45.2661164,43.914377 C45.2661164,46.3868999 46.9681104,48.4534955 49.2583325,49.0484293 L49.2583325,49.2374358 C49.2583325,49.9719412 49.8531104,50.5681225 50.5890193,50.5681225 C51.3249281,50.5681225 51.919706,49.9719412 51.919706,49.2374358 L51.919706,49.0484293 C54.2099281,48.4536515 55.9119221,46.3868999 55.9119221,43.914377 C55.9119221,40.9786947 53.5245456,38.5914742 50.5890193,38.5914742 C49.1212561,38.5914742 47.9274899,37.397864 47.9274899,35.9299448 C47.9274899,34.4621816 49.1211001,33.2684155 50.5890193,33.2684155 C52.0567824,33.2684155 53.2505486,34.4620257 53.2505486,35.9299448 C53.2505486,36.6644502 53.8453264,37.2606316 54.5812353,37.2606316 C55.3171442,37.2606316 55.9119221,36.6644502 55.9119221,35.9299448 C55.9119221,33.4574219 54.2099281,31.3908263 51.919706,30.7958926 L51.919706,30.6068861 C51.919706,29.8723807 51.3249281,29.2761994 50.5890193,29.2761994 C49.8531104,29.2761994 49.2583325,29.8723807 49.2583325,30.6068861 L49.2583325,30.7958926 C46.9681104,31.3906704 45.2661164,33.4574219 45.2661164,35.9299448 C45.2661164,38.8656272 47.6534929,41.2528476 50.5890193,41.2528476 C52.0567824,41.2528476 53.2505486,42.4464579 53.2505486,43.914377 C53.2505486,45.3821402 52.0567824,46.5759064 50.5890193,46.5759064 L50.5890193,46.5759064 Z" id="Shape" fill="#31BBA5"></path>
                        <path d="M46.6367253,61.2139281 L46.6234699,61.2139281 C45.8889645,61.2139281 45.2993329,61.8101094 45.2993329,62.5446148 C45.2993329,63.2791202 45.9022199,63.8753015 46.6367253,63.8753015 C47.3712307,63.8753015 47.967412,63.2791202 47.967412,62.5446148 C47.967412,61.8101094 47.3713866,61.2139281 46.6367253,61.2139281 L46.6367253,61.2139281 Z" id="Shape" fill="#000000"></path>
                        <path d="M62.6055897,63.8754575 C63.3400951,63.8754575 63.9362764,63.2792762 63.9362764,62.5447708 C63.9362764,61.8102654 63.3400951,61.2140841 62.6055897,61.2140841 L62.5923343,61.2140841 C61.8578289,61.2140841 61.2681973,61.8102654 61.2681973,62.5447708 C61.2681973,63.2792762 61.8710843,63.8754575 62.6055897,63.8754575 L62.6055897,63.8754575 Z" id="Shape" fill="#000000"></path>
                        <path d="M54.6211575,61.2139281 L54.6079021,61.2139281 C53.8733967,61.2139281 53.2837651,61.8101094 53.2837651,62.5446148 C53.2837651,63.2791202 53.8866521,63.8753015 54.6211575,63.8753015 C55.3556629,63.8753015 55.9518442,63.2791202 55.9518442,62.5446148 C55.9518442,61.8101094 55.3558188,61.2139281 54.6211575,61.2139281 L54.6211575,61.2139281 Z" id="Shape" fill="#000000"></path>
                        <path d="M49.2583325,15.9688644 L54.5812353,15.9688644 C55.3171442,15.9688644 55.9119221,15.372683 55.9119221,14.6381777 C55.9119221,13.9036723 55.3171442,13.3074909 54.5812353,13.3074909 L49.2583325,13.3074909 C48.5224236,13.3074909 47.9276458,13.9036723 47.9276458,14.6381777 C47.9274899,15.372683 48.5224236,15.9688644 49.2583325,15.9688644 L49.2583325,15.9688644 Z" id="Shape" fill="#000000"></path>
                        <path d="M30.6678609,61.2139281 L30.6546055,61.2139281 C29.9201002,61.2139281 29.3304686,61.8101094 29.3304686,62.5446148 C29.3304686,63.2791202 29.9333556,63.8753015 30.6678609,63.8753015 C31.4023663,63.8753015 31.9985477,63.2791202 31.9985477,62.5446148 C31.9985477,61.8101094 31.4023663,61.2139281 30.6678609,61.2139281 L30.6678609,61.2139281 Z" id="Shape" fill="#000000"></path>
                        <path d="M14.6590744,45.2450637 L17.3206038,45.2450637 C18.0565127,45.2450637 18.6512905,44.6488824 18.6512905,43.914377 C18.6512905,43.1798716 18.0565127,42.5836903 17.3206038,42.5836903 L14.6590744,42.5836903 C13.9231655,42.5836903 13.3283877,43.1798716 13.3283877,43.914377 C13.3283877,44.6488824 13.9231655,45.2450637 14.6590744,45.2450637 L14.6590744,45.2450637 Z" id="Shape" fill="#000000"></path>
                        <path d="M14.6590744,53.2294959 L17.3206038,53.2294959 C18.0565127,53.2294959 18.6512905,52.6333146 18.6512905,51.8988092 C18.6512905,51.1643038 18.0565127,50.5681225 17.3206038,50.5681225 L14.6590744,50.5681225 C13.9231655,50.5681225 13.3283877,51.1643038 13.3283877,51.8988092 C13.3283877,52.6333146 13.9231655,53.2294959 14.6590744,53.2294959 L14.6590744,53.2294959 Z" id="Shape" fill="#000000"></path>
                        <path d="M67.8885703,0 L1.35173942,0 C0.615830522,0 0.0210527021,0.596181333 0.0210527021,1.33068672 L0.0210527021,78.5134792 C0.0210527021,79.0510249 0.344484584,79.5367965 0.842108082,79.7431129 C1.00709889,79.8109494 1.18004294,79.8441659 1.35173942,79.8441659 C1.69778346,79.8441659 2.0383694,79.7084929 2.29256128,79.4543011 L9.3361716,72.4106907 L16.3797819,79.4543011 C16.9001735,79.9746927 17.74119,79.9746927 18.2614257,79.4543011 L22.6435066,75.0722201 L27.0255875,79.4543011 C27.5459792,79.9746927 28.3869956,79.9746927 28.9072313,79.4543011 L33.2893122,75.0722201 L35.0100197,76.7929276 C35.5304113,77.3131633 36.3714278,77.3131633 36.8916635,76.7929276 L41.2737444,72.4108467 L45.6558253,76.7929276 C46.176217,77.3131633 47.0172334,77.3131633 47.5374691,76.7929276 L50.5888633,73.7415334 L53.6402575,76.7929276 C54.1606491,77.3131633 55.0016656,77.3131633 55.5219013,76.7929276 L62.5655116,69.7493173 L66.9475925,74.1313983 C66.9742593,74.1593126 67.0021736,74.1845758 67.0314914,74.2085915 C67.0314914,74.209995 67.032739,74.209995 67.032739,74.209995 L67.032739,74.2113985 C67.2509074,74.3936993 67.5277114,74.5067601 67.8299347,74.5201715 C67.8792136,74.521575 67.9283366,74.521575 67.9802666,74.518768 L67.9816701,74.518768 C68.2505209,74.4988069 68.4980071,74.4016526 68.6988654,74.2460185 C68.7707565,74.1914374 68.8359419,74.1289031 68.8944217,74.0610666 C69.095436,73.8282393 69.2178535,73.5261721 69.2191011,73.1933834 L69.2191011,73.1907323 L69.2191011,1.33068672 C69.219413,0.596181333 68.6244792,0 67.8885703,0 L67.8885703,0 Z M66.5578836,69.9782459 L63.5064894,66.9268517 C62.9860978,66.4066161 62.1450813,66.4066161 61.6248457,66.9268517 L54.5812353,73.970462 L51.5298411,70.9190678 C51.0096055,70.3986762 50.168433,70.3986762 49.6481974,70.9190678 L46.5968032,73.970462 L42.2147222,69.5883811 C41.6944866,69.0679895 40.8533141,69.0679895 40.3330785,69.5883811 L35.9509975,73.970462 L34.23029,72.2497545 C33.7098984,71.7293629 32.868882,71.7293629 32.3486463,72.2497545 L27.9665654,76.6318355 L23.5844844,72.2497545 C23.3249904,71.9902605 22.9842485,71.8598897 22.6436625,71.8598897 C22.3029207,71.8598897 21.9623347,71.9902605 21.7028407,72.2497545 L17.3207597,76.6318355 L10.2771494,69.5882252 C9.75675781,69.0678335 8.91574135,69.0678335 8.39550569,69.5882252 L2.68258208,75.3011488 L2.68258208,2.66152938 L66.5580396,2.66152938 L66.5580396,69.9782459 L66.5578836,69.9782459 Z" id="Shape" fill="#000000"></path>
                        <path d="M6.71456439,63.8754575 C7.44906977,63.8754575 8.0452511,63.2792762 8.0452511,62.5447708 C8.0452511,61.8102654 7.44906977,61.2140841 6.71456439,61.2140841 L6.70130898,61.2140841 C5.9668036,61.2140841 5.377172,61.8102654 5.377172,62.5447708 C5.377172,63.2792762 5.980059,63.8754575 6.71456439,63.8754575 L6.71456439,63.8754575 Z" id="Shape" fill="#000000"></path>
                        <path d="M14.6590744,37.2606316 L17.3206038,37.2606316 C18.0565127,37.2606316 18.6512905,36.6644502 18.6512905,35.9299448 C18.6512905,35.1954395 18.0565127,34.5992581 17.3206038,34.5992581 L14.6590744,34.5992581 C13.9231655,34.5992581 13.3283877,35.1954395 13.3283877,35.9299448 C13.3283877,36.6644502 13.9231655,37.2606316 14.6590744,37.2606316 L14.6590744,37.2606316 Z" id="Shape" fill="#000000"></path>
                        <path d="M38.6522931,63.8754575 C39.3867985,63.8754575 39.9829798,63.2792762 39.9829798,62.5447708 C39.9829798,61.8102654 39.3867985,61.2140841 38.6522931,61.2140841 L38.6390377,61.2140841 C37.9045323,61.2140841 37.3149007,61.8102654 37.3149007,62.5447708 C37.3149007,63.2792762 37.9177877,63.8754575 38.6522931,63.8754575 L38.6522931,63.8754575 Z" id="Shape" fill="#000000"></path>
                        <path d="M22.6435066,29.2761994 L30.6279388,29.2761994 C31.3638477,29.2761994 31.9586255,28.680018 31.9586255,27.9455127 C31.9586255,27.2110073 31.3638477,26.6148259 30.6279388,26.6148259 L22.6435066,26.6148259 C21.9075977,26.6148259 21.3128199,27.2110073 21.3128199,27.9455127 C21.3128199,28.680018 21.9075977,29.2761994 22.6435066,29.2761994 L22.6435066,29.2761994 Z" id="Shape" fill="#000000"></path>
                        <path d="M14.6590744,29.2761994 L17.3206038,29.2761994 C18.0565127,29.2761994 18.6512905,28.680018 18.6512905,27.9455127 C18.6512905,27.2110073 18.0565127,26.6148259 17.3206038,26.6148259 L14.6590744,26.6148259 C13.9231655,26.6148259 13.3283877,27.2110073 13.3283877,27.9455127 C13.3283877,28.680018 13.9231655,29.2761994 14.6590744,29.2761994 L14.6590744,29.2761994 Z" id="Shape" fill="#000000"></path>
                        <path d="M35.9508416,34.5992581 L22.6435066,34.5992581 C21.9075977,34.5992581 21.3128199,35.1954395 21.3128199,35.9299448 C21.3128199,36.6644502 21.9075977,37.2606316 22.6435066,37.2606316 L35.9508416,37.2606316 C36.6867505,37.2606316 37.2815283,36.6644502 37.2815283,35.9299448 C37.2815283,35.1954395 36.6867505,34.5992581 35.9508416,34.5992581 L35.9508416,34.5992581 Z" id="Shape" fill="#000000"></path>
                        <path d="M14.6590744,15.9688644 L35.9508416,15.9688644 C36.6867505,15.9688644 37.2815283,15.372683 37.2815283,14.6381777 C37.2815283,13.9036723 36.6867505,13.3074909 35.9508416,13.3074909 L14.6590744,13.3074909 C13.9231655,13.3074909 13.3283877,13.9036723 13.3283877,14.6381777 C13.3283877,15.372683 13.9231655,15.9688644 14.6590744,15.9688644 L14.6590744,15.9688644 Z" id="Shape" fill="#000000"></path>
                    </g>
                </g>
            </g>
        </g>
    </g>
</svg>