<?xml version="1.0" encoding="UTF-8"?>
<svg width="80px" height="80px" viewBox="0 0 80 80" version="1.1" xmlns="http://www.w3.org/2000/svg" xmlns:xlink="http://www.w3.org/1999/xlink">
    <!-- Generator: Sketch 3.8.1 (29687) - http://www.bohemiancoding.com/sketch -->
    <title>icon_menu_chat</title>
    <desc>Created with Sketch.</desc>
    <defs></defs>
    <g id="Page-2" stroke="none" stroke-width="1" fill="none" fill-rule="evenodd">
        <g id="icon_menu_chat">
            <g id="004-chat">
                <g id="Layer_1">
                    <path d="M60.8128514,79.9974297 L63.0605622,73.253012 L30.8035341,73.253012 C28.0790361,73.253012 25.8621687,71.0361446 25.8621687,68.3116466 L25.8621687,51.4056225 L28.4324498,51.4056225 L28.4324498,68.3116466 C28.4324498,69.6199197 29.495261,70.6827309 30.8035341,70.6827309 L66.6281124,70.6827309 L65.4496386,74.2194378 L71.3432932,70.6827309 L74.897992,70.6827309 C76.2049799,70.6827309 77.2677912,69.6199197 77.2677912,68.3116466 L77.2677912,47.351004 C77.2677912,46.0427309 76.2049799,44.9799197 74.8967068,44.9799197 L47.7095582,44.9799197 L47.7095582,42.4096386 L74.8967068,42.4096386 C77.6212048,42.4096386 79.8380723,44.626506 79.8380723,47.351004 L79.8380723,68.3129317 C79.8380723,71.0361446 77.6212048,73.253012 74.8967068,73.253012 L72.055261,73.253012 L60.8128514,79.9974297 L60.8128514,79.9974297 Z" id="Shape" fill="#333333"></path>
                    <path d="M29.7175904,29.5582329 L48.9946988,29.5582329 L48.9946988,47.7493976 C48.9946988,50.4738956 46.7778313,52.6907631 44.0533333,52.6907631 L42.568996,52.6907631 L45.1392771,59.1164659 L33.573012,52.6907631 L5.10072289,52.6907631 C2.3762249,52.6907631 0.15935743,50.4738956 0.15935743,47.7493976 L0.15935743,26.788755 C0.15935743,24.064257 2.3762249,21.8473896 5.10072289,21.8473896 L27.1473092,21.8473896 L27.1473092,26.9879518 L29.7175904,29.5582329 L29.7175904,29.5582329 Z" id="Shape" fill="#31BBA5"></path>
                    <g id="Group" transform="translate(6.425703, 0.000000)" fill="#333333">
                        <path d="M54.3871486,37.5877912 L56.6348594,30.8433735 L24.3778313,30.8433735 C21.6533333,30.8433735 19.4364659,28.626506 19.4364659,25.902008 L19.4364659,4.94136546 C19.4364659,2.21686747 21.6533333,0 24.3778313,0 L68.4722892,0 C71.195502,0 73.4123695,2.21686747 73.4123695,4.94136546 L73.4123695,25.9032932 C73.4123695,28.626506 71.195502,30.8433735 68.471004,30.8433735 L65.6295582,30.8433735 L54.3871486,37.5877912 L54.3871486,37.5877912 Z M24.3778313,2.57028112 C23.0695582,2.57028112 22.006747,3.63309237 22.006747,4.94136546 L22.006747,25.9032932 C22.006747,27.2102811 23.0695582,28.2730924 24.3778313,28.2730924 L60.2024096,28.2730924 L59.0239357,31.8097992 L64.9175904,28.2730924 L68.4722892,28.2730924 C69.7792771,28.2730924 70.8420884,27.2102811 70.8420884,25.902008 L70.8420884,4.94136546 C70.8420884,3.63309237 69.7792771,2.57028112 68.471004,2.57028112 L24.3778313,2.57028112 L24.3778313,2.57028112 Z" id="Shape"></path>
                        <rect id="Rectangle-path" x="25.8621687" y="7.71084337" width="41.124498" height="2.57028112"></rect>
                        <rect id="Rectangle-path" x="25.8621687" y="14.1365462" width="41.124498" height="2.57028112"></rect>
                        <rect id="Rectangle-path" x="25.8621687" y="20.562249" width="34.6987952" height="2.57028112"></rect>
                        <rect id="Rectangle-path" x="64.4163855" y="20.562249" width="2.57028112" height="2.57028112"></rect>
                        <rect id="Rectangle-path" x="0.15935743" y="29.5582329" width="16.7068273" height="2.57028112"></rect>
                        <rect id="Rectangle-path" x="0.15935743" y="35.9839357" width="35.9839357" height="2.57028112"></rect>
                        <rect id="Rectangle-path" x="0.15935743" y="42.4096386" width="29.5582329" height="2.57028112"></rect>
                        <rect id="Rectangle-path" x="33.573012" y="42.4096386" width="2.57028112" height="2.57028112"></rect>
                        <rect id="Rectangle-path" x="46.4244177" y="50.1204819" width="20.562249" height="2.57028112"></rect>
                        <rect id="Rectangle-path" x="42.568996" y="56.5461847" width="24.4176707" height="2.57028112"></rect>
                        <rect id="Rectangle-path" x="25.8621687" y="62.9718876" width="34.6987952" height="2.57028112"></rect>
                        <rect id="Rectangle-path" x="64.4163855" y="62.9718876" width="2.57028112" height="2.57028112"></rect>
                    </g>
                </g>
            </g>
        </g>
    </g>
</svg>