<?xml version="1.0" encoding="UTF-8"?>
<svg width="80px" height="80px" viewBox="0 0 80 80" version="1.1" xmlns="http://www.w3.org/2000/svg" xmlns:xlink="http://www.w3.org/1999/xlink">
    <!-- Generator: Sketch 3.8.1 (29687) - http://www.bohemiancoding.com/sketch -->
    <title>icon_menu_issue</title>
    <desc>Created with Sketch.</desc>
    <defs></defs>
    <g id="Page-2" stroke="none" stroke-width="1" fill="none" fill-rule="evenodd">
        <g id="icon_menu_issue">
            <g id="014-settings" transform="translate(1.000000, 0.000000)">
                <g id="Layer_1">
                    <g id="Group">
                        <path d="M73.136875,51.4284375 C68.8729687,47.165 62.7303125,45.5428125 56.9435938,47.1032813 L53.6175,43.7770313 C53.6128125,43.7721875 53.6078125,43.7671875 53.6029688,43.7623438 L32.5457812,22.7046875 C33.219375,20.9020313 33.5884375,18.9517188 33.5884375,16.9171875 C33.5884375,16.83 33.579375,16.745 33.5626562,16.6628125 C33.5534375,14.349375 33.0679687,12.0384375 32.1057812,9.8884375 C31.8229687,9.2559375 31.080625,8.9728125 30.4484375,9.2559375 C29.81625,9.53875 29.5326562,10.2809375 29.8157812,10.9132813 C31.4510937,14.5679688 31.4679687,18.7701563 29.861875,22.4417188 C29.8039062,22.5742188 29.7728125,22.7129688 29.7625,22.8520313 C28.153125,26.2979688 25.1889062,28.9864063 21.5582812,30.2317188 C21.4251562,30.2298438 21.2907812,30.2465625 21.1598437,30.2884375 C16.058125,31.914375 10.5410937,30.5771875 6.76171875,26.7976563 C4.175,24.2110938 2.70453125,20.7251563 2.60203125,17.1189063 L8.28359375,22.8007813 C8.57078125,23.0878125 8.97796875,23.218125 9.37875,23.1510938 L18.8182812,21.56375 C19.3507812,21.4740625 19.7660937,21.05375 19.8495312,20.5203125 L21.3042187,11.2135938 C21.3660937,10.8178125 21.2351562,10.4160938 20.9520312,10.1328125 L13.678125,2.85875 C18.3973437,1.790625 23.4096875,3.1915625 26.8882812,6.67078125 C27.26125,7.04359375 27.6160937,7.43953125 27.9434375,7.8478125 C28.3767187,8.38859375 29.16625,8.47609375 29.7067188,8.04234375 C30.2473438,7.60921875 30.3345312,6.81953125 29.90125,6.2790625 C29.5167187,5.79921875 29.1,5.33421875 28.6626563,4.89671875 C24.0089062,0.24265625 17.023125,-1.2496875 10.8653125,1.09390625 C10.4678125,1.2453125 10.1739062,1.5878125 10.0848437,2.00375 C9.99578125,2.41953125 10.1235937,2.8525 10.424375,3.15328125 L18.7270312,11.4557813 L17.5104687,19.2390625 L9.600625,20.5692188 L2.42234375,13.3907813 C2.08875,13.0571875 1.59671875,12.9389063 1.1484375,13.084375 C0.69984375,13.2296875 0.3709375,13.6142188 0.29640625,14.0796875 C-0.5490625,19.3709375 1.2046875,24.7882813 4.98765625,28.5715625 C8.17546875,31.7592188 12.413125,33.4695313 16.768125,33.4779688 C16.8446875,33.4925 16.9234375,33.5009375 17.0040625,33.5009375 C18.4664062,33.5009375 19.885,33.3096875 21.2365625,32.9528125 L24.5142187,36.2303125 C24.5175,36.2335938 24.5207812,36.2370313 24.5242187,36.2403125 L45.5878125,57.3042188 C45.37,57.8848438 45.1820312,58.4792188 45.0301562,59.0876563 C44.9990625,59.2126563 44.9878125,59.3376563 44.994375,59.46 C44.0885937,63.3104688 44.571875,67.3670313 46.4226563,70.9504688 C46.645625,71.3820313 47.0840625,71.6295313 47.5382813,71.6295313 C47.7321875,71.6295313 47.9289062,71.584375 48.1129688,71.489375 C48.7285937,71.1714063 48.9698437,70.4145313 48.6520312,69.7992188 C46.7046875,66.0290625 46.5590625,61.453125 48.2628125,57.5584375 C48.3173437,57.4339063 48.3489062,57.3039063 48.3610938,57.1732813 C49.9803125,53.7104688 52.9760938,50.9979688 56.6509375,49.7676563 C56.7557813,49.7621875 56.8610938,49.7446875 56.9640625,49.7120313 C62.0659375,48.0853125 67.5834375,49.423125 71.363125,53.2028125 C73.9496875,55.7895313 75.4201563,59.275 75.5226562,62.8809375 L69.8414063,57.199375 C69.554375,56.9125 69.14625,56.7826563 68.7464063,56.849375 L59.3065625,58.4365625 C58.7739063,58.5260938 58.3585937,58.9465625 58.275,59.48 L56.8203125,68.786875 C56.7584375,69.1826563 56.889375,69.584375 57.1726563,69.8676563 L64.4460938,77.1410938 C59.7276563,78.2089063 54.715,76.8073438 51.2360938,73.3290625 C51.1004688,73.1934375 50.9640625,73.0517188 50.8315625,72.9079688 C50.3617188,72.3992188 49.5682813,72.3673438 49.05875,72.836875 C48.5496875,73.306875 48.5179688,74.1004688 48.9876563,74.6096875 C49.1429688,74.7779688 49.3026563,74.9440625 49.4620313,75.1034375 C52.6545313,78.2954688 56.9432813,80 61.31,80 C63.3090625,80 65.325625,79.6421875 67.2589063,78.9065625 C67.6567188,78.7553125 67.9504687,78.4128125 68.0395312,77.996875 C68.1285938,77.5809375 68.0007813,77.1479688 67.7,76.8471875 L59.3973437,68.5445313 L60.6135937,60.7609375 L68.52375,59.4309375 L75.701875,66.6092188 C76.0353125,66.9423438 76.5273438,67.060625 76.9757813,66.9154688 C77.424375,66.7701563 77.7534375,66.385625 77.8278125,65.9201563 C78.6735938,60.6289063 76.92,55.2117188 73.136875,51.4284375 L73.136875,51.4284375 Z M46.7234375,54.8914062 L26.2953125,34.4629687 C26.2951563,34.4629687 26.2951563,34.4628125 26.295,34.4628125 C26.2940625,34.461875 26.293125,34.4609375 26.2921875,34.46 L23.8521875,32.0201562 C27.0375,30.5701562 29.6865625,28.1415625 31.413125,25.1204687 L51.82125,45.5285937 C51.8251562,45.5325 51.8289063,45.5364062 51.8328125,45.5403125 L54.2942187,48.0020312 C51.1023438,49.4478125 48.451875,51.8779687 46.7234375,54.8914062 L46.7234375,54.8914062 Z" id="Shape" fill="#000000"></path>
                        <path d="M30.6796875,32.7453125 C30.1926562,32.2523438 29.3982812,32.2482813 28.9057812,32.7351563 C28.4129687,33.2221875 28.4082812,34.0165625 28.8954687,34.5090625 L44.4114062,50.2048438 C44.6567187,50.453125 44.9801562,50.5775 45.3035937,50.5775 C45.6221875,50.5775 45.9407812,50.4567188 46.1853125,50.2151563 C46.678125,49.728125 46.6828125,48.93375 46.1954687,48.44125 L30.6796875,32.7453125 L30.6796875,32.7453125 Z" id="Shape" fill="#000000"></path>
                        <path d="M33.6471875,29.775 C33.1590625,29.283125 32.3648438,29.2798437 31.8732813,29.7676562 C31.3814063,30.2554687 31.3779688,31.0498437 31.8659375,31.5415625 L47.494375,47.2985937 C47.7396875,47.5459375 48.0623438,47.6696875 48.385,47.6696875 C48.704375,47.6696875 49.02375,47.5484375 49.2682813,47.3059375 C49.7601563,46.818125 49.7635938,46.02375 49.275625,45.531875 L33.6471875,29.775 L33.6471875,29.775 Z" id="Shape" fill="#000000"></path>
                        <path d="M27.3989063,48.550625 C27.1748438,48.1626562 26.7607813,47.9234375 26.3125,47.9234375 L12.7935938,47.9234375 C12.3453125,47.9234375 11.9314063,48.1626562 11.7071875,48.550625 L4.9471875,60.25875 C4.723125,60.646875 4.723125,61.1251562 4.9471875,61.5132812 L11.7071875,73.2210937 C11.93125,73.6090625 12.3453125,73.8482812 12.7935938,73.8482812 L26.3125,73.8482812 C26.7607813,73.8482812 27.1746875,73.6090625 27.3989063,73.2210937 L34.15875,61.5132812 C34.3828125,61.1251562 34.3828125,60.646875 34.15875,60.25875 L27.3989063,48.550625 L27.3989063,48.550625 Z M25.5882813,71.339375 L13.5178125,71.339375 L7.48203125,60.8859375 L13.5178125,50.4321875 L25.5882813,50.4321875 L31.6239063,60.8859375 L25.5882813,71.339375 L25.5882813,71.339375 Z" id="Shape" fill="#31BBA5"></path>
                        <path d="M19.5528125,53.7717187 C15.63,53.7717187 12.4385937,56.9629687 12.4385937,60.8857812 C12.4385937,62.0665625 12.7346875,63.2365625 13.294375,64.2695312 C13.6245312,64.8789062 14.3859375,65.1048437 14.9951562,64.7746875 C15.604375,64.4445312 15.8303125,63.683125 15.5003125,63.0740625 C15.1389062,62.4071875 14.9476562,61.6504687 14.9476562,60.8859375 C14.9476562,58.3465625 17.01375,56.2807812 19.5532812,56.2807812 C22.0928125,56.2807812 24.1585937,58.3467187 24.1585937,60.8859375 C24.1585937,62.51375 23.2840625,64.0371875 21.8721875,64.8640625 L21.8115625,64.8989062 C21.7109375,64.955625 21.6279687,64.9995312 21.5504687,65.036875 C21.5482812,65.038125 21.5457812,65.039375 21.5429687,65.040625 C21.4664062,65.0771875 21.3815625,65.1139062 21.2784375,65.155625 L21.2067187,65.1840625 C21.0945312,65.2270312 21.0053125,65.2584375 20.9257812,65.2832812 C20.9214062,65.2848437 20.9170312,65.2860937 20.9128125,65.2873437 C20.8339062,65.3117187 20.74375,65.3357812 20.6314062,65.3628125 L20.5570312,65.38 C20.3579687,65.4242187 20.153125,65.4554687 19.9482812,65.4728125 L19.8701562,65.4789062 C19.6217187,65.4957812 19.4835938,65.4957812 19.2385937,65.4789062 L19.1592187,65.4728125 C18.9535937,65.455625 18.7485937,65.4240625 18.5490625,65.3798437 L18.4765625,65.363125 C18.3629687,65.3359375 18.2726562,65.3115625 18.1939062,65.2873437 C18.1895312,65.2859375 18.1851562,65.2846875 18.1809375,65.2832812 C18.1015625,65.25875 18.0121875,65.2270312 17.9034375,65.1854687 L17.8282812,65.155625 C17.1854687,64.8973437 16.4546875,65.2084375 16.19625,65.85125 C15.9376562,66.4942187 16.2490625,67.2248437 16.891875,67.4832812 L17.0010937,67.5264062 C17.1609375,67.5878125 17.29625,67.6354687 17.4257812,67.6760937 C17.4307812,67.6776562 17.4357812,67.6792187 17.4407813,67.6807812 C17.575,67.7221875 17.7171875,67.7609375 17.8904687,67.8026562 C17.92875,67.811875 17.9670312,67.820625 18.0051562,67.8289062 C18.3132812,67.8973437 18.63,67.945625 18.9478125,67.9725 C18.986875,67.9757812 19.0257812,67.97875 19.0670312,67.9815625 C19.2490625,67.9939062 19.4035937,67.9996875 19.5532812,67.9996875 C19.7028125,67.9996875 19.8571875,67.9940625 20.0414062,67.9815625 C20.0804687,67.97875 20.119375,67.9759375 20.159375,67.9725 C20.4764062,67.945625 20.793125,67.8971875 21.1004687,67.8290625 C21.1390625,67.8204687 21.1775,67.811875 21.2171875,67.8023437 C21.3889062,67.7609375 21.5314062,67.7221875 21.665625,67.680625 C21.670625,67.6789062 21.675625,67.6773437 21.680625,67.6759375 C21.8101562,67.6354687 21.945625,67.5878125 22.10875,67.525 L22.2165625,67.4823437 C22.3726562,67.4192187 22.5092187,67.3595312 22.634375,67.299375 C22.6376562,67.2976562 22.6425,67.2954687 22.646875,67.2932812 C22.7704687,67.2334375 22.9007813,67.1646875 23.0482812,67.08125 C23.0814062,67.0625 23.1145312,67.0434375 23.1435938,67.0264062 C25.3171875,65.7534375 26.6671875,63.4003125 26.6671875,60.885625 C26.6673437,56.963125 23.4757812,53.7717187 19.5528125,53.7717187 L19.5528125,53.7717187 Z" id="Shape" fill="#31BBA5"></path>
                        <path d="M50.73625,31.4057812 C50.9603125,31.79375 51.374375,32.0329687 51.8226562,32.0329687 L65.3415625,32.0329687 C65.7898437,32.0329687 66.20375,31.79375 66.4279687,31.4057812 L73.1878125,19.6979687 C73.411875,19.31 73.411875,18.8315625 73.1878125,18.4435937 L66.4279687,6.7353125 C66.2039062,6.34734375 65.7898437,6.108125 65.3415625,6.108125 L51.8226562,6.108125 C51.374375,6.108125 50.9604687,6.34734375 50.73625,6.7353125 L43.97625,18.4435937 C43.7521875,18.8315625 43.7521875,19.31 43.97625,19.6979687 L50.73625,31.4057812 L50.73625,31.4057812 Z M52.546875,8.616875 L64.6173437,8.616875 L70.6529687,19.070625 L64.6173437,29.5240625 L52.546875,29.5240625 L46.5110937,19.070625 L52.546875,8.616875 L52.546875,8.616875 Z" id="Shape" fill="#31BBA5"></path>
                        <path d="M54.0240625,22.9592187 C54.6332812,22.6290625 54.8592187,21.8676562 54.5292187,21.2585937 C54.1678125,20.5917187 53.9765625,19.835 53.9765625,19.0704687 C53.9765625,16.5310937 56.0426562,14.4653125 58.5821875,14.4653125 C61.1217187,14.4653125 63.1875,16.53125 63.1875,19.0704687 C63.1875,20.698125 62.3129687,22.2217187 60.9010937,23.0485937 L60.8404687,23.0834375 C60.7398437,23.1401562 60.656875,23.1840625 60.579375,23.2214062 C60.5771875,23.2226562 60.5746875,23.2239062 60.571875,23.2253125 C60.4953125,23.261875 60.4104687,23.2985937 60.3073437,23.3404687 L60.235625,23.3689062 C60.1234375,23.411875 60.0342187,23.4432812 59.9546875,23.468125 C59.9503125,23.4696875 59.9459375,23.4709375 59.9417187,23.4721875 C59.8628125,23.4964062 59.7726562,23.520625 59.6603125,23.5476562 L59.5859375,23.5646875 C59.3870312,23.6089062 59.1820312,23.6401562 58.9771875,23.6575 L58.8989062,23.6635937 C58.6514062,23.6801562 58.5126562,23.6803125 58.2675,23.6635937 L58.188125,23.6575 C57.9825,23.6401562 57.7775,23.60875 57.5779687,23.5645312 L57.5054687,23.5478125 C57.391875,23.520625 57.3015625,23.49625 57.2228125,23.4720312 C57.2184375,23.470625 57.2140625,23.469375 57.2098437,23.4679687 C57.1301562,23.4432812 57.0410937,23.4117187 56.9323437,23.3701562 L56.8571875,23.3403125 C56.2146875,23.081875 55.4835937,23.393125 55.2251562,24.0359375 C54.9665625,24.6789062 55.2779687,25.4095312 55.9207812,25.6679687 L56.03,25.7110937 C56.1898437,25.7725 56.3251562,25.8201562 56.4546875,25.8607812 C56.4596875,25.8623437 56.4646875,25.8639062 56.4696875,25.8654687 C56.6039062,25.906875 56.74625,25.945625 56.919375,25.9873437 C56.9575,25.9965625 56.9959375,26.0053125 57.0340625,26.0135937 C57.3421875,26.0820312 57.6589062,26.1303125 57.9767187,26.1571875 C58.0157812,26.1604687 58.0546875,26.1634375 58.0959375,26.16625 C58.2779687,26.1785937 58.4325,26.184375 58.5821875,26.184375 C58.731875,26.184375 58.88625,26.17875 59.0703125,26.16625 C59.109375,26.1634375 59.1482812,26.160625 59.1882812,26.1571875 C59.5053125,26.1303125 59.8220312,26.081875 60.128125,26.0140625 C60.1671875,26.0053125 60.2060937,25.9965625 60.24625,25.9870312 C60.4179687,25.9454687 60.5604687,25.906875 60.6946875,25.8654687 C60.6996875,25.86375 60.7046875,25.8621875 60.7096875,25.8607812 C60.8390625,25.8203125 60.9746875,25.7726562 61.1378125,25.7098437 L61.245625,25.6671875 C61.4017187,25.6040625 61.5382812,25.544375 61.6634375,25.4842187 C61.6670312,25.4825 61.6715625,25.4801562 61.6759375,25.478125 C61.7995312,25.4182812 61.9298437,25.3496875 62.0773437,25.2660937 C62.1104687,25.2473437 62.14375,25.2282812 62.1726562,25.21125 C64.34625,23.9382812 65.69625,21.5851562 65.69625,19.0704687 C65.69625,15.1476562 62.5045312,11.9564062 58.5817187,11.9564062 C54.6589062,11.9564062 51.4675,15.1476562 51.4675,19.0704687 C51.4675,20.2510937 51.7635937,21.42125 52.3232812,22.4542187 C52.6534375,23.0634375 53.4148437,23.289375 54.0240625,22.9592187 L54.0240625,22.9592187 Z" id="Shape" fill="#31BBA5"></path>
                    </g>
                </g>
            </g>
        </g>
    </g>
</svg>