<?xml version="1.0" encoding="UTF-8"?>
<svg width="80px" height="80px" viewBox="0 0 80 80" version="1.1" xmlns="http://www.w3.org/2000/svg" xmlns:xlink="http://www.w3.org/1999/xlink">
    <!-- Generator: Sketch 3.8.1 (29687) - http://www.bohemiancoding.com/sketch -->
    <title>icon_menu_finance</title>
    <desc>Created with Sketch.</desc>
    <defs></defs>
    <g id="Page-2" stroke="none" stroke-width="1" fill="none" fill-rule="evenodd">
        <g id="icon_menu_finance">
            <g id="015-coins">
                <g id="Layer_1">
                    <g id="Group" fill="#333333">
                        <circle id="Oval" cx="11.6129032" cy="65.8064516" r="1.29032258"></circle>
                        <path d="M74.5122581,19.8309677 L78.4567742,20.6193548 L78.963871,18.0890323 L71.4606452,16.5883871 L68.48,24.036129 L70.876129,24.9935484 L72.3677419,21.2632258 C75.6735484,26.9535484 77.4193548,33.3780645 77.4193548,40 C77.4193548,60.6322581 60.6322581,77.4193548 40,77.4193548 C31.4670968,77.4193548 23.116129,74.4645161 16.483871,69.0993548 L14.8606452,71.1058065 C21.9509677,76.8412903 30.8787097,80 40,80 C62.0567742,80 80,62.0567742 80,40 C80,32.8658065 78.1006452,25.9483871 74.5122581,19.8309677 L74.5122581,19.8309677 Z" id="Shape"></path>
                        <path d="M63.516129,10.9006452 L65.1393548,8.89419355 C58.0490323,3.15870968 49.1212903,0 40,0 C17.9432258,0 0,17.9432258 0,40 C0,47.1341935 1.89935484,54.0516129 5.48774194,60.1690323 L1.54322581,59.3806452 L1.03741935,61.9096774 L8.54064516,63.4103226 L11.5212903,55.9625806 L9.12516129,55.0051613 L7.63225806,58.7354839 C4.32645161,53.0464516 2.58064516,46.6219355 2.58064516,40 C2.58064516,19.3677419 19.3677419,2.58064516 40,2.58064516 C48.5329032,2.58064516 56.883871,5.53548387 63.516129,10.9006452 L63.516129,10.9006452 Z" id="Shape"></path>
                        <circle id="Oval" cx="68.3870968" cy="14.1935484" r="1.29032258"></circle>
                        <path d="M16.7741935,51.6129032 L18.0645161,51.6129032 L18.0645161,54.1935484 L15.483871,54.1935484 L15.483871,61.9354839 L49.0322581,61.9354839 L49.0322581,59.3548387 L38.7096774,59.3548387 L38.7096774,56.7741935 L41.2903226,56.7741935 L41.2903226,54.1935484 L36.1290323,54.1935484 L36.1290323,51.6129032 L38.7096774,51.6129032 L38.7096774,49.0322581 L34.8387097,49.0322581 L34.8387097,46.4516129 L37.4193548,46.4516129 L37.4193548,45.1612903 L37.4193548,43.8709677 L37.4193548,41.2903226 L38.7096774,41.2903226 L38.7096774,40 L38.7096774,38.7096774 L38.7096774,36.1290323 L41.2903226,36.1290323 L41.2903226,33.5483871 L40,33.5483871 L40,30.9677419 L42.5806452,30.9677419 L42.5806452,32.2580645 L45.1612903,32.2580645 L45.1612903,30.9677419 L47.7419355,30.9677419 L50.3225806,30.9677419 L50.3225806,28.3870968 L47.7419355,28.3870968 L47.7419355,25.8064516 L49.0322581,25.8064516 L49.0322581,18.0645161 L15.483871,18.0645161 L15.483871,23.2258065 L14.1935484,23.2258065 L14.1935484,30.9677419 L16.7741935,30.9677419 L16.7741935,33.5483871 L15.483871,33.5483871 L15.483871,38.7096774 L14.1935484,38.7096774 L14.1935484,46.4516129 L16.7741935,46.4516129 L16.7741935,51.6129032 L16.7741935,51.6129032 Z M25.8064516,56.7741935 L25.8064516,59.3548387 L23.2258065,59.3548387 L23.2258065,56.7741935 L25.8064516,56.7741935 L25.8064516,56.7741935 Z M28.3870968,56.7741935 L30.9677419,56.7741935 L30.9677419,59.3548387 L28.3870968,59.3548387 L28.3870968,56.7741935 L28.3870968,56.7741935 Z M25.8064516,54.1935484 L25.8064516,51.6129032 L28.3870968,51.6129032 L28.3870968,54.1935484 L25.8064516,54.1935484 L25.8064516,54.1935484 Z M24.516129,49.0322581 L24.516129,46.4516129 L27.0967742,46.4516129 L27.0967742,49.0322581 L24.516129,49.0322581 L24.516129,49.0322581 Z M27.0967742,43.8709677 L27.0967742,41.2903226 L29.6774194,41.2903226 L29.6774194,43.8709677 L27.0967742,43.8709677 L27.0967742,43.8709677 Z M28.3870968,38.7096774 L28.3870968,36.1290323 L30.9677419,36.1290323 L30.9677419,38.7096774 L28.3870968,38.7096774 L28.3870968,38.7096774 Z M29.6774194,33.5483871 L29.6774194,30.9677419 L32.2580645,30.9677419 L32.2580645,33.5483871 L29.6774194,33.5483871 L29.6774194,33.5483871 Z M29.6774194,25.8064516 L29.6774194,28.3870968 L27.0967742,28.3870968 L27.0967742,25.8064516 L29.6774194,25.8064516 L29.6774194,25.8064516 Z M34.8387097,25.8064516 L34.8387097,28.3870968 L32.2580645,28.3870968 L32.2580645,25.8064516 L34.8387097,25.8064516 L34.8387097,25.8064516 Z M37.4193548,25.8064516 L40,25.8064516 L40,28.3870968 L37.4193548,28.3870968 L37.4193548,25.8064516 L37.4193548,25.8064516 Z M38.7096774,23.2258065 L38.7096774,20.6451613 L41.2903226,20.6451613 L41.2903226,23.2258065 L38.7096774,23.2258065 L38.7096774,23.2258065 Z M36.1290323,23.2258065 L33.5483871,23.2258065 L33.5483871,20.6451613 L36.1290323,20.6451613 L36.1290323,23.2258065 L36.1290323,23.2258065 Z M30.9677419,23.2258065 L28.3870968,23.2258065 L28.3870968,20.6451613 L30.9677419,20.6451613 L30.9677419,23.2258065 L30.9677419,23.2258065 Z M25.8064516,23.2258065 L23.2258065,23.2258065 L23.2258065,20.6451613 L25.8064516,20.6451613 L25.8064516,23.2258065 L25.8064516,23.2258065 Z M24.516129,25.8064516 L24.516129,28.3870968 L21.9354839,28.3870968 L21.9354839,25.8064516 L24.516129,25.8064516 L24.516129,25.8064516 Z M27.0967742,30.9677419 L27.0967742,33.5483871 L24.516129,33.5483871 L24.516129,30.9677419 L27.0967742,30.9677419 L27.0967742,30.9677419 Z M25.8064516,36.1290323 L25.8064516,38.7096774 L23.2258065,38.7096774 L23.2258065,36.1290323 L25.8064516,36.1290323 L25.8064516,36.1290323 Z M24.516129,41.2903226 L24.516129,43.8709677 L21.9354839,43.8709677 L21.9354839,41.2903226 L24.516129,41.2903226 L24.516129,41.2903226 Z M21.9354839,46.4516129 L21.9354839,49.0322581 L19.3548387,49.0322581 L19.3548387,46.4516129 L21.9354839,46.4516129 L21.9354839,46.4516129 Z M20.6451613,51.6129032 L23.2258065,51.6129032 L23.2258065,54.1935484 L20.6451613,54.1935484 L20.6451613,51.6129032 L20.6451613,51.6129032 Z M18.0645161,56.7741935 L20.6451613,56.7741935 L20.6451613,59.3548387 L18.0645161,59.3548387 L18.0645161,56.7741935 L18.0645161,56.7741935 Z M36.1290323,59.3548387 L33.5483871,59.3548387 L33.5483871,56.7741935 L36.1290323,56.7741935 L36.1290323,59.3548387 L36.1290323,59.3548387 Z M33.5483871,54.1935484 L30.9677419,54.1935484 L30.9677419,51.6129032 L33.5483871,51.6129032 L33.5483871,54.1935484 L33.5483871,54.1935484 Z M32.2580645,49.0322581 L29.6774194,49.0322581 L29.6774194,46.4516129 L32.2580645,46.4516129 L32.2580645,49.0322581 L32.2580645,49.0322581 Z M34.8387097,43.8709677 L32.2580645,43.8709677 L32.2580645,41.2903226 L34.8387097,41.2903226 L34.8387097,43.8709677 L34.8387097,43.8709677 Z M36.1290323,38.7096774 L33.5483871,38.7096774 L33.5483871,36.1290323 L36.1290323,36.1290323 L36.1290323,38.7096774 L36.1290323,38.7096774 Z M37.4193548,33.5483871 L34.8387097,33.5483871 L34.8387097,30.9677419 L37.4193548,30.9677419 L37.4193548,33.5483871 L37.4193548,33.5483871 Z M45.1612903,28.3870968 L42.5806452,28.3870968 L42.5806452,25.8064516 L45.1612903,25.8064516 L45.1612903,28.3870968 L45.1612903,28.3870968 Z M46.4516129,23.2258065 L43.8709677,23.2258065 L43.8709677,20.6451613 L46.4516129,20.6451613 L46.4516129,23.2258065 L46.4516129,23.2258065 Z M18.0645161,20.6451613 L20.6451613,20.6451613 L20.6451613,23.2258065 L18.0645161,23.2258065 L18.0645161,20.6451613 L18.0645161,20.6451613 Z M16.7741935,25.8064516 L19.3548387,25.8064516 L19.3548387,28.3870968 L16.7741935,28.3870968 L16.7741935,25.8064516 L16.7741935,25.8064516 Z M19.3548387,30.9677419 L21.9354839,30.9677419 L21.9354839,33.5483871 L19.3548387,33.5483871 L19.3548387,30.9677419 L19.3548387,30.9677419 Z M18.0645161,36.1290323 L20.6451613,36.1290323 L20.6451613,38.7096774 L18.0645161,38.7096774 L18.0645161,36.1290323 L18.0645161,36.1290323 Z M16.7741935,41.2903226 L19.3548387,41.2903226 L19.3548387,43.8709677 L16.7741935,43.8709677 L16.7741935,41.2903226 L16.7741935,41.2903226 Z" id="Shape"></path>
                    </g>
                    <path d="M52.9032258,61.9354839 C43.6541935,61.9354839 36.1290323,54.4103226 36.1290323,45.1612903 C36.1290323,35.9122581 43.6541935,28.3870968 52.9032258,28.3870968 C62.1522581,28.3870968 69.6774194,35.9122581 69.6774194,45.1612903 C69.6774194,54.4103226 62.1522581,61.9354839 52.9032258,61.9354839 L52.9032258,61.9354839 Z" id="Shape" fill="#31BBA5"></path>
                    <path d="M61.9354839,41.2903226 L61.9354839,40.6451613 C61.9354839,37.443871 59.3303226,34.8387097 56.1290323,34.8387097 L54.1935484,34.8387097 L54.1935484,32.2580645 L51.6129032,32.2580645 L51.6129032,34.8387097 L49.6774194,34.8387097 C46.476129,34.8387097 43.8709677,37.443871 43.8709677,40.6451613 C43.8709677,43.8464516 46.476129,46.4516129 49.6774194,46.4516129 L56.1290323,46.4516129 C57.9083871,46.4516129 59.3548387,47.8980645 59.3548387,49.6774194 C59.3548387,51.4567742 57.9083871,52.9032258 56.1290323,52.9032258 L49.6774194,52.9032258 C47.8980645,52.9032258 46.4516129,51.4567742 46.4516129,49.6774194 L46.4516129,49.0322581 L43.8709677,49.0322581 L43.8709677,49.6774194 C43.8709677,52.8787097 46.476129,55.483871 49.6774194,55.483871 L51.6129032,55.483871 L51.6129032,58.0645161 L54.1935484,58.0645161 L54.1935484,55.483871 L56.1290323,55.483871 C59.3303226,55.483871 61.9354839,52.8787097 61.9354839,49.6774194 C61.9354839,46.476129 59.3303226,43.8709677 56.1290323,43.8709677 L49.6774194,43.8709677 C47.8980645,43.8709677 46.4516129,42.4245161 46.4516129,40.6451613 C46.4516129,38.8658065 47.8980645,37.4193548 49.6774194,37.4193548 L56.1290323,37.4193548 C57.9083871,37.4193548 59.3548387,38.8658065 59.3548387,40.6451613 L59.3548387,41.2903226 L61.9354839,41.2903226 L61.9354839,41.2903226 Z" id="Shape" fill="#333333"></path>
                </g>
            </g>
        </g>
    </g>
</svg>