<?xml version="1.0" encoding="UTF-8"?>
<svg width="80px" height="80px" viewBox="0 0 80 80" version="1.1" xmlns="http://www.w3.org/2000/svg" xmlns:xlink="http://www.w3.org/1999/xlink">
    <!-- Generator: Sketch 3.8.1 (29687) - http://www.bohemiancoding.com/sketch -->
    <title>icon_menu_announce</title>
    <desc>Created with Sketch.</desc>
    <defs></defs>
    <g id="Page-2" stroke="none" stroke-width="1" fill="none" fill-rule="evenodd">
        <g id="icon_menu_announce">
            <g id="megaphone" transform="translate(1.000000, 0.000000)">
                <g id="Layer_1">
                    <g id="Group">
                        <path d="M67.1994502,16.7667354 L67.1994502,16.7590378 L65.4699656,16.5797938 C64.9066667,9.82075601 63.4312027,0 59.4350515,0 C59.0226804,0 58.652921,0.117388316 58.28811,0.318350515 L48.5960137,3.55161512 C45.4053608,4.61608247 42.0882474,5.15463918 38.7235739,5.15463918 L25.9620619,5.15463918 C14.5935395,5.15463918 5.34350515,14.4046735 5.34350515,25.7731959 C5.34350515,35.0295533 11.4762887,42.8789003 19.8925086,45.4768385 L12.6092096,51.5463918 L0.189140893,51.5463918 L0.189140893,54.1237113 L13.542268,54.1237113 L21.1079038,47.8182818 L29.0782131,50.0953952 L31.7894158,53.4845361 C32.1490034,53.932921 32.3062543,54.4934708 32.2353265,55.0644674 C32.1619244,55.6340893 31.8705155,56.1380069 31.4105842,56.4819244 C30.5781443,57.1057045 29.395189,57.0204811 28.659244,56.2872852 L26.057457,53.6868729 L18.7134021,59.5617869 L20.3241237,61.5747079 L23.3847423,59.126323 L23.3847423,69.5876289 L14.6683162,69.5876289 L12.0909966,68.2988316 L0.189140893,68.2988316 L0.189140893,70.8761512 L11.4828866,70.8761512 L14.0602062,72.1649485 L23.3850172,72.1649485 L23.3850172,73.4537457 C23.3850172,77.0064605 26.2754639,79.8971821 29.8284536,79.8971821 C33.3814433,79.8971821 36.27189,77.0067354 36.27189,73.4537457 L36.27189,72.1649485 C38.403299,72.1649485 40.1380069,70.4305155 40.1380069,68.2988316 C40.1380069,67.3052921 39.7501031,66.4071478 39.132921,65.721512 C39.7514777,65.0358763 40.1380069,64.137732 40.1380069,63.1441924 C40.1380069,62.1506529 39.7501031,61.2525086 39.132921,60.5668729 C39.7514777,59.8812371 40.1380069,58.9830928 40.1380069,57.9895533 C40.1380069,56.9960137 39.7501031,56.0978694 39.132921,55.4122337 C39.7514777,54.7265979 40.1380069,53.8284536 40.1380069,52.8349141 C40.1380069,50.7035052 38.4035739,48.9687973 36.27189,48.9687973 L36.27189,46.3914777 L38.7230241,46.3914777 C42.0876976,46.3914777 45.4125086,46.9300344 48.6045361,47.9945017 L58.3043299,51.2277663 C58.6691409,51.4287285 59.0556701,51.5461168 59.4680412,51.5461168 C63.4641924,51.5461168 64.9074914,41.7253608 65.4705155,34.966323 L67.2,34.787079 L67.2,34.7793814 C69.7773196,34.633677 70.9382818,30.1877663 70.9382818,25.772921 C70.9382818,21.3580756 69.7767698,16.9124399 67.1994502,16.7667354 L67.1994502,16.7667354 Z M55.8564948,33.344055 C55.6967698,31.046323 55.6013746,28.5217869 55.6013746,25.7731959 C55.6013746,23.0246048 55.6967698,20.5000687 55.8564948,18.2023368 L64.4789003,19.0644674 C63.7006186,20.7989003 63.3333333,23.2898969 63.3333333,25.7731959 C63.3333333,28.2564948 63.7006186,30.7474914 64.4789003,32.4819244 L55.8564948,33.344055 L55.8564948,33.344055 Z M62.924811,16.3183505 L56.0742268,15.6327148 C56.8074227,8.17786942 58.2353265,3.67257732 59.1914777,2.73841924 L59.5213746,2.62900344 C60.3411684,3.15216495 62.1014433,7.06199313 62.924811,16.3183505 L62.924811,16.3183505 Z M32.9569759,58.5437801 C33.6052234,58.0580069 34.083299,57.4188316 34.4016495,56.7010309 L36.2716151,56.7010309 C36.9828179,56.7010309 37.5604124,57.2797251 37.5604124,57.9898282 C37.5604124,58.6999313 36.9830928,59.2786254 36.2716151,59.2786254 L31.4842612,59.2786254 C32.003299,59.1249485 32.5033677,58.8827491 32.9569759,58.5437801 L32.9569759,58.5437801 Z M37.5601375,63.1444674 C37.5601375,63.8545704 36.9828179,64.4332646 36.2713402,64.4332646 L31.116701,64.4332646 C30.4052234,64.4332646 29.8279038,63.8545704 29.8279038,63.1444674 C29.8279038,62.4343643 30.4052234,61.8556701 31.116701,61.8556701 L36.2713402,61.8556701 C36.9828179,61.8556701 37.5601375,62.4343643 37.5601375,63.1444674 L37.5601375,63.1444674 Z M33.6942955,73.4537457 C33.6942955,75.5851546 31.9598625,77.3198625 29.8281787,77.3198625 C27.6964948,77.3198625 25.9620619,75.5854296 25.9620619,73.4537457 L25.9620619,57.2346392 L26.8371134,58.1083162 C26.9814433,58.2540206 27.142543,58.3725086 27.302268,58.4948454 C27.4078351,59.2874227 27.7454296,60.0013746 28.2570447,60.5671478 C27.638488,61.2527835 27.2519588,62.1509278 27.2519588,63.1444674 C27.2519588,64.1380069 27.6398625,65.0361512 28.2570447,65.7217869 C27.638488,66.4074227 27.2519588,67.305567 27.2519588,68.2991065 C27.2519588,70.4305155 28.9863918,72.1652234 31.1180756,72.1652234 L33.6953952,72.1652234 L33.6953952,73.4537457 L33.6942955,73.4537457 L33.6942955,73.4537457 Z M36.2716151,69.5876289 L31.1169759,69.5876289 C30.4054983,69.5876289 29.8281787,69.0089347 29.8281787,68.2988316 C29.8281787,67.5887285 30.4054983,67.0100344 31.1169759,67.0100344 L36.2716151,67.0100344 C36.9828179,67.0100344 37.5604124,67.5887285 37.5604124,68.2988316 C37.5604124,69.0089347 36.9828179,69.5876289 36.2716151,69.5876289 L36.2716151,69.5876289 Z M37.5601375,52.835189 C37.5601375,53.5452921 36.9828179,54.1239863 36.2713402,54.1239863 L34.7598625,54.1239863 C34.6424742,53.3107904 34.3307216,52.5349828 33.8023368,51.8740893 L33.5406186,51.5466667 L36.2713402,51.5466667 C36.9828179,51.5463918 37.5601375,52.1250859 37.5601375,52.835189 L37.5601375,52.835189 Z M33.6942955,48.9690722 L31.4790378,48.9690722 L30.5781443,47.8427491 L25.4004124,46.3634364 C25.5884536,46.3686598 25.772921,46.3917526 25.9623368,46.3917526 L33.6942955,46.3917526 L33.6942955,48.9690722 L33.6942955,48.9690722 Z M38.7224742,43.814433 L25.9623368,43.814433 C16.0140206,43.814433 7.92109966,35.721512 7.92109966,25.7731959 C7.92109966,15.8248797 16.0137457,7.73195876 25.9623368,7.73195876 L38.7238488,7.73195876 C42.3656357,7.73195876 45.9634364,7.14831615 49.4196564,5.9961512 L55.7907904,3.87243986 C53.6813746,9.26405498 53.024055,19.1186254 53.024055,25.7731959 C53.024055,32.4277663 53.6813746,42.2823368 55.7907904,47.6739519 L49.4196564,45.5502405 C45.9634364,44.3980756 42.3656357,43.814433 38.7224742,43.814433 L38.7224742,43.814433 Z M59.5705842,48.9341581 L59.3283849,48.8530584 C58.3205498,48.067079 56.8296907,43.5411684 56.0758763,35.9123024 L62.9250859,35.2266667 C62.0923711,44.588866 60.3062543,48.4819244 59.5705842,48.9341581 L59.5705842,48.9341581 Z M67.1994502,32.099244 C66.7227491,31.4936082 65.9106529,29.3338832 65.9106529,25.7731959 C65.9106529,22.2125086 66.7224742,20.0527835 67.1994502,19.4471478 C67.6761512,20.0527835 68.4882474,22.2125086 68.4882474,25.7731959 C68.4882474,29.3338832 67.6761512,31.4936082 67.1994502,32.099244 L67.1994502,32.099244 Z" id="Shape" fill="#333333"></path>
                        <rect id="Rectangle-path" fill="#333333" x="73.6426117" y="24.4846735" width="3.86611684" height="2.57731959"></rect>
                        <rect id="Rectangle-path" fill="#333333" transform="translate(74.284641, 10.951353) rotate(-18.445820) translate(-74.284641, -10.951353) " x="72.2473028" y="9.6627252" width="4.07467664" height="2.57725634"></rect>
                        <rect id="Rectangle-path" fill="#333333" transform="translate(74.285329, 40.590313) rotate(-71.566863) translate(-74.285329, -40.590313) " x="72.9966597" y="38.5529103" width="2.5773378" height="4.07480542"></rect>
                        <rect id="Rectangle-path" fill="#31BBA5" x="33.6942955" y="5.15463918" width="5.15463918" height="41.2371134"></rect>
                    </g>
                </g>
            </g>
        </g>
    </g>
</svg>