<?xml version="1.0" encoding="UTF-8"?>
<svg width="80px" height="80px" viewBox="0 0 80 80" version="1.1" xmlns="http://www.w3.org/2000/svg" xmlns:xlink="http://www.w3.org/1999/xlink">
    <!-- Generator: Sketch 3.8.1 (29687) - http://www.bohemiancoding.com/sketch -->
    <title>icon_menu_post</title>
    <desc>Created with Sketch.</desc>
    <defs></defs>
    <g id="Page-2" stroke="none" stroke-width="1" fill="none" fill-rule="evenodd">
        <g id="icon_menu_post">
            <g id="019-mailbox" transform="translate(0.000000, 8.000000)">
                <g id="Layer_1">
                    <path d="M80,11.6129032 C80,5.20903226 74.7909677,0 68.3870968,0 L33.5483871,0 C29.4167742,0 25.5625806,2.22451613 23.4903226,5.80516129 L25.7225806,7.09806452 C27.3367742,4.31225806 30.3341935,2.58064516 33.5483871,2.58064516 C38.5277419,2.58064516 42.5806452,6.63354839 42.5806452,11.6129032 L42.5806452,33.5483871 L24.516129,33.5483871 L24.516129,29.6774194 L21.9354839,29.6774194 L21.9354839,36.1290323 L43.8709677,36.1290323 L45.1612903,36.1290323 L46.4516129,36.1290323 L46.4516129,64.516129 L56.7741935,64.516129 L56.7741935,36.1290323 L80,36.1290323 L80,11.6129032 L80,11.6129032 Z M54.1935484,61.9354839 L49.0322581,61.9354839 L49.0322581,36.1290323 L54.1935484,36.1290323 L54.1935484,61.9354839 L54.1935484,61.9354839 Z M77.4193548,33.5483871 L56.7741935,33.5483871 L46.4516129,33.5483871 L45.1612903,33.5483871 L45.1612903,11.6129032 C45.1612903,7.96645161 43.4683871,4.71096774 40.8322581,2.58064516 L68.3870968,2.58064516 C73.3664516,2.58064516 77.4193548,6.63354839 77.4193548,11.6129032 L77.4193548,33.5483871 L77.4193548,33.5483871 Z" id="Shape" fill="#333333"></path>
                    <rect id="Rectangle-path" fill="#31BBA5" x="0" y="5.16129032" width="38.7096774" height="25.8064516"></rect>
                    <polygon id="Shape" fill="#333333" points="23.2206452 17.3032258 33.9264516 28.0090323 35.7509677 26.1845161 25.5251613 15.9587097 35.4890323 10.1470968 34.1883871 7.91741935 19.3548387 16.5716129 4.52129032 7.91741935 3.22064516 10.1470968 13.1845161 15.9587097 2.95870968 26.1845161 4.78322581 28.0090323 15.4890323 17.3032258 19.3548387 19.5574194"></polygon>
                </g>
            </g>
        </g>
    </g>
</svg>