<?xml version="1.0" encoding="UTF-8"?>
<svg width="80px" height="80px" viewBox="0 0 80 80" version="1.1" xmlns="http://www.w3.org/2000/svg" xmlns:xlink="http://www.w3.org/1999/xlink">
    <!-- Generator: Sketch 3.8.1 (29687) - http://www.bohemiancoding.com/sketch -->
    <title>icon_menu_event</title>
    <desc>Created with Sketch.</desc>
    <defs></defs>
    <g id="Page-2" stroke="none" stroke-width="1" fill="none" fill-rule="evenodd">
        <g id="icon_menu_event">
            <g id="calendar" transform="translate(4.000000, 0.000000)">
                <g id="Capa_1">
                    <g id="Group">
                        <path d="M70.4280101,7.25440806 L64.9070025,7.25440806 L64.9070025,1.51133501 C64.9070025,0.676675063 64.230529,0 63.3956675,0 C62.560806,0 61.8843325,0.676675063 61.8843325,1.51133501 L61.8843325,7.25440806 L53.9367254,7.25440806 L53.9367254,1.51133501 C53.9367254,0.676675063 53.2602519,0 52.4253904,0 C51.590529,0 50.9140554,0.676675063 50.9140554,1.51133501 L50.9140554,7.25440806 L42.9664484,7.25440806 L42.9664484,1.51133501 C42.9664484,0.676675063 42.2899748,0 41.4551134,0 C40.6202519,0 39.9437783,0.676675063 39.9437783,1.51133501 L39.9437783,7.25440806 L31.9961713,7.25440806 L31.9961713,1.51133501 C31.9961713,0.676675063 31.3196977,0 30.4848363,0 C29.6499748,0 28.9735013,0.676675063 28.9735013,1.51133501 L28.9735013,7.25440806 L21.0258942,7.25440806 L21.0258942,1.51133501 C21.0258942,0.676675063 20.3494207,0 19.5145592,0 C18.6796977,0 18.0032242,0.676675063 18.0032242,1.51133501 L18.0032242,7.25440806 L10.0556171,7.25440806 L10.0556171,1.51133501 C10.0556171,0.676675063 9.37914358,0 8.54428212,0 C7.70942065,0 7.0329471,0.676675063 7.0329471,1.51133501 L7.0329471,7.25440806 L1.51153652,7.25440806 C0.676675063,7.25440806 0.000201511335,7.93108312 0.000201511335,8.76574307 L0.000201511335,73.2398992 C0.000201511335,74.0745592 0.676675063,74.7512343 1.51153652,74.7512343 L70.4280101,74.7512343 C71.2628715,74.7512343 71.9393451,74.0745592 71.9393451,73.2398992 L71.9393451,8.76574307 C71.9393451,7.93108312 71.2628715,7.25440806 70.4280101,7.25440806 L70.4280101,7.25440806 Z M7.03234257,10.2770781 L7.03234257,14.4080605 C7.03234257,15.2427204 7.70881612,15.9193955 8.54367758,15.9193955 C9.37853904,15.9193955 10.0550126,15.2427204 10.0550126,14.4080605 L10.0550126,10.2770781 L18.0026196,10.2770781 L18.0026196,14.4080605 C18.0026196,15.2427204 18.6790932,15.9193955 19.5139547,15.9193955 C20.3488161,15.9193955 21.0252897,15.2427204 21.0252897,14.4080605 L21.0252897,10.2770781 L28.9728967,10.2770781 L28.9728967,14.4080605 C28.9728967,15.2427204 29.6493703,15.9193955 30.4842317,15.9193955 C31.3190932,15.9193955 31.9955668,15.2427204 31.9955668,14.4080605 L31.9955668,10.2770781 L39.9431738,10.2770781 L39.9431738,14.4080605 C39.9431738,15.2427204 40.6196474,15.9193955 41.4545088,15.9193955 C42.2893703,15.9193955 42.9658438,15.2427204 42.9658438,14.4080605 L42.9658438,10.2770781 L50.9134509,10.2770781 L50.9134509,14.4080605 C50.9134509,15.2427204 51.5899244,15.9193955 52.4247859,15.9193955 C53.2596474,15.9193955 53.9361209,15.2427204 53.9361209,14.4080605 L53.9361209,10.2770781 L61.883728,10.2770781 L61.883728,14.4080605 C61.883728,15.2427204 62.5602015,15.9193955 63.395063,15.9193955 C64.2299244,15.9193955 64.906398,15.2427204 64.906398,14.4080605 L64.906398,10.2770781 L68.9160705,10.2770781 L68.9160705,24.1813602 L3.02287154,24.1813602 L3.02287154,10.2770781 L7.03234257,10.2770781 L7.03234257,10.2770781 Z M3.02287154,71.7285642 L3.02287154,27.2040302 L68.9166751,27.2040302 L68.9166751,71.7285642 L3.02287154,71.7285642 L3.02287154,71.7285642 Z" id="Shape" fill="#000000"></path>
                        <path d="M65.5052897,76.97733 L6.43425693,76.97733 C5.59939547,76.97733 4.92292191,77.654005 4.92292191,78.488665 C4.92292191,79.3233249 5.59939547,80 6.43425693,80 L65.5052897,80 C66.3401511,80 67.0166247,79.3233249 67.0166247,78.488665 C67.0166247,77.654005 66.3401511,76.97733 65.5052897,76.97733 L65.5052897,76.97733 Z" id="Shape" fill="#000000"></path>
                        <path d="M21.3847859,32.7075063 C20.7943577,32.1172796 19.8375819,32.1172796 19.2473552,32.7075063 L18.3925441,33.5623174 L17.537733,32.7075063 C16.9473048,32.1172796 15.990529,32.1172796 15.4003023,32.7075063 C14.8100756,33.297733 14.8100756,34.2545088 15.4003023,34.8447355 L16.2551134,35.6995466 L15.4003023,36.5543577 C14.8100756,37.1445844 14.8100756,38.1015617 15.4003023,38.6915869 C15.6955164,38.9865995 16.0824181,39.1343073 16.4691184,39.1343073 C16.8558186,39.1343073 17.2427204,38.986801 17.5379345,38.6915869 L18.3927456,37.8367758 L19.2475567,38.6915869 C19.5427708,38.986801 19.929471,39.1343073 20.3163728,39.1343073 C20.703073,39.1343073 21.0899748,38.986801 21.3851889,38.6915869 C21.9754156,38.1013602 21.9754156,37.1443829 21.3851889,36.5543577 L20.5303778,35.6995466 L21.3851889,34.8447355 C21.9750126,34.2545088 21.9750126,33.297733 21.3847859,32.7075063 L21.3847859,32.7075063 Z" id="Shape" fill="#31BBA5"></path>
                        <path d="M12.5960705,32.7075063 C12.0056423,32.1172796 11.0488665,32.1172796 10.4586398,32.7075063 L9.60382872,33.5623174 L8.74901763,32.7075063 C8.15879093,32.1172796 7.20201511,32.1172796 6.6115869,32.7075063 C6.0213602,33.297733 6.0213602,34.2545088 6.6115869,34.8447355 L7.46639798,35.6995466 L6.6115869,36.5543577 C6.0213602,37.1445844 6.0213602,38.1015617 6.6115869,38.6915869 C6.90680101,38.9865995 7.29370277,39.1343073 7.68040302,39.1343073 C8.06710327,39.1343073 8.45400504,38.986801 8.74921914,38.6915869 L9.60403023,37.8367758 L10.4588413,38.6915869 C10.7540554,38.986801 11.1407557,39.1343073 11.5276574,39.1343073 C11.9143577,39.1343073 12.3012594,38.986801 12.5964736,38.6915869 C13.1867003,38.1013602 13.1867003,37.1443829 12.5964736,36.5543577 L11.7416625,35.6995466 L12.5964736,34.8447355 C13.1862972,34.2545088 13.1862972,33.297733 12.5960705,32.7075063 L12.5960705,32.7075063 Z" id="Shape" fill="#31BBA5"></path>
                        <path d="M30.1732997,32.7075063 C29.5828715,32.1172796 28.6260957,32.1172796 28.035869,32.7075063 L27.1810579,33.5623174 L26.3262469,32.7075063 C25.7360202,32.1172796 24.7792443,32.1172796 24.1888161,32.7075063 C23.5985894,33.297733 23.5985894,34.2545088 24.1888161,34.8447355 L25.0436272,35.6995466 L24.1888161,36.5543577 C23.5985894,37.1445844 23.5985894,38.1015617 24.1888161,38.6915869 C24.4840302,38.9865995 24.870932,39.1343073 25.2576322,39.1343073 C25.6443325,39.1343073 26.0312343,38.986801 26.3264484,38.6915869 L27.1812594,37.8367758 L28.0360705,38.6915869 C28.3312846,38.986801 28.7179849,39.1343073 29.1048866,39.1343073 C29.4915869,39.1343073 29.8784887,38.986801 30.1737028,38.6915869 C30.7639295,38.1013602 30.7639295,37.1443829 30.1737028,36.5543577 L29.3188917,35.6995466 L30.1737028,34.8447355 C30.7635264,34.2545088 30.7635264,33.297733 30.1732997,32.7075063 L30.1732997,32.7075063 Z" id="Shape" fill="#31BBA5"></path>
                        <path d="M56.5392443,32.7075063 C55.9488161,32.1172796 54.9920403,32.1172796 54.4018136,32.7075063 L53.5470025,33.5623174 L52.6921914,32.7075063 C52.1019647,32.1172796 51.1451889,32.1172796 50.5547607,32.7075063 C49.964534,33.297733 49.964534,34.2545088 50.5547607,34.8447355 L51.4095718,35.6995466 L50.5547607,36.5543577 C49.964534,37.1445844 49.964534,38.1015617 50.5547607,38.6915869 C50.8499748,38.9865995 51.2368766,39.1343073 51.6235768,39.1343073 C52.0102771,39.1343073 52.3971788,38.986801 52.6923929,38.6915869 L53.547204,37.8367758 L54.4020151,38.6915869 C54.6972292,38.986801 55.0839295,39.1343073 55.4708312,39.1343073 C55.8575315,39.1343073 56.2444332,38.986801 56.5396474,38.6915869 C57.1298741,38.1013602 57.1298741,37.1443829 56.5396474,36.5543577 L55.6848363,35.6995466 L56.5396474,34.8447355 C57.129471,34.2545088 57.129471,33.297733 56.5392443,32.7075063 L56.5392443,32.7075063 Z" id="Shape" fill="#31BBA5"></path>
                        <path d="M65.3279597,32.7075063 C64.737733,32.1172796 63.7809572,32.1172796 63.190529,32.7075063 L62.3357179,33.5623174 L61.4809068,32.7075063 C60.8904786,32.1172796 59.9337028,32.1172796 59.3434761,32.7075063 C58.7532494,33.297733 58.7532494,34.2547103 59.3434761,34.8447355 L60.1984887,35.6995466 L59.3434761,36.5543577 C58.7532494,37.1445844 58.7532494,38.1015617 59.3434761,38.6915869 C59.6386902,38.986801 60.0253904,39.1343073 60.4122922,39.1343073 C60.7989924,39.1343073 61.1858942,38.986801 61.4811083,38.6915869 L62.3359194,37.8367758 L63.1907305,38.6915869 C63.4859446,38.9865995 63.8728463,39.1343073 64.2595466,39.1343073 C64.6462469,39.1343073 65.0331486,38.986801 65.3283627,38.6915869 C65.9185894,38.1013602 65.9185894,37.1443829 65.3283627,36.5543577 L64.4733501,35.6995466 L65.3283627,34.8447355 C65.9181864,34.2547103 65.9181864,33.297733 65.3279597,32.7075063 L65.3279597,32.7075063 Z" id="Shape" fill="#31BBA5"></path>
                        <path d="M38.9620151,32.7075063 C38.3715869,32.1172796 37.4148111,32.1172796 36.8245844,32.7075063 L35.9697733,33.5623174 L35.1149622,32.7075063 C34.5247355,32.1172796 33.5679597,32.1172796 32.9775315,32.7075063 C32.3873048,33.297733 32.3873048,34.2545088 32.9775315,34.8447355 L33.8323426,35.6995466 L32.9775315,36.5543577 C32.3873048,37.1445844 32.3873048,38.1015617 32.9775315,38.6915869 C33.2727456,38.9865995 33.6596474,39.1343073 34.0463476,39.1343073 C34.4330479,39.1343073 34.8199496,38.986801 35.1151637,38.6915869 L35.9699748,37.8367758 L36.8247859,38.6915869 C37.12,38.986801 37.5067003,39.1343073 37.893602,39.1343073 C38.2803023,39.1343073 38.667204,38.986801 38.9624181,38.6915869 C39.5526448,38.1013602 39.5526448,37.1443829 38.9624181,36.5543577 L38.1076071,35.6995466 L38.9624181,34.8447355 C39.5520403,34.2545088 39.5520403,33.297733 38.9620151,32.7075063 L38.9620151,32.7075063 Z" id="Shape" fill="#31BBA5"></path>
                        <path d="M47.7507305,32.7075063 C47.1603023,32.1172796 46.2035264,32.1172796 45.6132997,32.7075063 L44.7584887,33.5623174 L43.9036776,32.7075063 C43.3132494,32.1172796 42.3564736,32.1172796 41.7662469,32.7075063 C41.1760202,33.297733 41.1760202,34.2545088 41.7662469,34.8447355 L42.6210579,35.6995466 L41.7662469,36.5543577 C41.1760202,37.1445844 41.1760202,38.1015617 41.7662469,38.6915869 C42.061461,38.9865995 42.4483627,39.1343073 42.835063,39.1343073 C43.2217632,39.1343073 43.608665,38.986801 43.9038791,38.6915869 L44.7586902,37.8367758 L45.6135013,38.6915869 C45.9087154,38.986801 46.2954156,39.1343073 46.6823174,39.1343073 C47.0690176,39.1343073 47.4559194,38.986801 47.7511335,38.6915869 C48.3413602,38.1013602 48.3413602,37.1443829 47.7511335,36.5543577 L46.8963224,35.6995466 L47.7511335,34.8447355 C48.3409572,34.2545088 48.3409572,33.297733 47.7507305,32.7075063 L47.7507305,32.7075063 Z" id="Shape" fill="#31BBA5"></path>
                        <path d="M21.3847859,41.7029723 C20.7943577,41.1127456 19.8375819,41.1127456 19.2473552,41.7029723 L18.3925441,42.5577834 L17.537733,41.7029723 C16.9473048,41.1127456 15.990529,41.1127456 15.4003023,41.7029723 C14.8100756,42.293199 14.8100756,43.2501763 15.4003023,43.8402015 L16.2551134,44.6950126 L15.4003023,45.5498237 C14.8100756,46.1400504 14.8100756,47.0970277 15.4003023,47.6870529 C15.6955164,47.9820655 16.0824181,48.1297733 16.4691184,48.1297733 C16.8558186,48.1297733 17.2427204,47.982267 17.5379345,47.6870529 L18.3927456,46.8322418 L19.2475567,47.6870529 C19.5427708,47.9820655 19.9296725,48.1297733 20.3163728,48.1297733 C20.703073,48.1297733 21.0899748,47.982267 21.3851889,47.6870529 C21.9754156,47.0968262 21.9754156,46.1398489 21.3851889,45.5498237 L20.5303778,44.6950126 L21.3851889,43.8402015 C21.9750126,43.2499748 21.9750126,42.2929975 21.3847859,41.7029723 L21.3847859,41.7029723 Z" id="Shape" fill="#31BBA5"></path>
                        <path d="M12.5960705,41.7029723 C12.0056423,41.1127456 11.0488665,41.1127456 10.4586398,41.7029723 L9.60382872,42.5577834 L8.74901763,41.7029723 C8.15858942,41.1127456 7.2018136,41.1127456 6.6115869,41.7029723 C6.0213602,42.293199 6.0213602,43.2501763 6.6115869,43.8402015 L7.46639798,44.6950126 L6.6115869,45.5498237 C6.0213602,46.1400504 6.0213602,47.0970277 6.6115869,47.6870529 C6.90680101,47.9820655 7.29370277,48.1297733 7.68040302,48.1297733 C8.06710327,48.1297733 8.45400504,47.982267 8.74921914,47.6870529 L9.60403023,46.8322418 L10.4588413,47.6870529 C10.7540554,47.9820655 11.1409572,48.1297733 11.5276574,48.1297733 C11.9143577,48.1297733 12.3012594,47.982267 12.5964736,47.6870529 C13.1867003,47.0968262 13.1867003,46.1398489 12.5964736,45.5498237 L11.7416625,44.6950126 L12.5964736,43.8402015 C13.1862972,43.2499748 13.1862972,42.2929975 12.5960705,41.7029723 L12.5960705,41.7029723 Z" id="Shape" fill="#31BBA5"></path>
                        <path d="M30.1732997,41.7029723 C29.5828715,41.1127456 28.6260957,41.1127456 28.035869,41.7029723 L27.1810579,42.5577834 L26.3262469,41.7029723 C25.7358186,41.1127456 24.7790428,41.1127456 24.1888161,41.7029723 C23.5985894,42.293199 23.5985894,43.2501763 24.1888161,43.8402015 L25.0436272,44.6950126 L24.1888161,45.5498237 C23.5985894,46.1400504 23.5985894,47.0970277 24.1888161,47.6870529 C24.4840302,47.9820655 24.870932,48.1297733 25.2576322,48.1297733 C25.6443325,48.1297733 26.0312343,47.982267 26.3264484,47.6870529 L27.1812594,46.8322418 L28.0360705,47.6870529 C28.3312846,47.9820655 28.7181864,48.1297733 29.1048866,48.1297733 C29.4915869,48.1297733 29.8784887,47.982267 30.1737028,47.6870529 C30.7639295,47.0968262 30.7639295,46.1398489 30.1737028,45.5498237 L29.3188917,44.6950126 L30.1737028,43.8402015 C30.7635264,43.2499748 30.7635264,42.2929975 30.1732997,41.7029723 L30.1732997,41.7029723 Z" id="Shape" fill="#31BBA5"></path>
                        <path d="M38.9620151,41.7029723 C38.3715869,41.1127456 37.4148111,41.1127456 36.8245844,41.7029723 L35.9697733,42.5577834 L35.1149622,41.7029723 C34.524534,41.1127456 33.5677582,41.1127456 32.9775315,41.7029723 C32.3873048,42.293199 32.3873048,43.2501763 32.9775315,43.8402015 L33.8323426,44.6950126 L32.9775315,45.5498237 C32.3873048,46.1400504 32.3873048,47.0970277 32.9775315,47.6870529 C33.2727456,47.9820655 33.6596474,48.1297733 34.0463476,48.1297733 C34.4330479,48.1297733 34.8199496,47.982267 35.1151637,47.6870529 L35.9699748,46.8322418 L36.8247859,47.6870529 C37.12,47.9820655 37.5069018,48.1297733 37.893602,48.1297733 C38.2803023,48.1297733 38.667204,47.982267 38.9624181,47.6870529 C39.5526448,47.0968262 39.5526448,46.1398489 38.9624181,45.5498237 L38.1076071,44.6950126 L38.9624181,43.8402015 C39.5520403,43.2499748 39.5520403,42.2929975 38.9620151,41.7029723 L38.9620151,41.7029723 Z" id="Shape" fill="#31BBA5"></path>
                        <path d="M63.7305793,62.1076071 C63.5006549,61.5316877 62.9029723,61.1566751 62.2873552,61.1760202 C61.6066499,61.1973804 61.0107809,61.6892695 60.8612594,62.3540554 C60.7258438,62.9563728 60.9823678,63.5993955 61.4958186,63.9413602 C62.0820151,64.3318892 62.9080101,64.2649874 63.404131,63.7539547 C63.8347607,63.3364232 63.9631234,62.656927 63.7305793,62.1076071 C63.6943073,62.016927 63.7688665,62.1982872 63.7305793,62.1076071 L63.7305793,62.1076071 Z" id="Shape" fill="#000000"></path>
                        <path d="M10.4427204,61.4285139 C9.90448363,61.0732494 9.17501259,61.0972292 8.66801008,61.4992443 C8.18680101,61.8807053 7.97984887,62.5358186 8.15778338,63.1244332 C8.34176322,63.732796 8.90740554,64.169068 9.54156171,64.195869 C10.1684635,64.222267 10.7572796,63.8418136 10.9988917,63.2640806 C11.2765743,62.6011083 11.031738,61.8301259 10.4427204,61.4285139 C10.3603023,61.3741058 10.5253401,61.484937 10.4427204,61.4285139 L10.4427204,61.4285139 Z" id="Shape" fill="#000000"></path>
                        <path d="M54.9424685,62.1076071 C54.8654912,61.9246348 54.7546599,61.7581864 54.6162217,61.6159194 C54.0656927,61.0815113 53.1869018,61.0287154 52.5884131,61.5175819 C51.9752141,62.018539 51.8645844,62.9329975 52.3244332,63.573199 C52.7544584,64.1720907 53.5774307,64.3584887 54.2329471,64.0320403 C54.9257431,63.6872544 55.2439295,62.8193451 54.9424685,62.1076071 C54.9043829,62.016927 54.9809572,62.1982872 54.9424685,62.1076071 L54.9424685,62.1076071 Z" id="Shape" fill="#000000"></path>
                        <path d="M46.1527456,62.1076071 C45.7624181,61.1347103 44.4243829,60.861461 43.6900756,61.6179345 C43.1060957,62.1855919 43.1060957,63.1862972 43.6900756,63.7539547 C43.7585894,63.8244836 43.8353652,63.8869521 43.92,63.9413602 C44.4457431,64.3097229 45.1848866,64.2676071 45.6856423,63.8782872 C46.2144081,63.467204 46.4135013,62.7266499 46.1527456,62.1076071 C46.1164736,62.016927 46.1910327,62.1982872 46.1527456,62.1076071 L46.1527456,62.1076071 Z" id="Shape" fill="#000000"></path>
                        <path d="M37.3648363,62.1076071 C37.1288665,61.5498237 36.578539,61.1746096 35.9693703,61.1746096 C35.3102267,61.1746096 34.7159698,61.6179345 34.523728,62.2470529 C34.1213098,63.563728 35.6292191,64.6976322 36.7836776,63.9590932 C37.3900252,63.5711839 37.6453401,62.773602 37.3648363,62.1076071 C37.3263476,62.016927 37.4029219,62.1982872 37.3648363,62.1076071 L37.3648363,62.1076071 Z" id="Shape" fill="#000000"></path>
                        <path d="M28.0207557,61.4285139 C27.4323426,61.0412091 26.6089673,61.1064987 26.1124433,61.6179345 C25.5288665,62.1835768 25.5288665,63.1883123 26.1124433,63.7539547 C26.7615113,64.4227708 27.9115365,64.3000504 28.4286146,63.5375315 C28.8961209,62.8479597 28.7058942,61.8960202 28.0207557,61.4285139 C27.938136,61.3741058 28.1033753,61.484937 28.0207557,61.4285139 L28.0207557,61.4285139 Z" id="Shape" fill="#000000"></path>
                        <path d="M19.786801,62.1076071 C19.7142569,61.9256423 19.6012091,61.7543577 19.4603526,61.6179345 C18.5481108,60.6782872 16.9146599,61.3632242 16.8820151,62.6488665 C16.8483627,63.9703778 18.523728,64.7187909 19.4603526,63.7539547 C19.8915869,63.3360202 20.0197481,62.657733 19.786801,62.1076071 C19.7507305,62.016927 19.8252897,62.1982872 19.786801,62.1076071 L19.786801,62.1076071 Z" id="Shape" fill="#000000"></path>
                        <path d="M63.7305793,53.1121411 C63.2394962,51.8815113 61.4432242,51.9085139 60.9396474,53.1121411 C60.6815113,53.7293703 60.8771788,54.46267 61.3994962,54.8771788 C61.8847355,55.2620655 62.578136,55.3035768 63.1089169,54.9882116 C63.742267,54.6119899 64.0187406,53.7934509 63.7305793,53.1121411 C63.6943073,53.021461 63.7688665,53.2028212 63.7305793,53.1121411 L63.7305793,53.1121411 Z" id="Shape" fill="#000000"></path>
                        <path d="M10.9990932,53.1121411 C10.479597,51.884131 8.68010076,51.8956171 8.19465995,53.1465995 C7.69551637,54.4332494 9.11959698,55.6685139 10.3222166,55.0190428 C10.9922418,54.6571285 11.2955164,53.8162217 10.9990932,53.1121411 C10.960806,53.021461 11.0371788,53.2028212 10.9990932,53.1121411 L10.9990932,53.1121411 Z" id="Shape" fill="#000000"></path>
                        <path d="M54.3864987,52.4330479 C53.2425189,51.6797985 51.7215113,52.7703778 52.0916877,54.0937028 C52.2623678,54.7036776 52.8034257,55.1486146 53.4353652,55.1971788 C54.0937028,55.2477582 54.7179849,54.8477582 54.9561713,54.2343577 C55.2110831,53.5774307 54.9644332,52.8280101 54.3864987,52.4330479 C54.3036776,52.3786398 54.4691184,52.489471 54.3864987,52.4330479 L54.3864987,52.4330479 Z" id="Shape" fill="#000000"></path>
                        <path d="M46.1527456,53.1121411 C45.7996977,52.2325441 44.6680101,51.910529 43.8950126,52.4503778 C43.1439798,52.9751134 43.0238791,54.1108312 43.6900756,54.7584887 C44.1914358,55.2749622 45.0353652,55.3402519 45.6209572,54.9305793 C46.1942569,54.5297733 46.4253904,53.7602015 46.1527456,53.1121411 C46.1164736,53.021461 46.1910327,53.2028212 46.1527456,53.1121411 L46.1527456,53.1121411 Z" id="Shape" fill="#000000"></path>
                        <path d="M37.3648363,53.1121411 C37.1240302,52.54267 36.5543577,52.1642317 35.9322922,52.1801511 C35.261461,52.1972796 34.6657935,52.6718388 34.5037783,53.3239295 C34.1716877,54.6605542 35.7366247,55.7247355 36.8574307,54.9124433 C37.4156171,54.5078086 37.6330479,53.7495214 37.3648363,53.1121411 C37.3263476,53.021461 37.4029219,53.2028212 37.3648363,53.1121411 L37.3648363,53.1121411 Z" id="Shape" fill="#000000"></path>
                        <path d="M28.0207557,52.4330479 C27.4319395,52.0455416 26.6093703,52.1112343 26.1124433,52.6224685 C25.5292695,53.1887154 25.5284635,54.1924433 26.1124433,54.7584887 C26.7455919,55.4107809 27.8575315,55.3132494 28.3925441,54.5928463 C28.9037783,53.9044836 28.7242317,52.9136524 28.0207557,52.4330479 C27.938136,52.3786398 28.1033753,52.489471 28.0207557,52.4330479 L28.0207557,52.4330479 Z" id="Shape" fill="#000000"></path>
                        <path d="M19.2308312,52.4330479 C18.1789421,51.7219144 16.7341058,52.6271033 16.8935013,53.8756675 C17.0476574,55.0835264 18.5920403,55.653199 19.4605542,54.7584887 C20.1420655,54.097733 19.9951637,52.9553652 19.2308312,52.4330479 C19.1502267,52.3786398 19.3134509,52.489471 19.2308312,52.4330479 L19.2308312,52.4330479 Z" id="Shape" fill="#000000"></path>
                        <path d="M63.1744081,43.4375819 C62.6073552,43.0641814 61.84,43.1129471 61.3313854,43.5659446 C60.8781864,43.9695718 60.7052897,44.6319395 60.9128463,45.2044332 C61.1395466,45.8303275 61.7638287,46.2450378 62.4300252,46.2031234 C63.0260957,46.1656423 63.556272,45.7668514 63.7575819,45.2044332 C63.9903275,44.5535516 63.742267,43.8248866 63.1744081,43.4375819 C63.0917884,43.3831738 63.2570277,43.494005 63.1744081,43.4375819 L63.1744081,43.4375819 Z" id="Shape" fill="#000000"></path>
                        <path d="M54.9424685,44.1166751 C54.6877582,43.5119395 54.0566247,43.1228212 53.3990932,43.191335 C52.781461,43.2556171 52.2589421,43.6932997 52.0914861,44.2919899 C51.7194962,45.6221662 53.2727456,46.7304786 54.4106801,45.9353149 C54.9837783,45.5349118 55.2161209,44.7635264 54.9424685,44.1166751 C54.9043829,44.025995 54.9809572,44.2073552 54.9424685,44.1166751 L54.9424685,44.1166751 Z" id="Shape" fill="#000000"></path>
                        <path d="M46.1527456,44.1166751 C45.7624181,43.1447859 44.4243829,42.8707305 43.6900756,43.6270025 C42.8473552,44.4461461 43.3007557,45.9145592 44.4261965,46.168262 C45.5953652,46.4318388 46.6204534,45.2278086 46.1527456,44.1166751 C46.1164736,44.025995 46.1910327,44.2073552 46.1527456,44.1166751 L46.1527456,44.1166751 Z" id="Shape" fill="#000000"></path>
                    </g>
                </g>
            </g>
        </g>
    </g>
</svg>