<?xml version="1.0" encoding="UTF-8" standalone="no"?>
<svg width="48px" height="48px" viewBox="0 0 48 48" version="1.1" xmlns="http://www.w3.org/2000/svg" xmlns:xlink="http://www.w3.org/1999/xlink">
    <!-- Generator: Sketch 3.6.1 (26313) - http://www.bohemiancoding.com/sketch -->
    <title>menu_icon_finanance_selected</title>
    <desc>Created with Sketch.</desc>
    <defs></defs>
    <g id="Page-1" stroke="none" stroke-width="1" fill="none" fill-rule="evenodd">
        <g id="menu_icon_finanance_selected" fill="#446495">
            <g id="1467800272_money-give" transform="translate(4.000000, 4.000000)">
                <g id="Group">
                    <g id="Finance">
                        <g id="Icon-19">
                            <path d="M15.7377049,11.8032787 C15.7377049,17.5881967 20.4445902,22.295082 26.2295082,22.295082 C32.0144262,22.295082 36.7213115,17.5881967 36.7213115,11.8032787 C36.7213115,6.01836066 32.0144262,1.31147541 26.2295082,1.31147541 C20.4445902,1.31147541 15.7377049,6.01836066 15.7377049,11.8032787 M14.4262295,11.8032787 C14.4262295,5.29508197 19.7213115,0 26.2295082,0 C32.7377049,0 38.0327869,5.29508197 38.0327869,11.8032787 C38.0327869,18.3114754 32.7377049,23.6065574 26.2295082,23.6065574 C19.7213115,23.6065574 14.4262295,18.3114754 14.4262295,11.8032787 M2.29508197,36.0655738 C1.75278689,36.0655738 1.31147541,35.6242623 1.31147541,35.0819672 C1.31147541,34.5396721 1.75278689,34.0983607 2.29508197,34.0983607 C2.83737705,34.0983607 3.27868852,34.5396721 3.27868852,35.0819672 C3.27868852,35.6242623 2.83737705,36.0655738 2.29508197,36.0655738 M26.2295082,15.0819672 C25.5062295,15.0819672 24.9180328,14.4937705 24.9180328,13.7704918 C24.9180328,13.4085246 24.624918,13.1147541 24.2622951,13.1147541 C23.8996721,13.1147541 23.6065574,13.4085246 23.6065574,13.7704918 C23.6065574,14.9888525 24.4452459,16.0072131 25.5737705,16.3003279 L25.5737705,16.3934426 C25.5737705,16.7554098 25.8668852,17.0491803 26.2295082,17.0491803 C26.5921311,17.0491803 26.8852459,16.7554098 26.8852459,16.3934426 L26.8852459,16.3003279 C28.0137705,16.0072131 28.852459,14.9888525 28.852459,13.7704918 C28.852459,12.3239344 27.6760656,11.147541 26.2295082,11.147541 C25.5062295,11.147541 24.9180328,10.5593443 24.9180328,9.83606557 C24.9180328,9.11278689 25.5062295,8.52459016 26.2295082,8.52459016 C26.9527869,8.52459016 27.5409836,9.11278689 27.5409836,9.83606557 C27.5409836,10.1980328 27.8340984,10.4918033 28.1967213,10.4918033 C28.5593443,10.4918033 28.852459,10.1980328 28.852459,9.83606557 C28.852459,8.61770492 28.0137705,7.59934426 26.8852459,7.30622951 L26.8852459,7.21311475 C26.8852459,6.85114754 26.5921311,6.55737705 26.2295082,6.55737705 C25.8668852,6.55737705 25.5737705,6.85114754 25.5737705,7.21311475 L25.5737705,7.30622951 C24.4452459,7.59934426 23.6065574,8.61770492 23.6065574,9.83606557 C23.6065574,11.282623 24.7829508,12.4590164 26.2295082,12.4590164 C26.9527869,12.4590164 27.5409836,13.0472131 27.5409836,13.7704918 C27.5409836,14.4937705 26.9527869,15.0819672 26.2295082,15.0819672 M18.3606557,11.8032787 C18.3606557,16.1422951 21.8904918,19.6721311 26.2295082,19.6721311 C30.5685246,19.6721311 34.0983607,16.1422951 34.0983607,11.8032787 C34.0983607,7.4642623 30.5685246,3.93442623 26.2295082,3.93442623 C21.8904918,3.93442623 18.3606557,7.4642623 18.3606557,11.8032787 M17.0491803,11.8032787 C17.0491803,6.74098361 21.1672131,2.62295082 26.2295082,2.62295082 C31.2918033,2.62295082 35.4098361,6.74098361 35.4098361,11.8032787 C35.4098361,16.8655738 31.2918033,20.9836066 26.2295082,20.9836066 C21.1672131,20.9836066 17.0491803,16.8655738 17.0491803,11.8032787 M8.52459016,24.9180328 L13.7704918,24.9180328 C14.5357377,24.9180328 15.8360656,25.8937705 16.9836066,26.7540984 C18.4222951,27.8334426 19.7816393,28.852459 20.9836066,28.852459 L24.9180328,28.852459 C25.9140984,28.852459 26.4085246,29.3042623 26.4216393,29.3160656 C26.5495082,29.4439344 26.717377,29.5081967 26.8852459,29.5081967 C27.0531148,29.5081967 27.2209836,29.4439344 27.3488525,29.3160656 C27.6052459,29.0596721 27.6052459,28.6452459 27.3488525,28.3888525 C27.2622951,28.3022951 26.4570492,27.5409836 24.9180328,27.5409836 L20.9836066,27.5409836 C20.2183607,27.5409836 18.9180328,26.5652459 17.7704918,25.704918 C16.3318033,24.6255738 14.972459,23.6065574 13.7704918,23.6065574 L8.52459016,23.6065574 C8.16196721,23.6065574 7.86885246,23.9003279 7.86885246,24.2622951 C7.86885246,24.6242623 8.16196721,24.9180328 8.52459016,24.9180328 M38.9927869,27.5409836 C38.2695082,26.2878689 36.6596721,25.8590164 35.4504918,26.5593443 L27.9036066,30.2327869 C26.7304918,30.8196721 25.5462295,30.8196721 22.9508197,30.8196721 C20.4137705,30.8196721 16.5403279,30.1790164 16.5009836,30.1731148 C16.1442623,30.1134426 15.8059016,30.3547541 15.7468852,30.7114754 C15.6872131,31.0688525 15.9285246,31.4072131 16.2859016,31.4662295 C16.4485246,31.4937705 20.3042623,32.1311475 22.9508197,32.1311475 C25.6734426,32.1311475 27.04,32.1311475 28.4832787,31.4091803 L36.0655738,27.7167213 C36.3685246,27.5416393 36.7213115,27.495082 37.0609836,27.5855738 C37.3986885,27.6767213 37.6819672,27.8937705 37.8563934,28.1967213 C38.0321311,28.5003279 38.0786885,28.8537705 37.9881967,29.1921311 C37.8977049,29.5304918 37.6806557,29.8131148 37.3586885,29.9993443 L28.492459,35.517377 C28.4740984,35.5298361 26.5822951,36.7213115 22.295082,36.7213115 C18.5777049,36.7213115 12.8347541,33.5567213 12.7521311,33.5114754 C12.692459,33.482623 11.2708197,32.7868852 8.52459016,32.7868852 C8.16196721,32.7868852 7.86885246,33.0806557 7.86885246,33.442623 C7.86885246,33.8045902 8.16196721,34.0983607 8.52459016,34.0983607 C10.9095082,34.0983607 12.1383607,34.6721311 12.1409836,34.6721311 L12.1409836,34.6714754 C12.3888525,34.8091803 18.2380328,38.0327869 22.295082,38.0327869 C27.0295082,38.0327869 29.1291803,36.6688525 29.1986885,36.6222951 L38.0327869,31.1239344 C38.6393443,30.7737705 39.0734426,30.2078689 39.2544262,29.5318033 C39.4367213,28.8544262 39.3429508,28.147541 38.9927869,27.5409836 M6.55737705,22.9508197 L6.55737705,37.3770492 C6.55737705,38.4616393 5.6747541,39.3442623 4.59016393,39.3442623 L0.655737705,39.3442623 C0.293114754,39.3442623 0,39.0504918 0,38.6885246 C0,38.3265574 0.293114754,38.0327869 0.655737705,38.0327869 L4.59016393,38.0327869 C4.95213115,38.0327869 5.24590164,37.7383607 5.24590164,37.3770492 L5.24590164,22.9508197 C5.24590164,22.5895082 4.95213115,22.295082 4.59016393,22.295082 L0.655737705,22.295082 C0.293114754,22.295082 0,22.0013115 0,21.6393443 C0,21.277377 0.293114754,20.9836066 0.655737705,20.9836066 L4.59016393,20.9836066 C5.6747541,20.9836066 6.55737705,21.8662295 6.55737705,22.9508197" id="money-give"></path>
                        </g>
                    </g>
                </g>
            </g>
        </g>
    </g>
</svg>