<?xml version="1.0" encoding="UTF-8" standalone="no"?>
<svg width="48px" height="48px" viewBox="0 0 48 48" version="1.1" xmlns="http://www.w3.org/2000/svg" xmlns:xlink="http://www.w3.org/1999/xlink">
    <!-- Generator: Sketch 3.6.1 (26313) - http://www.bohemiancoding.com/sketch -->
    <title>menu_icon_issue_selected</title>
    <desc>Created with Sketch.</desc>
    <defs></defs>
    <g id="Page-1" stroke="none" stroke-width="1" fill="none" fill-rule="evenodd">
        <g id="menu_icon_issue_selected" fill="#446495">
            <path d="M15.2158296,20.1237518 L19.8207773,24.7286995 C19.9514268,24.8602438 20.1232399,24.9255686 20.2950529,24.9255686 C20.466866,24.9255686 20.638679,24.8602438 20.7702234,24.7286995 C21.0324172,24.4665056 21.0324172,24.0423421 20.7702234,23.7801483 L15.8520748,18.8611049 C15.6569954,18.6669203 15.3652712,18.6105442 15.1102362,18.7206119 C12.867718,19.6942192 10.419382,19.3282216 8.87395944,17.789063 C7.56746438,16.4798834 7.10929624,14.5040333 7.60594334,12.5550291 L10.808646,15.755942 C10.9956716,15.9411779 11.2712884,16.0002386 11.5173748,15.9098578 L14.4856242,14.8109702 C14.6681755,14.7429608 14.8131428,14.5988884 14.8811521,14.4145474 L15.9764603,11.4552466 C16.067736,11.210055 16.0068856,10.9335434 15.8216496,10.7483075 L12.6171573,7.54023568 C14.569741,7.04179886 16.5438013,7.50086185 17.8547707,8.81183121 C19.3939293,10.3500949 19.759032,12.797536 18.7845299,15.0472131 C18.675357,15.2995635 18.7317331,15.5939724 18.9259177,15.7881569 L23.8440662,20.7054106 C24.1062601,20.9676044 24.5304235,20.9676044 24.7935123,20.7054106 C25.0557061,20.4432167 25.0557061,20.0181584 24.7935123,19.7568594 L20.1876698,15.1519117 C21.1576976,12.5129706 20.6350996,9.69237309 18.8033219,7.86238514 C16.8829531,5.94112152 13.8645916,5.45968703 11.1182674,6.63642745 C10.9142394,6.72412369 10.7656927,6.90756992 10.7236343,7.12591567 C10.6815759,7.34426142 10.7495852,7.56976604 10.9070805,7.7281562 L14.5688461,11.3926064 L13.7294678,13.6592858 L11.4538398,14.5013487 L7.79207414,10.8431626 C7.63368399,10.6856673 7.40459992,10.6158682 7.19072847,10.6588215 C6.97148786,10.7017748 6.78714678,10.8503215 6.70034539,11.0552443 C5.52897414,13.8042531 6.00951376,16.8199301 7.92719795,18.7385091 C9.76166019,20.5702868 12.5813629,21.0919899 15.2158296,20.1237518 L15.2158296,20.1237518 Z M18.5536561,30.3466282 L34.3309262,14.5711478 L34.8633677,15.1026944 C34.9895429,15.2297645 35.1604611,15.2995635 35.3385382,15.2995635 L35.3546456,15.2995635 C35.537197,15.2950892 35.7125895,15.2163416 35.8351853,15.0803229 L39.6750279,10.8637443 C39.91664,10.597971 39.9059017,10.189915 39.6535513,9.93666977 L38.016853,8.30355094 C37.7627129,8.04851595 37.3555518,8.04046221 37.0897785,8.28117945 L32.8740947,12.1192324 C32.7371812,12.242723 32.6584336,12.4163258 32.6539593,12.599772 C32.649485,12.7841131 32.7219686,12.9604005 32.8499335,13.0901551 L33.3814802,13.6217017 L17.6051049,29.398077 L15.2158296,27.0088018 C14.9634792,26.7573463 14.518734,26.7573463 14.2663836,27.0088018 L6.07573337,35.2012417 C4.64216824,36.6357017 4.64127338,38.9703905 6.07394365,40.4057454 L7.57551811,41.9037404 C8.26634975,42.5972566 9.19073975,42.9793617 10.1759802,42.9793617 C11.1630104,42.9793617 12.0874004,42.5963617 12.778232,41.9037404 L20.9706719,33.7121953 C21.0959523,33.586915 21.1684359,33.4151019 21.1684359,33.2379197 C21.1684359,33.0598426 21.0959523,32.8889245 20.9706719,32.7636441 L18.5536561,30.3466282 L18.5536561,30.3466282 Z M37.520206,9.70490113 L38.2504114,10.4342117 L35.3161667,13.6566013 L34.2978164,12.638251 L37.520206,9.70490113 L37.520206,9.70490113 Z M11.8269962,40.9551892 C10.9509286,41.8339413 9.40192662,41.8339413 8.52496418,40.9551892 L7.02428458,39.4562993 C6.11331747,38.5453322 6.11421233,37.0616549 7.02517944,36.1506878 L12.0918747,31.0830977 L16.8757943,35.9090757 L11.8269962,40.9551892 L11.8269962,40.9551892 Z M17.8243455,34.9605245 L13.039531,30.1336516 L14.741554,28.4325235 L19.5478451,33.2379197 L17.8243455,34.9605245 L17.8243455,34.9605245 Z M41.1372286,30.1980815 C39.3063458,28.3671987 36.4911174,27.8446007 33.847702,28.811944 L28.1975583,23.1600105 C27.9353644,22.8978167 27.5103061,22.8978167 27.2481122,23.1600105 C26.9859184,23.4222044 26.9859184,23.8472627 27.2481122,24.1094566 L33.2123517,30.0728012 C33.4074311,30.2669857 33.7018399,30.3233619 33.9532955,30.214189 C36.2029726,29.2423715 38.6504137,29.6074742 40.1868877,31.1475276 C41.5014365,32.4602867 41.9596046,34.4370316 41.4584832,36.3842462 L38.2548857,33.178859 C38.0687549,32.993623 37.7922433,32.9336674 37.5461569,33.0249431 L34.5904355,34.122041 C34.4078842,34.1891555 34.262022,34.3332279 34.1940127,34.5166741 L33.0879662,37.4795544 C32.9949008,37.7265356 33.0566461,38.0030472 33.2427769,38.189178 L36.449059,41.3945652 C34.4964753,41.8921072 32.5206252,41.4339391 31.2105507,40.1229697 C29.672287,38.5838111 29.3071843,36.1363701 30.2790018,33.8893775 C30.3881747,33.6370271 30.3326934,33.3435131 30.137614,33.1484337 L24.1742694,27.1832994 C23.9120755,26.9211056 23.4870172,26.9211056 23.2248233,27.1832994 C22.9626295,27.4445985 22.9626295,27.8705516 23.2248233,28.1327455 L28.8758619,33.7846789 C27.9085187,36.4209354 28.4311167,39.2406381 30.2619995,41.0724158 C31.4834829,42.294794 33.1497115,42.9337238 34.9090056,42.9337238 C35.9130381,42.9337238 36.9483906,42.7252215 37.9479489,42.2974786 C38.1528717,42.2097824 38.3014184,42.0263361 38.3434768,41.8079904 C38.3855352,41.5887498 38.3157362,41.3632452 38.1582409,41.2057499 L34.4964753,37.5448791 L35.3439073,35.2737254 L37.6096919,34.4334522 L41.2696678,38.0934281 C41.4262682,38.2500285 41.6517729,38.3207224 41.8710135,38.2777692 C42.0884644,38.2357107 42.2728055,38.0880589 42.3613966,37.8831361 C43.5408216,35.1368118 43.0602819,32.12024 41.1372286,30.1980815 L41.1372286,30.1980815 Z" id="Fill-187"></path>
        </g>
    </g>
</svg>