<?xml version="1.0" encoding="UTF-8" standalone="no"?>
<svg width="48px" height="48px" viewBox="0 0 48 48" version="1.1" xmlns="http://www.w3.org/2000/svg" xmlns:xlink="http://www.w3.org/1999/xlink">
    <!-- Generator: Sketch 3.6.1 (26313) - http://www.bohemiancoding.com/sketch -->
    <title>menu_icon_meeting_selected</title>
    <desc>Created with Sketch.</desc>
    <defs></defs>
    <g id="Page-1" stroke="none" stroke-width="1" fill="none" fill-rule="evenodd">
        <g id="menu_icon_meeting_selected" stroke="#446495">
            <g id="1467811964_conference_meeting_presentation_business_people_c" transform="translate(2.000000, 2.000000)">
                <g id="Layer_1">
                    <g id="Group">
                        <path d="M25.3651393,7.19885446 L33.2483693,7.19885446 C35.1135149,7.19885446 36.6264538,8.71179343 36.6264538,10.576939 C36.6264538,12.4420845 35.1135149,13.9550923 33.2483693,13.9550923 L32.8885884,13.9550923 C32.6061346,14.6392613 32.6289264,15.3688075 32.8885884,16.0017465 C31.7589797,16.0017465 30.8435869,15.0864225 30.841108,13.9550923 L25.3651393,13.9550923 C23.4999937,13.9550923 21.9870548,12.4420845 21.9870548,10.576939 C21.9870548,8.71179343 23.4999937,7.19885446 25.3651393,7.19885446 L25.3651393,7.19885446 Z" id="Shape"></path>
                        <path d="M21.9871236,10.576939 C21.9871236,8.71179343 23.5000626,7.19885446 25.3652081,7.19885446 L27.8363693,7.19885446 C27.9943975,6.60964006 28.0868732,5.99350235 28.0868732,5.3530579 L28.0868732,3.5812144 C28.0868732,1.62111424 26.4990861,0.0308482003 24.5398122,0.0308482003 L12.1179718,0.0308482003 C10.1587668,0.0308482003 8.56925822,1.62111424 8.56925822,3.58038811 L8.56925822,8.90177152 C8.56925822,10.8635243 10.1578717,12.4537903 12.1179718,12.4537903 L12.1179718,12.4504163 C12.6075493,13.6371768 12.5701596,14.9047762 12.1179718,16.0016088 C14.0781408,16.0016088 15.6670986,14.4138216 15.6670986,12.4512426 L20.988482,12.4512426 C21.4977527,12.4512426 21.9929077,12.3949171 22.4711236,12.2940407 C22.1711111,11.7889703 21.9871236,11.2065039 21.9871236,10.576939 L21.9871236,10.576939 Z" id="Shape"></path>
                        <path id="Shape" d="M31.7126635,26.868025 L31.2126635,29.9173834 L31.7126635,26.868025 L31.7126635,26.868025 Z"></path>
                        <path id="Shape" d="M36.9299092,26.868025 L37.4299092,29.9173834 L36.9299092,26.868025 L36.9299092,26.868025 Z"></path>
                        <path d="M36.412169,20.240482 C36.6929014,20.3396369 36.8946541,20.6043944 36.8946541,20.918867 C36.8946541,21.5349358 36.5819718,22.0342222 36.1927887,22.0518498 C35.833903,23.1563944 35.1043568,23.9136901 34.2621596,23.9136901 C33.4191362,23.9136901 32.6903474,23.1563944 32.3314617,22.0518498 C31.9423474,22.0342222 31.6296651,21.5350047 31.6296651,20.918867 C31.6296651,20.6044632 31.8314178,20.3397058 32.1120814,20.240482 L32.1120814,19.6210391 C32.2431862,18.5494085 33.155205,17.7189171 34.2622285,17.7189171 C35.369252,17.7189171 36.281133,18.5494085 36.4123067,19.6210391 L36.4123067,20.240482 L36.412169,20.240482 Z" id="Shape"></path>
                        <path d="M39.2178404,27.0108357 C39.2178404,26.5268357 39.0211831,26.0887637 38.7043005,25.7719499 L35.8439562,24.5868419 C35.7195305,24.5356119 35.6077746,24.4598685 35.5144726,24.3665665 C35.3304163,24.182579 35.2161127,23.9278748 35.2161127,23.6472113 L35.2161127,23.5631362 C34.9286322,23.7866479 34.6050704,23.9136213 34.2621596,23.9136213 C33.9192488,23.9136213 33.5955493,23.7866479 33.3082066,23.5631362 L33.3082066,23.6472113 C33.3082066,23.9278748 33.193903,24.182579 33.0097778,24.3665665 C32.9156495,24.4598685 32.8038936,24.5356119 32.6794679,24.5868419 L29.8200188,25.7719499 C29.5023099,26.0888326 29.3064789,26.5268357 29.3064789,27.0108357 L29.3064789,29.9173834 L39.2178404,29.9173834 L39.2178404,27.0108357 L39.2178404,27.0108357 Z" id="Shape"></path>
                        <path id="Shape" d="M7.1634867,26.868025 L6.6634867,29.9173834 L7.1634867,26.868025 L7.1634867,26.868025 Z"></path>
                        <path id="Shape" d="M12.3806635,26.868025 L12.8806635,29.9173834 L12.3806635,26.868025 L12.3806635,26.868025 Z"></path>
                        <path d="M11.8629233,20.240482 C12.1436557,20.3396369 12.3454085,20.6043944 12.3454085,20.918867 C12.3454085,21.5349358 12.0327261,22.0342222 11.643543,22.0518498 C11.2846573,23.1563944 10.5550423,23.9136901 9.71284507,23.9136901 C8.8698216,23.9136901 8.14110172,23.1563944 7.78221596,22.0518498 C7.39303286,22.0342222 7.08041941,21.5350047 7.08041941,20.918867 C7.08041941,20.6044632 7.28210329,20.3397058 7.56283568,20.240482 L7.56283568,19.6210391 C7.69394053,18.5494085 8.60589045,17.7189171 9.71291393,17.7189171 C10.8199374,17.7189171 11.7318873,18.5494085 11.863061,19.6210391 L11.863061,20.240482 L11.8629233,20.240482 Z" id="Shape"></path>
                        <path d="M14.6685258,27.0108357 C14.6685258,26.5268357 14.4719374,26.0887637 14.1549859,25.7719499 L11.2947105,24.5868419 C11.1702848,24.5356119 11.0584601,24.4598685 10.9652269,24.3665665 C10.7811706,24.182579 10.666867,23.9278748 10.666867,23.6472113 L10.666867,23.5631362 C10.3793865,23.7866479 10.0557559,23.9136213 9.71284507,23.9136213 C9.36993427,23.9136213 9.0463036,23.7866479 8.75889202,23.5631362 L8.75889202,23.6472113 C8.75889202,23.9278748 8.64458842,24.182579 8.46053208,24.3665665 C8.36640376,24.4598685 8.25464789,24.5356119 8.13022222,24.5868419 L5.27077308,25.7719499 C4.95306416,26.0888326 4.75716432,26.5268357 4.75716432,27.0108357 L4.75716432,29.9173834 L14.6685947,29.9173834 L14.6685947,27.0108357 L14.6685258,27.0108357 Z" id="Shape"></path>
                        <path id="Shape" d="M19.4384538,26.868025 L18.9384538,29.9173834 L19.4384538,26.868025 L19.4384538,26.868025 Z"></path>
                        <path id="Shape" d="M24.6556995,26.868025 L25.1556995,29.9173834 L24.6556995,26.868025 L24.6556995,26.868025 Z"></path>
                        <path d="M24.1379593,20.240482 C24.4186917,20.3396369 24.6204444,20.6043944 24.6204444,20.918867 C24.6204444,21.5349358 24.3077621,22.0342222 23.9186479,22.0518498 C23.5596933,23.1563944 22.8300782,23.9136901 21.9879499,23.9136901 C21.1449264,23.9136901 20.4162066,23.1563944 20.057252,22.0518498 C19.6681377,22.0342222 19.3554554,21.5350047 19.3554554,20.918867 C19.3554554,20.6044632 19.5572081,20.3397058 19.8379405,20.240482 L19.8379405,19.6210391 C19.9690454,18.5494085 20.8809953,17.7189171 21.9880188,17.7189171 C23.0950423,17.7189171 24.0069233,18.5494085 24.138097,19.6210391 L24.138097,20.240482 L24.1379593,20.240482 Z" id="Shape"></path>
                        <path d="M26.9436307,27.0108357 C26.9436307,26.5268357 26.7469734,26.0887637 26.4300908,25.7719499 L23.5697465,24.5868419 C23.4453208,24.5356119 23.3335649,24.4598685 23.2402629,24.3665665 C23.0562066,24.182579 22.941903,23.9278748 22.941903,23.6472113 L22.941903,23.5631362 C22.6544225,23.7866479 22.3308607,23.9136213 21.9879499,23.9136213 C21.6450391,23.9136213 21.3214085,23.7866479 21.0339969,23.5631362 L21.0339969,23.6472113 C21.0339969,23.9278748 20.9196933,24.182579 20.7355681,24.3665665 C20.6415086,24.4598685 20.5296839,24.5356119 20.4052582,24.5868419 L17.5458091,25.7719499 C17.2281002,26.0888326 17.0322692,26.5268357 17.0322692,27.0108357 L17.0322692,29.9173834 L26.9436995,29.9173834 L26.9436995,27.0108357 L26.9436307,27.0108357 Z" id="Shape"></path>
                        <path id="Shape" d="M19.4384538,40.896795 L18.9384538,43.9461534 L19.4384538,40.896795 L19.4384538,40.896795 Z"></path>
                        <path id="Shape" d="M24.6556995,40.896795 L25.1556995,43.9461534 L24.6556995,40.896795 L24.6556995,40.896795 Z"></path>
                        <path d="M24.1379593,34.2696651 C24.4186917,34.3688889 24.6204444,34.6345415 24.6204444,34.9488075 C24.6204444,35.5641189 24.3077621,36.0633365 23.9186479,36.0810329 C23.5596933,37.1850266 22.8300782,37.9431487 21.9879499,37.9431487 C21.1449264,37.9431487 20.4162066,37.1850266 20.057252,36.0810329 C19.6681377,36.0632676 19.3554554,35.5640501 19.3554554,34.9488075 C19.3554554,34.6345415 19.5572081,34.3688889 19.8379405,34.2696651 L19.8379405,33.6510485 C19.9690454,32.5785227 20.8809953,31.748169 21.9880188,31.748169 C23.0950423,31.748169 24.0069233,32.5785227 24.138097,33.6510485 L24.138097,34.2696651 L24.1379593,34.2696651 Z" id="Shape"></path>
                        <path d="M26.9436307,41.0396745 C26.9436307,40.5556745 26.7469734,40.1185665 26.4300908,39.8007887 L23.5697465,38.6156808 C23.4453208,38.565277 23.3335649,38.4895336 23.2402629,38.3954053 C23.0562066,38.2122441 22.941903,37.9567136 22.941903,37.6760501 L22.941903,37.591975 C22.6544225,37.8154867 22.3308607,37.9432864 21.9879499,37.9432864 C21.6450391,37.9432864 21.3214085,37.8155556 21.0339969,37.591975 L21.0339969,37.6760501 C21.0339969,37.9567136 20.9196933,38.2122441 20.7355681,38.3954053 C20.6415086,38.4895336 20.5296839,38.565277 20.4052582,38.6156808 L17.5458091,39.8007887 C17.2281002,40.1185665 17.0322692,40.5556745 17.0322692,41.0396745 L17.0322692,43.9462222 L26.9436995,43.9462222 L26.9436995,41.0396745 L26.9436307,41.0396745 Z" id="Shape"></path>
                        <path id="Shape" d="M5.94429421,40.896795 L5.44429421,43.9461534 L5.94429421,40.896795 L5.94429421,40.896795 Z"></path>
                        <path id="Shape" d="M11.1615399,40.896795 L11.6615399,43.9461534 L11.1615399,40.896795 L11.1615399,40.896795 Z"></path>
                        <path d="M10.6437308,34.2696651 C10.9244632,34.3688889 11.126216,34.6345415 11.126216,34.9488075 C11.126216,35.5641189 10.8135336,36.0633365 10.4244194,36.0810329 C10.0654648,37.1850266 9.33584977,37.9431487 8.49372144,37.9431487 C7.65062911,37.9431487 6.92190923,37.1850266 6.56302347,36.0810329 C6.17384038,36.0632676 5.86115806,35.5640501 5.86115806,34.9488075 C5.86115806,34.6345415 6.0629108,34.3688889 6.34371205,34.2696651 L6.34371205,33.6510485 C6.4748169,32.5785227 7.38676682,31.748169 8.4937903,31.748169 C9.60081377,31.748169 10.5126948,32.5785227 10.6438685,33.6510485 L10.6438685,34.2696651 L10.6437308,34.2696651 Z" id="Shape"></path>
                        <path d="M13.4494022,41.0396745 C13.4494022,40.5556745 13.2527449,40.1185665 12.9357934,39.8007887 L10.075518,38.6156808 C9.95109233,38.565277 9.83933646,38.4895336 9.74603443,38.3954053 C9.56197809,38.2122441 9.44767449,37.9567136 9.44767449,37.6760501 L9.44767449,37.591975 C9.16019405,37.8154867 8.83663224,37.9432864 8.49372144,37.9432864 C8.15081064,37.9432864 7.82717997,37.8155556 7.53969953,37.591975 L7.53969953,37.6760501 C7.53969953,37.9567136 7.42539593,38.2122441 7.24133959,38.3954053 C7.14721127,38.4895336 7.0354554,38.565277 6.91102973,38.6156808 L4.05158059,39.8007887 C3.73387167,40.1185665 3.53804069,40.5556745 3.53804069,41.0396745 L3.53804069,43.9462222 L13.449471,43.9462222 L13.449471,41.0396745 L13.4494022,41.0396745 Z" id="Shape"></path>
                        <path id="Shape" d="M32.9322692,40.896795 L32.4322692,43.9461534 L32.9322692,40.896795 L32.9322692,40.896795 Z"></path>
                        <path id="Shape" d="M38.1495149,40.896795 L38.6495149,43.9461534 L38.1495149,40.896795 L38.1495149,40.896795 Z"></path>
                        <path d="M37.6317746,34.2696651 C37.912507,34.3688889 38.1142598,34.6345415 38.1142598,34.9488075 C38.1142598,35.5641189 37.8015775,36.0633365 37.4124632,36.0810329 C37.0535086,37.1850266 36.3238936,37.9431487 35.4817653,37.9431487 C34.6387418,37.9431487 33.9100219,37.1850266 33.5510673,36.0810329 C33.1619531,36.0632676 32.8492707,35.5640501 32.8492707,34.9488075 C32.8492707,34.6345415 33.0510235,34.3688889 33.3317559,34.2696651 L33.3317559,33.6510485 C33.4628607,32.5785227 34.3748106,31.748169 35.4818341,31.748169 C36.5888576,31.748169 37.5007387,32.5785227 37.6319124,33.6510485 L37.6319124,34.2696651 L37.6317746,34.2696651 Z" id="Shape"></path>
                        <path d="M40.437446,41.0396745 C40.437446,40.5556745 40.2407887,40.1185665 39.9239061,39.8007887 L37.0635618,38.6156808 C36.9391362,38.565277 36.8273803,38.4895336 36.7340782,38.3954053 C36.5500219,38.2122441 36.4357183,37.9567136 36.4357183,37.6760501 L36.4357183,37.591975 C36.1482379,37.8154867 35.8246761,37.9432864 35.4817653,37.9432864 C35.1388545,37.9432864 34.8152238,37.8155556 34.5278122,37.591975 L34.5278122,37.6760501 C34.5278122,37.9567136 34.4135086,38.2122441 34.2293834,38.3954053 C34.1352551,38.4895336 34.0234992,38.565277 33.8990736,38.6156808 L31.0396244,39.8007887 C30.7219155,40.1185665 30.5260845,40.5556745 30.5260845,41.0396745 L30.5260845,43.9462222 L40.4375149,43.9462222 L40.4375149,41.0396745 L40.437446,41.0396745 Z" id="Shape"></path>
                        <rect id="Rectangle-path" x="13.4494022" y="42.1172958" width="3.58272926" height="1.82892645"></rect>
                        <rect id="Rectangle-path" x="0.0300219092" y="42.1172958" width="3.50794992" height="1.82892645"></rect>
                        <rect id="Rectangle-path" x="26.9436307" y="42.1172958" width="3.58231612" height="1.82892645"></rect>
                        <rect id="Rectangle-path" x="40.437446" y="42.1172958" width="3.50836307" height="1.82892645"></rect>
                        <path d="M3.53797183,41.0396745 C3.53797183,40.5556745 3.73380282,40.1185665 4.05151174,39.8007887 L6.91096088,38.6156808 C7.03538654,38.565277 7.14714241,38.4895336 7.24127074,38.3954053 C7.42532707,38.2122441 7.53963067,37.9567136 7.53963067,37.6760501 L7.53963067,37.591975 C7.5421784,37.595349 7.54555243,37.5935587 7.54810016,37.595349 C7.1252457,37.2708232 6.77730829,36.7395869 6.56295462,36.0811706 C6.17377152,36.0634053 5.8610892,35.5641878 5.8610892,34.9489452 C5.8610892,34.6346792 6.06284194,34.3690266 6.34364319,34.2698028 L6.34364319,33.6511862 C6.47474804,32.5786604 7.38669797,31.7483067 8.49372144,31.7483067 C9.60074491,31.7483067 10.512626,32.5786604 10.6437997,33.6511862 L10.6437997,34.2698028 C10.9245321,34.3690266 11.1262848,34.6346792 11.1262848,34.9489452 C11.1262848,35.5642567 10.8136025,36.0634742 10.4244883,36.0811706 C10.2101346,36.7396557 9.86212833,37.2708232 9.43851643,37.595349 C9.44189045,37.5936275 9.44443818,37.595349 9.44781221,37.591975 L9.44781221,37.6760501 C9.44781221,37.9567136 9.56211581,38.2122441 9.74617214,38.3954053 C9.83947418,38.4895336 9.9512989,38.565277 10.0756557,38.6156808 L12.9359311,39.8007887 C13.2528826,40.1185665 13.4495399,40.5556745 13.4495399,41.0396745 L13.4495399,42.1172958 L17.0322692,42.1172958 L17.0322692,41.0396745 C17.0322692,40.5556745 17.2281002,40.1185665 17.5458091,39.8007887 L20.4052582,38.6156808 C20.5296839,38.565277 20.6415086,38.4895336 20.7355681,38.3954053 C20.9196933,38.2122441 21.0339969,37.9567136 21.0339969,37.6760501 L21.0339969,37.591975 C21.0364757,37.595349 21.0398498,37.5935587 21.0423975,37.595349 C20.619543,37.2708232 20.2716745,36.7395869 20.057252,36.0811706 C19.6681377,36.0634053 19.3554554,35.5641878 19.3554554,34.9489452 C19.3554554,34.6346792 19.5572081,34.3690266 19.8379405,34.2698028 L19.8379405,33.6511862 C19.9690454,32.5786604 20.8809953,31.7483067 21.9880188,31.7483067 C23.0950423,31.7483067 24.0069233,32.5786604 24.138097,33.6511862 L24.138097,34.2698028 C24.4188294,34.3690266 24.6205822,34.6346792 24.6205822,34.9489452 C24.6205822,35.5642567 24.3078998,36.0634742 23.9187856,36.0811706 C23.7044319,36.7396557 23.3564257,37.2708232 22.9328826,37.595349 C22.9362567,37.5936275 22.9387355,37.595349 22.9421095,37.591975 L22.9421095,37.6760501 C22.9421095,37.9567136 23.0564131,38.2122441 23.2404695,38.3954053 C23.3337715,38.4895336 23.4455962,38.565277 23.5699531,38.6156808 L26.4302973,39.8007887 C26.74718,40.1185665 26.9438372,40.5556745 26.9438372,41.0396745 L26.9438372,42.1172958 L30.5261534,42.1172958 L30.5261534,41.0396745 C30.5261534,40.5556745 30.7219844,40.1185665 31.0396933,39.8007887 L33.8991424,38.6156808 C34.0235681,38.565277 34.1353239,38.4895336 34.2294523,38.3954053 C34.4135775,38.2122441 34.5278811,37.9567136 34.5278811,37.6760501 L34.5278811,37.591975 C34.5303599,37.595349 34.533734,37.5935587 34.5362817,37.595349 C34.1134272,37.2708232 33.7655587,36.7395869 33.5511362,36.0811706 C33.1620219,36.0634053 32.8493396,35.5641878 32.8493396,34.9489452 C32.8493396,34.6346792 33.0510923,34.3690266 33.3318247,34.2698028 L33.3318247,33.6511862 C33.4629296,32.5786604 34.3748795,31.7483067 35.481903,31.7483067 C36.5889264,31.7483067 37.5008075,32.5786604 37.6319812,33.6511862 L37.6319812,34.2698028 C37.9127136,34.3690266 38.1144664,34.6346792 38.1144664,34.9489452 C38.1144664,35.5642567 37.801784,36.0634742 37.4126698,36.0811706 C37.1983161,36.7396557 36.8503099,37.2708232 36.4267668,37.595349 C36.4301408,37.5936275 36.4326197,37.595349 36.4359937,37.591975 L36.4359937,37.6760501 C36.4359937,37.9567136 36.5502973,38.2122441 36.7343537,38.3954053 C36.8276557,38.4895336 36.9394804,38.565277 37.0638372,38.6156808 L39.9241815,39.8007887 C40.2410642,40.1185665 40.4377214,40.5556745 40.4377214,41.0396745 L40.4377214,42.1172958 L43.9460845,42.1172958 L41.5059781,29.9183474 L2.46916432,29.9183474 L0.0300219092,42.1172958 L3.53797183,42.1172958 L3.53797183,41.0396745 L3.53797183,41.0396745 Z" id="Shape"></path>
                    </g>
                </g>
            </g>
        </g>
    </g>
</svg>