<?xml version="1.0" encoding="UTF-8" standalone="no"?>
<svg width="48px" height="48px" viewBox="0 0 48 48" version="1.1" xmlns="http://www.w3.org/2000/svg" xmlns:xlink="http://www.w3.org/1999/xlink">
    <!-- Generator: Sketch 3.6.1 (26313) - http://www.bohemiancoding.com/sketch -->
    <title>menu_icon_message_selected</title>
    <desc>Created with Sketch.</desc>
    <defs></defs>
    <g id="Page-1" stroke="none" stroke-width="1" fill="none" fill-rule="evenodd">
        <g id="menu_icon_message_selected" stroke="#446495">
            <g id="1467800298_talk_thin_convert" transform="translate(4.000000, 6.000000)">
                <g id="svg2">
                    <g id="layer1" transform="translate(0.000000, 0.296660)">
                        <path d="M26.5116279,0.168455814 C22.8166033,0.168455814 19.4674679,1.34164651 17.0203488,3.26438605 C14.5732298,5.18712558 13.0232558,7.88052093 13.0232558,10.8661302 C13.0232558,10.8709116 13.0232479,10.8758837 13.0232558,10.8806651 C5.84554,11.0739712 0,15.7184726 0,21.5638047 C0,24.7976651 1.75686651,27.6672 4.57848837,29.6161302 L2.81976744,34.892293 C2.72820512,35.1685451 2.98192419,35.517293 3.25581395,35.517293 C3.33262605,35.517293 3.41748279,35.4842651 3.48837209,35.4446205 L9.84011628,31.8108995 C10.9963712,32.0722465 12.2104409,32.2614791 13.4883721,32.2614791 C17.1833972,32.2614791 20.5325326,31.0882465 22.9796512,29.1655488 C25.4267698,27.2428047 26.9767442,24.549386 26.9767442,21.5638047 L26.9767442,21.5492698 C28.0836842,21.5099721 29.1459391,21.3424056 30.1598837,21.1132233 L36.5116279,24.7469442 C36.8365191,24.9286549 37.2973488,24.5479698 37.1802326,24.1946186 L35.4215116,18.9184558 C38.2431358,16.9695256 40,14.0999814 40,10.8661302 C40,7.88052093 38.450026,5.18712558 36.002907,3.26438605 C33.5557879,1.34164651 30.2066526,0.168455814 26.5116279,0.168455814 L26.5116279,0.168455814 Z M26.5116279,1.09868837 C30.0091493,1.09868837 33.169674,2.2104093 35.4360465,3.99113023 C37.7024191,5.77185116 39.0697674,8.20044651 39.0697674,10.8661302 C39.0697674,13.8781488 37.4284381,16.5741442 34.6366279,18.3806651 C34.4648293,18.4916167 34.3830302,18.7244298 34.4476744,18.9184558 L35.9302326,23.3515953 L30.4651163,20.2265953 C30.3661437,20.1665209 30.2442572,20.1453233 30.130814,20.1684558 C28.9747577,20.4393395 27.7620884,20.6335721 26.5116279,20.6335721 C23.014107,20.6335721 19.8535819,19.5073395 17.5872093,17.7265953 C15.3208367,15.9458698 13.9534884,13.5318 13.9534884,10.8661302 C13.9534884,8.20044651 15.3208367,5.77185116 17.5872093,3.99113023 C19.8535819,2.2104093 23.0141065,1.09868837 26.5116279,1.09868837 L26.5116279,1.09868837 Z M21.3953488,9.4707814 C20.6247191,9.4707814 20,10.0955005 20,10.8661302 C20,11.63676 20.6247191,12.2614791 21.3953488,12.2614791 C22.1659786,12.2614791 22.7906977,11.63676 22.7906977,10.8661302 C22.7906977,10.0955005 22.1659786,9.4707814 21.3953488,9.4707814 L21.3953488,9.4707814 Z M26.5116279,9.4707814 C25.7409981,9.4707814 25.1162791,10.0955005 25.1162791,10.8661302 C25.1162791,11.63676 25.7409981,12.2614791 26.5116279,12.2614791 C27.2822577,12.2614791 27.9069767,11.63676 27.9069767,10.8661302 C27.9069767,10.0955005 27.2822577,9.4707814 26.5116279,9.4707814 L26.5116279,9.4707814 Z M31.627907,9.4707814 C30.8572772,9.4707814 30.2325581,10.0955005 30.2325581,10.8661302 C30.2325581,11.63676 30.8572772,12.2614791 31.627907,12.2614791 C32.3985367,12.2614791 33.0232558,11.63676 33.0232558,10.8661302 C33.0232558,10.0955005 32.3985367,9.4707814 31.627907,9.4707814 L31.627907,9.4707814 Z M13.0813953,11.8108977 C13.3696544,14.4182363 14.8337335,16.7497958 17.0203488,18.4678744 C19.3633126,20.3087377 22.5379102,21.4543865 26.0465116,21.5492698 L26.0465116,21.5638047 C26.0465116,24.2294791 24.6791633,26.6435256 22.4127907,28.4242698 C20.1464181,30.205014 16.985893,31.3312465 13.4883721,31.3312465 C12.2379116,31.3312465 11.0252423,31.137014 9.86918605,30.8661302 C9.75574279,30.8429977 9.63385628,30.8641953 9.53488372,30.9242698 L4.06976744,34.0492698 L5.55232558,29.6161302 C5.61696977,29.4221042 5.5351707,29.1892912 5.36337209,29.0783395 C2.57156419,27.2718279 0.930232558,24.5758047 0.930232558,21.5638047 C0.930232558,16.3381353 6.28108558,11.9823042 13.0813953,11.8108977 L13.0813953,11.8108977 Z M8.37209302,20.1684558 C7.60146326,20.1684558 6.97674419,20.7931749 6.97674419,21.5638047 C6.97674419,22.3344344 7.60146326,22.9591535 8.37209302,22.9591535 C9.14272279,22.9591535 9.76744186,22.3344344 9.76744186,21.5638047 C9.76744186,20.7931749 9.14272279,20.1684558 8.37209302,20.1684558 L8.37209302,20.1684558 Z M13.4883721,20.1684558 C12.7177423,20.1684558 12.0930233,20.7931749 12.0930233,21.5638047 C12.0930233,22.3344344 12.7177423,22.9591535 13.4883721,22.9591535 C14.2590019,22.9591535 14.8837209,22.3344344 14.8837209,21.5638047 C14.8837209,20.7931749 14.2590019,20.1684558 13.4883721,20.1684558 L13.4883721,20.1684558 Z M18.6046512,20.1684558 C17.8340214,20.1684558 17.2093023,20.7931749 17.2093023,21.5638047 C17.2093023,22.3344344 17.8340214,22.9591535 18.6046512,22.9591535 C19.3752809,22.9591535 20,22.3344344 20,21.5638047 C20,20.7931749 19.3752809,20.1684558 18.6046512,20.1684558 L18.6046512,20.1684558 Z" id="path3013"></path>
                    </g>
                </g>
            </g>
        </g>
    </g>
</svg>