<?xml version="1.0" encoding="UTF-8" standalone="no"?>
<svg width="48px" height="48px" viewBox="0 0 48 48" version="1.1" xmlns="http://www.w3.org/2000/svg" xmlns:xlink="http://www.w3.org/1999/xlink">
    <!-- Generator: Sketch 3.6.1 (26313) - http://www.bohemiancoding.com/sketch -->
    <title>menu_icon_event_selected</title>
    <desc>Created with Sketch.</desc>
    <defs></defs>
    <g id="Page-1" stroke="none" stroke-width="1" fill="none" fill-rule="evenodd">
        <g id="menu_icon_event_selected">
            <g id="1467800226_calender_date_event" transform="translate(4.000000, 4.000000)">
                <g id="Layer_1">
                    <g id="Group">
                        <path d="M35.1764255,5.03676596 L35.1764255,3.41523404 C35.1764255,1.54357447 33.653617,0.0208510638 31.7819574,0.0208510638 L31.4279149,0.0208510638 C29.5562553,0.0208510638 28.0334468,1.54357447 28.0334468,3.41523404 L28.0334468,5.03676596 L11.9664681,5.03676596 L11.9664681,3.41523404 C11.9664681,1.54357447 10.4437447,0.0208510638 8.572,0.0208510638 L8.21787234,0.0208510638 C6.34621277,0.0208510638 4.82348936,1.54357447 4.82348936,3.41523404 L4.82348936,5.03676596 L0.0200851064,5.03676596 L0.0200851064,17.576 L0.0200851064,40.3195745 L39.9798298,40.3195745 L39.9798298,17.576 L39.9798298,5.03676596 L35.1764255,5.03676596 L35.1764255,5.03676596 Z M29.7356596,3.41523404 C29.7356596,2.48212766 30.4948085,1.72297872 31.428,1.72297872 L31.7820426,1.72297872 C32.715234,1.72297872 33.474383,2.48212766 33.474383,3.41523404 L33.474383,5.03676596 L33.474383,7.83634043 C33.474383,8.76944681 32.715234,9.52868085 31.7820426,9.52868085 L31.428,9.52868085 C30.4948085,9.52868085 29.7356596,8.76953191 29.7356596,7.83634043 L29.7356596,5.03676596 L29.7356596,3.41523404 L29.7356596,3.41523404 Z M6.52570213,3.41523404 C6.52570213,2.48212766 7.28485106,1.72297872 8.21795745,1.72297872 L8.57208511,1.72297872 C9.50519149,1.72297872 10.2644255,2.48212766 10.2644255,3.41523404 L10.2644255,5.03676596 L10.2644255,7.83634043 C10.2644255,8.76944681 9.5052766,9.52868085 8.57208511,9.52868085 L8.21795745,9.52868085 C7.28485106,9.52868085 6.52570213,8.76953191 6.52570213,7.83634043 L6.52570213,5.03676596 L6.52570213,3.41523404 L6.52570213,3.41523404 Z M1.72221277,6.73889362 L4.82348936,6.73889362 L4.82348936,7.83634043 C4.82348936,9.70808511 6.34621277,11.2308085 8.21787234,11.2308085 L8.572,11.2308085 C10.4437447,11.2308085 11.9664681,9.70808511 11.9664681,7.83634043 L11.9664681,6.73889362 L28.0334468,6.73889362 L28.0334468,7.83634043 C28.0334468,9.70808511 29.5562553,11.2308085 31.4279149,11.2308085 L31.7819574,11.2308085 C33.653617,11.2308085 35.1764255,9.70808511 35.1764255,7.83634043 L35.1764255,6.73889362 L38.2777021,6.73889362 L38.2777021,15.8738723 L1.72221277,15.8738723 L1.72221277,6.73889362 L1.72221277,6.73889362 Z M38.2777872,38.6174468 L1.72221277,38.6174468 L1.72221277,17.576 L38.2777021,17.576 L38.2777021,38.6174468 L38.2777872,38.6174468 Z" id="Shape" fill="#446495"></path>
                        <circle id="Oval" stroke="#446495" cx="8.09787234" cy="27.9388936" r="1.7852766"></circle>
                        <circle id="Oval" stroke="#446495" cx="8.09787234" cy="33.8899574" r="1.7852766"></circle>
                        <circle id="Oval" stroke="#446495" cx="14.0489362" cy="27.9388936" r="1.7852766"></circle>
                        <circle id="Oval" stroke="#446495" cx="14.0489362" cy="33.8899574" r="1.7852766"></circle>
                        <circle id="Oval" stroke="#446495" cx="20" cy="21.9878298" r="1.7852766"></circle>
                        <circle id="Oval" stroke="#446495" cx="20" cy="27.9388936" r="1.7852766"></circle>
                        <circle id="Oval" stroke="#446495" cx="20" cy="33.8899574" r="1.7852766"></circle>
                        <circle id="Oval" stroke="#446495" cx="25.9510638" cy="21.9878298" r="1.7852766"></circle>
                        <circle id="Oval" stroke="#446495" cx="25.9510638" cy="27.9388936" r="1.7852766"></circle>
                        <circle id="Oval" stroke="#446495" cx="25.9510638" cy="33.8899574" r="1.7852766"></circle>
                        <circle id="Oval" stroke="#446495" cx="31.9021277" cy="21.9878298" r="1.7852766"></circle>
                        <circle id="Oval" stroke="#446495" cx="31.9021277" cy="27.9388936" r="1.7852766"></circle>
                    </g>
                </g>
            </g>
        </g>
    </g>
</svg>