<?xml version="1.0" encoding="UTF-8" standalone="no"?>
<svg width="48px" height="48px" viewBox="0 0 48 48" version="1.1" xmlns="http://www.w3.org/2000/svg" xmlns:xlink="http://www.w3.org/1999/xlink">
    <!-- Generator: Sketch 3.6.1 (26313) - http://www.bohemiancoding.com/sketch -->
    <title>menu_icon_announce_selected</title>
    <desc>Created with Sketch.</desc>
    <defs></defs>
    <g id="Page-1" stroke="none" stroke-width="1" fill="none" fill-rule="evenodd">
        <g id="menu_icon_announce_selected" stroke="#446495">
            <g id="1467805231_sound_speaker" transform="translate(2.000000, 3.000000)">
                <g id="svg4156">
                    <g id="layer1">
                        <g id="g6463" transform="translate(21.724462, 21.268475) rotate(45.000000) translate(-21.724462, -21.268475) translate(9.724462, 3.268475)">
                            <path d="M5.86966233,11.0078878 C7.3641838,9.3118958 9.55238416,8.24081956 11.9905911,8.24081956 C14.4288233,8.24081956 16.6160473,9.3118958 18.1105687,11.0078878" id="path5989-2-1-83"></path>
                            <path d="M0.0485172069,5.18673005 C3.03640108,2.00499153 7.281474,0.0182931665 11.9906037,0.0182931665 C16.699765,0.0182931665 20.9438615,2.00499153 23.9317076,5.18673005" id="path5989-9-5-4-8"></path>
                            <path d="M2.89323059,8.12236122 C5.15185712,5.66761229 8.39184527,4.12955636 11.9905848,4.12955636 C15.5893181,4.12955636 18.8283677,5.66761229 21.0869942,8.12236122" id="path5989-98-4-2-3"></path>
                            <path d="M3.94826881,13.4072155 L20.0319623,13.4072155 C18.2133922,19.1463311 16.5365375,24.6728895 14.7179675,30.4120051 L14.7179675,35.1946036 L9.40396636,35.1946036 L9.40396636,30.4120051 L3.94826881,13.4072155 Z" id="path6326-7"></path>
                            <path d="M16.0996181,26.6567784 L20.634232,26.6567784 C21.1837703,26.6567784 21.6261764,27.0991845 21.6261764,27.6487228 L21.6261764,28.2155527 C21.6261764,28.765091 21.1837703,29.2074971 20.634232,29.2074971 L15.46194,29.2074971" id="rect6328-1"></path>
                            <path d="M9.58110897,30.3809524 L14.6825465,30.3809524" id="rect6380-0"></path>
                        </g>
                    </g>
                </g>
            </g>
        </g>
    </g>
</svg>