<svg width="1440" height="669" xmlns="http://www.w3.org/2000/svg"><g><path d="M-81,-38L-79,526L-71,241Z" fill="#f2b8a1" stroke="#f2b8a1"/><path d="M-81,-38L-71,241L-52,31Z" fill="#f69f79" stroke="#f69f79"/><path d="M-81,-38L-52,31L48,-32Z" fill="#f79163" stroke="#f79163"/><path d="M-81,-38L48,-32L249,-60Z" fill="#f8976a" stroke="#f8976a"/><path d="M-81,-38L249,-60L360,-76Z" fill="#faa177" stroke="#faa177"/><path d="M48,-32L-52,31L24,81Z" fill="#f79e75" stroke="#f79e75"/><path d="M48,-32L24,81L161,30Z" fill="#f9a680" stroke="#f9a680"/><path d="M48,-32L161,30L176,-38Z" fill="#f9a47d" stroke="#f9a47d"/><path d="M48,-32L176,-38L249,-60Z" fill="#faa178" stroke="#faa178"/><path d="M176,-38L161,30L249,-60Z" fill="#fbab85" stroke="#fbab85"/><path d="M249,-60L161,30L258,82Z" fill="#fbb696" stroke="#fbb696"/><path d="M249,-60L258,82L356,72Z" fill="#fcc1a4" stroke="#fcc1a4"/><path d="M249,-60L356,72L360,-76Z" fill="#fdba9a" stroke="#fdba9a"/><path d="M360,-76L356,72L466,68Z" fill="#feccb3" stroke="#feccb3"/><path d="M360,-76L466,68L530,-86Z" fill="#ffc8ac" stroke="#ffc8ac"/><path d="M530,-86L466,68L581,-45Z" fill="#fac8af" stroke="#fac8af"/><path d="M530,-86L581,-45L690,-43Z" fill="#f2b99b" stroke="#f2b99b"/><path d="M530,-86L690,-43L855,-81Z" fill="#e9ad8e" stroke="#e9ad8e"/><path d="M530,-86L855,-81L919,-87Z" fill="#e1a282" stroke="#e1a282"/><path d="M581,-45L466,68L610,34Z" fill="#f8ceb9" stroke="#f8ceb9"/><path d="M581,-45L610,34L690,-43Z" fill="#f0bfa5" stroke="#f0bfa5"/><path d="M690,-43L610,34L723,22Z" fill="#ebbea7" stroke="#ebbea7"/><path d="M690,-43L723,22L855,-81Z" fill="#e2ad92" stroke="#e2ad92"/><path d="M855,-81L723,22L838,79Z" fill="#ddb19a" stroke="#ddb19a"/><path d="M855,-81L838,79L931,27Z" fill="#d5a993" stroke="#d5a993"/><path d="M855,-81L931,27L919,-87Z" fill="#d29b7f" stroke="#d29b7f"/><path d="M919,-87L931,27L1037,-72Z" fill="#cc967a" stroke="#cc967a"/><path d="M919,-87L1037,-72L1148,-75Z" fill="#c48767" stroke="#c48767"/><path d="M919,-87L1148,-75L1568,-87Z" fill="#b27353" stroke="#b27353"/><path d="M1037,-72L931,27L1044,51Z" fill="#c89b83" stroke="#c89b83"/><path d="M1037,-72L1044,51L1126,44Z" fill="#c1957e" stroke="#c1957e"/><path d="M1037,-72L1126,44L1148,-75Z" fill="#bd886d" stroke="#bd886d"/><path d="M1148,-75L1126,44L1283,-34Z" fill="#b48269" stroke="#b48269"/><path d="M1148,-75L1283,-34L1409,-37Z" fill="#aa7356" stroke="#aa7356"/><path d="M1148,-75L1409,-37L1568,-87Z" fill="#a06547" stroke="#a06547"/><path d="M1283,-34L1126,44L1259,76Z" fill="#b08974" stroke="#b08974"/><path d="M1283,-34L1259,76L1344,46Z" fill="#a9816d" stroke="#a9816d"/><path d="M1283,-34L1344,46L1409,-37Z" fill="#a3745c" stroke="#a3745c"/><path d="M1409,-37L1344,46L1480,22Z" fill="#9c715a" stroke="#9c715a"/><path d="M1409,-37L1480,22L1505,-23Z" fill="#97674e" stroke="#97674e"/><path d="M1409,-37L1505,-23L1568,-87Z" fill="#945c40" stroke="#945c40"/><path d="M1505,-23L1480,22L1580,59Z" fill="#916752" stroke="#916752"/><path d="M1505,-23L1580,59L1568,-87Z" fill="#8d5c43" stroke="#8d5c43"/><path d="M1568,-87L1580,59L1590,151Z" fill="#8a6552" stroke="#8a6552"/><path d="M1568,-87L1590,151L1625,395Z" fill="#897a73" stroke="#897a73"/><path d="M-52,31L-71,241L-39,150Z" fill="#f6ad8e" stroke="#f6ad8e"/><path d="M-52,31L-39,150L24,81Z" fill="#f7a783" stroke="#f7a783"/><path d="M24,81L-39,150L22,137Z" fill="#f7b192" stroke="#f7b192"/><path d="M24,81L22,137L169,148Z" fill="#f8b99d" stroke="#f8b99d"/><path d="M24,81L169,148L161,30Z" fill="#f9b79a" stroke="#f9b79a"/><path d="M161,30L169,148L258,82Z" fill="#fbc1a7" stroke="#fbc1a7"/><path d="M258,82L169,148L246,164Z" fill="#fbceb9" stroke="#fbceb9"/><path d="M258,82L246,164L356,72Z" fill="#fcd0bc" stroke="#fcd0bc"/><path d="M356,72L246,164L383,182Z" fill="#fddccc" stroke="#fddccc"/><path d="M356,72L383,182L466,68Z" fill="#fedece" stroke="#fedece"/><path d="M466,68L383,182L513,130Z" fill="#ffe9dd" stroke="#ffe9dd"/><path d="M466,68L513,130L610,34Z" fill="#fadccd" stroke="#fadccd"/><path d="M610,34L513,130L575,159Z" fill="#f6dfd3" stroke="#f6dfd3"/><path d="M610,34L575,159L727,143Z" fill="#efd8cc" stroke="#efd8cc"/><path d="M610,34L727,143L723,22Z" fill="#e9c9b9" stroke="#e9c9b9"/><path d="M723,22L727,143L838,79Z" fill="#e1c4b5" stroke="#e1c4b5"/><path d="M838,79L727,143L798,184Z" fill="#dfcdc4" stroke="#dfcdc4"/><path d="M838,79L798,184L904,165Z" fill="#d8c8bf" stroke="#d8c8bf"/><path d="M838,79L904,165L931,27Z" fill="#d4b9ab" stroke="#d4b9ab"/><path d="M931,27L904,165L1018,133Z" fill="#cdb6aa" stroke="#cdb6aa"/><path d="M931,27L1018,133L1044,51Z" fill="#c8a999" stroke="#c8a999"/><path d="M1044,51L1018,133L1126,44Z" fill="#c1a394" stroke="#c1a394"/><path d="M1126,44L1018,133L1163,170Z" fill="#bda79c" stroke="#bda79c"/><path d="M1126,44L1163,170L1259,76Z" fill="#b59b8e" stroke="#b59b8e"/><path d="M1259,76L1163,170L1298,180Z" fill="#af9e96" stroke="#af9e96"/><path d="M1259,76L1298,180L1344,46Z" fill="#a88f82" stroke="#a88f82"/><path d="M1344,46L1298,180L1396,148Z" fill="#a38f85" stroke="#a38f85"/><path d="M1344,46L1396,148L1480,22Z" fill="#9d7e6e" stroke="#9d7e6e"/><path d="M1480,22L1396,148L1456,195Z" fill="#998479" stroke="#998479"/><path d="M1480,22L1456,195L1580,59Z" fill="#92786a" stroke="#92786a"/><path d="M1580,59L1456,195L1590,151Z" fill="#8e7c73" stroke="#8e7c73"/><path d="M-39,150L-71,241L54,254Z" fill="#f7c1ab" stroke="#f7c1ab"/><path d="M-39,150L54,254L22,137Z" fill="#f7bea6" stroke="#f7bea6"/><path d="M22,137L54,254L169,148Z" fill="#f9c6b1" stroke="#f9c6b1"/><path d="M169,148L54,254L151,271Z" fill="#f9d4c5" stroke="#f9d4c5"/><path d="M169,148L151,271L246,164Z" fill="#fad6c7" stroke="#fad6c7"/><path d="M246,164L151,271L283,290Z" fill="#f8ddd3" stroke="#f8ddd3"/><path d="M246,164L283,290L383,182Z" fill="#fce8df" stroke="#fce8df"/><path d="M383,182L283,290L382,289Z" fill="#f8eae5" stroke="#f8eae5"/><path d="M383,182L382,289L508,276Z" fill="#faf4f2" stroke="#faf4f2"/><path d="M383,182L508,276L513,130Z" fill="#fff8f5" stroke="#fff8f5"/><path d="M513,130L508,276L575,159Z" fill="#faf3ef" stroke="#faf3ef"/><path d="M575,159L508,276L588,299Z" fill="#f4f4f4" stroke="#f4f4f4"/><path d="M575,159L588,299L708,260Z" fill="#ededed" stroke="#ededed"/><path d="M575,159L708,260L727,143Z" fill="#ebe4e0" stroke="#ebe4e0"/><path d="M727,143L708,260L798,184Z" fill="#e3dedb" stroke="#e3dedb"/><path d="M798,184L708,260L848,272Z" fill="#dcdcdc" stroke="#dcdcdc"/><path d="M798,184L848,272L903,248Z" fill="#d6d6d6" stroke="#d6d6d6"/><path d="M798,184L903,248L904,165Z" fill="#d6d1ce" stroke="#d6d1ce"/><path d="M904,165L903,248L1018,133Z" fill="#cec6c2" stroke="#cec6c2"/><path d="M1018,133L903,248L1059,278Z" fill="#c9c8c8" stroke="#c9c8c8"/><path d="M1018,133L1059,278L1163,170Z" fill="#c0bab7" stroke="#c0bab7"/><path d="M1163,170L1059,278L1164,275Z" fill="#b7b7b7" stroke="#b7b7b7"/><path d="M1163,170L1164,275L1246,267Z" fill="#b1b1b1" stroke="#b1b1b1"/><path d="M1163,170L1246,267L1298,180Z" fill="#afaba9" stroke="#afaba9"/><path d="M1298,180L1246,267L1394,268Z" fill="#a4a4a4" stroke="#a4a4a4"/><path d="M1298,180L1394,268L1396,148Z" fill="#a19c9a" stroke="#a19c9a"/><path d="M1396,148L1394,268L1456,195Z" fill="#9c9896" stroke="#9c9896"/><path d="M1456,195L1394,268L1471,294Z" fill="#949494" stroke="#949494"/><path d="M1456,195L1471,294L1587,276Z" fill="#8d8d8d" stroke="#8d8d8d"/><path d="M1456,195L1587,276L1590,151Z" fill="#8e8b89" stroke="#8e8b89"/><path d="M1590,151L1587,276L1625,395Z" fill="#808080" stroke="#808080"/><path d="M-71,241L-79,526L-69,353Z" fill="#dea38c" stroke="#dea38c"/><path d="M-71,241L-69,353L38,356Z" fill="#e7b19c" stroke="#e7b19c"/><path d="M-71,241L38,356L54,254Z" fill="#edbca8" stroke="#edbca8"/><path d="M54,254L38,356L151,271Z" fill="#edc3b2" stroke="#edc3b2"/><path d="M151,271L38,356L171,361Z" fill="#e8c2b3" stroke="#e8c2b3"/><path d="M151,271L171,361L283,290Z" fill="#edcfc4" stroke="#edcfc4"/><path d="M283,290L171,361L260,360Z" fill="#e9cfc5" stroke="#e9cfc5"/><path d="M283,290L260,360L355,368Z" fill="#e9d6cf" stroke="#e9d6cf"/><path d="M283,290L355,368L382,289Z" fill="#eedfd9" stroke="#eedfd9"/><path d="M382,289L355,368L473,372Z" fill="#eae2df" stroke="#eae2df"/><path d="M382,289L473,372L508,276Z" fill="#f0eeed" stroke="#f0eeed"/><path d="M508,276L473,372L588,299Z" fill="#ececec" stroke="#ececec"/><path d="M588,299L473,372L619,419Z" fill="#e0e0e0" stroke="#e0e0e0"/><path d="M588,299L619,419L712,387Z" fill="#d6d6d6" stroke="#d6d6d6"/><path d="M588,299L712,387L708,260Z" fill="#dcdcdc" stroke="#dcdcdc"/><path d="M708,260L712,387L838,362Z" fill="#d0d0d0" stroke="#d0d0d0"/><path d="M708,260L838,362L848,272Z" fill="#d1d1d1" stroke="#d1d1d1"/><path d="M848,272L838,362L903,248Z" fill="#cbcbcb" stroke="#cbcbcb"/><path d="M903,248L838,362L964,414Z" fill="#bfbfbf" stroke="#bfbfbf"/><path d="M903,248L964,414L1059,278Z" fill="#bcbcbc" stroke="#bcbcbc"/><path d="M1059,278L964,414L1067,386Z" fill="#aeaeae" stroke="#aeaeae"/><path d="M1059,278L1067,386L1164,275Z" fill="#afafaf" stroke="#afafaf"/><path d="M1164,275L1067,386L1182,371Z" fill="#a5a5a5" stroke="#a5a5a5"/><path d="M1164,275L1182,371L1246,267Z" fill="#a6a6a6" stroke="#a6a6a6"/><path d="M1246,267L1182,371L1268,407Z" fill="#9b9b9b" stroke="#9b9b9b"/><path d="M1246,267L1268,407L1394,268Z" fill="#999999" stroke="#999999"/><path d="M1394,268L1268,407L1370,417Z" fill="#8c8c8c" stroke="#8c8c8c"/><path d="M1394,268L1370,417L1471,294Z" fill="#8b8b8b" stroke="#8b8b8b"/><path d="M1471,294L1370,417L1492,393Z" fill="#818181" stroke="#818181"/><path d="M1471,294L1492,393L1587,276Z" fill="#818181" stroke="#818181"/><path d="M1587,276L1492,393L1625,395Z" fill="#767676" stroke="#767676"/><path d="M-69,353L-79,526L27,504Z" fill="#d09983" stroke="#d09983"/><path d="M-69,353L27,504L38,356Z" fill="#daa793" stroke="#daa793"/><path d="M38,356L27,504L182,479Z" fill="#d4aa9a" stroke="#d4aa9a"/><path d="M38,356L182,479L171,361Z" fill="#dcb8a9" stroke="#dcb8a9"/><path d="M171,361L182,479L260,360Z" fill="#dec1b5" stroke="#dec1b5"/><path d="M260,360L182,479L290,501Z" fill="#d7beb4" stroke="#d7beb4"/><path d="M260,360L290,501L355,368Z" fill="#decbc4" stroke="#decbc4"/><path d="M355,368L290,501L403,509Z" fill="#d7c9c3" stroke="#d7c9c3"/><path d="M355,368L403,509L473,372Z" fill="#dfd7d4" stroke="#dfd7d4"/><path d="M473,372L403,509L514,484Z" fill="#d9d7d7" stroke="#d9d7d7"/><path d="M473,372L514,484L619,419Z" fill="#d8d8d8" stroke="#d8d8d8"/><path d="M619,419L514,484L620,481Z" fill="#cdcdcd" stroke="#cdcdcd"/><path d="M619,419L620,481L712,387Z" fill="#cccccc" stroke="#cccccc"/><path d="M712,387L620,481L747,516Z" fill="#c2c2c2" stroke="#c2c2c2"/><path d="M712,387L747,516L847,479Z" fill="#bababa" stroke="#bababa"/><path d="M712,387L847,479L838,362Z" fill="#bfbfbf" stroke="#bfbfbf"/><path d="M838,362L847,479L937,473Z" fill="#b2b2b2" stroke="#b2b2b2"/><path d="M838,362L937,473L964,414Z" fill="#b2b2b2" stroke="#b2b2b2"/><path d="M964,414L937,473L1041,513Z" fill="#a2a2a2" stroke="#a2a2a2"/><path d="M964,414L1041,513L1067,386Z" fill="#a2a2a2" stroke="#a2a2a2"/><path d="M1067,386L1041,513L1131,467Z" fill="#9a9a9a" stroke="#9a9a9a"/><path d="M1067,386L1131,467L1182,371Z" fill="#9c9c9c" stroke="#9c9c9c"/><path d="M1182,371L1131,467L1268,407Z" fill="#949494" stroke="#949494"/><path d="M1268,407L1131,467L1272,475Z" fill="#8b8b8b" stroke="#8b8b8b"/><path d="M1268,407L1272,475L1370,417Z" fill="#858585" stroke="#858585"/><path d="M1370,417L1272,475L1356,530Z" fill="#7c7c7c" stroke="#7c7c7c"/><path d="M1370,417L1356,530L1519,518Z" fill="#707070" stroke="#707070"/><path d="M1370,417L1519,518L1492,393Z" fill="#737373" stroke="#737373"/><path d="M1492,393L1519,518L1562,476Z" fill="#696969" stroke="#696969"/><path d="M1492,393L1562,476L1625,395Z" fill="#6c6c6c" stroke="#6c6c6c"/><path d="M1625,395L1562,476L1576,581Z" fill="#5f5f5f" stroke="#5f5f5f"/><path d="M1625,395L1576,581L1626,792Z" fill="#4b4b4b" stroke="#4b4b4b"/><path d="M-79,526L-60,828L-59,628Z" fill="#af755e" stroke="#af755e"/><path d="M-79,526L-59,628L27,504Z" fill="#c18a75" stroke="#c18a75"/><path d="M27,504L-59,628L43,618Z" fill="#bc8a76" stroke="#bc8a76"/><path d="M27,504L43,618L159,577Z" fill="#c19685" stroke="#c19685"/><path d="M27,504L159,577L182,479Z" fill="#c9a394" stroke="#c9a394"/><path d="M182,479L159,577L290,501Z" fill="#caaea3" stroke="#caaea3"/><path d="M290,501L159,577L249,618Z" fill="#c3a99f" stroke="#c3a99f"/><path d="M290,501L249,618L388,616Z" fill="#c2b0a9" stroke="#c2b0a9"/><path d="M290,501L388,616L403,509Z" fill="#c9bdb8" stroke="#c9bdb8"/><path d="M403,509L388,616L463,638Z" fill="#c3bcba" stroke="#c3bcba"/><path d="M403,509L463,638L514,484Z" fill="#cac8c7" stroke="#cac8c7"/><path d="M514,484L463,638L574,602Z" fill="#c2c2c2" stroke="#c2c2c2"/><path d="M514,484L574,602L620,481Z" fill="#c5c5c5" stroke="#c5c5c5"/><path d="M620,481L574,602L692,591Z" fill="#b8b8b8" stroke="#b8b8b8"/><path d="M620,481L692,591L747,516Z" fill="#b7b7b7" stroke="#b7b7b7"/><path d="M747,516L692,591L832,631Z" fill="#a7a7a7" stroke="#a7a7a7"/><path d="M747,516L832,631L847,479Z" fill="#a8a8a8" stroke="#a8a8a8"/><path d="M847,479L832,631L925,635Z" fill="#9c9c9c" stroke="#9c9c9c"/><path d="M847,479L925,635L937,473Z" fill="#a0a0a0" stroke="#a0a0a0"/><path d="M937,473L925,635L1041,513Z" fill="#979797" stroke="#979797"/><path d="M1041,513L925,635L1068,572Z" fill="#8d8d8d" stroke="#8d8d8d"/><path d="M1041,513L1068,572L1131,467Z" fill="#909090" stroke="#909090"/><path d="M1131,467L1068,572L1125,579Z" fill="#898989" stroke="#898989"/><path d="M1131,467L1125,579L1272,475Z" fill="#878787" stroke="#878787"/><path d="M1272,475L1125,579L1270,637Z" fill="#787878" stroke="#787878"/><path d="M1272,475L1270,637L1356,530Z" fill="#737373" stroke="#737373"/><path d="M1356,530L1270,637L1396,623Z" fill="#676767" stroke="#676767"/><path d="M1356,530L1396,623L1519,518Z" fill="#646464" stroke="#646464"/><path d="M1519,518L1396,623L1517,602Z" fill="#5b5b5b" stroke="#5b5b5b"/><path d="M1519,518L1517,602L1576,581Z" fill="#565656" stroke="#565656"/><path d="M1519,518L1576,581L1562,476Z" fill="#5c5c5c" stroke="#5c5c5c"/><path d="M-59,628L-60,828L-52,748Z" fill="#a36a54" stroke="#a36a54"/><path d="M-59,628L-52,748L71,714Z" fill="#aa7661" stroke="#aa7661"/><path d="M-59,628L71,714L43,618Z" fill="#b1806d" stroke="#b1806d"/><path d="M43,618L71,714L159,577Z" fill="#b58c7c" stroke="#b58c7c"/><path d="M159,577L71,714L197,680Z" fill="#b38f81" stroke="#b38f81"/><path d="M159,577L197,680L249,618Z" fill="#b99b90" stroke="#b99b90"/><path d="M249,618L197,680L298,681Z" fill="#b49b92" stroke="#b49b92"/><path d="M249,618L298,681L388,616Z" fill="#b8a7a0" stroke="#b8a7a0"/><path d="M388,616L298,681L375,746Z" fill="#b2a5a0" stroke="#b2a5a0"/><path d="M388,616L375,746L463,638Z" fill="#b6aeab" stroke="#b6aeab"/><path d="M463,638L375,746L485,684Z" fill="#b2aeac" stroke="#b2aeac"/><path d="M463,638L485,684L574,602Z" fill="#b8b8b8" stroke="#b8b8b8"/><path d="M574,602L485,684L615,705Z" fill="#afafaf" stroke="#afafaf"/><path d="M574,602L615,705L692,591Z" fill="#adadad" stroke="#adadad"/><path d="M692,591L615,705L726,684Z" fill="#a3a3a3" stroke="#a3a3a3"/><path d="M692,591L726,684L832,631Z" fill="#9f9f9f" stroke="#9f9f9f"/><path d="M832,631L726,684L803,726Z" fill="#949494" stroke="#949494"/><path d="M832,631L803,726L925,635Z" fill="#909090" stroke="#909090"/><path d="M925,635L803,726L962,712Z" fill="#868686" stroke="#868686"/><path d="M925,635L962,712L1038,682Z" fill="#818181" stroke="#818181"/><path d="M925,635L1038,682L1068,572Z" fill="#848484" stroke="#848484"/><path d="M1068,572L1038,682L1125,579Z" fill="#808080" stroke="#808080"/><path d="M1125,579L1038,682L1136,694Z" fill="#777777" stroke="#777777"/><path d="M1125,579L1136,694L1270,637Z" fill="#727272" stroke="#727272"/><path d="M1270,637L1136,694L1260,722Z" fill="#656565" stroke="#656565"/><path d="M1270,637L1260,722L1386,691Z" fill="#5c5c5c" stroke="#5c5c5c"/><path d="M1270,637L1386,691L1396,623Z" fill="#5d5d5d" stroke="#5d5d5d"/><path d="M1396,623L1386,691L1477,687Z" fill="#535353" stroke="#535353"/><path d="M1396,623L1477,687L1517,602Z" fill="#535353" stroke="#535353"/><path d="M1517,602L1477,687L1586,707Z" fill="#484848" stroke="#484848"/><path d="M1517,602L1586,707L1576,581Z" fill="#4a4a4a" stroke="#4a4a4a"/><path d="M1576,581L1586,707L1626,792Z" fill="#3c3c3c" stroke="#3c3c3c"/><path d="M-52,748L-60,828L84,825Z" fill="#996551" stroke="#996551"/><path d="M-52,748L84,825L71,714Z" fill="#9f705e" stroke="#9f705e"/><path d="M71,714L84,825L144,818Z" fill="#9d7565" stroke="#9d7565"/><path d="M71,714L144,818L197,680Z" fill="#a68173" stroke="#a68173"/><path d="M197,680L144,818L285,797Z" fill="#a2867a" stroke="#a2867a"/><path d="M197,680L285,797L298,681Z" fill="#ab938a" stroke="#ab938a"/><path d="M298,681L285,797L375,746Z" fill="#a89790" stroke="#a89790"/><path d="M375,746L285,797L395,851Z" fill="#9f928c" stroke="#9f928c"/><path d="M375,746L395,851L477,809Z" fill="#9f9896" stroke="#9f9896"/><path d="M375,746L477,809L485,684Z" fill="#a9a6a4" stroke="#a9a6a4"/><path d="M485,684L477,809L615,705Z" fill="#a7a7a7" stroke="#a7a7a7"/><path d="M615,705L477,809L586,839Z" fill="#9b9b9b" stroke="#9b9b9b"/><path d="M615,705L586,839L710,821Z" fill="#929292" stroke="#929292"/><path d="M615,705L710,821L726,684Z" fill="#969696" stroke="#969696"/><path d="M726,684L710,821L803,726Z" fill="#8e8e8e" stroke="#8e8e8e"/><path d="M803,726L710,821L795,838Z" fill="#838383" stroke="#838383"/><path d="M803,726L795,838L926,826Z" fill="#7b7b7b" stroke="#7b7b7b"/><path d="M803,726L926,826L962,712Z" fill="#7c7c7c" stroke="#7c7c7c"/><path d="M962,712L926,826L1051,837Z" fill="#6d6d6d" stroke="#6d6d6d"/><path d="M962,712L1051,837L1038,682Z" fill="#717171" stroke="#717171"/><path d="M1038,682L1051,837L1136,694Z" fill="#6c6c6c" stroke="#6c6c6c"/><path d="M1136,694L1051,837L1186,838Z" fill="#5e5e5e" stroke="#5e5e5e"/><path d="M1136,694L1186,838L1260,722Z" fill="#5d5d5d" stroke="#5d5d5d"/><path d="M1260,722L1186,838L1245,841Z" fill="#515151" stroke="#515151"/><path d="M1260,722L1245,841L1392,845Z" fill="#494949" stroke="#494949"/><path d="M1260,722L1392,845L1386,691Z" fill="#4d4d4d" stroke="#4d4d4d"/><path d="M1386,691L1392,845L1484,795Z" fill="#414141" stroke="#414141"/><path d="M1386,691L1484,795L1477,687Z" fill="#464646" stroke="#464646"/><path d="M1477,687L1484,795L1586,707Z" fill="#3e3e3e" stroke="#3e3e3e"/><path d="M1586,707L1484,795L1626,792Z" fill="#333333" stroke="#333333"/><path d="M-60,828L395,851L84,825Z" fill="#967264" stroke="#967264"/><path d="M84,825L395,851L144,818Z" fill="#977b6f" stroke="#977b6f"/><path d="M144,818L395,851L285,797Z" fill="#9a847c" stroke="#9a847c"/><path d="M395,851L1392,845L1245,841Z" fill="#616161" stroke="#616161"/><path d="M395,851L1245,841L795,838Z" fill="#777777" stroke="#777777"/><path d="M395,851L795,838L586,839Z" fill="#8e8e8e" stroke="#8e8e8e"/><path d="M395,851L586,839L477,809Z" fill="#9b9b9b" stroke="#9b9b9b"/><path d="M586,839L795,838L710,821Z" fill="#848484" stroke="#848484"/><path d="M795,838L1245,841L1051,837Z" fill="#606060" stroke="#606060"/><path d="M795,838L1051,837L926,826Z" fill="#6c6c6c" stroke="#6c6c6c"/><path d="M1051,837L1245,841L1186,838Z" fill="#525252" stroke="#525252"/><path d="M1392,845L1626,792L1484,795Z" fill="#333333" stroke="#333333"/></g></svg>