<svg width="1440" height="669" xmlns="http://www.w3.org/2000/svg"><g><path d="M-54,-22L-69,744L-57,134Z" fill="#cdf6ca" stroke="#cdf6ca"/><path d="M-54,-22L-57,134L-42,61Z" fill="#f4fdf1" stroke="#f4fdf1"/><path d="M-54,-22L-42,61L43,37Z" fill="#f5fcf3" stroke="#f5fcf3"/><path d="M-54,-22L43,37L28,-57Z" fill="#f6fcf4" stroke="#f6fcf4"/><path d="M28,-57L43,37L120,-62Z" fill="#f2faef" stroke="#f2faef"/><path d="M120,-62L43,37L160,34Z" fill="#eef9ec" stroke="#eef9ec"/><path d="M120,-62L160,34L211,-61Z" fill="#ebf7e8" stroke="#ebf7e8"/><path d="M120,-62L211,-61L406,-69Z" fill="#e5f5e2" stroke="#e5f5e2"/><path d="M211,-61L160,34L215,35Z" fill="#e8f6e5" stroke="#e8f6e5"/><path d="M211,-61L215,35L322,-61Z" fill="#e5f5e2" stroke="#e5f5e2"/><path d="M211,-61L322,-61L406,-69Z" fill="#e0f3dd" stroke="#e0f3dd"/><path d="M322,-61L215,35L293,62Z" fill="#e2f4de" stroke="#e2f4de"/><path d="M322,-61L293,62L429,67Z" fill="#dcf2d7" stroke="#dcf2d7"/><path d="M322,-61L429,67L406,-69Z" fill="#daf1d7" stroke="#daf1d7"/><path d="M406,-69L429,67L516,-23Z" fill="#d4eed2" stroke="#d4eed2"/><path d="M406,-69L516,-23L607,-58Z" fill="#ceebcd" stroke="#ceebcd"/><path d="M406,-69L607,-58L1203,-56Z" fill="#b8e0b9" stroke="#b8e0b9"/><path d="M406,-69L1203,-56L1482,-70Z" fill="#97c9a6" stroke="#97c9a6"/><path d="M516,-23L429,67L473,66Z" fill="#ceedcb" stroke="#ceedcb"/><path d="M516,-23L473,66L562,34Z" fill="#cbebc9" stroke="#cbebc9"/><path d="M516,-23L562,34L607,-58Z" fill="#c9e9c8" stroke="#c9e9c8"/><path d="M607,-58L562,34L653,28Z" fill="#c5e7c4" stroke="#c5e7c4"/><path d="M607,-58L653,28L667,-39Z" fill="#c1e5c1" stroke="#c1e5c1"/><path d="M607,-58L667,-39L869,-37Z" fill="#bae2bb" stroke="#bae2bb"/><path d="M607,-58L869,-37L922,-47Z" fill="#b1dbb5" stroke="#b1dbb5"/><path d="M607,-58L922,-47L1203,-56Z" fill="#a4d3ae" stroke="#a4d3ae"/><path d="M667,-39L653,28L764,-22Z" fill="#bce3bd" stroke="#bce3bd"/><path d="M667,-39L764,-22L869,-37Z" fill="#b5deb8" stroke="#b5deb8"/><path d="M764,-22L653,28L752,50Z" fill="#b7e2b8" stroke="#b7e2b8"/><path d="M764,-22L752,50L836,30Z" fill="#b1ddb4" stroke="#b1ddb4"/><path d="M764,-22L836,30L869,-37Z" fill="#aedab4" stroke="#aedab4"/><path d="M869,-37L836,30L943,20Z" fill="#a7d5af" stroke="#a7d5af"/><path d="M869,-37L943,20L922,-47Z" fill="#a4d3ae" stroke="#a4d3ae"/><path d="M922,-47L943,20L1037,-44Z" fill="#9eceaa" stroke="#9eceaa"/><path d="M922,-47L1037,-44L1203,-56Z" fill="#94c7a4" stroke="#94c7a4"/><path d="M1037,-44L943,20L1049,40Z" fill="#99cba7" stroke="#99cba7"/><path d="M1037,-44L1049,40L1106,-40Z" fill="#93c7a3" stroke="#93c7a3"/><path d="M1037,-44L1106,-40L1203,-56Z" fill="#8dc2a0" stroke="#8dc2a0"/><path d="M1106,-40L1049,40L1139,28Z" fill="#8ec4a0" stroke="#8ec4a0"/><path d="M1106,-40L1139,28L1203,-56Z" fill="#89c09e" stroke="#89c09e"/><path d="M1203,-56L1139,28L1218,33Z" fill="#85bd9b" stroke="#85bd9b"/><path d="M1203,-56L1218,33L1295,-43Z" fill="#80b997" stroke="#80b997"/><path d="M1203,-56L1295,-43L1482,-70Z" fill="#80b291" stroke="#80b291"/><path d="M1295,-43L1218,33L1304,20Z" fill="#7fb695" stroke="#7fb695"/><path d="M1295,-43L1304,20L1380,-26Z" fill="#80b291" stroke="#80b291"/><path d="M1295,-43L1380,-26L1482,-70Z" fill="#80ad8d" stroke="#80ad8d"/><path d="M1380,-26L1304,20L1388,21Z" fill="#7faf8f" stroke="#7faf8f"/><path d="M1380,-26L1388,21L1482,-70Z" fill="#80ab8b" stroke="#80ab8b"/><path d="M1482,-70L1388,21L1474,67Z" fill="#7fa888" stroke="#7fa888"/><path d="M1482,-70L1474,67L1495,296Z" fill="#76a57a" stroke="#76a57a"/><path d="M-42,61L-57,134L63,120Z" fill="#edfce8" stroke="#edfce8"/><path d="M-42,61L63,120L43,37Z" fill="#eefbea" stroke="#eefbea"/><path d="M43,37L63,120L160,34Z" fill="#e9f9e6" stroke="#e9f9e6"/><path d="M160,34L63,120L155,125Z" fill="#e4f8df" stroke="#e4f8df"/><path d="M160,34L155,125L215,35Z" fill="#e3f7df" stroke="#e3f7df"/><path d="M215,35L155,125L242,119Z" fill="#dff6d9" stroke="#dff6d9"/><path d="M215,35L242,119L293,62Z" fill="#def5d9" stroke="#def5d9"/><path d="M293,62L242,119L326,118Z" fill="#d8f4d2" stroke="#d8f4d2"/><path d="M293,62L326,118L429,67Z" fill="#d6f2d0" stroke="#d6f2d0"/><path d="M429,67L326,118L422,154Z" fill="#cff0c9" stroke="#cff0c9"/><path d="M429,67L422,154L473,66Z" fill="#cbeec6" stroke="#cbeec6"/><path d="M473,66L422,154L506,120Z" fill="#c7edc2" stroke="#c7edc2"/><path d="M473,66L506,120L562,34Z" fill="#c7ebc3" stroke="#c7ebc3"/><path d="M562,34L506,120L581,115Z" fill="#c1e9be" stroke="#c1e9be"/><path d="M562,34L581,115L653,28Z" fill="#c0e7be" stroke="#c0e7be"/><path d="M653,28L581,115L666,141Z" fill="#b9e6b6" stroke="#b9e6b6"/><path d="M653,28L666,141L752,50Z" fill="#b6e3b4" stroke="#b6e3b4"/><path d="M752,50L666,141L777,145Z" fill="#ade1ac" stroke="#ade1ac"/><path d="M752,50L777,145L836,30Z" fill="#abdcad" stroke="#abdcad"/><path d="M836,30L777,145L851,136Z" fill="#a4daa7" stroke="#a4daa7"/><path d="M836,30L851,136L936,133Z" fill="#9ed6a4" stroke="#9ed6a4"/><path d="M836,30L936,133L943,20Z" fill="#9fd3a7" stroke="#9fd3a7"/><path d="M943,20L936,133L1020,112Z" fill="#96ce9f" stroke="#96ce9f"/><path d="M943,20L1020,112L1049,40Z" fill="#94cba0" stroke="#94cba0"/><path d="M1049,40L1020,112L1135,122Z" fill="#8ac698" stroke="#8ac698"/><path d="M1049,40L1135,122L1139,28Z" fill="#88c398" stroke="#88c398"/><path d="M1139,28L1135,122L1218,33Z" fill="#82bf95" stroke="#82bf95"/><path d="M1218,33L1135,122L1220,139Z" fill="#7bbc8e" stroke="#7bbc8e"/><path d="M1218,33L1220,139L1304,20Z" fill="#79b88f" stroke="#79b88f"/><path d="M1304,20L1220,139L1327,132Z" fill="#76b588" stroke="#76b588"/><path d="M1304,20L1327,132L1388,21Z" fill="#7ab18a" stroke="#7ab18a"/><path d="M1388,21L1327,132L1411,128Z" fill="#77ae82" stroke="#77ae82"/><path d="M1388,21L1411,128L1474,67Z" fill="#79aa82" stroke="#79aa82"/><path d="M1474,67L1411,128L1473,122Z" fill="#75a87b" stroke="#75a87b"/><path d="M1474,67L1473,122L1495,296Z" fill="#70a672" stroke="#70a672"/><path d="M-57,134L-69,744L-56,662Z" fill="#8ccea0" stroke="#8ccea0"/><path d="M-57,134L-56,662L-38,473Z" fill="#a6e1b0" stroke="#a6e1b0"/><path d="M-57,134L-38,473L-36,429Z" fill="#bcf0bd" stroke="#bcf0bd"/><path d="M-57,134L-36,429L-27,248Z" fill="#cff6cc" stroke="#cff6cc"/><path d="M-57,134L-27,248L56,225Z" fill="#ddfad8" stroke="#ddfad8"/><path d="M-57,134L56,225L63,120Z" fill="#e5fbdf" stroke="#e5fbdf"/><path d="M63,120L56,225L124,219Z" fill="#dbf8d5" stroke="#dbf8d5"/><path d="M63,120L124,219L155,125Z" fill="#dff9d8" stroke="#dff9d8"/><path d="M155,125L124,219L235,227Z" fill="#d4f5cd" stroke="#d4f5cd"/><path d="M155,125L235,227L242,119Z" fill="#d8f6d1" stroke="#d8f6d1"/><path d="M242,119L235,227L329,231Z" fill="#ccf3c6" stroke="#ccf3c6"/><path d="M242,119L329,231L326,118Z" fill="#d2f3ca" stroke="#d2f3ca"/><path d="M326,118L329,231L422,154Z" fill="#ccf2c4" stroke="#ccf2c4"/><path d="M422,154L329,231L389,248Z" fill="#bfeeb9" stroke="#bfeeb9"/><path d="M422,154L389,248L514,212Z" fill="#bbecb5" stroke="#bbecb5"/><path d="M422,154L514,212L506,120Z" fill="#c1ecbb" stroke="#c1ecbb"/><path d="M506,120L514,212L567,213Z" fill="#b8e9b3" stroke="#b8e9b3"/><path d="M506,120L567,213L581,115Z" fill="#bce9b6" stroke="#bce9b6"/><path d="M581,115L567,213L666,141Z" fill="#b5e7b1" stroke="#b5e7b1"/><path d="M666,141L567,213L662,236Z" fill="#aae4a7" stroke="#aae4a7"/><path d="M666,141L662,236L772,222Z" fill="#a3e1a0" stroke="#a3e1a0"/><path d="M666,141L772,222L777,145Z" fill="#a7e0a4" stroke="#a7e0a4"/><path d="M777,145L772,222L855,205Z" fill="#9ada9b" stroke="#9ada9b"/><path d="M777,145L855,205L851,136Z" fill="#9ed99f" stroke="#9ed99f"/><path d="M851,136L855,205L936,133Z" fill="#98d59c" stroke="#98d59c"/><path d="M936,133L855,205L954,211Z" fill="#8fd195" stroke="#8fd195"/><path d="M936,133L954,211L1020,112Z" fill="#8fce97" stroke="#8fce97"/><path d="M1020,112L954,211L1020,228Z" fill="#86cb8f" stroke="#86cb8f"/><path d="M1020,112L1020,228L1131,201Z" fill="#80c68c" stroke="#80c68c"/><path d="M1020,112L1131,201L1135,122Z" fill="#81c48f" stroke="#81c48f"/><path d="M1135,122L1131,201L1220,139Z" fill="#79bf89" stroke="#79bf89"/><path d="M1220,139L1131,201L1212,214Z" fill="#70bc82" stroke="#70bc82"/><path d="M1220,139L1212,214L1311,229Z" fill="#69b67c" stroke="#69b67c"/><path d="M1220,139L1311,229L1327,132Z" fill="#6fb57f" stroke="#6fb57f"/><path d="M1327,132L1311,229L1387,231Z" fill="#68af75" stroke="#68af75"/><path d="M1327,132L1387,231L1411,128Z" fill="#70ae7a" stroke="#70ae7a"/><path d="M1411,128L1387,231L1479,234Z" fill="#68a86f" stroke="#68a86f"/><path d="M1411,128L1479,234L1473,122Z" fill="#70a874" stroke="#70a874"/><path d="M1473,122L1479,234L1495,296Z" fill="#63a267" stroke="#63a267"/><path d="M-27,248L-36,429L-22,310Z" fill="#bff3be" stroke="#bff3be"/><path d="M-27,248L-22,310L36,294Z" fill="#c9f4c7" stroke="#c9f4c7"/><path d="M-27,248L36,294L56,225Z" fill="#cef6cb" stroke="#cef6cb"/><path d="M56,225L36,294L124,219Z" fill="#cdf5c9" stroke="#cdf5c9"/><path d="M124,219L36,294L122,338Z" fill="#c2f2bf" stroke="#c2f2bf"/><path d="M124,219L122,338L204,337Z" fill="#baf0b8" stroke="#baf0b8"/><path d="M124,219L204,337L235,227Z" fill="#c1f1bd" stroke="#c1f1bd"/><path d="M235,227L204,337L298,296Z" fill="#b6edb3" stroke="#b6edb3"/><path d="M235,227L298,296L329,231Z" fill="#bceeb8" stroke="#bceeb8"/><path d="M329,231L298,296L393,291Z" fill="#b3ecaf" stroke="#b3ecaf"/><path d="M329,231L393,291L389,248Z" fill="#b5ecb0" stroke="#b5ecb0"/><path d="M389,248L393,291L514,212Z" fill="#b0eaac" stroke="#b0eaac"/><path d="M514,212L393,291L511,336Z" fill="#a5e6a3" stroke="#a5e6a3"/><path d="M514,212L511,336L567,213Z" fill="#a6e5a3" stroke="#a6e5a3"/><path d="M567,213L511,336L588,329Z" fill="#9ae199" stroke="#9ae199"/><path d="M567,213L588,329L662,236Z" fill="#9de19b" stroke="#9de19b"/><path d="M662,236L588,329L661,309Z" fill="#92dd92" stroke="#92dd92"/><path d="M662,236L661,309L752,337Z" fill="#8cdb8d" stroke="#8cdb8d"/><path d="M662,236L752,337L772,222Z" fill="#90db90" stroke="#90db90"/><path d="M772,222L752,337L876,299Z" fill="#82d487" stroke="#82d487"/><path d="M772,222L876,299L855,205Z" fill="#89d48e" stroke="#89d48e"/><path d="M855,205L876,299L954,211Z" fill="#84cf8a" stroke="#84cf8a"/><path d="M954,211L876,299L969,338Z" fill="#74ca7e" stroke="#74ca7e"/><path d="M954,211L969,338L1020,228Z" fill="#75c780" stroke="#75c780"/><path d="M1020,228L969,338L1037,309Z" fill="#6ac377" stroke="#6ac377"/><path d="M1020,228L1037,309L1131,201Z" fill="#6fc27d" stroke="#6fc27d"/><path d="M1131,201L1037,309L1135,339Z" fill="#61bc73" stroke="#61bc73"/><path d="M1131,201L1135,339L1212,214Z" fill="#63b976" stroke="#63b976"/><path d="M1212,214L1135,339L1224,311Z" fill="#56b56c" stroke="#56b56c"/><path d="M1212,214L1224,311L1311,229Z" fill="#5ab270" stroke="#5ab270"/><path d="M1311,229L1224,311L1319,292Z" fill="#54ae68" stroke="#54ae68"/><path d="M1311,229L1319,292L1387,231Z" fill="#5aac6a" stroke="#5aac6a"/><path d="M1387,231L1319,292L1380,336Z" fill="#51a761" stroke="#51a761"/><path d="M1387,231L1380,336L1495,296Z" fill="#51a35c" stroke="#51a35c"/><path d="M1387,231L1495,296L1479,234Z" fill="#5aa261" stroke="#5aa261"/><path d="M-22,310L-36,429L27,430Z" fill="#ace7b3" stroke="#ace7b3"/><path d="M-22,310L27,430L36,294Z" fill="#b8efb8" stroke="#b8efb8"/><path d="M36,294L27,430L122,338Z" fill="#b2ecb3" stroke="#b2ecb3"/><path d="M122,338L27,430L141,423Z" fill="#a3e2a9" stroke="#a3e2a9"/><path d="M122,338L141,423L204,337Z" fill="#a8e6aa" stroke="#a8e6aa"/><path d="M204,337L141,423L215,421Z" fill="#9ee0a3" stroke="#9ee0a3"/><path d="M204,337L215,421L331,390Z" fill="#9ce0a0" stroke="#9ce0a0"/><path d="M204,337L331,390L298,296Z" fill="#a6e8a5" stroke="#a6e8a5"/><path d="M298,296L331,390L393,291Z" fill="#a6e8a4" stroke="#a6e8a4"/><path d="M393,291L331,390L418,388Z" fill="#9ae29a" stroke="#9ae29a"/><path d="M393,291L418,388L511,336Z" fill="#99e399" stroke="#99e399"/><path d="M511,336L418,388L503,426Z" fill="#89d88e" stroke="#89d88e"/><path d="M511,336L503,426L566,395Z" fill="#83d589" stroke="#83d589"/><path d="M511,336L566,395L588,329Z" fill="#8adb8c" stroke="#8adb8c"/><path d="M588,329L566,395L670,412Z" fill="#7dd383" stroke="#7dd383"/><path d="M588,329L670,412L661,309Z" fill="#83d886" stroke="#83d886"/><path d="M661,309L670,412L752,337Z" fill="#7cd581" stroke="#7cd581"/><path d="M752,337L670,412L780,422Z" fill="#6ecb77" stroke="#6ecb77"/><path d="M752,337L780,422L848,390Z" fill="#69c774" stroke="#69c774"/><path d="M752,337L848,390L876,299Z" fill="#71cd79" stroke="#71cd79"/><path d="M876,299L848,390L945,397Z" fill="#64c471" stroke="#64c471"/><path d="M876,299L945,397L969,338Z" fill="#65c571" stroke="#65c571"/><path d="M969,338L945,397L1030,387Z" fill="#56bb69" stroke="#56bb69"/><path d="M969,338L1030,387L1037,309Z" fill="#5bbe6c" stroke="#5bbe6c"/><path d="M1037,309L1030,387L1135,339Z" fill="#55ba68" stroke="#55ba68"/><path d="M1135,339L1030,387L1148,403Z" fill="#48b060" stroke="#48b060"/><path d="M1135,339L1148,403L1224,311Z" fill="#48b060" stroke="#48b060"/><path d="M1224,311L1148,403L1238,418Z" fill="#3ca859" stroke="#3ca859"/><path d="M1224,311L1238,418L1296,392Z" fill="#3aa556" stroke="#3aa556"/><path d="M1224,311L1296,392L1319,292Z" fill="#46ab5c" stroke="#46ab5c"/><path d="M1319,292L1296,392L1380,336Z" fill="#44a657" stroke="#44a657"/><path d="M1380,336L1296,392L1391,387Z" fill="#3a9d50" stroke="#3a9d50"/><path d="M1380,336L1391,387L1480,393Z" fill="#3a994c" stroke="#3a994c"/><path d="M1380,336L1480,393L1495,296Z" fill="#439c4e" stroke="#439c4e"/><path d="M1495,296L1480,393L1498,475Z" fill="#368f44" stroke="#368f44"/><path d="M1495,296L1498,475L1501,594Z" fill="#228137" stroke="#228137"/><path d="M-36,429L-38,473L27,430Z" fill="#9ddba9" stroke="#9ddba9"/><path d="M27,430L-38,473L51,519Z" fill="#92d4a2" stroke="#92d4a2"/><path d="M27,430L51,519L126,480Z" fill="#8ed29d" stroke="#8ed29d"/><path d="M27,430L126,480L141,423Z" fill="#95d8a0" stroke="#95d8a0"/><path d="M141,423L126,480L215,421Z" fill="#91d79c" stroke="#91d79c"/><path d="M215,421L126,480L235,520Z" fill="#86cf94" stroke="#86cf94"/><path d="M215,421L235,520L324,472Z" fill="#82cf90" stroke="#82cf90"/><path d="M215,421L324,472L331,390Z" fill="#8cd695" stroke="#8cd695"/><path d="M331,390L324,472L418,388Z" fill="#8ad792" stroke="#8ad792"/><path d="M418,388L324,472L427,489Z" fill="#7ece89" stroke="#7ece89"/><path d="M418,388L427,489L503,426Z" fill="#7dcf87" stroke="#7dcf87"/><path d="M503,426L427,489L510,486Z" fill="#70c77f" stroke="#70c77f"/><path d="M503,426L510,486L566,395Z" fill="#75cb80" stroke="#75cb80"/><path d="M566,395L510,486L595,499Z" fill="#6bc57a" stroke="#6bc57a"/><path d="M566,395L595,499L670,412Z" fill="#6dc879" stroke="#6dc879"/><path d="M670,412L595,499L694,497Z" fill="#5fbf6f" stroke="#5fbf6f"/><path d="M670,412L694,497L758,476Z" fill="#5bbe6c" stroke="#5bbe6c"/><path d="M670,412L758,476L780,422Z" fill="#60c16f" stroke="#60c16f"/><path d="M780,422L758,476L852,485Z" fill="#52b866" stroke="#52b866"/><path d="M780,422L852,485L848,390Z" fill="#57bb69" stroke="#57bb69"/><path d="M848,390L852,485L945,397Z" fill="#53b867" stroke="#53b867"/><path d="M945,397L852,485L943,484Z" fill="#47af5f" stroke="#47af5f"/><path d="M945,397L943,484L1030,387Z" fill="#49b161" stroke="#49b161"/><path d="M1030,387L943,484L1045,510Z" fill="#3ba758" stroke="#3ba758"/><path d="M1030,387L1045,510L1148,403Z" fill="#3ba758" stroke="#3ba758"/><path d="M1148,403L1045,510L1143,497Z" fill="#2c9d4f" stroke="#2c9d4f"/><path d="M1148,403L1143,497L1193,510Z" fill="#26994c" stroke="#26994c"/><path d="M1148,403L1193,510L1238,418Z" fill="#2b9c4e" stroke="#2b9c4e"/><path d="M1238,418L1193,510L1320,472Z" fill="#1f9246" stroke="#1f9246"/><path d="M1238,418L1320,472L1296,392Z" fill="#2a984b" stroke="#2a984b"/><path d="M1296,392L1320,472L1391,387Z" fill="#2d9649" stroke="#2d9649"/><path d="M1391,387L1320,472L1393,503Z" fill="#238b41" stroke="#238b41"/><path d="M1391,387L1393,503L1480,393Z" fill="#2a8d42" stroke="#2a8d42"/><path d="M1480,393L1393,503L1498,475Z" fill="#22843a" stroke="#22843a"/><path d="M-38,473L-56,662L-29,607Z" fill="#7ac093" stroke="#7ac093"/><path d="M-38,473L-29,607L51,519Z" fill="#83c999" stroke="#83c999"/><path d="M51,519L-29,607L68,585Z" fill="#75c090" stroke="#75c090"/><path d="M51,519L68,585L149,580Z" fill="#73c18d" stroke="#73c18d"/><path d="M51,519L149,580L126,480Z" fill="#7dc791" stroke="#7dc791"/><path d="M126,480L149,580L235,520Z" fill="#78c68d" stroke="#78c68d"/><path d="M235,520L149,580L246,561Z" fill="#6dbf85" stroke="#6dbf85"/><path d="M235,520L246,561L324,472Z" fill="#74c587" stroke="#74c587"/><path d="M324,472L246,561L328,589Z" fill="#6bbf80" stroke="#6bbf80"/><path d="M324,472L328,589L415,573Z" fill="#66bd7c" stroke="#66bd7c"/><path d="M324,472L415,573L427,489Z" fill="#6cc27f" stroke="#6cc27f"/><path d="M427,489L415,573L483,567Z" fill="#5eb974" stroke="#5eb974"/><path d="M427,489L483,567L510,486Z" fill="#63be77" stroke="#63be77"/><path d="M510,486L483,567L595,499Z" fill="#5dbb72" stroke="#5dbb72"/><path d="M595,499L483,567L574,607Z" fill="#4fb169" stroke="#4fb169"/><path d="M595,499L574,607L666,593Z" fill="#47ad62" stroke="#47ad62"/><path d="M595,499L666,593L694,497Z" fill="#4db365" stroke="#4db365"/><path d="M694,497L666,593L781,574Z" fill="#40ab5b" stroke="#40ab5b"/><path d="M694,497L781,574L758,476Z" fill="#48b060" stroke="#48b060"/><path d="M758,476L781,574L852,485Z" fill="#43ad5e" stroke="#43ad5e"/><path d="M852,485L781,574L846,602Z" fill="#34a254" stroke="#34a254"/><path d="M852,485L846,602L931,592Z" fill="#2c9d50" stroke="#2c9d50"/><path d="M852,485L931,592L943,484Z" fill="#34a254" stroke="#34a254"/><path d="M943,484L931,592L1045,510Z" fill="#2a9c4f" stroke="#2a9c4f"/><path d="M1045,510L931,592L1055,596Z" fill="#1c9145" stroke="#1c9145"/><path d="M1045,510L1055,596L1140,593Z" fill="#148c40" stroke="#148c40"/><path d="M1045,510L1140,593L1143,497Z" fill="#1a9044" stroke="#1a9044"/><path d="M1143,497L1140,593L1193,510Z" fill="#148c41" stroke="#148c41"/><path d="M1193,510L1140,593L1236,567Z" fill="#0a853b" stroke="#0a853b"/><path d="M1193,510L1236,567L1320,472Z" fill="#11883e" stroke="#11883e"/><path d="M1320,472L1236,567L1326,587Z" fill="#098036" stroke="#098036"/><path d="M1320,472L1326,587L1393,503Z" fill="#0f8036" stroke="#0f8036"/><path d="M1393,503L1326,587L1385,577Z" fill="#05772f" stroke="#05772f"/><path d="M1393,503L1385,577L1501,594Z" fill="#04722a" stroke="#04722a"/><path d="M1393,503L1501,594L1498,475Z" fill="#0e762e" stroke="#0e762e"/><path d="M-29,607L-56,662L47,664Z" fill="#78b386" stroke="#78b386"/><path d="M-29,607L47,664L68,585Z" fill="#75b687" stroke="#75b687"/><path d="M68,585L47,664L136,663Z" fill="#71b17f" stroke="#71b17f"/><path d="M68,585L136,663L149,580Z" fill="#6eb682" stroke="#6eb682"/><path d="M149,580L136,663L227,669Z" fill="#6baf79" stroke="#6baf79"/><path d="M149,580L227,669L246,561Z" fill="#68b57c" stroke="#68b57c"/><path d="M246,561L227,669L328,589Z" fill="#64b277" stroke="#64b277"/><path d="M328,589L227,669L310,691Z" fill="#62a96e" stroke="#62a96e"/><path d="M328,589L310,691L380,684Z" fill="#5fa769" stroke="#5fa769"/><path d="M328,589L380,684L415,573Z" fill="#5cae6e" stroke="#5cae6e"/><path d="M415,573L380,684L481,689Z" fill="#57a463" stroke="#57a463"/><path d="M415,573L481,689L483,567Z" fill="#54ab67" stroke="#54ab67"/><path d="M483,567L481,689L574,607Z" fill="#4ea661" stroke="#4ea661"/><path d="M574,607L481,689L607,663Z" fill="#4a9e58" stroke="#4a9e58"/><path d="M574,607L607,663L666,593Z" fill="#44a258" stroke="#44a258"/><path d="M666,593L607,663L694,655Z" fill="#419d52" stroke="#419d52"/><path d="M666,593L694,655L781,574Z" fill="#3ba052" stroke="#3ba052"/><path d="M781,574L694,655L756,685Z" fill="#38984b" stroke="#38984b"/><path d="M781,574L756,685L846,602Z" fill="#32974a" stroke="#32974a"/><path d="M846,602L756,685L842,687Z" fill="#308e42" stroke="#308e42"/><path d="M846,602L842,687L943,681Z" fill="#29893e" stroke="#29893e"/><path d="M846,602L943,681L931,592Z" fill="#258d42" stroke="#258d42"/><path d="M931,592L943,681L1026,661Z" fill="#1f853a" stroke="#1f853a"/><path d="M931,592L1026,661L1055,596Z" fill="#1a873d" stroke="#1a873d"/><path d="M1055,596L1026,661L1132,658Z" fill="#137d34" stroke="#137d34"/><path d="M1055,596L1132,658L1140,593Z" fill="#0e7f36" stroke="#0e7f36"/><path d="M1140,593L1132,658L1218,654Z" fill="#08772f" stroke="#08772f"/><path d="M1140,593L1218,654L1236,567Z" fill="#047a32" stroke="#047a32"/><path d="M1236,567L1218,654L1326,587Z" fill="#00762e" stroke="#00762e"/><path d="M1326,587L1218,654L1313,676Z" fill="#006c26" stroke="#006c26"/><path d="M1326,587L1313,676L1385,577Z" fill="#006e26" stroke="#006e26"/><path d="M1385,577L1313,676L1419,674Z" fill="#00651f" stroke="#00651f"/><path d="M1385,577L1419,674L1501,594Z" fill="#006620" stroke="#006620"/><path d="M1501,594L1419,674L1484,670Z" fill="#005d18" stroke="#005d18"/><path d="M1501,594L1484,670L1465,772Z" fill="#005511" stroke="#005511"/><path d="M-56,662L-69,744L47,664Z" fill="#79a97f" stroke="#79a97f"/><path d="M47,664L-69,744L47,768Z" fill="#76a276" stroke="#76a276"/><path d="M47,664L47,768L136,763Z" fill="#719f70" stroke="#719f70"/><path d="M47,664L136,763L136,663Z" fill="#6fa573" stroke="#6fa573"/><path d="M136,663L136,763L214,740Z" fill="#6b9e6b" stroke="#6b9e6b"/><path d="M136,663L214,740L227,669Z" fill="#69a36e" stroke="#69a36e"/><path d="M227,669L214,740L310,691Z" fill="#65a068" stroke="#65a068"/><path d="M310,691L214,740L303,765Z" fill="#639961" stroke="#639961"/><path d="M310,691L303,765L380,684Z" fill="#5f9b5f" stroke="#5f9b5f"/><path d="M380,684L303,765L386,783Z" fill="#5e945a" stroke="#5e945a"/><path d="M380,684L386,783L481,689Z" fill="#589758" stroke="#589758"/><path d="M481,689L386,783L500,790Z" fill="#548d52" stroke="#548d52"/><path d="M481,689L500,790L562,761Z" fill="#4e8c4d" stroke="#4e8c4d"/><path d="M481,689L562,761L607,663Z" fill="#4b944f" stroke="#4b944f"/><path d="M607,663L562,761L659,779Z" fill="#458b45" stroke="#458b45"/><path d="M607,663L659,779L694,655Z" fill="#419047" stroke="#419047"/><path d="M694,655L659,779L757,744Z" fill="#3c883e" stroke="#3c883e"/><path d="M694,655L757,744L756,685Z" fill="#388d41" stroke="#388d41"/><path d="M756,685L757,744L842,687Z" fill="#33873c" stroke="#33873c"/><path d="M842,687L757,744L853,773Z" fill="#2f7e35" stroke="#2f7e35"/><path d="M842,687L853,773L943,681Z" fill="#287e34" stroke="#287e34"/><path d="M943,681L853,773L940,774Z" fill="#25752e" stroke="#25752e"/><path d="M943,681L940,774L1037,775Z" fill="#1e702a" stroke="#1e702a"/><path d="M943,681L1037,775L1026,661Z" fill="#1b752d" stroke="#1b752d"/><path d="M1026,661L1037,775L1127,762Z" fill="#146b24" stroke="#146b24"/><path d="M1026,661L1127,762L1132,658Z" fill="#107129" stroke="#107129"/><path d="M1132,658L1127,762L1210,766Z" fill="#09651f" stroke="#09651f"/><path d="M1132,658L1210,766L1218,654Z" fill="#066923" stroke="#066923"/><path d="M1218,654L1210,766L1313,676Z" fill="#00641e" stroke="#00641e"/><path d="M1313,676L1210,766L1317,768Z" fill="#005915" stroke="#005915"/><path d="M1313,676L1317,768L1396,745Z" fill="#005612" stroke="#005612"/><path d="M1313,676L1396,745L1419,674Z" fill="#005915" stroke="#005915"/><path d="M1419,674L1396,745L1465,772Z" fill="#004f0c" stroke="#004f0c"/><path d="M1419,674L1465,772L1484,670Z" fill="#00510e" stroke="#00510e"/><path d="M47,768L500,790L386,783Z" fill="#618e5d" stroke="#618e5d"/><path d="M47,768L386,783L136,763Z" fill="#699367" stroke="#699367"/><path d="M136,763L386,783L303,765Z" fill="#639160" stroke="#639160"/><path d="M136,763L303,765L214,740Z" fill="#679664" stroke="#679664"/><path d="M500,790L1465,772L1037,775Z" fill="#1b6728" stroke="#1b6728"/><path d="M500,790L1037,775L940,774Z" fill="#2e7434" stroke="#2e7434"/><path d="M500,790L940,774L659,779Z" fill="#3c7d3d" stroke="#3c7d3d"/><path d="M500,790L659,779L562,761Z" fill="#488448" stroke="#488448"/><path d="M659,779L940,774L853,773Z" fill="#2f7635" stroke="#2f7635"/><path d="M659,779L853,773L757,744Z" fill="#367d39" stroke="#367d39"/><path d="M1037,775L1465,772L1317,768Z" fill="#005216" stroke="#005216"/><path d="M1037,775L1317,768L1210,766Z" fill="#065a1b" stroke="#065a1b"/><path d="M1037,775L1210,766L1127,762Z" fill="#0d5f20" stroke="#0d5f20"/><path d="M1317,768L1465,772L1396,745Z" fill="#004b0d" stroke="#004b0d"/></g></svg>