<?xml version="1.0" encoding="utf-8"?>
<!-- Generator: Adobe Illustrator 16.0.3, SVG Export Plug-In . SVG Version: 6.00 Build 0)  -->
<!DOCTYPE svg PUBLIC "-//W3C//DTD SVG 1.1//EN" "http://www.w3.org/Graphics/SVG/1.1/DTD/svg11.dtd">
<svg version="1.1" id="Layer_1" xmlns="http://www.w3.org/2000/svg" xmlns:xlink="http://www.w3.org/1999/xlink" x="0px" y="0px"
	 width="80px" height="80px" viewBox="0 0 80 80" enable-background="new 0 0 80 80" xml:space="preserve">
<g>
	<path fill="#FFFFFF" d="M6.55,27.447c-0.187,0-0.327,0-0.468,0c-1.455,0-2.911,0-4.366,0c-0.656,0-0.852,0.186-0.856,0.841
		c-0.028,4.01-0.063,8.021-0.076,12.031C0.77,44.36,0.781,48.401,0.777,52.443c0,0.217-0.044,0.434-0.062,0.651
		c-0.042,0.526,0.23,0.956,0.78,0.948c1.585-0.023,3.17-0.008,4.755-0.008c0.139,0,0.279,0,0.455,0c0,0.164,0,0.29,0,0.417
		c0,1.208-0.008,2.416,0.01,3.625c0.002,0.145,0.101,0.353,0.218,0.42c0.908,0.52,1.831,1.013,2.75,1.513
		c1.737,0.945,3.473,1.892,5.21,2.836c2.422,1.316,4.845,2.632,7.267,3.949c1.736,0.943,3.472,1.89,5.208,2.834
		c2.423,1.317,4.847,2.632,7.27,3.951c1.725,0.938,3.446,1.884,5.175,2.815c0.099,0.053,0.277,0.051,0.376-0.003
		c1.558-0.845,3.107-1.706,4.664-2.556c2.689-1.467,5.382-2.928,8.073-4.391c1.759-0.956,3.519-1.911,5.276-2.867
		c2.681-1.457,5.358-2.917,8.04-4.371c2.267-1.229,4.537-2.45,6.798-3.689c0.122-0.067,0.24-0.269,0.242-0.409
		c0.019-1.208,0.011-2.417,0.011-3.625c0-0.139,0-0.278,0-0.449c0.182,0,0.321,0,0.462,0c1.52,0,3.041-0.022,4.561,0.01
		c0.721,0.015,0.992-0.299,0.99-0.974c-0.014-8.044-0.009-16.087-0.009-24.13c0-0.286,0.005-0.572-0.001-0.857
		c-0.01-0.409-0.242-0.636-0.646-0.637c-1.638,0-3.274,0-4.912,0c-0.138,0-0.276,0-0.445,0c0-0.185,0-0.325,0-0.465
		c0-1.56,0.005-3.119-0.009-4.678c-0.001-0.137-0.083-0.334-0.189-0.397c-0.627-0.369-1.263-0.728-1.917-1.044
		c-0.304-0.146-0.39-0.319-0.388-0.646c0.014-3.209,0.012-6.419,0.005-9.628c-0.001-0.501-0.037-1.003-0.078-1.503
		c-0.055-0.69-0.735-1.473-1.404-1.675c-2.565-0.774-5.128-1.558-7.692-2.334c-1.751-0.53-3.502-1.057-5.254-1.58
		c-0.519-0.155-1.006-0.085-1.471,0.211c-0.517,0.329-1.05,0.63-1.576,0.942c-1.787,1.057-3.577,2.109-5.359,3.173
		c-0.25,0.148-0.449,0.219-0.715,0.021c-0.242-0.18-0.533-0.295-0.801-0.441c-2.073-1.13-4.145-2.263-6.222-3.384
		c-0.111-0.06-0.296-0.073-0.409-0.022c-0.348,0.157-0.679,0.353-1.015,0.537c-1.89,1.036-3.778,2.077-5.67,3.109
		c-1.345,0.734-2.695,1.456-4.042,2.187c-2.31,1.254-4.622,2.505-6.924,3.774c-0.292,0.161-0.478,0.132-0.726-0.069
		c-0.524-0.425-1.077-0.816-1.617-1.221c-4.306,2.856-8.595,5.708-12.896,8.54c-0.284,0.188-0.386,0.36-0.383,0.693
		C6.559,23.494,6.55,25.442,6.55,27.447z"/>
	<path fill-rule="evenodd" clip-rule="evenodd" fill="#31BBA5" d="M6.55,27.447c0-2.004,0.009-3.953-0.008-5.9
		c-0.003-0.333,0.099-0.505,0.383-0.693c4.301-2.833,8.59-5.684,12.896-8.54c0.54,0.405,1.092,0.796,1.617,1.221
		c0.248,0.201,0.434,0.23,0.726,0.069c2.302-1.269,4.614-2.521,6.924-3.774c1.346-0.731,2.697-1.453,4.042-2.187
		c1.892-1.033,3.78-2.073,5.67-3.109c0.336-0.184,0.667-0.38,1.015-0.537c0.113-0.051,0.298-0.038,0.409,0.022
		c2.078,1.121,4.149,2.254,6.222,3.384c0.268,0.146,0.559,0.262,0.801,0.441c0.266,0.197,0.465,0.127,0.715-0.021
		c1.782-1.064,3.572-2.117,5.359-3.173c0.526-0.312,1.06-0.614,1.576-0.942c0.465-0.296,0.952-0.366,1.471-0.211
		c1.752,0.523,3.503,1.05,5.254,1.58c2.564,0.776,5.127,1.56,7.692,2.334c0.669,0.202,1.35,0.985,1.404,1.675
		c0.041,0.5,0.077,1.002,0.078,1.503c0.007,3.209,0.009,6.419-0.005,9.628c-0.002,0.328,0.084,0.5,0.388,0.646
		c0.654,0.316,1.29,0.675,1.917,1.044c0.106,0.062,0.188,0.26,0.189,0.397c0.014,1.559,0.009,3.118,0.009,4.678
		c0,0.141,0,0.281,0,0.465c0.169,0,0.308,0,0.445,0c1.638,0,3.274,0,4.912,0c0.403,0,0.636,0.228,0.646,0.637
		c0.006,0.286,0.001,0.572,0.001,0.857c0,8.043-0.005,16.086,0.009,24.13c0.002,0.675-0.27,0.988-0.99,0.974
		c-1.52-0.032-3.041-0.01-4.561-0.01c-0.141,0-0.28,0-0.462,0c0,0.171,0,0.311,0,0.449c0,1.208,0.008,2.417-0.011,3.625
		c-0.002,0.141-0.12,0.342-0.242,0.409c-2.261,1.239-4.531,2.46-6.798,3.689c-2.682,1.454-5.359,2.914-8.04,4.371
		c-1.758,0.956-3.518,1.911-5.276,2.867c-2.691,1.463-5.384,2.924-8.073,4.391c-1.557,0.85-3.105,1.711-4.664,2.556
		c-0.099,0.054-0.278,0.056-0.376,0.003c-1.729-0.932-3.451-1.877-5.175-2.815c-2.423-1.319-4.847-2.634-7.27-3.951
		c-1.736-0.944-3.472-1.891-5.208-2.834c-2.422-1.317-4.845-2.633-7.267-3.949c-1.737-0.944-3.474-1.891-5.21-2.836
		c-0.919-0.5-1.842-0.993-2.75-1.513c-0.117-0.067-0.216-0.275-0.218-0.42c-0.018-1.209-0.01-2.417-0.01-3.625
		c0-0.127,0-0.253,0-0.417c-0.176,0-0.316,0-0.455,0c-1.585,0-3.17-0.016-4.755,0.008c-0.55,0.008-0.821-0.422-0.78-0.948
		c0.017-0.218,0.061-0.435,0.062-0.651c0.003-4.042-0.007-8.083,0.006-12.124c0.013-4.01,0.048-8.021,0.076-12.031
		c0.004-0.655,0.2-0.841,0.856-0.841c1.456,0,2.911,0,4.366,0C6.223,27.447,6.363,27.447,6.55,27.447z M72.158,27.428
		c0.018-0.041,0.037-0.063,0.037-0.086c0.003-1.455,0.009-2.91,0-4.364c-0.001-0.1-0.09-0.239-0.178-0.291
		c-0.672-0.393-1.34-0.799-2.04-1.135c-0.316-0.151-0.352-0.34-0.352-0.629c0.006-3.767,0.004-7.535,0.003-11.302
		c0-0.571-0.295-0.973-0.801-1.12c-0.524-0.152-1.047-0.311-1.57-0.469c-2.393-0.728-4.784-1.455-7.177-2.184
		c-1.272-0.388-2.546-0.778-3.833-1.172c0,7.603,0,15.178,0,22.752C61.573,27.428,66.869,27.428,72.158,27.428z M32.749,27.432
		c0-0.18,0-0.322,0-0.463c0-2.937,0.005-5.873-0.008-8.81c-0.002-0.352,0.15-0.543,0.427-0.701c1.321-0.749,2.638-1.506,3.96-2.255
		c1.873-1.061,3.75-2.115,5.624-3.175c0.665-0.376,0.911-0.236,0.911,0.526c0,4.808,0,9.616,0,14.423c0,0.151,0,0.303,0,0.453
		c0.179,0,0.305,0,0.488,0c0-5.562,0-11.106,0-16.666c-0.565,0.315-1.135,0.623-1.695,0.946c-2.373,1.374-4.742,2.754-7.114,4.129
		c-0.225,0.13-0.48,0.132-0.604-0.11c-0.104-0.204-0.087-0.417,0.192-0.574c1.543-0.869,3.074-1.761,4.607-2.648
		c1.634-0.944,3.266-1.891,4.898-2.837c0.578-0.334,1.155-0.669,1.733-1.004c-0.009-0.047-0.017-0.095-0.025-0.143
		c-0.14,0.014-0.303-0.015-0.416,0.048c-1.089,0.608-2.17,1.231-3.253,1.851c-1.571,0.9-3.144,1.799-4.714,2.702
		c-1.546,0.889-3.091,1.781-4.635,2.676c-0.216,0.125-0.4,0.165-0.545-0.094c-0.14-0.25-0.085-0.437,0.162-0.58
		c0.806-0.465,1.607-0.937,2.414-1.401c1.25-0.719,2.502-1.432,3.752-2.151c1.292-0.744,2.582-1.492,3.872-2.24
		c0.759-0.44,1.515-0.886,2.257-1.319c-0.297-0.325-0.574-0.187-0.858,0.002c-0.17,0.113-0.355,0.201-0.533,0.303
		c-1.621,0.94-3.243,1.883-4.865,2.822c-1.279,0.74-2.559,1.479-3.84,2.215c-1.305,0.75-2.61,1.5-3.918,2.245
		c-0.222,0.126-0.452,0.19-0.618-0.1c-0.153-0.269-0.027-0.421,0.206-0.555c0.971-0.559,1.937-1.129,2.907-1.69
		c1.071-0.619,2.147-1.231,3.219-1.85c1.27-0.733,2.536-1.471,3.805-2.206c1.065-0.617,2.133-1.232,3.199-1.848
		c0.001-0.035,0.003-0.07,0.005-0.105c-0.174-0.023-0.39-0.125-0.515-0.057C42.212,7.743,41.205,8.32,40.2,8.9
		c-2.107,1.217-4.21,2.443-6.317,3.661c-1.954,1.13-3.913,2.253-5.866,3.385c-0.23,0.133-0.458,0.235-0.64-0.028
		c-0.208-0.302-0.028-0.486,0.242-0.642c1.271-0.733,2.533-1.481,3.804-2.214c1.446-0.834,2.9-1.653,4.347-2.487
		c1.801-1.038,3.598-2.083,5.396-3.126c0.448-0.26,0.895-0.521,1.361-0.793c-0.228-0.24-0.429-0.203-0.646-0.077
		c-1.467,0.851-2.934,1.7-4.402,2.547c-1.237,0.714-2.478,1.422-3.713,2.139c-1.721,0.999-3.438,2.003-5.157,3.004
		c-0.232,0.135-0.451,0.128-0.602-0.118c-0.156-0.254-0.02-0.448,0.189-0.571c0.977-0.577,1.961-1.142,2.943-1.708
		c1.28-0.738,2.562-1.475,3.843-2.21c1.448-0.832,2.898-1.661,4.345-2.495c0.667-0.385,1.328-0.781,1.991-1.172
		c-0.012-0.049-0.023-0.097-0.035-0.146c-0.201,0.018-0.436-0.026-0.597,0.062c-1.048,0.579-2.082,1.185-3.118,1.785
		c-1.622,0.939-3.242,1.881-4.863,2.821c-1.103,0.64-2.204,1.281-3.309,1.916c-0.94,0.54-1.884,1.074-2.829,1.605
		c-0.248,0.14-0.46,0.125-0.605-0.166c-0.134-0.27,0.037-0.421,0.219-0.529c0.701-0.416,1.413-0.812,2.121-1.217
		c1.451-0.828,2.903-1.653,4.351-2.486c1.468-0.845,2.933-1.697,4.398-2.547c0.996-0.578,1.989-1.16,2.983-1.74
		c-0.017-0.03-0.034-0.061-0.051-0.092c-5.708,3.104-11.416,6.208-17.151,9.326c1.267,0.955,2.499,1.878,3.725,2.81
		c1.761,1.337,3.513,2.688,5.286,4.01c0.223,0.166,0.288,0.316,0.287,0.566c-0.007,1.676-0.003,3.352-0.003,5.028
		c0,0.139,0,0.278,0,0.431C32.346,27.432,32.523,27.432,32.749,27.432z M18.601,41.988c-0.037,0.014-0.074,0.027-0.111,0.041
		c-0.094-0.132-0.192-0.263-0.281-0.398c-1.214-1.849-2.424-3.701-3.643-5.547c-0.085-0.129-0.228-0.305-0.351-0.311
		c-0.658-0.031-1.319-0.014-1.98-0.014c0,3.367,0,6.696,0,10.021c0.704,0,1.372,0,2.1,0c0-2.066,0-4.104,0-6.14
		c0.185,0.113,0.28,0.246,0.371,0.383c1.217,1.833,2.431,3.667,3.653,5.496c0.078,0.118,0.216,0.271,0.331,0.276
		c0.672,0.026,1.346,0.013,2.027,0.013c0-3.371,0-6.701,0-10.024c-0.712,0-1.395,0-2.116,0c0,1.052,0,2.076,0,3.099
		C18.601,39.918,18.601,40.954,18.601,41.988z M44.628,45.967c0.091,0,0.182,0.003,0.272-0.001c1.496-0.062,2.772-0.586,3.721-1.785
		c0.655-0.829,0.954-1.8,1.047-2.834c0.106-1.197-0.062-2.355-0.661-3.415c-0.83-1.464-2.129-2.239-3.777-2.381
		c-1.687-0.146-3.152,0.365-4.237,1.722c-1.039,1.301-1.302,2.813-1.112,4.429C40.188,44.325,42.018,45.967,44.628,45.967z
		 M36.346,40.419c0.941-0.407,1.377-0.769,1.586-1.38c0.445-1.304-0.431-2.876-1.901-3.101c-1.385-0.211-2.808-0.178-4.229-0.253
		c0,3.433,0,6.761,0,10.125c0.961,0,1.894,0.002,2.827-0.001c0.247-0.001,0.496,0.006,0.738-0.03c1.12-0.162,2.128-0.53,2.807-1.521
		c0.723-1.056,0.726-3.036-1.143-3.646C36.805,40.54,36.574,40.483,36.346,40.419z M60.264,35.685c0,3.437,0,6.766,0,10.096
		c0.7,0,1.367,0,2.08,0c0-1.281,0-2.535,0-3.879c0.33,0.07,0.662,0.048,0.854,0.202c0.439,0.348,0.876,0.736,1.191,1.191
		c0.499,0.721,0.895,1.512,1.344,2.267c0.06,0.1,0.175,0.232,0.267,0.235c0.746,0.019,1.493,0.011,2.334,0.011
		c-1.139-1.73-1.962-3.55-3.41-4.993c0.122-0.036,0.194-0.057,0.268-0.078c0.902-0.262,1.915-1.146,1.682-2.485
		c-0.199-1.137-1.051-2.15-2.309-2.319C63.148,35.745,61.705,35.76,60.264,35.685z M50.817,35.78c0,2.311-0.044,4.596,0.021,6.878
		c0.028,1.002,0.458,1.901,1.291,2.554c0.802,0.629,1.729,0.763,2.707,0.758c2.381-0.014,3.916-1.543,3.917-3.925
		c0.002-1.935,0.001-3.871,0.001-5.806c0-0.15,0-0.3,0-0.458c-0.729,0-1.399,0-2.108,0c0,0.178,0,0.332,0,0.485
		c0,1.922,0.008,3.845-0.003,5.768c-0.009,1.471-0.976,2.253-2.426,2.011c-0.492-0.082-0.886-0.305-1.023-0.774
		c-0.151-0.513-0.265-1.056-0.274-1.588c-0.033-1.805-0.013-3.611-0.013-5.417c0-0.154,0-0.307,0-0.485
		C52.195,35.78,51.525,35.78,50.817,35.78z M30.938,45.809c-1.139-3.04-2.247-6.001-3.359-8.959
		c-0.135-0.359-0.208-0.845-0.475-1.024c-0.272-0.182-0.75-0.059-1.138-0.069c-0.039-0.001-0.08,0.007-0.117-0.001
		c-0.398-0.089-0.558,0.122-0.686,0.469c-0.98,2.667-1.977,5.328-2.968,7.991c-0.191,0.515-0.375,1.03-0.58,1.596
		c0.633,0,1.202-0.013,1.771,0.006c0.25,0.008,0.368-0.081,0.452-0.311c0.232-0.63,0.477-1.255,0.742-1.872
		c0.046-0.106,0.212-0.227,0.325-0.229c0.883-0.019,1.766-0.004,2.649-0.016c0.223-0.003,0.325,0.09,0.396,0.284
		c0.226,0.618,0.456,1.236,0.701,1.848c0.045,0.111,0.165,0.271,0.254,0.275C29.563,45.819,30.222,45.809,30.938,45.809z
		 M7.845,57.157c-0.037,0.021-0.074,0.043-0.111,0.063c0.088,0.166,0.134,0.409,0.272,0.486c1.667,0.937,3.347,1.852,5.026,2.767
		c1.031,0.562,2.07,1.112,3.101,1.675c1.893,1.033,3.779,2.077,5.673,3.108c1.355,0.737,2.719,1.458,4.075,2.194
		c2.323,1.26,4.643,2.525,6.963,3.789c1.993,1.086,4.016,2.122,5.965,3.281c0.865,0.514,1.514,0.513,2.38,0.001
		c2.007-1.188,4.086-2.254,6.136-3.369c2.108-1.146,4.218-2.291,6.326-3.438c2.05-1.115,4.101-2.229,6.149-3.347
		c2.543-1.388,5.082-2.782,7.626-4.168c1.5-0.818,3.003-1.632,4.513-2.432c0.295-0.156,0.307-0.346,0.218-0.618
		c-0.858,0.464-1.688,0.911-2.518,1.36c-2.164,1.173-4.327,2.348-6.49,3.521c-2.097,1.137-4.192,2.274-6.289,3.411
		c-1.368,0.742-2.738,1.481-4.106,2.225c-2.333,1.267-4.665,2.535-6.999,3.803c-1.816,0.987-3.631,1.979-5.457,2.948
		c-0.158,0.084-0.435,0.082-0.595,0.001c-0.921-0.47-1.823-0.976-2.732-1.469c-2.165-1.175-4.33-2.35-6.494-3.524
		c-2.109-1.146-4.216-2.294-6.326-3.438c-1.368-0.741-2.742-1.472-4.109-2.214c-1.984-1.077-3.964-2.161-5.947-3.242
		c-0.795-0.434-1.589-0.868-2.385-1.298C10.423,58.542,9.133,57.851,7.845,57.157z M39.999,50.72
		c-11.747,0-23.493-0.001-35.24,0.007c-0.192,0.001-0.556,0.135-0.551,0.168c0.047,0.357,0.352,0.212,0.554,0.212
		c23.493,0.007,46.987,0.007,70.48-0.001c0.192,0,0.556-0.134,0.552-0.168c-0.048-0.356-0.353-0.212-0.555-0.212
		C63.492,50.719,51.745,50.72,39.999,50.72z M39.999,31.07c-11.747,0-23.493-0.001-35.24,0.007c-0.193,0-0.556,0.134-0.552,0.167
		c0.047,0.357,0.352,0.212,0.553,0.212c23.494,0.006,46.987,0.007,70.48-0.001c0.192,0,0.556-0.134,0.552-0.167
		c-0.048-0.357-0.353-0.212-0.555-0.213C63.492,31.07,51.745,31.07,39.999,31.07z M7.434,40.754c0.011-0.424-0.381-0.836-0.799-0.84
		c-0.405-0.003-0.786,0.369-0.809,0.789c-0.023,0.436,0.346,0.816,0.794,0.819C7.05,41.523,7.423,41.172,7.434,40.754z
		 M72.448,39.914c-0.421-0.007-0.812,0.389-0.813,0.823c-0.002,0.421,0.359,0.78,0.791,0.785c0.431,0.005,0.803-0.343,0.816-0.763
		C73.257,40.333,72.869,39.921,72.448,39.914z"/>
	<path fill-rule="evenodd" clip-rule="evenodd" fill="#FFFFFF" d="M72.158,27.428c-5.289,0-10.585,0-15.91,0
		c0-7.574,0-15.149,0-22.752c1.287,0.394,2.561,0.784,3.833,1.172c2.393,0.729,4.784,1.456,7.177,2.184
		c0.523,0.159,1.046,0.317,1.57,0.469c0.506,0.146,0.801,0.548,0.801,1.12c0.001,3.768,0.003,7.535-0.003,11.302
		c0,0.289,0.035,0.478,0.352,0.629c0.7,0.335,1.368,0.742,2.04,1.135c0.088,0.052,0.177,0.191,0.178,0.291
		c0.009,1.455,0.003,2.91,0,4.364C72.195,27.364,72.176,27.387,72.158,27.428z M64.044,9.452c0,0.997,0,1.961,0,2.914
		c0.992,0,1.957,0,2.913,0c0-0.986,0-1.942,0-2.914C65.981,9.452,65.026,9.452,64.044,9.452z M64.038,19.122
		c0,0.983,0,1.947,0,2.918c0.986,0,1.951,0,2.911,0c0-0.99,0-1.955,0-2.918C65.965,19.122,65.01,19.122,64.038,19.122z
		 M62.126,9.462c-0.995,0-1.959,0-2.913,0c0,0.992,0,1.957,0,2.914c0.986,0,1.941,0,2.913,0
		C62.126,11.401,62.126,10.446,62.126,9.462z M66.95,17.214c0-0.996,0-1.96,0-2.914c-0.992,0-1.957,0-2.913,0
		c0,0.986,0,1.942,0,2.914C65.013,17.214,65.968,17.214,66.95,17.214z M59.21,14.286c0,0.998,0,1.963,0,2.914
		c0.993,0,1.958,0,2.912,0c0-0.987,0-1.942,0-2.914C61.146,14.286,60.19,14.286,59.21,14.286z"/>
	<path fill-rule="evenodd" clip-rule="evenodd" fill="#FFFFFF" d="M32.749,27.432c-0.226,0-0.403,0-0.625,0c0-0.153,0-0.292,0-0.431
		c0-1.676-0.003-3.353,0.003-5.028c0.001-0.25-0.064-0.4-0.287-0.566c-1.773-1.322-3.524-2.673-5.286-4.01
		c-1.227-0.931-2.458-1.854-3.725-2.81c5.735-3.118,11.443-6.222,17.151-9.326c0.017,0.031,0.034,0.062,0.051,0.092
		c-0.994,0.58-1.987,1.162-2.983,1.74c-1.465,0.851-2.93,1.702-4.398,2.547c-1.448,0.833-2.9,1.658-4.351,2.486
		c-0.708,0.404-1.42,0.801-2.121,1.217c-0.182,0.108-0.354,0.259-0.219,0.529c0.145,0.291,0.357,0.305,0.605,0.166
		c0.945-0.532,1.889-1.065,2.829-1.605c1.105-0.635,2.206-1.276,3.309-1.916c1.622-0.94,3.241-1.882,4.863-2.821
		c1.037-0.6,2.07-1.206,3.118-1.785c0.162-0.089,0.396-0.045,0.597-0.062c0.012,0.048,0.023,0.097,0.035,0.146
		c-0.663,0.391-1.324,0.787-1.991,1.172c-1.446,0.834-2.896,1.663-4.345,2.495c-1.281,0.736-2.562,1.472-3.843,2.21
		c-0.982,0.566-1.966,1.132-2.943,1.708c-0.209,0.124-0.345,0.317-0.189,0.571c0.151,0.246,0.37,0.253,0.602,0.118
		c1.72-1.001,3.437-2.005,5.157-3.004c1.235-0.717,2.476-1.424,3.713-2.139c1.468-0.848,2.935-1.697,4.402-2.547
		c0.217-0.126,0.418-0.164,0.646,0.077c-0.467,0.272-0.913,0.533-1.361,0.793c-1.798,1.043-3.595,2.089-5.396,3.126
		c-1.447,0.833-2.901,1.653-4.347,2.487c-1.271,0.733-2.533,1.48-3.804,2.214c-0.27,0.156-0.45,0.34-0.242,0.642
		c0.181,0.263,0.409,0.161,0.64,0.028c1.953-1.131,3.912-2.255,5.866-3.385c2.107-1.218,4.209-2.444,6.317-3.661
		c1.005-0.58,2.012-1.158,3.033-1.709c0.125-0.067,0.341,0.034,0.515,0.057c-0.002,0.035-0.004,0.07-0.005,0.105
		c-1.066,0.616-2.134,1.231-3.199,1.848c-1.269,0.735-2.536,1.473-3.805,2.206c-1.072,0.619-2.148,1.231-3.219,1.85
		c-0.97,0.561-1.936,1.131-2.907,1.69c-0.232,0.134-0.359,0.287-0.206,0.555c0.166,0.29,0.396,0.226,0.618,0.1
		c1.308-0.745,2.613-1.494,3.918-2.245c1.281-0.736,2.561-1.475,3.84-2.215c1.622-0.939,3.244-1.882,4.865-2.822
		c0.178-0.102,0.363-0.19,0.533-0.303c0.284-0.189,0.562-0.328,0.858-0.002c-0.742,0.434-1.498,0.879-2.257,1.319
		c-1.29,0.748-2.58,1.496-3.872,2.24c-1.25,0.719-2.502,1.432-3.752,2.151c-0.807,0.464-1.608,0.936-2.414,1.401
		c-0.248,0.143-0.302,0.331-0.162,0.58c0.145,0.259,0.329,0.219,0.545,0.094c1.543-0.895,3.088-1.787,4.635-2.676
		c1.57-0.903,3.143-1.802,4.714-2.702c1.083-0.62,2.164-1.243,3.253-1.851c0.113-0.063,0.276-0.034,0.416-0.048
		c0.009,0.048,0.017,0.096,0.025,0.143c-0.578,0.335-1.155,0.669-1.733,1.004c-1.633,0.946-3.265,1.893-4.898,2.837
		c-1.534,0.887-3.064,1.779-4.607,2.648c-0.279,0.157-0.296,0.37-0.192,0.574c0.124,0.243,0.379,0.241,0.604,0.11
		c2.373-1.375,4.742-2.755,7.114-4.129c0.561-0.324,1.13-0.631,1.695-0.946c0,5.56,0,11.104,0,16.666c-0.184,0-0.31,0-0.488,0
		c0-0.15,0-0.302,0-0.453c0-4.808,0-9.616,0-14.423c0-0.762-0.246-0.902-0.911-0.526c-1.874,1.06-3.751,2.114-5.624,3.175
		c-1.322,0.749-2.639,1.506-3.96,2.255c-0.277,0.157-0.429,0.349-0.427,0.701c0.013,2.937,0.008,5.874,0.008,8.81
		C32.749,27.11,32.749,27.252,32.749,27.432z"/>
	<path fill-rule="evenodd" clip-rule="evenodd" fill="#FFFFFF" d="M18.601,41.988c0-1.035,0-2.07,0-3.105c0-1.023,0-2.047,0-3.099
		c0.721,0,1.404,0,2.116,0c0,3.323,0,6.653,0,10.024c-0.681,0-1.354,0.014-2.027-0.013c-0.115-0.005-0.252-0.158-0.331-0.276
		c-1.223-1.829-2.437-3.663-3.653-5.496c-0.09-0.137-0.186-0.27-0.371-0.383c0,2.036,0,4.073,0,6.14c-0.728,0-1.396,0-2.1,0
		c0-3.325,0-6.655,0-10.021c0.661,0,1.322-0.017,1.98,0.014c0.123,0.006,0.265,0.182,0.351,0.311
		c1.218,1.846,2.429,3.698,3.643,5.547c0.089,0.136,0.188,0.267,0.281,0.398C18.527,42.016,18.563,42.002,18.601,41.988z"/>
	<path fill-rule="evenodd" clip-rule="evenodd" fill="#FFFFFF" d="M44.628,45.967c-2.61,0-4.439-1.642-4.748-4.265
		c-0.19-1.616,0.073-3.128,1.112-4.429c1.085-1.357,2.551-1.868,4.237-1.722c1.648,0.143,2.947,0.917,3.777,2.381
		c0.6,1.059,0.768,2.217,0.661,3.415c-0.093,1.034-0.392,2.005-1.047,2.834c-0.948,1.199-2.225,1.724-3.721,1.785
		C44.81,45.97,44.719,45.967,44.628,45.967z M47.606,40.972c-0.076-0.566-0.101-0.97-0.188-1.36
		c-0.271-1.201-1.258-2.037-2.477-2.126c-1.194-0.088-2.26,0.596-2.701,1.759c-0.355,0.938-0.378,1.906-0.124,2.866
		c0.301,1.139,1.142,1.846,2.252,1.962c1.21,0.126,2.291-0.422,2.776-1.507C47.389,42.022,47.483,41.413,47.606,40.972z"/>
	<path fill-rule="evenodd" clip-rule="evenodd" fill="#FFFFFF" d="M36.346,40.419c0.228,0.064,0.459,0.12,0.684,0.193
		c1.869,0.61,1.866,2.59,1.143,3.646c-0.678,0.99-1.687,1.358-2.807,1.521c-0.242,0.036-0.492,0.029-0.738,0.03
		c-0.933,0.003-1.865,0.001-2.827,0.001c0-3.364,0-6.692,0-10.125c1.421,0.075,2.844,0.042,4.229,0.253
		c1.471,0.225,2.347,1.797,1.901,3.101C37.724,39.651,37.288,40.012,36.346,40.419z M33.916,43.833
		c0.647,0.139,1.532,0.041,1.981-0.212c0.74-0.415,0.771-1.388,0.048-1.837c-0.627-0.39-1.323-0.337-2.029-0.308
		C33.916,42.295,33.916,43.066,33.916,43.833z M33.918,39.645c0.544-0.113,1.044-0.171,1.509-0.33
		c0.369-0.125,0.519-0.524,0.468-0.938c-0.046-0.379-0.308-0.589-0.64-0.641c-0.43-0.067-0.873-0.051-1.337-0.072
		C33.918,38.312,33.918,38.903,33.918,39.645z"/>
	<path fill-rule="evenodd" clip-rule="evenodd" fill="#FFFFFF" d="M60.264,35.685c1.441,0.075,2.885,0.06,4.301,0.25
		c1.258,0.168,2.109,1.182,2.309,2.319c0.233,1.338-0.779,2.223-1.682,2.485c-0.073,0.021-0.146,0.042-0.268,0.078
		c1.448,1.443,2.271,3.262,3.41,4.993c-0.841,0-1.588,0.008-2.334-0.011c-0.092-0.003-0.207-0.136-0.267-0.235
		c-0.449-0.755-0.845-1.546-1.344-2.267c-0.315-0.455-0.752-0.844-1.191-1.191c-0.192-0.154-0.524-0.132-0.854-0.202
		c0,1.344,0,2.598,0,3.879c-0.713,0-1.38,0-2.08,0C60.264,42.451,60.264,39.122,60.264,35.685z M62.369,40.039
		c0.571-0.062,1.104-0.073,1.611-0.191c0.496-0.115,0.715-0.526,0.758-1.02c0.036-0.417-0.162-0.795-0.535-0.95
		c-0.588-0.245-1.207-0.173-1.834-0.184C62.369,38.476,62.369,39.2,62.369,40.039z"/>
	<path fill-rule="evenodd" clip-rule="evenodd" fill="#FFFFFF" d="M50.817,35.78c0.708,0,1.378,0,2.089,0c0,0.178,0,0.331,0,0.485
		c0,1.806-0.021,3.611,0.013,5.417c0.01,0.532,0.123,1.075,0.274,1.588c0.138,0.47,0.531,0.692,1.023,0.774
		c1.45,0.242,2.417-0.54,2.426-2.011c0.011-1.922,0.003-3.845,0.003-5.768c0-0.154,0-0.308,0-0.485c0.709,0,1.379,0,2.108,0
		c0,0.159,0,0.309,0,0.458c0,1.936,0.001,3.871-0.001,5.806c-0.001,2.382-1.536,3.911-3.917,3.925
		c-0.978,0.005-1.905-0.129-2.707-0.758c-0.833-0.652-1.263-1.552-1.291-2.554C50.773,40.376,50.817,38.091,50.817,35.78z"/>
	<path fill-rule="evenodd" clip-rule="evenodd" fill="#FFFFFF" d="M30.938,45.809c-0.716,0-1.375,0.011-2.032-0.013
		c-0.09-0.004-0.209-0.164-0.254-0.275c-0.245-0.611-0.475-1.229-0.701-1.848c-0.071-0.194-0.172-0.287-0.396-0.284
		c-0.883,0.012-1.766-0.003-2.649,0.016c-0.113,0.003-0.279,0.123-0.325,0.229c-0.265,0.617-0.51,1.242-0.742,1.872
		c-0.084,0.229-0.203,0.318-0.452,0.311c-0.569-0.019-1.138-0.006-1.771-0.006c0.205-0.565,0.389-1.081,0.58-1.596
		c0.991-2.663,1.988-5.323,2.968-7.991c0.128-0.348,0.288-0.559,0.686-0.469c0.037,0.008,0.078,0,0.117,0.001
		c0.388,0.01,0.865-0.113,1.138,0.069c0.267,0.179,0.34,0.665,0.475,1.024C28.692,39.808,29.8,42.769,30.938,45.809z M27.141,41.487
		c-0.292-0.838-0.562-1.614-0.833-2.39c-0.034,0.005-0.068,0.011-0.102,0.016c-0.279,0.777-0.558,1.555-0.852,2.374
		C25.972,41.487,26.51,41.487,27.141,41.487z"/>
	<path fill-rule="evenodd" clip-rule="evenodd" fill="#FFFFFF" d="M7.845,57.157c1.289,0.693,2.578,1.385,3.866,2.079
		c0.796,0.43,1.59,0.864,2.385,1.298c1.982,1.081,3.963,2.165,5.947,3.242c1.367,0.742,2.741,1.473,4.109,2.214
		c2.11,1.144,4.217,2.292,6.326,3.438c2.165,1.175,4.33,2.35,6.494,3.524c0.909,0.493,1.811,0.999,2.732,1.469
		c0.16,0.081,0.437,0.083,0.595-0.001c1.826-0.969,3.64-1.961,5.457-2.948c2.334-1.268,4.666-2.536,6.999-3.803
		c1.368-0.743,2.738-1.482,4.106-2.225c2.097-1.137,4.192-2.274,6.289-3.411c2.163-1.174,4.326-2.349,6.49-3.521
		c0.829-0.449,1.659-0.896,2.518-1.36c0.089,0.272,0.077,0.462-0.218,0.618c-1.51,0.8-3.013,1.613-4.513,2.432
		c-2.544,1.386-5.083,2.78-7.626,4.168c-2.049,1.118-4.1,2.231-6.149,3.347c-2.108,1.146-4.218,2.291-6.326,3.438
		c-2.05,1.115-4.129,2.181-6.136,3.369c-0.866,0.512-1.515,0.513-2.38-0.001c-1.95-1.159-3.972-2.195-5.965-3.281
		c-2.32-1.264-4.64-2.529-6.963-3.789c-1.356-0.736-2.72-1.457-4.075-2.194c-1.894-1.031-3.78-2.075-5.673-3.108
		c-1.031-0.562-2.07-1.112-3.101-1.675c-1.679-0.915-3.359-1.83-5.026-2.767c-0.138-0.077-0.184-0.32-0.272-0.486
		C7.771,57.2,7.808,57.179,7.845,57.157z"/>
	<path fill-rule="evenodd" clip-rule="evenodd" fill="#FFFFFF" d="M39.999,50.72c11.747,0,23.494-0.001,35.24,0.006
		c0.202,0,0.507-0.145,0.555,0.212c0.004,0.034-0.359,0.168-0.552,0.168c-23.493,0.008-46.987,0.008-70.48,0.001
		c-0.202,0-0.506,0.146-0.554-0.212c-0.004-0.033,0.359-0.167,0.551-0.168C16.505,50.719,28.252,50.72,39.999,50.72z"/>
	<path fill-rule="evenodd" clip-rule="evenodd" fill="#FFFFFF" d="M39.999,31.07c11.746,0,23.493,0,35.239,0.006
		c0.202,0,0.507-0.145,0.555,0.213c0.004,0.033-0.359,0.167-0.552,0.167c-23.493,0.008-46.987,0.008-70.48,0.001
		c-0.202,0-0.506,0.145-0.553-0.212c-0.004-0.034,0.359-0.167,0.552-0.167C16.506,31.069,28.252,31.07,39.999,31.07z"/>
	<path fill-rule="evenodd" clip-rule="evenodd" fill="#FFFFFF" d="M7.434,40.754c-0.011,0.417-0.384,0.769-0.813,0.767
		c-0.448-0.003-0.817-0.383-0.794-0.819c0.022-0.42,0.404-0.792,0.809-0.789C7.053,39.918,7.445,40.331,7.434,40.754z"/>
	<path fill-rule="evenodd" clip-rule="evenodd" fill="#FFFFFF" d="M72.448,39.914c0.421,0.007,0.809,0.419,0.794,0.845
		c-0.014,0.42-0.386,0.768-0.816,0.763c-0.432-0.005-0.793-0.363-0.791-0.785C71.636,40.303,72.027,39.907,72.448,39.914z"/>
	<path fill-rule="evenodd" clip-rule="evenodd" fill="#31BBA5" d="M64.044,9.452c0.982,0,1.938,0,2.913,0c0,0.972,0,1.927,0,2.914
		c-0.956,0-1.921,0-2.913,0C64.044,11.413,64.044,10.449,64.044,9.452z"/>
	<path fill-rule="evenodd" clip-rule="evenodd" fill="#31BBA5" d="M64.038,19.122c0.972,0,1.927,0,2.911,0c0,0.964,0,1.928,0,2.918
		c-0.96,0-1.925,0-2.911,0C64.038,21.069,64.038,20.105,64.038,19.122z"/>
	<path fill-rule="evenodd" clip-rule="evenodd" fill="#31BBA5" d="M62.126,9.462c0,0.983,0,1.938,0,2.914c-0.972,0-1.927,0-2.913,0
		c0-0.957,0-1.922,0-2.914C60.167,9.462,61.131,9.462,62.126,9.462z"/>
	<path fill-rule="evenodd" clip-rule="evenodd" fill="#31BBA5" d="M66.95,17.214c-0.982,0-1.938,0-2.913,0c0-0.972,0-1.928,0-2.914
		c0.956,0,1.921,0,2.913,0C66.95,15.254,66.95,16.219,66.95,17.214z"/>
	<path fill-rule="evenodd" clip-rule="evenodd" fill="#31BBA5" d="M59.21,14.286c0.98,0,1.936,0,2.912,0c0,0.972,0,1.927,0,2.914
		c-0.954,0-1.919,0-2.912,0C59.21,16.249,59.21,15.284,59.21,14.286z"/>
	<path fill-rule="evenodd" clip-rule="evenodd" fill="#31BBA5" d="M47.606,40.972c-0.123,0.441-0.218,1.051-0.461,1.594
		c-0.485,1.085-1.566,1.633-2.776,1.507c-1.11-0.116-1.951-0.823-2.252-1.962c-0.254-0.96-0.231-1.928,0.124-2.866
		c0.441-1.163,1.507-1.847,2.701-1.759c1.219,0.09,2.206,0.926,2.477,2.126C47.506,40.001,47.53,40.405,47.606,40.972z
		 M44.004,40.841c0.008,0.445,0.348,0.778,0.792,0.775c0.427-0.004,0.788-0.367,0.787-0.794c0-0.444-0.379-0.81-0.824-0.795
		C44.325,40.041,43.998,40.395,44.004,40.841z"/>
	<path fill-rule="evenodd" clip-rule="evenodd" fill="#31BBA5" d="M33.916,43.833c0-0.767,0-1.538,0-2.356
		c0.706-0.029,1.401-0.082,2.029,0.308c0.723,0.449,0.692,1.422-0.048,1.837C35.447,43.874,34.563,43.972,33.916,43.833z"/>
	<path fill-rule="evenodd" clip-rule="evenodd" fill="#31BBA5" d="M33.918,39.645c0-0.741,0-1.332,0-1.98
		c0.464,0.021,0.907,0.005,1.337,0.072c0.332,0.052,0.593,0.262,0.64,0.641c0.051,0.414-0.099,0.812-0.468,0.938
		C34.962,39.474,34.462,39.531,33.918,39.645z"/>
	<path fill-rule="evenodd" clip-rule="evenodd" fill="#31BBA5" d="M62.369,40.039c0-0.838,0-1.563,0-2.344
		c0.627,0.011,1.246-0.061,1.834,0.184c0.373,0.155,0.571,0.533,0.535,0.95c-0.043,0.494-0.262,0.905-0.758,1.02
		C63.473,39.965,62.94,39.976,62.369,40.039z"/>
	<path fill-rule="evenodd" clip-rule="evenodd" fill="#31BBA5" d="M27.141,41.487c-0.631,0-1.169,0-1.787,0
		c0.294-0.819,0.573-1.597,0.852-2.374c0.034-0.005,0.068-0.011,0.102-0.016C26.579,39.873,26.849,40.649,27.141,41.487z"/>
	<path fill-rule="evenodd" clip-rule="evenodd" fill="#FFFFFF" d="M44.004,40.841c-0.006-0.446,0.321-0.8,0.755-0.814
		c0.445-0.015,0.824,0.351,0.824,0.795c0.001,0.427-0.36,0.791-0.787,0.794C44.352,41.619,44.012,41.286,44.004,40.841z"/>
</g>
</svg>
