<?xml version="1.0" encoding="utf-8"?>
<!-- Generator: Adobe Illustrator 16.0.3, SVG Export Plug-In . SVG Version: 6.00 Build 0)  -->
<!DOCTYPE svg PUBLIC "-//W3C//DTD SVG 1.1//EN" "http://www.w3.org/Graphics/SVG/1.1/DTD/svg11.dtd">
<svg version="1.1" id="Layer_1" xmlns="http://www.w3.org/2000/svg" xmlns:xlink="http://www.w3.org/1999/xlink" x="0px" y="0px"
	 width="194px" height="50px" viewBox="0 0 194 50" enable-background="new 0 0 194 50" xml:space="preserve">
<g>
	<g>
		<path fill="none" d="M7.745,25.731c0.007-0.279-0.252-0.552-0.528-0.555c-0.267-0.002-0.519,0.244-0.534,0.521
			c-0.015,0.287,0.229,0.539,0.524,0.541C7.492,26.239,7.737,26.009,7.745,25.731z"/>
		<path fill="none" d="M12.548,25.249c0.804,1.211,1.606,2.421,2.414,3.63c0.051,0.078,0.142,0.178,0.218,0.182
			c0.444,0.018,0.889,0.01,1.339,0.01c0-2.227,0-4.427,0-6.621c-0.47,0-0.921,0-1.397,0c0,0.694,0,1.371,0,2.046
			c0,0.685,0,1.369,0,2.049c-0.024,0.012-0.049,0.02-0.073,0.027c-0.062-0.085-0.127-0.173-0.186-0.263
			c-0.801-1.22-1.601-2.443-2.406-3.663c-0.057-0.085-0.151-0.202-0.231-0.205c-0.435-0.02-0.872-0.009-1.308-0.009
			c0,2.224,0,4.421,0,6.619c0.465,0,0.906,0,1.387,0c0-1.363,0-2.708,0-4.055C12.426,25.071,12.489,25.159,12.548,25.249z"/>
		<path fill="none" d="M18.581,28.871c0.154-0.418,0.316-0.83,0.49-1.238c0.031-0.07,0.141-0.15,0.216-0.152
			c0.583-0.01,1.166-0.002,1.749-0.008c0.148-0.002,0.215,0.059,0.262,0.186c0.15,0.408,0.302,0.816,0.463,1.221
			c0.03,0.074,0.108,0.18,0.168,0.182c0.435,0.016,0.869,0.01,1.342,0.01c-0.751-2.008-1.483-3.963-2.219-5.918
			c-0.089-0.238-0.137-0.558-0.313-0.677c-0.181-0.12-0.495-0.039-0.751-0.045c-0.026-0.001-0.053,0.004-0.077-0.001
			c-0.264-0.058-0.369,0.081-0.453,0.311c-0.648,1.762-1.306,3.52-1.96,5.276c-0.126,0.34-0.248,0.682-0.383,1.055
			c0.418,0,0.794-0.01,1.17,0.004C18.447,29.08,18.526,29.021,18.581,28.871z"/>
		<path fill="none" d="M52.534,32.316c-7.76-0.004-15.519-0.004-23.278-0.004s-15.519,0-23.278,0.004
			c-0.127,0.004-0.367,0.09-0.364,0.113c0.031,0.236,0.232,0.139,0.366,0.139c15.519,0.006,31.038,0.006,46.556,0
			c0.126,0,0.367-0.088,0.364-0.111C52.868,32.223,52.667,32.316,52.534,32.316z"/>
		<path fill="none" d="M50.523,16.873c0.002-0.961,0.006-1.922,0-2.883c0-0.066-0.059-0.158-0.117-0.192
			c-0.444-0.259-0.885-0.528-1.348-0.75c-0.209-0.1-0.232-0.225-0.232-0.416c0.004-2.488,0.003-4.977,0.002-7.465
			c0-0.377-0.194-0.643-0.529-0.74c-0.346-0.101-0.69-0.205-1.037-0.31c-1.58-0.48-3.16-0.961-4.74-1.442
			C41.681,2.417,40.839,2.16,39.989,1.9c0,5.022,0,10.026,0,15.029c3.518,0,7.017,0,10.509,0
			C50.51,16.902,50.523,16.887,50.523,16.873z"/>
		<path fill="none" d="M48.835,37.461c-1.429,0.775-2.858,1.551-4.288,2.326c-1.385,0.75-2.77,1.502-4.154,2.254
			c-0.904,0.488-1.809,0.977-2.713,1.469c-1.541,0.836-3.082,1.674-4.623,2.512c-1.201,0.652-2.398,1.307-3.604,1.947
			c-0.105,0.057-0.287,0.055-0.393,0.002c-0.608-0.311-1.204-0.645-1.805-0.973c-1.43-0.775-2.86-1.551-4.29-2.326
			c-1.393-0.758-2.785-1.516-4.178-2.271c-0.904-0.49-1.812-0.973-2.715-1.463c-1.31-0.709-2.618-1.426-3.927-2.141
			c-0.526-0.287-1.05-0.574-1.576-0.857c-0.851-0.459-1.702-0.914-2.553-1.373c-0.024,0.014-0.05,0.027-0.074,0.041
			c0.059,0.109,0.089,0.271,0.18,0.322c1.102,0.617,2.211,1.221,3.32,1.828c0.681,0.371,1.368,0.734,2.049,1.104
			c1.25,0.684,2.496,1.373,3.747,2.055c0.896,0.488,1.797,0.965,2.692,1.449c1.534,0.832,3.067,1.668,4.6,2.502
			c1.316,0.719,2.652,1.404,3.94,2.168c0.572,0.34,1,0.338,1.573,0c1.325-0.783,2.698-1.486,4.053-2.225
			c1.392-0.756,2.786-1.514,4.178-2.27c1.354-0.738,2.708-1.473,4.062-2.211c1.68-0.918,3.357-1.838,5.037-2.754
			c0.991-0.539,1.984-1.078,2.98-1.607c0.195-0.102,0.203-0.227,0.145-0.408C49.931,36.867,49.383,37.162,48.835,37.461z"/>
		<path fill="none" d="M27.891,24.599c0.294-0.862-0.285-1.9-1.256-2.049c-0.915-0.139-1.854-0.117-2.793-0.167
			c0,2.268,0,4.466,0,6.687c0.635,0,1.25,0.002,1.867,0c0.163,0,0.327,0.004,0.487-0.02c0.74-0.107,1.406-0.352,1.854-1.006
			c0.477-0.695,0.479-2.003-0.755-2.407c-0.149-0.047-0.301-0.084-0.452-0.127C27.465,25.242,27.753,25.002,27.891,24.599z"/>
		<path fill="none" d="M52.534,19.339c-7.76-0.004-15.519-0.004-23.277-0.004c-7.759,0-15.519,0-23.278,0.005
			c-0.128,0-0.368,0.088-0.365,0.11c0.031,0.236,0.232,0.14,0.366,0.14c15.519,0.004,31.038,0.004,46.556-0.001
			c0.126,0,0.367-0.088,0.364-0.11C52.868,19.243,52.667,19.339,52.534,19.339z"/>
		<path fill="none" d="M51.215,25.735c0.009-0.282-0.247-0.554-0.524-0.559c-0.278-0.004-0.537,0.258-0.538,0.543
			c-0.001,0.279,0.237,0.516,0.522,0.52C50.96,26.241,51.206,26.013,51.215,25.735z"/>
		<path fill="none" d="M47.008,24.08c-0.132-0.751-0.694-1.42-1.525-1.532c-0.935-0.125-1.888-0.116-2.84-0.165
			c0,2.271,0,4.468,0,6.667c0.462,0,0.902,0,1.374,0c0-0.846,0-1.674,0-2.56c0.218,0.046,0.437,0.031,0.564,0.13
			c0.29,0.232,0.578,0.488,0.787,0.789c0.331,0.477,0.591,0.998,0.888,1.496c0.04,0.066,0.115,0.154,0.175,0.154
			c0.493,0.014,0.987,0.01,1.542,0.01c-0.752-1.145-1.295-2.346-2.253-3.298c0.081-0.023,0.129-0.037,0.178-0.051
			C46.494,25.549,47.162,24.964,47.008,24.08z"/>
		<path fill="none" d="M32.313,29.174c0.06,0,0.12,0.002,0.18,0c0.988-0.041,1.832-0.387,2.458-1.18
			c0.434-0.547,0.63-1.189,0.692-1.872c0.07-0.79-0.041-1.555-0.437-2.254c-0.548-0.967-1.406-1.479-2.495-1.573
			c-1.114-0.097-2.083,0.24-2.799,1.137c-0.687,0.859-0.861,1.858-0.734,2.924C29.381,28.09,30.589,29.174,32.313,29.174z"/>
		<path fill="none" d="M36.401,22.446c0,1.527-0.028,3.036,0.014,4.544c0.019,0.66,0.303,1.256,0.853,1.684
			c0.529,0.418,1.143,0.504,1.789,0.502c1.573-0.008,2.586-1.02,2.586-2.592c0.002-1.277,0.001-2.557,0.001-3.835
			c0-0.099,0-0.197,0-0.303c-0.481,0-0.924,0-1.393,0c0,0.118,0,0.219,0,0.321c0,1.27,0.005,2.54-0.001,3.808
			c-0.006,0.973-0.645,1.49-1.603,1.33c-0.325-0.055-0.585-0.201-0.677-0.512c-0.1-0.34-0.174-0.699-0.181-1.048
			c-0.022-1.193-0.009-2.386-0.009-3.578c0-0.102,0-0.203,0-0.321C37.312,22.446,36.87,22.446,36.401,22.446z"/>
		<path fill="#FFFFFF" d="M55.216,17.929c0-0.189,0.003-0.378-0.001-0.566c-0.006-0.27-0.16-0.421-0.426-0.421
			c-1.082,0-2.164,0-3.246,0c-0.09,0-0.183,0-0.294,0c0-0.122,0-0.215,0-0.307c0-1.031,0.003-2.061-0.005-3.09
			c-0.001-0.09-0.056-0.221-0.125-0.262c-0.415-0.243-0.834-0.48-1.266-0.69c-0.201-0.097-0.258-0.21-0.256-0.426
			c0.009-2.12,0.008-4.241,0.003-6.36c-0.001-0.331-0.025-0.663-0.052-0.993c-0.036-0.456-0.485-0.973-0.928-1.106
			c-1.695-0.511-3.388-1.029-5.082-1.542c-1.156-0.35-2.313-0.698-3.47-1.044c-0.342-0.103-0.665-0.056-0.971,0.14
			c-0.341,0.217-0.693,0.417-1.042,0.623c-1.181,0.698-2.362,1.393-3.54,2.096c-0.166,0.098-0.297,0.145-0.472,0.014
			c-0.16-0.119-0.353-0.195-0.529-0.292c-1.37-0.747-2.738-1.495-4.11-2.236c-0.074-0.04-0.196-0.048-0.27-0.015
			c-0.23,0.104-0.45,0.233-0.67,0.354c-1.249,0.685-2.496,1.372-3.746,2.054c-0.888,0.484-1.78,0.961-2.669,1.444
			c-1.526,0.829-3.053,1.655-4.573,2.493c-0.193,0.107-0.316,0.088-0.48-0.045c-0.346-0.281-0.711-0.54-1.068-0.807
			c-2.844,1.887-5.677,3.77-8.518,5.641c-0.188,0.124-0.255,0.237-0.253,0.457c0.011,1.287,0.005,2.574,0.005,3.898
			c-0.124,0-0.216,0-0.31,0c-0.961,0-1.923,0-2.884,0c-0.434,0-0.562,0.123-0.565,0.556c-0.019,2.649-0.042,5.298-0.05,7.947
			c-0.009,2.669-0.002,5.339-0.004,8.009c0,0.141-0.029,0.285-0.041,0.428c-0.027,0.35,0.152,0.635,0.515,0.627
			c1.047-0.014,2.094-0.004,3.141-0.004c0.092,0,0.185,0,0.301,0c0,0.109,0,0.191,0,0.275c0,0.799-0.005,1.596,0.006,2.395
			c0.001,0.096,0.066,0.234,0.144,0.275c0.599,0.346,1.209,0.67,1.816,1.002c1.147,0.623,2.294,1.25,3.442,1.871
			c1.599,0.871,3.2,1.74,4.8,2.611c1.147,0.623,2.293,1.246,3.44,1.869c1.6,0.871,3.202,1.738,4.802,2.611
			c1.139,0.619,2.276,1.244,3.418,1.859c0.066,0.035,0.184,0.033,0.249,0c1.03-0.561,2.053-1.129,3.081-1.689
			c1.777-0.971,3.556-1.936,5.333-2.9c1.161-0.633,2.324-1.262,3.485-1.895c1.771-0.961,3.54-1.926,5.31-2.887
			c1.497-0.812,2.998-1.619,4.491-2.438c0.081-0.045,0.158-0.176,0.16-0.27c0.012-0.797,0.006-1.596,0.006-2.396
			c0-0.09,0-0.182,0-0.295c0.12,0,0.213,0,0.306,0c1.003,0,2.008-0.014,3.012,0.006c0.476,0.01,0.656-0.197,0.654-0.643
			C55.212,28.553,55.216,23.242,55.216,17.929z M39.989,1.9c0.85,0.26,1.691,0.518,2.532,0.774c1.58,0.481,3.16,0.962,4.74,1.442
			c0.347,0.105,0.691,0.209,1.037,0.31c0.335,0.097,0.529,0.362,0.529,0.74c0.001,2.488,0.002,4.977-0.002,7.465
			c0,0.191,0.023,0.316,0.232,0.416c0.462,0.222,0.903,0.49,1.348,0.75c0.058,0.034,0.117,0.126,0.117,0.192
			c0.006,0.961,0.002,1.922,0,2.883c0,0.015-0.013,0.029-0.024,0.056c-3.493,0-6.991,0-10.509,0
			C39.989,11.926,39.989,6.922,39.989,1.9z M29.245,2.287c0.011,0.02,0.022,0.041,0.034,0.061c-0.657,0.383-1.313,0.767-1.971,1.149
			c-0.967,0.562-1.935,1.124-2.905,1.683c-0.957,0.55-1.915,1.096-2.874,1.642c-0.467,0.268-0.938,0.529-1.4,0.804
			c-0.12,0.071-0.234,0.171-0.145,0.35c0.096,0.192,0.236,0.201,0.399,0.109c0.624-0.352,1.248-0.704,1.869-1.061
			c0.729-0.419,1.457-0.843,2.185-1.266c1.071-0.621,2.141-1.243,3.212-1.863c0.685-0.396,1.367-0.797,2.06-1.179
			c0.106-0.059,0.262-0.03,0.395-0.042c0.007,0.032,0.015,0.064,0.023,0.096c-0.438,0.258-0.875,0.521-1.316,0.775
			c-0.955,0.551-1.914,1.098-2.87,1.648c-0.846,0.486-1.693,0.972-2.539,1.46c-0.648,0.374-1.298,0.748-1.943,1.129
			c-0.138,0.081-0.229,0.209-0.125,0.377c0.1,0.163,0.245,0.167,0.398,0.078c1.136-0.661,2.27-1.325,3.406-1.984
			c0.816-0.474,1.637-0.941,2.454-1.413c0.969-0.56,1.938-1.121,2.907-1.683c0.144-0.083,0.276-0.108,0.426,0.051
			c-0.308,0.18-0.603,0.352-0.899,0.524c-1.188,0.689-2.375,1.38-3.564,2.065c-0.956,0.551-1.916,1.092-2.872,1.643
			c-0.839,0.484-1.673,0.978-2.513,1.462c-0.178,0.103-0.297,0.225-0.159,0.424c0.12,0.174,0.27,0.106,0.423,0.019
			c1.29-0.748,2.583-1.489,3.875-2.236c1.392-0.805,2.781-1.614,4.173-2.418c0.663-0.383,1.329-0.765,2.003-1.129
			c0.083-0.044,0.226,0.022,0.34,0.038c-0.001,0.023-0.002,0.046-0.003,0.069c-0.705,0.407-1.409,0.813-2.113,1.221
			c-0.838,0.485-1.675,0.973-2.513,1.457c-0.708,0.409-1.419,0.813-2.126,1.223c-0.641,0.371-1.278,0.747-1.92,1.116
			c-0.154,0.089-0.237,0.19-0.136,0.367c0.109,0.191,0.261,0.149,0.408,0.066c0.864-0.491,1.727-0.987,2.588-1.482
			c0.846-0.487,1.692-0.974,2.537-1.464c1.071-0.621,2.142-1.243,3.213-1.864c0.117-0.067,0.239-0.126,0.352-0.2
			c0.188-0.125,0.371-0.217,0.567-0.001c-0.491,0.286-0.99,0.58-1.491,0.871c-0.852,0.494-1.705,0.988-2.558,1.48
			c-0.826,0.475-1.653,0.946-2.479,1.42c-0.533,0.307-1.062,0.619-1.594,0.926c-0.164,0.095-0.2,0.218-0.107,0.384
			c0.096,0.17,0.217,0.145,0.36,0.062c1.019-0.591,2.041-1.181,3.062-1.768c1.037-0.597,2.075-1.191,3.113-1.786
			c0.715-0.41,1.43-0.821,2.149-1.222c0.075-0.042,0.183-0.022,0.275-0.032c0.005,0.032,0.01,0.063,0.017,0.094
			c-0.382,0.222-0.764,0.442-1.146,0.664c-1.079,0.625-2.156,1.25-3.235,1.874c-1.013,0.585-2.024,1.175-3.043,1.749
			c-0.185,0.104-0.196,0.245-0.126,0.379c0.082,0.161,0.25,0.159,0.398,0.073c1.567-0.908,3.132-1.82,4.7-2.727
			c0.37-0.214,0.746-0.417,1.119-0.625c0,3.672,0,7.335,0,11.009c-0.121,0-0.204,0-0.322,0c0-0.1,0-0.2,0-0.299
			c0-3.176,0-6.352,0-9.528c0-0.503-0.163-0.596-0.603-0.348c-1.237,0.701-2.477,1.397-3.715,2.098
			c-0.872,0.495-1.743,0.995-2.615,1.49c-0.184,0.104-0.284,0.23-0.283,0.463c0.008,1.94,0.005,3.88,0.005,5.82
			c0,0.093,0,0.187,0,0.306c-0.15,0-0.267,0-0.413,0c0-0.101,0-0.192,0-0.285c0-1.107-0.003-2.214,0.002-3.321
			c0-0.166-0.042-0.265-0.189-0.374c-1.172-0.874-2.328-1.766-3.492-2.649c-0.811-0.615-1.624-1.226-2.461-1.856
			C21.703,6.387,25.474,4.336,29.245,2.287z M50.354,36.969c-0.997,0.529-1.989,1.068-2.98,1.607
			c-1.68,0.916-3.357,1.836-5.037,2.754c-1.354,0.738-2.708,1.473-4.062,2.211c-1.392,0.756-2.786,1.514-4.178,2.27
			c-1.355,0.738-2.728,1.441-4.053,2.225c-0.573,0.338-1.001,0.34-1.573,0c-1.288-0.764-2.624-1.449-3.94-2.168
			c-1.533-0.834-3.066-1.67-4.6-2.502c-0.895-0.484-1.796-0.961-2.692-1.449c-1.25-0.682-2.497-1.371-3.747-2.055
			c-0.681-0.369-1.368-0.732-2.049-1.104c-1.109-0.607-2.219-1.211-3.32-1.828c-0.091-0.051-0.121-0.213-0.18-0.322
			c0.024-0.014,0.05-0.027,0.074-0.041c0.851,0.459,1.703,0.914,2.553,1.373c0.526,0.283,1.05,0.57,1.576,0.857
			c1.309,0.715,2.617,1.432,3.927,2.141c0.903,0.49,1.811,0.973,2.715,1.463c1.393,0.756,2.785,1.514,4.178,2.271
			c1.429,0.775,2.859,1.551,4.29,2.326c0.601,0.328,1.197,0.662,1.805,0.973c0.106,0.053,0.288,0.055,0.393-0.002
			c1.206-0.641,2.404-1.295,3.604-1.947c1.541-0.838,3.082-1.676,4.623-2.512c0.904-0.492,1.809-0.98,2.713-1.469
			c1.384-0.752,2.769-1.504,4.154-2.254c1.429-0.775,2.858-1.551,4.288-2.326c0.547-0.299,1.096-0.594,1.663-0.9
			C50.557,36.742,50.549,36.867,50.354,36.969z M52.536,32.568c-15.519,0.006-31.038,0.006-46.556,0
			c-0.133,0-0.334,0.098-0.366-0.139c-0.003-0.023,0.237-0.109,0.364-0.113c7.759-0.004,15.519-0.004,23.278-0.004
			s15.519,0,23.278,0.004c0.134,0,0.334-0.094,0.366,0.141C52.902,32.48,52.662,32.568,52.536,32.568z M6.683,25.698
			c0.015-0.277,0.267-0.523,0.534-0.521c0.276,0.002,0.535,0.275,0.528,0.555c-0.008,0.277-0.253,0.508-0.538,0.508
			C6.912,26.237,6.668,25.985,6.683,25.698z M10.917,29.051c0-2.197,0-4.395,0-6.619c0.437,0,0.874-0.011,1.308,0.009
			c0.081,0.003,0.175,0.12,0.231,0.205c0.805,1.22,1.604,2.443,2.406,3.663c0.059,0.09,0.125,0.178,0.186,0.263
			c0.024-0.008,0.049-0.016,0.073-0.027c0-0.681,0-1.365,0-2.049c0-0.676,0-1.353,0-2.046c0.476,0,0.928,0,1.397,0
			c0,2.194,0,4.395,0,6.621c-0.45,0-0.895,0.008-1.339-0.01c-0.076-0.004-0.167-0.104-0.218-0.182
			c-0.808-1.209-1.609-2.419-2.414-3.63c-0.059-0.09-0.123-0.178-0.245-0.253c0,1.347,0,2.691,0,4.055
			C11.823,29.051,11.381,29.051,10.917,29.051z M17.113,29.07c0.136-0.373,0.257-0.715,0.383-1.055
			c0.655-1.757,1.312-3.515,1.96-5.276c0.084-0.229,0.189-0.369,0.453-0.311c0.024,0.005,0.051,0,0.077,0.001
			c0.256,0.006,0.571-0.075,0.751,0.045c0.176,0.119,0.224,0.439,0.313,0.677c0.735,1.955,1.468,3.91,2.219,5.918
			c-0.473,0-0.907,0.006-1.342-0.01c-0.06-0.002-0.138-0.107-0.168-0.182c-0.162-0.404-0.313-0.812-0.463-1.221
			c-0.047-0.127-0.114-0.188-0.262-0.186c-0.583,0.006-1.167-0.002-1.749,0.008c-0.075,0.002-0.185,0.082-0.216,0.152
			c-0.174,0.408-0.335,0.82-0.49,1.238c-0.055,0.15-0.134,0.209-0.298,0.203C17.907,29.061,17.531,29.07,17.113,29.07z
			 M27.295,25.638c1.235,0.404,1.232,1.712,0.755,2.407c-0.448,0.654-1.115,0.898-1.854,1.006c-0.16,0.023-0.325,0.02-0.487,0.02
			c-0.617,0.002-1.232,0-1.867,0c0-2.221,0-4.419,0-6.687c0.939,0.05,1.878,0.027,2.793,0.167c0.971,0.149,1.55,1.187,1.256,2.049
			c-0.138,0.404-0.426,0.643-1.048,0.912C26.994,25.554,27.146,25.591,27.295,25.638z M29.912,23.432
			c0.716-0.897,1.685-1.234,2.799-1.137c1.089,0.094,1.947,0.606,2.495,1.573c0.396,0.699,0.507,1.464,0.437,2.254
			c-0.062,0.683-0.258,1.325-0.692,1.872c-0.626,0.793-1.47,1.139-2.458,1.18c-0.06,0.002-0.12,0-0.18,0
			c-1.725,0-2.933-1.084-3.136-2.817C29.051,25.291,29.226,24.292,29.912,23.432z M37.791,26.345
			c0.006,0.349,0.081,0.708,0.181,1.048c0.091,0.311,0.352,0.457,0.677,0.512c0.958,0.16,1.596-0.357,1.603-1.33
			c0.006-1.268,0.001-2.538,0.001-3.808c0-0.102,0-0.203,0-0.321c0.469,0,0.912,0,1.393,0c0,0.105,0,0.204,0,0.303
			c0,1.278,0.001,2.558-0.001,3.835c0,1.572-1.014,2.584-2.586,2.592c-0.646,0.002-1.259-0.084-1.789-0.502
			c-0.55-0.428-0.834-1.023-0.853-1.684c-0.042-1.509-0.014-3.018-0.014-4.544c0.469,0,0.911,0,1.38,0c0,0.118,0,0.219,0,0.321
			C37.782,23.959,37.768,25.151,37.791,26.345z M47.973,29.07c-0.555,0-1.049,0.004-1.542-0.01c-0.061,0-0.136-0.088-0.175-0.154
			c-0.297-0.498-0.558-1.02-0.888-1.496c-0.208-0.301-0.497-0.557-0.787-0.789c-0.127-0.099-0.346-0.084-0.564-0.13
			c0,0.886,0,1.714,0,2.56c-0.472,0-0.912,0-1.374,0c0-2.199,0-4.397,0-6.667c0.952,0.049,1.905,0.039,2.84,0.165
			c0.831,0.112,1.393,0.781,1.525,1.532c0.154,0.884-0.514,1.469-1.11,1.642c-0.049,0.014-0.097,0.027-0.178,0.051
			C46.677,26.725,47.22,27.926,47.973,29.07z M50.153,25.72c0.001-0.285,0.259-0.547,0.538-0.543
			c0.277,0.004,0.533,0.276,0.524,0.559c-0.009,0.277-0.255,0.506-0.539,0.504C50.39,26.235,50.152,25.999,50.153,25.72z
			 M52.536,19.589c-15.519,0.005-31.038,0.005-46.556,0.001c-0.133,0-0.335,0.096-0.366-0.14c-0.003-0.022,0.237-0.11,0.365-0.11
			c7.759-0.005,15.519-0.005,23.278-0.005c7.758,0,15.518,0,23.277,0.004c0.134,0,0.334-0.096,0.366,0.14
			C52.902,19.501,52.662,19.589,52.536,19.589z"/>
	</g>
	<path fill="#31BBA5" d="M12.548,25.249c0.804,1.211,1.606,2.421,2.414,3.63c0.051,0.078,0.142,0.178,0.218,0.182
		c0.444,0.018,0.889,0.01,1.339,0.01c0-2.227,0-4.427,0-6.621c-0.47,0-0.921,0-1.397,0c0,0.694,0,1.371,0,2.046
		c0,0.685,0,1.369,0,2.049c-0.024,0.012-0.049,0.02-0.073,0.027c-0.062-0.085-0.127-0.173-0.186-0.263
		c-0.801-1.22-1.601-2.443-2.406-3.663c-0.057-0.085-0.151-0.202-0.231-0.205c-0.435-0.02-0.872-0.009-1.308-0.009
		c0,2.224,0,4.421,0,6.619c0.465,0,0.906,0,1.387,0c0-1.363,0-2.708,0-4.055C12.426,25.071,12.489,25.159,12.548,25.249z"/>
	<path fill="#31BBA5" d="M32.313,29.174c0.06,0,0.12,0.002,0.18,0c0.988-0.041,1.832-0.387,2.458-1.18
		c0.434-0.547,0.63-1.189,0.692-1.872c0.07-0.79-0.041-1.555-0.437-2.254c-0.548-0.967-1.406-1.479-2.495-1.573
		c-1.114-0.097-2.083,0.24-2.799,1.137c-0.687,0.859-0.861,1.858-0.734,2.924C29.381,28.09,30.589,29.174,32.313,29.174z
		 M30.737,24.734c0.292-0.768,0.996-1.22,1.784-1.162c0.805,0.06,1.458,0.612,1.636,1.405c0.058,0.257,0.073,0.524,0.125,0.899
		c-0.082,0.291-0.145,0.692-0.305,1.052c-0.321,0.717-1.035,1.078-1.834,0.994c-0.733-0.076-1.289-0.543-1.488-1.295
		C30.487,25.993,30.502,25.354,30.737,24.734z"/>
	<path fill="#31BBA5" d="M27.891,24.599c0.294-0.862-0.285-1.9-1.256-2.049c-0.915-0.139-1.854-0.117-2.793-0.167
		c0,2.268,0,4.466,0,6.687c0.635,0,1.25,0.002,1.867,0c0.163,0,0.327,0.004,0.487-0.02c0.74-0.107,1.406-0.352,1.854-1.006
		c0.477-0.695,0.479-2.003-0.755-2.407c-0.149-0.047-0.301-0.084-0.452-0.127C27.465,25.242,27.753,25.002,27.891,24.599z
		 M25.239,23.691c0.307,0.014,0.599,0.003,0.884,0.047c0.219,0.035,0.391,0.173,0.422,0.424c0.034,0.273-0.064,0.536-0.309,0.618
		c-0.307,0.105-0.637,0.144-0.997,0.218C25.239,24.509,25.239,24.119,25.239,23.691z M26.545,27.625
		c-0.296,0.166-0.881,0.232-1.308,0.141c0-0.508,0-1.016,0-1.558c0.467-0.018,0.926-0.053,1.34,0.205
		C27.056,26.709,27.035,27.352,26.545,27.625z"/>
	<path fill="#31BBA5" d="M47.008,24.08c-0.132-0.751-0.694-1.42-1.525-1.532c-0.935-0.125-1.888-0.116-2.84-0.165
		c0,2.271,0,4.468,0,6.667c0.462,0,0.902,0,1.374,0c0-0.846,0-1.674,0-2.56c0.218,0.046,0.437,0.031,0.564,0.13
		c0.29,0.232,0.578,0.488,0.787,0.789c0.331,0.477,0.591,0.998,0.888,1.496c0.04,0.066,0.115,0.154,0.175,0.154
		c0.493,0.014,0.987,0.01,1.542,0.01c-0.752-1.145-1.295-2.346-2.253-3.298c0.081-0.023,0.129-0.037,0.178-0.051
		C46.494,25.549,47.162,24.964,47.008,24.08z M45.097,25.133c-0.336,0.078-0.688,0.084-1.065,0.125c0-0.554,0-1.032,0-1.548
		c0.415,0.007,0.824-0.041,1.211,0.121c0.247,0.102,0.377,0.352,0.354,0.628C45.569,24.785,45.424,25.057,45.097,25.133z"/>
	<path fill="#31BBA5" d="M36.401,22.446c0,1.527-0.028,3.036,0.014,4.544c0.019,0.66,0.303,1.256,0.853,1.684
		c0.529,0.418,1.143,0.504,1.789,0.502c1.573-0.008,2.586-1.02,2.586-2.592c0.002-1.277,0.001-2.557,0.001-3.835
		c0-0.099,0-0.197,0-0.303c-0.481,0-0.924,0-1.393,0c0,0.118,0,0.219,0,0.321c0,1.27,0.005,2.54-0.001,3.808
		c-0.006,0.973-0.645,1.49-1.603,1.33c-0.325-0.055-0.585-0.201-0.677-0.512c-0.1-0.34-0.174-0.699-0.181-1.048
		c-0.022-1.193-0.009-2.386-0.009-3.578c0-0.102,0-0.203,0-0.321C37.312,22.446,36.87,22.446,36.401,22.446z"/>
	<path fill="#31BBA5" d="M18.581,28.871c0.154-0.418,0.316-0.83,0.49-1.238c0.031-0.07,0.141-0.15,0.216-0.152
		c0.583-0.01,1.166-0.002,1.749-0.008c0.148-0.002,0.215,0.059,0.262,0.186c0.15,0.408,0.302,0.816,0.463,1.221
		c0.03,0.074,0.108,0.18,0.168,0.182c0.435,0.016,0.869,0.01,1.342,0.01c-0.751-2.008-1.483-3.963-2.219-5.918
		c-0.089-0.238-0.137-0.558-0.313-0.677c-0.181-0.12-0.495-0.039-0.751-0.045c-0.026-0.001-0.053,0.004-0.077-0.001
		c-0.264-0.058-0.369,0.081-0.453,0.311c-0.648,1.762-1.306,3.52-1.96,5.276c-0.126,0.34-0.248,0.682-0.383,1.055
		c0.418,0,0.794-0.01,1.17,0.004C18.447,29.08,18.526,29.021,18.581,28.871z M20.145,24.647c0.023-0.003,0.045-0.007,0.068-0.01
		c0.178,0.512,0.357,1.026,0.55,1.579c-0.417,0-0.772,0-1.181,0C19.777,25.675,19.96,25.161,20.145,24.647z"/>
	<path fill="#31BBA5" d="M48.835,37.461c-1.429,0.775-2.858,1.551-4.288,2.326c-1.385,0.75-2.77,1.502-4.154,2.254
		c-0.904,0.488-1.809,0.977-2.713,1.469c-1.541,0.836-3.082,1.674-4.623,2.512c-1.201,0.652-2.398,1.307-3.604,1.947
		c-0.105,0.057-0.287,0.055-0.393,0.002c-0.608-0.311-1.204-0.645-1.805-0.973c-1.43-0.775-2.86-1.551-4.29-2.326
		c-1.393-0.758-2.785-1.516-4.178-2.271c-0.904-0.49-1.812-0.973-2.715-1.463c-1.31-0.709-2.618-1.426-3.927-2.141
		c-0.526-0.287-1.05-0.574-1.576-0.857c-0.851-0.459-1.702-0.914-2.553-1.373c-0.024,0.014-0.05,0.027-0.074,0.041
		c0.059,0.109,0.089,0.271,0.18,0.322c1.102,0.617,2.211,1.221,3.32,1.828c0.681,0.371,1.368,0.734,2.049,1.104
		c1.25,0.684,2.496,1.373,3.747,2.055c0.896,0.488,1.797,0.965,2.692,1.449c1.534,0.832,3.067,1.668,4.6,2.502
		c1.316,0.719,2.652,1.404,3.94,2.168c0.572,0.34,1,0.338,1.573,0c1.325-0.783,2.698-1.486,4.053-2.225
		c1.392-0.756,2.786-1.514,4.178-2.27c1.354-0.738,2.708-1.473,4.062-2.211c1.68-0.918,3.357-1.838,5.037-2.754
		c0.991-0.539,1.984-1.078,2.98-1.607c0.195-0.102,0.203-0.227,0.145-0.408C49.931,36.867,49.383,37.162,48.835,37.461z"/>
	<path fill="#31BBA5" d="M52.534,32.316c-7.76-0.004-15.519-0.004-23.278-0.004s-15.519,0-23.278,0.004
		c-0.127,0.004-0.367,0.09-0.364,0.113c0.031,0.236,0.232,0.139,0.366,0.139c15.519,0.006,31.038,0.006,46.556,0
		c0.126,0,0.367-0.088,0.364-0.111C52.868,32.223,52.667,32.316,52.534,32.316z"/>
	<path fill="#31BBA5" d="M52.534,19.339c-7.76-0.004-15.519-0.004-23.277-0.004c-7.759,0-15.519,0-23.278,0.005
		c-0.128,0-0.368,0.088-0.365,0.11c0.031,0.236,0.232,0.14,0.366,0.14c15.519,0.004,31.038,0.004,46.556-0.001
		c0.126,0,0.367-0.088,0.364-0.11C52.868,19.243,52.667,19.339,52.534,19.339z"/>
	<path fill="#31BBA5" d="M7.745,25.731c0.007-0.279-0.252-0.552-0.528-0.555c-0.267-0.002-0.519,0.244-0.534,0.521
		c-0.015,0.287,0.229,0.539,0.524,0.541C7.492,26.239,7.737,26.009,7.745,25.731z"/>
	<path fill="#31BBA5" d="M51.215,25.735c0.009-0.282-0.247-0.554-0.524-0.559c-0.278-0.004-0.537,0.258-0.538,0.543
		c-0.001,0.279,0.237,0.516,0.522,0.52C50.96,26.241,51.206,26.013,51.215,25.735z"/>
	<path fill="#FFFFFF" d="M45.139,6.979c0.656,0,1.293,0,1.924,0c0-0.652,0-1.283,0-1.925c-0.644,0-1.275,0-1.924,0
		C45.139,5.713,45.139,6.35,45.139,6.979z"/>
	<path fill="#FFFFFF" d="M45.135,13.371c0.651,0,1.289,0,1.922,0c0-0.654,0-1.292,0-1.928c-0.65,0-1.28,0-1.922,0
		C45.135,12.091,45.135,12.729,45.135,13.371z"/>
	<path fill="#FFFFFF" d="M41.947,6.987c0.652,0,1.283,0,1.925,0c0-0.645,0-1.275,0-1.925c-0.657,0-1.294,0-1.925,0
		C41.947,5.717,41.947,6.354,41.947,6.987z"/>
	<path fill="#FFFFFF" d="M45.134,10.183c0.645,0,1.275,0,1.924,0c0-0.658,0-1.295,0-1.925c-0.655,0-1.293,0-1.924,0
		C45.134,8.909,45.134,9.54,45.134,10.183z"/>
	<path fill="#FFFFFF" d="M41.946,10.172c0.656,0,1.293,0,1.923,0c0-0.652,0-1.283,0-1.925c-0.645,0-1.276,0-1.923,0
		C41.946,8.907,41.946,9.544,41.946,10.172z"/>
	<path fill="#FFFFFF" d="M32.143,27.922c0.799,0.084,1.513-0.277,1.834-0.994c0.161-0.359,0.223-0.761,0.305-1.052
		c-0.051-0.375-0.067-0.642-0.125-0.899c-0.178-0.792-0.831-1.345-1.636-1.405c-0.789-0.059-1.492,0.394-1.784,1.162
		c-0.235,0.621-0.25,1.259-0.082,1.893C30.854,27.379,31.409,27.846,32.143,27.922z M32.4,25.251
		c0.294-0.01,0.545,0.232,0.545,0.525c0,0.283-0.238,0.523-0.521,0.525c-0.293,0.002-0.518-0.219-0.523-0.512
		C31.897,25.495,32.114,25.261,32.4,25.251z"/>
	<path fill="#FFFFFF" d="M25.237,26.208c0,0.542,0,1.05,0,1.558c0.427,0.092,1.012,0.025,1.308-0.141
		c0.489-0.273,0.51-0.916,0.032-1.212C26.163,26.155,25.704,26.19,25.237,26.208z"/>
	<path fill="#FFFFFF" d="M26.544,24.162c-0.031-0.251-0.203-0.389-0.422-0.424c-0.285-0.044-0.577-0.033-0.884-0.047
		c0,0.427,0,0.818,0,1.307c0.36-0.075,0.689-0.113,0.997-0.218C26.48,24.698,26.579,24.435,26.544,24.162z"/>
	<path fill="#FFFFFF" d="M45.244,23.832c-0.388-0.162-0.797-0.114-1.211-0.121c0,0.517,0,0.995,0,1.548
		c0.377-0.042,0.729-0.048,1.065-0.125c0.327-0.077,0.472-0.349,0.5-0.674C45.621,24.183,45.49,23.934,45.244,23.832z"/>
	<path fill="#FFFFFF" d="M20.212,24.637c-0.022,0.003-0.045,0.007-0.068,0.01c-0.184,0.514-0.368,1.027-0.562,1.568
		c0.408,0,0.763,0,1.181,0C20.569,25.663,20.391,25.149,20.212,24.637z"/>
	<path fill="#31BBA5" d="M32.424,26.302c0.283-0.002,0.521-0.242,0.521-0.525c0-0.293-0.251-0.535-0.545-0.525
		c-0.286,0.009-0.503,0.244-0.499,0.539C31.907,26.083,32.131,26.304,32.424,26.302z"/>
</g>
<g>
	<path fill-rule="evenodd" clip-rule="evenodd" fill="#FFFFFF" d="M77.398,23.627c0,4.062,0,7.918,0,11.815
		c-1.441,0-2.819,0-4.244,0c0-6.407,0-12.799,0-19.31c1.393,0,2.795-0.013,4.196,0.021c0.147,0.003,0.316,0.265,0.43,0.438
		c2.458,3.732,4.91,7.469,7.364,11.202c0.04,0.062,0.099,0.106,0.215,0.229c0-3.977,0-7.877,0-11.835c1.458,0,2.86,0,4.324,0
		c0,6.383,0,12.792,0,19.296c-1.388,0-2.77,0.021-4.149-0.021c-0.193-0.007-0.418-0.298-0.557-0.505
		c-2.361-3.524-4.712-7.057-7.066-10.587C77.782,24.177,77.646,23.987,77.398,23.627z"/>
	<path fill-rule="evenodd" clip-rule="evenodd" fill="#FFFFFF" d="M125.981,26.033c-0.057-3.046,0.813-5.758,3.029-7.925
		c1.562-1.526,3.484-2.291,5.653-2.418c2.373-0.141,4.591,0.327,6.553,1.767c2.014,1.48,3.124,3.527,3.587,5.909
		c0.487,2.487,0.259,4.938-0.809,7.278c-1.195,2.628-3.239,4.188-6.013,4.865c-2.702,0.66-5.32,0.493-7.731-0.955
		c-2.684-1.614-3.902-4.164-4.263-7.182C125.937,26.933,125.981,26.479,125.981,26.033z M130.268,25.973
		c0,0.272-0.01,0.548,0.002,0.82c0.118,2.59,1.745,5.168,4.832,5.18c1.771,0.008,3.396-0.423,4.38-1.947
		c1.658-2.571,1.733-5.324,0.296-8.02c-1.416-2.655-5.525-3.177-7.699-1.077C130.639,22.318,130.246,24.068,130.268,25.973z"/>
	<path fill-rule="evenodd" clip-rule="evenodd" fill="#FFFFFF" d="M110.551,16.274c2.62,0,5.203-0.162,7.756,0.047
		c2.462,0.202,4.21,2.032,4.502,4.664c0.19,1.714-1.144,3.474-3.157,4.032c0.511,0.157,0.932,0.263,1.336,0.416
		c2.852,1.098,3.491,3.979,2.386,6.408c-0.948,2.085-2.762,3.099-4.904,3.461c-1.306,0.219-2.661,0.152-3.994,0.179
		c-1.287,0.025-2.576,0.005-3.924,0.005C110.551,29.042,110.551,22.638,110.551,16.274z M114.811,31.7
		c1.019-0.082,1.962-0.082,2.875-0.245c1.072-0.194,1.799-0.954,1.867-1.752c0.082-0.932-0.473-1.905-1.47-2.146
		c-1.052-0.254-2.16-0.264-3.272-0.383C114.811,28.771,114.811,30.154,114.811,31.7z M114.811,23.493
		c1.037-0.221,1.976-0.348,2.863-0.633c0.727-0.233,0.78-0.93,0.75-1.603c-0.028-0.654-0.449-1.014-1.005-1.102
		c-0.855-0.135-1.73-0.145-2.608-0.209C114.811,21.139,114.811,22.17,114.811,23.493z"/>
	<path fill-rule="evenodd" clip-rule="evenodd" fill="#FFFFFF" d="M169.171,35.461c-1.484,0-2.844,0-4.255,0
		c0-6.433,0-12.84,0-19.333c1.478,0,2.933-0.01,4.392,0.003c1.571,0.013,3.154-0.137,4.686,0.438
		c2.214,0.831,3.637,2.337,3.907,4.712c0.214,1.864-0.753,3.559-3.086,4.501c-0.182,0.072-0.367,0.129-0.522,0.184
		c2.665,2.775,4.258,6.247,6.424,9.517c-1.698,0-3.251,0.012-4.799-0.017c-0.162-0.002-0.369-0.221-0.468-0.391
		c-0.783-1.343-1.489-2.737-2.341-4.033c-0.56-0.852-1.256-1.647-2.025-2.315c-0.451-0.395-1.166-0.489-1.912-0.776
		C169.171,30.604,169.171,32.999,169.171,35.461z M169.183,24.17c0.746,0,1.414,0.012,2.08-0.008
		c0.239-0.007,0.481-0.082,0.717-0.145c0.887-0.241,1.454-0.911,1.522-1.783c0.077-1.002-0.191-1.602-0.935-1.888
		c-1.096-0.421-2.236-0.414-3.385-0.306C169.183,21.439,169.183,22.768,169.183,24.17z"/>
	<path fill-rule="evenodd" clip-rule="evenodd" fill="#FFFFFF" d="M146.839,16.154c1.475,0,2.834,0,4.29,0c0,0.286,0,0.549,0,0.812
		c0,3.573-0.037,7.147,0.024,10.716c0.016,0.934,0.226,1.905,0.55,2.785c0.417,1.122,1.475,1.646,2.658,1.553
		c2.616-0.21,3.65-1.349,3.65-4.019c-0.002-3.621,0-7.243,0-10.866c0-0.293,0-0.587,0-0.944c1.433,0,2.807,0,4.288,0
		c0,0.235,0,0.497,0,0.758c0,3.847,0.023,7.693-0.009,11.538c-0.021,2.705-1.002,4.961-3.448,6.327
		c-0.796,0.444-1.718,0.734-2.618,0.898c-1.765,0.317-3.526,0.224-5.22-0.456c-2.152-0.863-3.373-2.521-3.846-4.721
		c-0.227-1.054-0.295-2.157-0.307-3.239c-0.037-3.423-0.014-6.848-0.014-10.272C146.839,16.757,146.839,16.49,146.839,16.154z"/>
	<path fill-rule="evenodd" clip-rule="evenodd" fill="#FFFFFF" d="M109.182,35.485c-1.395,0-2.66,0.025-3.921-0.021
		c-0.229-0.01-0.558-0.282-0.649-0.508c-0.531-1.297-1.004-2.616-1.51-3.964c-1.877,0-3.734-0.017-5.592,0.025
		c-0.208,0.005-0.499,0.318-0.597,0.553c-0.533,1.285-1.02,2.593-1.521,3.891c-1.424,0-2.809,0-4.272,0
		c0.582-1.59,1.14-3.133,1.716-4.671c1.752-4.684,3.522-9.361,5.252-14.055c0.181-0.491,0.396-0.642,0.891-0.618
		c0.843,0.039,1.688-0.019,2.528,0.031c0.215,0.013,0.527,0.235,0.603,0.435c1.658,4.337,3.291,8.684,4.926,13.03
		c0.654,1.741,1.303,3.484,1.952,5.229C109.055,35.021,109.097,35.21,109.182,35.485z M98.568,26.984c1.086,0,2.062,0,3.086,0
		c-0.498-1.433-0.98-2.808-1.516-4.337C99.576,24.199,99.079,25.572,98.568,26.984z"/>
	<path fill-rule="evenodd" clip-rule="evenodd" fill="#FFFFFF" d="M61.014,25.652c0.021-0.914,0.772-1.646,1.658-1.619
		c0.908,0.029,1.632,0.813,1.61,1.746c-0.021,0.885-0.856,1.67-1.733,1.628C61.663,27.365,60.993,26.598,61.014,25.652z"/>
	<path fill-rule="evenodd" clip-rule="evenodd" fill="#FFFFFF" d="M186.735,25.684c0.012-0.921,0.738-1.66,1.625-1.65
		c0.892,0.012,1.649,0.805,1.645,1.714c-0.01,0.891-0.812,1.675-1.703,1.662C187.437,27.4,186.724,26.61,186.735,25.684z"/>
	<path fill-rule="evenodd" clip-rule="evenodd" fill="#FFFFFF" d="M135.6,24.321c0.816-0.173,1.576,0.871,1.536,1.595
		c-0.057,0.96-0.628,1.541-1.604,1.531c-0.947-0.01-1.6-0.643-1.6-1.562C133.93,24.945,134.601,24.316,135.6,24.321z"/>
</g>
</svg>
