<?xml version="1.0" encoding="utf-8"?>
<!-- Generator: Adobe Illustrator 16.0.3, SVG Export Plug-In . SVG Version: 6.00 Build 0)  -->
<!DOCTYPE svg PUBLIC "-//W3C//DTD SVG 1.1//EN" "http://www.w3.org/Graphics/SVG/1.1/DTD/svg11.dtd">
<svg version="1.1" xmlns="http://www.w3.org/2000/svg" xmlns:xlink="http://www.w3.org/1999/xlink" x="0px" y="0px" width="1440px"
	 height="669px" viewBox="0 0 1440 669" enable-background="new 0 0 1440 669" xml:space="preserve">
<g id="Layer_1">
	<g>
		<path fill="#CDF6CA" stroke="#CDF6CA" d="M1486,742l15-766l-12,610L1486,742z"/>
		<path fill="#F4FDF1" stroke="#F4FDF1" d="M1486,742l3-156l-15,73L1486,742z"/>
		<path fill="#F5FCF3" stroke="#F5FCF3" d="M1486,742l-12-83l-85,24L1486,742z"/>
		<path fill="#F6FCF4" stroke="#F6FCF4" d="M1486,742l-97-59l15,94L1486,742z"/>
		<path fill="#F2FAEF" stroke="#F2FAEF" d="M1404,777l-15-94l-77,99L1404,777z"/>
		<path fill="#EEF9EC" stroke="#EEF9EC" d="M1312,782l77-99l-117,3L1312,782z"/>
		<path fill="#EBF7E8" stroke="#EBF7E8" d="M1312,782l-40-96l-51,95L1312,782z"/>
		<path fill="#E5F5E2" stroke="#E5F5E2" d="M1312,782l-91-1l-195,8L1312,782z"/>
		<path fill="#E8F6E5" stroke="#E8F6E5" d="M1221,781l51-95l-55-1L1221,781z"/>
		<path fill="#E5F5E2" stroke="#E5F5E2" d="M1221,781l-4-96l-107,96H1221z"/>
		<path fill="#E0F3DD" stroke="#E0F3DD" d="M1221,781h-111l-84,8L1221,781z"/>
		<path fill="#E2F4DE" stroke="#E2F4DE" d="M1110,781l107-96l-78-27L1110,781z"/>
		<path fill="#DCF2D7" stroke="#DCF2D7" d="M1110,781l29-123l-136-5L1110,781z"/>
		<path fill="#DAF1D7" stroke="#DAF1D7" d="M1110,781l-107-128l23,136L1110,781z"/>
		<path fill="#D4EED2" stroke="#D4EED2" d="M1026,789l-23-136l-87,90L1026,789z"/>
		<path fill="#CEEBCD" stroke="#CEEBCD" d="M1026,789l-110-46l-91,35L1026,789z"/>
		<path fill="#B8E0B9" stroke="#B8E0B9" d="M1026,789l-201-11l-596-2L1026,789z"/>
		<path fill="#97C9A6" stroke="#97C9A6" d="M1026,789l-797-13l-279,14L1026,789z"/>
		<path fill="#CEEDCB" stroke="#CEEDCB" d="M916,743l87-90l-44,1L916,743z"/>
		<path fill="#CBEBC9" stroke="#CBEBC9" d="M916,743l43-89l-89,32L916,743z"/>
		<path fill="#C9E9C8" stroke="#C9E9C8" d="M916,743l-46-57l-45,92L916,743z"/>
		<path fill="#C5E7C4" stroke="#C5E7C4" d="M825,778l45-92l-91,6L825,778z"/>
		<path fill="#C1E5C1" stroke="#C1E5C1" d="M825,778l-46-86l-14,67L825,778z"/>
		<path fill="#BAE2BB" stroke="#BAE2BB" d="M825,778l-60-19l-202-2L825,778z"/>
		<path fill="#B1DBB5" stroke="#B1DBB5" d="M825,778l-262-21l-53,10L825,778z"/>
		<path fill="#A4D3AE" stroke="#A4D3AE" d="M825,778l-315-11l-281,9L825,778z"/>
		<path fill="#BCE3BD" stroke="#BCE3BD" d="M765,759l14-67l-111,50L765,759z"/>
		<path fill="#B5DEB8" stroke="#B5DEB8" d="M765,759l-97-17l-105,15L765,759z"/>
		<path fill="#B7E2B8" stroke="#B7E2B8" d="M668,742l111-50l-99-22L668,742z"/>
		<path fill="#B1DDB4" stroke="#B1DDB4" d="M668,742l12-72l-84,20L668,742z"/>
		<path fill="#AEDAB4" stroke="#AEDAB4" d="M668,742l-72-52l-33,67L668,742z"/>
		<path fill="#A7D5AF" stroke="#A7D5AF" d="M563,757l33-67l-107,10L563,757z"/>
		<path fill="#A4D3AE" stroke="#A4D3AE" d="M563,757l-74-57l21,67L563,757z"/>
		<path fill="#9ECEAA" stroke="#9ECEAA" d="M510,767l-21-67l-94,64L510,767z"/>
		<path fill="#94C7A4" stroke="#94C7A4" d="M510,767l-115-3l-166,12L510,767z"/>
		<path fill="#99CBA7" stroke="#99CBA7" d="M395,764l94-64l-106-20L395,764z"/>
		<path fill="#93C7A3" stroke="#93C7A3" d="M395,764l-12-84l-57,80L395,764z"/>
		<path fill="#8DC2A0" stroke="#8DC2A0" d="M395,764l-69-4l-97,16L395,764z"/>
		<path fill="#8EC4A0" stroke="#8EC4A0" d="M326,760l57-80l-90,12L326,760z"/>
		<path fill="#89C09E" stroke="#89C09E" d="M326,760l-33-68l-64,84L326,760z"/>
		<path fill="#85BD9B" stroke="#85BD9B" d="M229,776l64-84l-79-5L229,776z"/>
		<path fill="#80B997" stroke="#80B997" d="M229,776l-15-89l-77,76L229,776z"/>
		<path fill="#80B291" stroke="#80B291" d="M229,776l-92-13l-187,27L229,776z"/>
		<path fill="#7FB695" stroke="#7FB695" d="M137,763l77-76l-86,13L137,763z"/>
		<path fill="#80B291" stroke="#80B291" d="M137,763l-9-63l-76,46L137,763z"/>
		<path fill="#80AD8D" stroke="#80AD8D" d="M137,763l-85-17l-102,44L137,763z"/>
		<path fill="#7FAF8F" stroke="#7FAF8F" d="M52,746l76-46l-84-1L52,746z"/>
		<path fill="#80AB8B" stroke="#80AB8B" d="M52,746l-8-47l-94,91L52,746z"/>
		<path fill="#7FA888" stroke="#7FA888" d="M-50,790l94-91l-86-46L-50,790z"/>
		<path fill="#76A57A" stroke="#76A57A" d="M-50,790l8-137l-21-229L-50,790z"/>
		<path fill="#EDFCE8" stroke="#EDFCE8" d="M1474,659l15-73l-120,14L1474,659z"/>
		<path fill="#EEFBEA" stroke="#EEFBEA" d="M1474,659l-105-59l20,83L1474,659z"/>
		<path fill="#E9F9E6" stroke="#E9F9E6" d="M1389,683l-20-83l-97,86L1389,683z"/>
		<path fill="#E4F8DF" stroke="#E4F8DF" d="M1272,686l97-86l-92-5L1272,686z"/>
		<path fill="#E3F7DF" stroke="#E3F7DF" d="M1272,686l5-91l-60,90L1272,686z"/>
		<path fill="#DFF6D9" stroke="#DFF6D9" d="M1217,685l60-90l-87,6L1217,685z"/>
		<path fill="#DEF5D9" stroke="#DEF5D9" d="M1217,685l-27-84l-51,57L1217,685z"/>
		<path fill="#D8F4D2" stroke="#D8F4D2" d="M1139,658l51-57l-84,1L1139,658z"/>
		<path fill="#D6F2D0" stroke="#D6F2D0" d="M1139,658l-33-56l-103,51L1139,658z"/>
		<path fill="#CFF0C9" stroke="#CFF0C9" d="M1003,653l103-51l-96-36L1003,653z"/>
		<path fill="#CBEEC6" stroke="#CBEEC6" d="M1003,653l7-87l-51,88L1003,653z"/>
		<path fill="#C7EDC2" stroke="#C7EDC2" d="M959,654l51-88l-84,34L959,654z"/>
		<path fill="#C7EBC3" stroke="#C7EBC3" d="M959,654l-33-54l-56,86L959,654z"/>
		<path fill="#C1E9BE" stroke="#C1E9BE" d="M870,686l56-86l-75,5L870,686z"/>
		<path fill="#C0E7BE" stroke="#C0E7BE" d="M870,686l-19-81l-72,87L870,686z"/>
		<path fill="#B9E6B6" stroke="#B9E6B6" d="M779,692l72-87l-85-26L779,692z"/>
		<path fill="#B6E3B4" stroke="#B6E3B4" d="M779,692l-13-113l-86,91L779,692z"/>
		<path fill="#ADE1AC" stroke="#ADE1AC" d="M680,670l86-91l-111-4L680,670z"/>
		<path fill="#ABDCAD" stroke="#ABDCAD" d="M680,670l-25-95l-59,115L680,670z"/>
		<path fill="#A4DAA7" stroke="#A4DAA7" d="M596,690l59-115l-74,9L596,690z"/>
		<path fill="#9ED6A4" stroke="#9ED6A4" d="M596,690l-15-106l-85,3L596,690z"/>
		<path fill="#9FD3A7" stroke="#9FD3A7" d="M596,690L496,587l-7,113L596,690z"/>
		<path fill="#96CE9F" stroke="#96CE9F" d="M489,700l7-113l-84,21L489,700z"/>
		<path fill="#94CBA0" stroke="#94CBA0" d="M489,700l-77-92l-29,72L489,700z"/>
		<path fill="#8AC698" stroke="#8AC698" d="M383,680l29-72l-115-10L383,680z"/>
		<path fill="#88C398" stroke="#88C398" d="M383,680l-86-82l-4,94L383,680z"/>
		<path fill="#82BF95" stroke="#82BF95" d="M293,692l4-94l-83,89L293,692z"/>
		<path fill="#7BBC8E" stroke="#7BBC8E" d="M214,687l83-89l-85-17L214,687z"/>
		<path fill="#79B88F" stroke="#79B88F" d="M214,687l-2-106l-84,119L214,687z"/>
		<path fill="#76B588" stroke="#76B588" d="M128,700l84-119l-107,7L128,700z"/>
		<path fill="#7AB18A" stroke="#7AB18A" d="M128,700l-23-112L44,699L128,700z"/>
		<path fill="#77AE82" stroke="#77AE82" d="M44,699l61-111l-84,4L44,699z"/>
		<path fill="#79AA82" stroke="#79AA82" d="M44,699L21,592l-63,61L44,699z"/>
		<path fill="#75A87B" stroke="#75A87B" d="M-42,653l63-61l-62,6L-42,653z"/>
		<path fill="#70A672" stroke="#70A672" d="M-42,653l1-55l-22-174L-42,653z"/>
		<path fill="#8CCEA0" stroke="#8CCEA0" d="M1489,586l12-610l-13,82L1489,586z"/>
		<path fill="#A6E1B0" stroke="#A6E1B0" d="M1489,586l-1-528l-18,189L1489,586z"/>
		<path fill="#BCF0BD" stroke="#BCF0BD" d="M1489,586l-19-339l-2,44L1489,586z"/>
		<path fill="#CFF6CC" stroke="#CFF6CC" d="M1489,586l-21-295l-9,181L1489,586z"/>
		<path fill="#DDFAD8" stroke="#DDFAD8" d="M1489,586l-30-114l-83,23L1489,586z"/>
		<path fill="#E5FBDF" stroke="#E5FBDF" d="M1489,586l-113-91l-7,105L1489,586z"/>
		<path fill="#DBF8D5" stroke="#DBF8D5" d="M1369,600l7-105l-68,6L1369,600z"/>
		<path fill="#DFF9D8" stroke="#DFF9D8" d="M1369,600l-61-99l-31,94L1369,600z"/>
		<path fill="#D4F5CD" stroke="#D4F5CD" d="M1277,595l31-94l-111-8L1277,595z"/>
		<path fill="#D8F6D1" stroke="#D8F6D1" d="M1277,595l-80-102l-7,108L1277,595z"/>
		<path fill="#CCF3C6" stroke="#CCF3C6" d="M1190,601l7-108l-94-4L1190,601z"/>
		<path fill="#D2F3CA" stroke="#D2F3CA" d="M1190,601l-87-112l3,113L1190,601z"/>
		<path fill="#CCF2C4" stroke="#CCF2C4" d="M1106,602l-3-113l-93,77L1106,602z"/>
		<path fill="#BFEEB9" stroke="#BFEEB9" d="M1010,566l93-77l-60-17L1010,566z"/>
		<path fill="#BBECB5" stroke="#BBECB5" d="M1010,566l33-94l-125,36L1010,566z"/>
		<path fill="#C1ECBB" stroke="#C1ECBB" d="M1010,566l-92-58l8,92L1010,566z"/>
		<path fill="#B8E9B3" stroke="#B8E9B3" d="M926,600l-8-92l-53-1L926,600z"/>
		<path fill="#BCE9B6" stroke="#BCE9B6" d="M926,600l-61-93l-14,98L926,600z"/>
		<path fill="#B5E7B1" stroke="#B5E7B1" d="M851,605l14-98l-99,72L851,605z"/>
		<path fill="#AAE4A7" stroke="#AAE4A7" d="M766,579l99-72l-95-23L766,579z"/>
		<path fill="#A3E1A0" stroke="#A3E1A0" d="M766,579l4-95l-110,14L766,579z"/>
		<path fill="#A7E0A4" stroke="#A7E0A4" d="M766,579l-106-81l-5,77L766,579z"/>
		<path fill="#9ADA9B" stroke="#9ADA9B" d="M655,575l5-77l-83,17L655,575z"/>
		<path fill="#9ED99F" stroke="#9ED99F" d="M655,575l-78-60l4,69L655,575z"/>
		<path fill="#98D59C" stroke="#98D59C" d="M581,584l-4-69l-81,72L581,584z"/>
		<path fill="#8FD195" stroke="#8FD195" d="M496,587l81-72l-99-6L496,587z"/>
		<path fill="#8FCE97" stroke="#8FCE97" d="M496,587l-18-78l-66,99L496,587z"/>
		<path fill="#86CB8F" stroke="#86CB8F" d="M412,608l66-99l-66-17V608z"/>
		<path fill="#80C68C" stroke="#80C68C" d="M412,608V492l-111,27L412,608z"/>
		<path fill="#81C48F" stroke="#81C48F" d="M412,608l-111-89l-4,79L412,608z"/>
		<path fill="#79BF89" stroke="#79BF89" d="M297,598l4-79l-89,62L297,598z"/>
		<path fill="#70BC82" stroke="#70BC82" d="M212,581l89-62l-81-13L212,581z"/>
		<path fill="#69B67C" stroke="#69B67C" d="M212,581l8-75l-99-15L212,581z"/>
		<path fill="#6FB57F" stroke="#6FB57F" d="M212,581l-91-90l-16,97L212,581z"/>
		<path fill="#68AF75" stroke="#68AF75" d="M105,588l16-97l-76-2L105,588z"/>
		<path fill="#70AE7A" stroke="#70AE7A" d="M105,588l-60-99L21,592L105,588z"/>
		<path fill="#68A86F" stroke="#68A86F" d="M21,592l24-103l-92-3L21,592z"/>
		<path fill="#70A874" stroke="#70A874" d="M21,592l-68-106l6,112L21,592z"/>
		<path fill="#63A267" stroke="#63A267" d="M-41,598l-6-112l-16-62L-41,598z"/>
		<path fill="#BFF3BE" stroke="#BFF3BE" d="M1459,472l9-181l-14,119L1459,472z"/>
		<path fill="#C9F4C7" stroke="#C9F4C7" d="M1459,472l-5-62l-58,16L1459,472z"/>
		<path fill="#CEF6CB" stroke="#CEF6CB" d="M1459,472l-63-46l-20,69L1459,472z"/>
		<path fill="#CDF5C9" stroke="#CDF5C9" d="M1376,495l20-69l-88,75L1376,495z"/>
		<path fill="#C2F2BF" stroke="#C2F2BF" d="M1308,501l88-75l-86-44L1308,501z"/>
		<path fill="#BAF0B8" stroke="#BAF0B8" d="M1308,501l2-119l-82,1L1308,501z"/>
		<path fill="#C1F1BD" stroke="#C1F1BD" d="M1308,501l-80-118l-31,110L1308,501z"/>
		<path fill="#B6EDB3" stroke="#B6EDB3" d="M1197,493l31-110l-94,41L1197,493z"/>
		<path fill="#BCEEB8" stroke="#BCEEB8" d="M1197,493l-63-69l-31,65L1197,493z"/>
		<path fill="#B3ECAF" stroke="#B3ECAF" d="M1103,489l31-65l-95,5L1103,489z"/>
		<path fill="#B5ECB0" stroke="#B5ECB0" d="M1103,489l-64-60l4,43L1103,489z"/>
		<path fill="#B0EAAC" stroke="#B0EAAC" d="M1043,472l-4-43l-121,79L1043,472z"/>
		<path fill="#A5E6A3" stroke="#A5E6A3" d="M918,508l121-79l-118-45L918,508z"/>
		<path fill="#A6E5A3" stroke="#A6E5A3" d="M918,508l3-124l-56,123L918,508z"/>
		<path fill="#9AE199" stroke="#9AE199" d="M865,507l56-123l-77,7L865,507z"/>
		<path fill="#9DE19B" stroke="#9DE19B" d="M865,507l-21-116l-74,93L865,507z"/>
		<path fill="#92DD92" stroke="#92DD92" d="M770,484l74-93l-73,20L770,484z"/>
		<path fill="#8CDB8D" stroke="#8CDB8D" d="M770,484l1-73l-91-28L770,484z"/>
		<path fill="#90DB90" stroke="#90DB90" d="M770,484l-90-101l-20,115L770,484z"/>
		<path fill="#82D487" stroke="#82D487" d="M660,498l20-115l-124,38L660,498z"/>
		<path fill="#89D48E" stroke="#89D48E" d="M660,498l-104-77l21,94L660,498z"/>
		<path fill="#84CF8A" stroke="#84CF8A" d="M577,515l-21-94l-78,88L577,515z"/>
		<path fill="#74CA7E" stroke="#74CA7E" d="M478,509l78-88l-93-39L478,509z"/>
		<path fill="#75C780" stroke="#75C780" d="M478,509l-15-127l-51,110L478,509z"/>
		<path fill="#6AC377" stroke="#6AC377" d="M412,492l51-110l-68,29L412,492z"/>
		<path fill="#6FC27D" stroke="#6FC27D" d="M412,492l-17-81l-94,108L412,492z"/>
		<path fill="#61BC73" stroke="#61BC73" d="M301,519l94-108l-98-30L301,519z"/>
		<path fill="#63B976" stroke="#63B976" d="M301,519l-4-138l-77,125L301,519z"/>
		<path fill="#56B56C" stroke="#56B56C" d="M220,506l77-125l-89,28L220,506z"/>
		<path fill="#5AB270" stroke="#5AB270" d="M220,506l-12-97l-87,82L220,506z"/>
		<path fill="#54AE68" stroke="#54AE68" d="M121,491l87-82l-95,19L121,491z"/>
		<path fill="#5AAC6A" stroke="#5AAC6A" d="M121,491l-8-63l-68,61L121,491z"/>
		<path fill="#51A761" stroke="#51A761" d="M45,489l68-61l-61-44L45,489z"/>
		<path fill="#51A35C" stroke="#51A35C" d="M45,489l7-105l-115,40L45,489z"/>
		<path fill="#5AA261" stroke="#5AA261" d="M45,489l-108-65l16,62L45,489z"/>
		<path fill="#ACE7B3" stroke="#ACE7B3" d="M1454,410l14-119l-63-1L1454,410z"/>
		<path fill="#B8EFB8" stroke="#B8EFB8" d="M1454,410l-49-120l-9,136L1454,410z"/>
		<path fill="#B2ECB3" stroke="#B2ECB3" d="M1396,426l9-136l-95,92L1396,426z"/>
		<path fill="#A3E2A9" stroke="#A3E2A9" d="M1310,382l95-92l-114,7L1310,382z"/>
		<path fill="#A8E6AA" stroke="#A8E6AA" d="M1310,382l-19-85l-63,86L1310,382z"/>
		<path fill="#9EE0A3" stroke="#9EE0A3" d="M1228,383l63-86l-74,2L1228,383z"/>
		<path fill="#9CE0A0" stroke="#9CE0A0" d="M1228,383l-11-84l-116,31L1228,383z"/>
		<path fill="#A6E8A5" stroke="#A6E8A5" d="M1228,383l-127-53l33,94L1228,383z"/>
		<path fill="#A6E8A4" stroke="#A6E8A4" d="M1134,424l-33-94l-62,99L1134,424z"/>
		<path fill="#9AE29A" stroke="#9AE29A" d="M1039,429l62-99l-87,2L1039,429z"/>
		<path fill="#99E399" stroke="#99E399" d="M1039,429l-25-97l-93,52L1039,429z"/>
		<path fill="#89D88E" stroke="#89D88E" d="M921,384l93-52l-85-38L921,384z"/>
		<path fill="#83D589" stroke="#83D589" d="M921,384l8-90l-63,31L921,384z"/>
		<path fill="#8ADB8C" stroke="#8ADB8C" d="M921,384l-55-59l-22,66L921,384z"/>
		<path fill="#7DD383" stroke="#7DD383" d="M844,391l22-66l-104-17L844,391z"/>
		<path fill="#83D886" stroke="#83D886" d="M844,391l-82-83l9,103L844,391z"/>
		<path fill="#7CD581" stroke="#7CD581" d="M771,411l-9-103l-82,75L771,411z"/>
		<path fill="#6ECB77" stroke="#6ECB77" d="M680,383l82-75l-110-10L680,383z"/>
		<path fill="#69C774" stroke="#69C774" d="M680,383l-28-85l-68,32L680,383z"/>
		<path fill="#71CD79" stroke="#71CD79" d="M680,383l-96-53l-28,91L680,383z"/>
		<path fill="#64C471" stroke="#64C471" d="M556,421l28-91l-97-7L556,421z"/>
		<path fill="#65C571" stroke="#65C571" d="M556,421l-69-98l-24,59L556,421z"/>
		<path fill="#56BB69" stroke="#56BB69" d="M463,382l24-59l-85,10L463,382z"/>
		<path fill="#5BBE6C" stroke="#5BBE6C" d="M463,382l-61-49l-7,78L463,382z"/>
		<path fill="#55BA68" stroke="#55BA68" d="M395,411l7-78l-105,48L395,411z"/>
		<path fill="#48B060" stroke="#48B060" d="M297,381l105-48l-118-16L297,381z"/>
		<path fill="#48B060" stroke="#48B060" d="M297,381l-13-64l-76,92L297,381z"/>
		<path fill="#3CA859" stroke="#3CA859" d="M208,409l76-92l-90-15L208,409z"/>
		<path fill="#3AA556" stroke="#3AA556" d="M208,409l-14-107l-58,26L208,409z"/>
		<path fill="#46AB5C" stroke="#46AB5C" d="M208,409l-72-81l-23,100L208,409z"/>
		<path fill="#44A657" stroke="#44A657" d="M113,428l23-100l-84,56L113,428z"/>
		<path fill="#3A9D50" stroke="#3A9D50" d="M52,384l84-56l-95,5L52,384z"/>
		<path fill="#3A994C" stroke="#3A994C" d="M52,384l-11-51l-89-6L52,384z"/>
		<path fill="#439C4E" stroke="#439C4E" d="M52,384l-100-57l-15,97L52,384z"/>
		<path fill="#368F44" stroke="#368F44" d="M-63,424l15-97l-18-82L-63,424z"/>
		<path fill="#228137" stroke="#228137" d="M-63,424l-3-179l-3-119L-63,424z"/>
		<path fill="#9DDBA9" stroke="#9DDBA9" d="M1468,291l2-44l-65,43L1468,291z"/>
		<path fill="#92D4A2" stroke="#92D4A2" d="M1405,290l65-43l-89-46L1405,290z"/>
		<path fill="#8ED29D" stroke="#8ED29D" d="M1405,290l-24-89l-75,39L1405,290z"/>
		<path fill="#95D8A0" stroke="#95D8A0" d="M1405,290l-99-50l-15,57L1405,290z"/>
		<path fill="#91D79C" stroke="#91D79C" d="M1291,297l15-57l-89,59L1291,297z"/>
		<path fill="#86CF94" stroke="#86CF94" d="M1217,299l89-59l-109-40L1217,299z"/>
		<path fill="#82CF90" stroke="#82CF90" d="M1217,299l-20-99l-89,48L1217,299z"/>
		<path fill="#8CD695" stroke="#8CD695" d="M1217,299l-109-51l-7,82L1217,299z"/>
		<path fill="#8AD792" stroke="#8AD792" d="M1101,330l7-82l-94,84L1101,330z"/>
		<path fill="#7ECE89" stroke="#7ECE89" d="M1014,332l94-84l-103-17L1014,332z"/>
		<path fill="#7DCF87" stroke="#7DCF87" d="M1014,332l-9-101l-76,63L1014,332z"/>
		<path fill="#70C77F" stroke="#70C77F" d="M929,294l76-63l-83,3L929,294z"/>
		<path fill="#75CB80" stroke="#75CB80" d="M929,294l-7-60l-56,91L929,294z"/>
		<path fill="#6BC57A" stroke="#6BC57A" d="M866,325l56-91l-85-13L866,325z"/>
		<path fill="#6DC879" stroke="#6DC879" d="M866,325l-29-104l-75,87L866,325z"/>
		<path fill="#5FBF6F" stroke="#5FBF6F" d="M762,308l75-87l-99,2L762,308z"/>
		<path fill="#5BBE6C" stroke="#5BBE6C" d="M762,308l-24-85l-64,21L762,308z"/>
		<path fill="#60C16F" stroke="#60C16F" d="M762,308l-88-64l-22,54L762,308z"/>
		<path fill="#52B866" stroke="#52B866" d="M652,298l22-54l-94-9L652,298z"/>
		<path fill="#57BB69" stroke="#57BB69" d="M652,298l-72-63l4,95L652,298z"/>
		<path fill="#53B867" stroke="#53B867" d="M584,330l-4-95l-93,88L584,330z"/>
		<path fill="#47AF5F" stroke="#47AF5F" d="M487,323l93-88l-91,1L487,323z"/>
		<path fill="#49B161" stroke="#49B161" d="M487,323l2-87l-87,97L487,323z"/>
		<path fill="#3BA758" stroke="#3BA758" d="M402,333l87-97l-102-26L402,333z"/>
		<path fill="#3BA758" stroke="#3BA758" d="M402,333l-15-123L284,317L402,333z"/>
		<path fill="#2C9D4F" stroke="#2C9D4F" d="M284,317l103-107l-98,13L284,317z"/>
		<path fill="#26994C" stroke="#26994C" d="M284,317l5-94l-50-13L284,317z"/>
		<path fill="#2B9C4E" stroke="#2B9C4E" d="M284,317l-45-107l-45,92L284,317z"/>
		<path fill="#1F9246" stroke="#1F9246" d="M194,302l45-92l-127,38L194,302z"/>
		<path fill="#2A984B" stroke="#2A984B" d="M194,302l-82-54l24,80L194,302z"/>
		<path fill="#2D9649" stroke="#2D9649" d="M136,328l-24-80l-71,85L136,328z"/>
		<path fill="#238B41" stroke="#238B41" d="M41,333l71-85l-73-31L41,333z"/>
		<path fill="#2A8D42" stroke="#2A8D42" d="M41,333l-2-116l-87,110L41,333z"/>
		<path fill="#22843A" stroke="#22843A" d="M-48,327l87-110l-105,28L-48,327z"/>
		<path fill="#7AC093" stroke="#7AC093" d="M1470,247l18-189l-27,55L1470,247z"/>
		<path fill="#83C999" stroke="#83C999" d="M1470,247l-9-134l-80,88L1470,247z"/>
		<path fill="#75C090" stroke="#75C090" d="M1381,201l80-88l-97,22L1381,201z"/>
		<path fill="#73C18D" stroke="#73C18D" d="M1381,201l-17-66l-81,5L1381,201z"/>
		<path fill="#7DC791" stroke="#7DC791" d="M1381,201l-98-61l23,100L1381,201z"/>
		<path fill="#78C68D" stroke="#78C68D" d="M1306,240l-23-100l-86,60L1306,240z"/>
		<path fill="#6DBF85" stroke="#6DBF85" d="M1197,200l86-60l-97,19L1197,200z"/>
		<path fill="#74C587" stroke="#74C587" d="M1197,200l-11-41l-78,89L1197,200z"/>
		<path fill="#6BBF80" stroke="#6BBF80" d="M1108,248l78-89l-82-28L1108,248z"/>
		<path fill="#66BD7C" stroke="#66BD7C" d="M1108,248l-4-117l-87,16L1108,248z"/>
		<path fill="#6CC27F" stroke="#6CC27F" d="M1108,248l-91-101l-12,84L1108,248z"/>
		<path fill="#5EB974" stroke="#5EB974" d="M1005,231l12-84l-68,6L1005,231z"/>
		<path fill="#63BE77" stroke="#63BE77" d="M1005,231l-56-78l-27,81L1005,231z"/>
		<path fill="#5DBB72" stroke="#5DBB72" d="M922,234l27-81l-112,68L922,234z"/>
		<path fill="#4FB169" stroke="#4FB169" d="M837,221l112-68l-91-40L837,221z"/>
		<path fill="#47AD62" stroke="#47AD62" d="M837,221l21-108l-92,14L837,221z"/>
		<path fill="#4DB365" stroke="#4DB365" d="M837,221l-71-94l-28,96L837,221z"/>
		<path fill="#40AB5B" stroke="#40AB5B" d="M738,223l28-96l-115,19L738,223z"/>
		<path fill="#48B060" stroke="#48B060" d="M738,223l-87-77l23,98L738,223z"/>
		<path fill="#43AD5E" stroke="#43AD5E" d="M674,244l-23-98l-71,89L674,244z"/>
		<path fill="#34A254" stroke="#34A254" d="M580,235l71-89l-65-28L580,235z"/>
		<path fill="#2C9D50" stroke="#2C9D50" d="M580,235l6-117l-85,10L580,235z"/>
		<path fill="#34A254" stroke="#34A254" d="M580,235l-79-107l-12,108L580,235z"/>
		<path fill="#2A9C4F" stroke="#2A9C4F" d="M489,236l12-108l-114,82L489,236z"/>
		<path fill="#1C9145" stroke="#1C9145" d="M387,210l114-82l-124-4L387,210z"/>
		<path fill="#148C40" stroke="#148C40" d="M387,210l-10-86l-85,3L387,210z"/>
		<path fill="#1A9044" stroke="#1A9044" d="M387,210l-95-83l-3,96L387,210z"/>
		<path fill="#148C41" stroke="#148C41" d="M289,223l3-96l-53,83L289,223z"/>
		<path fill="#0A853B" stroke="#0A853B" d="M239,210l53-83l-96,26L239,210z"/>
		<path fill="#11883E" stroke="#11883E" d="M239,210l-43-57l-84,95L239,210z"/>
		<path fill="#098036" stroke="#098036" d="M112,248l84-95l-90-20L112,248z"/>
		<path fill="#0F8036" stroke="#0F8036" d="M112,248l-6-115l-67,84L112,248z"/>
		<path fill="#05772F" stroke="#05772F" d="M39,217l67-84l-59,10L39,217z"/>
		<path fill="#04722A" stroke="#04722A" d="M39,217l8-74l-116-17L39,217z"/>
		<path fill="#0E762E" stroke="#0E762E" d="M39,217l-108-91l3,119L39,217z"/>
		<path fill="#78B386" stroke="#78B386" d="M1461,113l27-55l-103-2L1461,113z"/>
		<path fill="#75B687" stroke="#75B687" d="M1461,113l-76-57l-21,79L1461,113z"/>
		<path fill="#71B17F" stroke="#71B17F" d="M1364,135l21-79l-89,1L1364,135z"/>
		<path fill="#6EB682" stroke="#6EB682" d="M1364,135l-68-78l-13,83L1364,135z"/>
		<path fill="#6BAF79" stroke="#6BAF79" d="M1283,140l13-83l-91-6L1283,140z"/>
		<path fill="#68B57C" stroke="#68B57C" d="M1283,140l-78-89l-19,108L1283,140z"/>
		<path fill="#64B277" stroke="#64B277" d="M1186,159l19-108l-101,80L1186,159z"/>
		<path fill="#62A96E" stroke="#62A96E" d="M1104,131l101-80l-83-22L1104,131z"/>
		<path fill="#5FA769" stroke="#5FA769" d="M1104,131l18-102l-70,7L1104,131z"/>
		<path fill="#5CAE6E" stroke="#5CAE6E" d="M1104,131l-52-95l-35,111L1104,131z"/>
		<path fill="#57A463" stroke="#57A463" d="M1017,147l35-111l-101-5L1017,147z"/>
		<path fill="#54AB67" stroke="#54AB67" d="M1017,147L951,31l-2,122L1017,147z"/>
		<path fill="#4EA661" stroke="#4EA661" d="M949,153l2-122l-93,82L949,153z"/>
		<path fill="#4A9E58" stroke="#4A9E58" d="M858,113l93-82L825,57L858,113z"/>
		<path fill="#44A258" stroke="#44A258" d="M858,113l-33-56l-59,70L858,113z"/>
		<path fill="#419D52" stroke="#419D52" d="M766,127l59-70l-87,8L766,127z"/>
		<path fill="#3BA052" stroke="#3BA052" d="M766,127l-28-62l-87,81L766,127z"/>
		<path fill="#38984B" stroke="#38984B" d="M651,146l87-81l-62-30L651,146z"/>
		<path fill="#32974A" stroke="#32974A" d="M651,146l25-111l-90,83L651,146z"/>
		<path fill="#308E42" stroke="#308E42" d="M586,118l90-83l-86-2L586,118z"/>
		<path fill="#29893E" stroke="#29893E" d="M586,118l4-85l-101,6L586,118z"/>
		<path fill="#258D42" stroke="#258D42" d="M586,118l-97-79l12,89L586,118z"/>
		<path fill="#1F853A" stroke="#1F853A" d="M501,128l-12-89l-83,20L501,128z"/>
		<path fill="#1A873D" stroke="#1A873D" d="M501,128l-95-69l-29,65L501,128z"/>
		<path fill="#137D34" stroke="#137D34" d="M377,124l29-65l-106,3L377,124z"/>
		<path fill="#0E7F36" stroke="#0E7F36" d="M377,124l-77-62l-8,65L377,124z"/>
		<path fill="#08772F" stroke="#08772F" d="M292,127l8-65l-86,4L292,127z"/>
		<path fill="#047A32" stroke="#047A32" d="M292,127l-78-61l-18,87L292,127z"/>
		<path fill="#00762E" stroke="#00762E" d="M196,153l18-87l-108,67L196,153z"/>
		<path fill="#006C26" stroke="#006C26" d="M106,133l108-67l-95-22L106,133z"/>
		<path fill="#006E26" stroke="#006E26" d="M106,133l13-89l-72,99L106,133z"/>
		<path fill="#00651F" stroke="#00651F" d="M47,143l72-99L13,46L47,143z"/>
		<path fill="#006620" stroke="#006620" d="M47,143L13,46l-82,80L47,143z"/>
		<path fill="#005D18" stroke="#005D18" d="M-69,126l82-80l-65,4L-69,126z"/>
		<path fill="#005511" stroke="#005511" d="M-69,126l17-76l19-102L-69,126z"/>
		<path fill="#79A97F" stroke="#79A97F" d="M1488,58l13-82l-116,80L1488,58z"/>
		<path fill="#76A276" stroke="#76A276" d="M1385,56l116-80l-116-24V56z"/>
		<path fill="#719F70" stroke="#719F70" d="M1385,56V-48l-89,5L1385,56z"/>
		<path fill="#6FA573" stroke="#6FA573" d="M1385,56l-89-99V57L1385,56z"/>
		<path fill="#6B9E6B" stroke="#6B9E6B" d="M1296,57V-43l-78,23L1296,57z"/>
		<path fill="#69A36E" stroke="#69A36E" d="M1296,57l-78-77l-13,71L1296,57z"/>
		<path fill="#65A068" stroke="#65A068" d="M1205,51l13-71l-96,49L1205,51z"/>
		<path fill="#639961" stroke="#639961" d="M1122,29l96-49l-89-25L1122,29z"/>
		<path fill="#5F9B5F" stroke="#5F9B5F" d="M1122,29l7-74l-77,81L1122,29z"/>
		<path fill="#5E945A" stroke="#5E945A" d="M1052,36l77-81l-83-18L1052,36z"/>
		<path fill="#589758" stroke="#589758" d="M1052,36l-6-99l-95,94L1052,36z"/>
		<path fill="#548D52" stroke="#548D52" d="M951,31l95-94l-114-7L951,31z"/>
		<path fill="#4E8C4D" stroke="#4E8C4D" d="M951,31L932-70l-62,29L951,31z"/>
		<path fill="#4B944F" stroke="#4B944F" d="M951,31l-81-72l-45,98L951,31z"/>
		<path fill="#458B45" stroke="#458B45" d="M825,57l45-98l-97-18L825,57z"/>
		<path fill="#419047" stroke="#419047" d="M825,57L773-59L738,65L825,57z"/>
		<path fill="#3C883E" stroke="#3C883E" d="M738,65l35-124l-98,35L738,65z"/>
		<path fill="#388D41" stroke="#388D41" d="M738,65l-63-89l1,59L738,65z"/>
		<path fill="#33873C" stroke="#33873C" d="M676,35l-1-59l-85,57L676,35z"/>
		<path fill="#2F7E35" stroke="#2F7E35" d="M590,33l85-57l-96-29L590,33z"/>
		<path fill="#287E34" stroke="#287E34" d="M590,33l-11-86l-90,92L590,33z"/>
		<path fill="#25752E" stroke="#25752E" d="M489,39l90-92l-87-1L489,39z"/>
		<path fill="#1E702A" stroke="#1E702A" d="M489,39l3-93l-97-1L489,39z"/>
		<path fill="#1B752D" stroke="#1B752D" d="M489,39l-94-94l11,114L489,39z"/>
		<path fill="#146B24" stroke="#146B24" d="M406,59L395-55l-90,13L406,59z"/>
		<path fill="#107129" stroke="#107129" d="M406,59L305-42l-5,104L406,59z"/>
		<path fill="#09651F" stroke="#09651F" d="M300,62l5-104l-83-4L300,62z"/>
		<path fill="#066923" stroke="#066923" d="M300,62L222-46l-8,112L300,62z"/>
		<path fill="#00641E" stroke="#00641E" d="M214,66l8-112L119,44L214,66z"/>
		<path fill="#005915" stroke="#005915" d="M119,44l103-90l-107-2L119,44z"/>
		<path fill="#005612" stroke="#005612" d="M119,44l-4-92L36-25L119,44z"/>
		<path fill="#005915" stroke="#005915" d="M119,44L36-25L13,46L119,44z"/>
		<path fill="#004F0C" stroke="#004F0C" d="M13,46l23-71l-69-27L13,46z"/>
		<path fill="#00510E" stroke="#00510E" d="M13,46l-46-98L-52,50L13,46z"/>
		<path fill="#618E5D" stroke="#618E5D" d="M1385-48L932-70l114,7L1385-48z"/>
		<path fill="#699367" stroke="#699367" d="M1385-48l-339-15l250,20L1385-48z"/>
		<path fill="#639160" stroke="#639160" d="M1296-43l-250-20l83,18L1296-43z"/>
		<path fill="#679664" stroke="#679664" d="M1296-43l-167-2l89,25L1296-43z"/>
		<path fill="#1B6728" stroke="#1B6728" d="M932-70L-33-52l428-3L932-70z"/>
		<path fill="#2E7434" stroke="#2E7434" d="M932-70L395-55l97,1L932-70z"/>
		<path fill="#3C7D3D" stroke="#3C7D3D" d="M932-70L492-54l281-5L932-70z"/>
		<path fill="#488448" stroke="#488448" d="M932-70L773-59l97,18L932-70z"/>
		<path fill="#2F7635" stroke="#2F7635" d="M773-59l-281,5l87,1L773-59z"/>
		<path fill="#367D39" stroke="#367D39" d="M773-59l-194,6l96,29L773-59z"/>
		<path fill="#005216" stroke="#005216" d="M395-55l-428,3l148,4L395-55z"/>
		<path fill="#065A1B" stroke="#065A1B" d="M395-55l-280,7l107,2L395-55z"/>
		<path fill="#0D5F20" stroke="#0D5F20" d="M395-55l-173,9l83,4L395-55z"/>
		<path fill="#004B0D" stroke="#004B0D" d="M115-48l-148-4l69,27L115-48z"/>
	</g>
</g>
<g id="Layer_2" opacity="0.5">
	<rect x="-125.5" y="-109" fill="#217B6D" stroke="#000000" stroke-miterlimit="10" width="1668" height="932"/>
</g>
</svg>
