<?xml version="1.0" encoding="utf-8"?>
<!-- Generator: Adobe Illustrator 16.0.3, SVG Export Plug-In . SVG Version: 6.00 Build 0)  -->
<!DOCTYPE svg PUBLIC "-//W3C//DTD SVG 1.1//EN" "http://www.w3.org/Graphics/SVG/1.1/DTD/svg11.dtd">
<svg version="1.1" id="Layer_1" xmlns="http://www.w3.org/2000/svg" xmlns:xlink="http://www.w3.org/1999/xlink" x="0px" y="0px"
	 width="1440px" height="669px" viewBox="0 0 1440 669" enable-background="new 0 0 1440 669" xml:space="preserve">
<g>
	<path fill="#CDF6CA" stroke="#CDF6CA" d="M-54-22l-15,766l12-610L-54-22z"/>
	<path fill="#F4FDF1" stroke="#F4FDF1" d="M-54-22l-3,156l15-73L-54-22z"/>
	<path fill="#F5FCF3" stroke="#F5FCF3" d="M-54-22l12,83l85-24L-54-22z"/>
	<path fill="#F6FCF4" stroke="#F6FCF4" d="M-54-22l97,59L28-57L-54-22z"/>
	<path fill="#F2FAEF" stroke="#F2FAEF" d="M28-57l15,94l77-99L28-57z"/>
	<path fill="#EEF9EC" stroke="#EEF9EC" d="M120-62L43,37l117-3L120-62z"/>
	<path fill="#EBF7E8" stroke="#EBF7E8" d="M120-62l40,96l51-95L120-62z"/>
	<path fill="#E5F5E2" stroke="#E5F5E2" d="M120-62l91,1l195-8L120-62z"/>
	<path fill="#E8F6E5" stroke="#E8F6E5" d="M211-61l-51,95l55,1L211-61z"/>
	<path fill="#E5F5E2" stroke="#E5F5E2" d="M211-61l4,96l107-96H211z"/>
	<path fill="#E0F3DD" stroke="#E0F3DD" d="M211-61h111l84-8L211-61z"/>
	<path fill="#E2F4DE" stroke="#E2F4DE" d="M322-61L215,35l78,27L322-61z"/>
	<path fill="#DCF2D7" stroke="#DCF2D7" d="M322-61L293,62l136,5L322-61z"/>
	<path fill="#DAF1D7" stroke="#DAF1D7" d="M322-61L429,67L406-69L322-61z"/>
	<path fill="#D4EED2" stroke="#D4EED2" d="M406-69l23,136l87-90L406-69z"/>
	<path fill="#CEEBCD" stroke="#CEEBCD" d="M406-69l110,46l91-35L406-69z"/>
	<path fill="#B8E0B9" stroke="#B8E0B9" d="M406-69l201,11l596,2L406-69z"/>
	<path fill="#97C9A6" stroke="#97C9A6" d="M406-69l797,13l279-14L406-69z"/>
	<path fill="#CEEDCB" stroke="#CEEDCB" d="M516-23l-87,90l44-1L516-23z"/>
	<path fill="#CBEBC9" stroke="#CBEBC9" d="M516-23l-43,89l89-32L516-23z"/>
	<path fill="#C9E9C8" stroke="#C9E9C8" d="M516-23l46,57l45-92L516-23z"/>
	<path fill="#C5E7C4" stroke="#C5E7C4" d="M607-58l-45,92l91-6L607-58z"/>
	<path fill="#C1E5C1" stroke="#C1E5C1" d="M607-58l46,86l14-67L607-58z"/>
	<path fill="#BAE2BB" stroke="#BAE2BB" d="M607-58l60,19l202,2L607-58z"/>
	<path fill="#B1DBB5" stroke="#B1DBB5" d="M607-58l262,21l53-10L607-58z"/>
	<path fill="#A4D3AE" stroke="#A4D3AE" d="M607-58l315,11l281-9L607-58z"/>
	<path fill="#BCE3BD" stroke="#BCE3BD" d="M667-39l-14,67l111-50L667-39z"/>
	<path fill="#B5DEB8" stroke="#B5DEB8" d="M667-39l97,17l105-15L667-39z"/>
	<path fill="#B7E2B8" stroke="#B7E2B8" d="M764-22L653,28l99,22L764-22z"/>
	<path fill="#B1DDB4" stroke="#B1DDB4" d="M764-22l-12,72l84-20L764-22z"/>
	<path fill="#AEDAB4" stroke="#AEDAB4" d="M764-22l72,52l33-67L764-22z"/>
	<path fill="#A7D5AF" stroke="#A7D5AF" d="M869-37l-33,67l107-10L869-37z"/>
	<path fill="#A4D3AE" stroke="#A4D3AE" d="M869-37l74,57l-21-67L869-37z"/>
	<path fill="#9ECEAA" stroke="#9ECEAA" d="M922-47l21,67l94-64L922-47z"/>
	<path fill="#94C7A4" stroke="#94C7A4" d="M922-47l115,3l166-12L922-47z"/>
	<path fill="#99CBA7" stroke="#99CBA7" d="M1037-44l-94,64l106,20L1037-44z"/>
	<path fill="#93C7A3" stroke="#93C7A3" d="M1037-44l12,84l57-80L1037-44z"/>
	<path fill="#8DC2A0" stroke="#8DC2A0" d="M1037-44l69,4l97-16L1037-44z"/>
	<path fill="#8EC4A0" stroke="#8EC4A0" d="M1106-40l-57,80l90-12L1106-40z"/>
	<path fill="#89C09E" stroke="#89C09E" d="M1106-40l33,68l64-84L1106-40z"/>
	<path fill="#85BD9B" stroke="#85BD9B" d="M1203-56l-64,84l79,5L1203-56z"/>
	<path fill="#80B997" stroke="#80B997" d="M1203-56l15,89l77-76L1203-56z"/>
	<path fill="#80B291" stroke="#80B291" d="M1203-56l92,13l187-27L1203-56z"/>
	<path fill="#7FB695" stroke="#7FB695" d="M1295-43l-77,76l86-13L1295-43z"/>
	<path fill="#80B291" stroke="#80B291" d="M1295-43l9,63l76-46L1295-43z"/>
	<path fill="#80AD8D" stroke="#80AD8D" d="M1295-43l85,17l102-44L1295-43z"/>
	<path fill="#7FAF8F" stroke="#7FAF8F" d="M1380-26l-76,46l84,1L1380-26z"/>
	<path fill="#80AB8B" stroke="#80AB8B" d="M1380-26l8,47l94-91L1380-26z"/>
	<path fill="#7FA888" stroke="#7FA888" d="M1482-70l-94,91l86,46L1482-70z"/>
	<path fill="#76A57A" stroke="#76A57A" d="M1482-70l-8,137l21,229L1482-70z"/>
	<path fill="#EDFCE8" stroke="#EDFCE8" d="M-42,61l-15,73l120-14L-42,61z"/>
	<path fill="#EEFBEA" stroke="#EEFBEA" d="M-42,61l105,59L43,37L-42,61z"/>
	<path fill="#E9F9E6" stroke="#E9F9E6" d="M43,37l20,83l97-86L43,37z"/>
	<path fill="#E4F8DF" stroke="#E4F8DF" d="M160,34l-97,86l92,5L160,34z"/>
	<path fill="#E3F7DF" stroke="#E3F7DF" d="M160,34l-5,91l60-90L160,34z"/>
	<path fill="#DFF6D9" stroke="#DFF6D9" d="M215,35l-60,90l87-6L215,35z"/>
	<path fill="#DEF5D9" stroke="#DEF5D9" d="M215,35l27,84l51-57L215,35z"/>
	<path fill="#D8F4D2" stroke="#D8F4D2" d="M293,62l-51,57l84-1L293,62z"/>
	<path fill="#D6F2D0" stroke="#D6F2D0" d="M293,62l33,56l103-51L293,62z"/>
	<path fill="#CFF0C9" stroke="#CFF0C9" d="M429,67l-103,51l96,36L429,67z"/>
	<path fill="#CBEEC6" stroke="#CBEEC6" d="M429,67l-7,87l51-88L429,67z"/>
	<path fill="#C7EDC2" stroke="#C7EDC2" d="M473,66l-51,88l84-34L473,66z"/>
	<path fill="#C7EBC3" stroke="#C7EBC3" d="M473,66l33,54l56-86L473,66z"/>
	<path fill="#C1E9BE" stroke="#C1E9BE" d="M562,34l-56,86l75-5L562,34z"/>
	<path fill="#C0E7BE" stroke="#C0E7BE" d="M562,34l19,81l72-87L562,34z"/>
	<path fill="#B9E6B6" stroke="#B9E6B6" d="M653,28l-72,87l85,26L653,28z"/>
	<path fill="#B6E3B4" stroke="#B6E3B4" d="M653,28l13,113l86-91L653,28z"/>
	<path fill="#ADE1AC" stroke="#ADE1AC" d="M752,50l-86,91l111,4L752,50z"/>
	<path fill="#ABDCAD" stroke="#ABDCAD" d="M752,50l25,95l59-115L752,50z"/>
	<path fill="#A4DAA7" stroke="#A4DAA7" d="M836,30l-59,115l74-9L836,30z"/>
	<path fill="#9ED6A4" stroke="#9ED6A4" d="M836,30l15,106l85-3L836,30z"/>
	<path fill="#9FD3A7" stroke="#9FD3A7" d="M836,30l100,103l7-113L836,30z"/>
	<path fill="#96CE9F" stroke="#96CE9F" d="M943,20l-7,113l84-21L943,20z"/>
	<path fill="#94CBA0" stroke="#94CBA0" d="M943,20l77,92l29-72L943,20z"/>
	<path fill="#8AC698" stroke="#8AC698" d="M1049,40l-29,72l115,10L1049,40z"/>
	<path fill="#88C398" stroke="#88C398" d="M1049,40l86,82l4-94L1049,40z"/>
	<path fill="#82BF95" stroke="#82BF95" d="M1139,28l-4,94l83-89L1139,28z"/>
	<path fill="#7BBC8E" stroke="#7BBC8E" d="M1218,33l-83,89l85,17L1218,33z"/>
	<path fill="#79B88F" stroke="#79B88F" d="M1218,33l2,106l84-119L1218,33z"/>
	<path fill="#76B588" stroke="#76B588" d="M1304,20l-84,119l107-7L1304,20z"/>
	<path fill="#7AB18A" stroke="#7AB18A" d="M1304,20l23,112l61-111L1304,20z"/>
	<path fill="#77AE82" stroke="#77AE82" d="M1388,21l-61,111l84-4L1388,21z"/>
	<path fill="#79AA82" stroke="#79AA82" d="M1388,21l23,107l63-61L1388,21z"/>
	<path fill="#75A87B" stroke="#75A87B" d="M1474,67l-63,61l62-6L1474,67z"/>
	<path fill="#70A672" stroke="#70A672" d="M1474,67l-1,55l22,174L1474,67z"/>
	<path fill="#8CCEA0" stroke="#8CCEA0" d="M-57,134l-12,610l13-82L-57,134z"/>
	<path fill="#A6E1B0" stroke="#A6E1B0" d="M-57,134l1,528l18-189L-57,134z"/>
	<path fill="#BCF0BD" stroke="#BCF0BD" d="M-57,134l19,339l2-44L-57,134z"/>
	<path fill="#CFF6CC" stroke="#CFF6CC" d="M-57,134l21,295l9-181L-57,134z"/>
	<path fill="#DDFAD8" stroke="#DDFAD8" d="M-57,134l30,114l83-23L-57,134z"/>
	<path fill="#E5FBDF" stroke="#E5FBDF" d="M-57,134l113,91l7-105L-57,134z"/>
	<path fill="#DBF8D5" stroke="#DBF8D5" d="M63,120l-7,105l68-6L63,120z"/>
	<path fill="#DFF9D8" stroke="#DFF9D8" d="M63,120l61,99l31-94L63,120z"/>
	<path fill="#D4F5CD" stroke="#D4F5CD" d="M155,125l-31,94l111,8L155,125z"/>
	<path fill="#D8F6D1" stroke="#D8F6D1" d="M155,125l80,102l7-108L155,125z"/>
	<path fill="#CCF3C6" stroke="#CCF3C6" d="M242,119l-7,108l94,4L242,119z"/>
	<path fill="#D2F3CA" stroke="#D2F3CA" d="M242,119l87,112l-3-113L242,119z"/>
	<path fill="#CCF2C4" stroke="#CCF2C4" d="M326,118l3,113l93-77L326,118z"/>
	<path fill="#BFEEB9" stroke="#BFEEB9" d="M422,154l-93,77l60,17L422,154z"/>
	<path fill="#BBECB5" stroke="#BBECB5" d="M422,154l-33,94l125-36L422,154z"/>
	<path fill="#C1ECBB" stroke="#C1ECBB" d="M422,154l92,58l-8-92L422,154z"/>
	<path fill="#B8E9B3" stroke="#B8E9B3" d="M506,120l8,92l53,1L506,120z"/>
	<path fill="#BCE9B6" stroke="#BCE9B6" d="M506,120l61,93l14-98L506,120z"/>
	<path fill="#B5E7B1" stroke="#B5E7B1" d="M581,115l-14,98l99-72L581,115z"/>
	<path fill="#AAE4A7" stroke="#AAE4A7" d="M666,141l-99,72l95,23L666,141z"/>
	<path fill="#A3E1A0" stroke="#A3E1A0" d="M666,141l-4,95l110-14L666,141z"/>
	<path fill="#A7E0A4" stroke="#A7E0A4" d="M666,141l106,81l5-77L666,141z"/>
	<path fill="#9ADA9B" stroke="#9ADA9B" d="M777,145l-5,77l83-17L777,145z"/>
	<path fill="#9ED99F" stroke="#9ED99F" d="M777,145l78,60l-4-69L777,145z"/>
	<path fill="#98D59C" stroke="#98D59C" d="M851,136l4,69l81-72L851,136z"/>
	<path fill="#8FD195" stroke="#8FD195" d="M936,133l-81,72l99,6L936,133z"/>
	<path fill="#8FCE97" stroke="#8FCE97" d="M936,133l18,78l66-99L936,133z"/>
	<path fill="#86CB8F" stroke="#86CB8F" d="M1020,112l-66,99l66,17V112z"/>
	<path fill="#80C68C" stroke="#80C68C" d="M1020,112v116l111-27L1020,112z"/>
	<path fill="#81C48F" stroke="#81C48F" d="M1020,112l111,89l4-79L1020,112z"/>
	<path fill="#79BF89" stroke="#79BF89" d="M1135,122l-4,79l89-62L1135,122z"/>
	<path fill="#70BC82" stroke="#70BC82" d="M1220,139l-89,62l81,13L1220,139z"/>
	<path fill="#69B67C" stroke="#69B67C" d="M1220,139l-8,75l99,15L1220,139z"/>
	<path fill="#6FB57F" stroke="#6FB57F" d="M1220,139l91,90l16-97L1220,139z"/>
	<path fill="#68AF75" stroke="#68AF75" d="M1327,132l-16,97l76,2L1327,132z"/>
	<path fill="#70AE7A" stroke="#70AE7A" d="M1327,132l60,99l24-103L1327,132z"/>
	<path fill="#68A86F" stroke="#68A86F" d="M1411,128l-24,103l92,3L1411,128z"/>
	<path fill="#70A874" stroke="#70A874" d="M1411,128l68,106l-6-112L1411,128z"/>
	<path fill="#63A267" stroke="#63A267" d="M1473,122l6,112l16,62L1473,122z"/>
	<path fill="#BFF3BE" stroke="#BFF3BE" d="M-27,248l-9,181l14-119L-27,248z"/>
	<path fill="#C9F4C7" stroke="#C9F4C7" d="M-27,248l5,62l58-16L-27,248z"/>
	<path fill="#CEF6CB" stroke="#CEF6CB" d="M-27,248l63,46l20-69L-27,248z"/>
	<path fill="#CDF5C9" stroke="#CDF5C9" d="M56,225l-20,69l88-75L56,225z"/>
	<path fill="#C2F2BF" stroke="#C2F2BF" d="M124,219l-88,75l86,44L124,219z"/>
	<path fill="#BAF0B8" stroke="#BAF0B8" d="M124,219l-2,119l82-1L124,219z"/>
	<path fill="#C1F1BD" stroke="#C1F1BD" d="M124,219l80,118l31-110L124,219z"/>
	<path fill="#B6EDB3" stroke="#B6EDB3" d="M235,227l-31,110l94-41L235,227z"/>
	<path fill="#BCEEB8" stroke="#BCEEB8" d="M235,227l63,69l31-65L235,227z"/>
	<path fill="#B3ECAF" stroke="#B3ECAF" d="M329,231l-31,65l95-5L329,231z"/>
	<path fill="#B5ECB0" stroke="#B5ECB0" d="M329,231l64,60l-4-43L329,231z"/>
	<path fill="#B0EAAC" stroke="#B0EAAC" d="M389,248l4,43l121-79L389,248z"/>
	<path fill="#A5E6A3" stroke="#A5E6A3" d="M514,212l-121,79l118,45L514,212z"/>
	<path fill="#A6E5A3" stroke="#A6E5A3" d="M514,212l-3,124l56-123L514,212z"/>
	<path fill="#9AE199" stroke="#9AE199" d="M567,213l-56,123l77-7L567,213z"/>
	<path fill="#9DE19B" stroke="#9DE19B" d="M567,213l21,116l74-93L567,213z"/>
	<path fill="#92DD92" stroke="#92DD92" d="M662,236l-74,93l73-20L662,236z"/>
	<path fill="#8CDB8D" stroke="#8CDB8D" d="M662,236l-1,73l91,28L662,236z"/>
	<path fill="#90DB90" stroke="#90DB90" d="M662,236l90,101l20-115L662,236z"/>
	<path fill="#82D487" stroke="#82D487" d="M772,222l-20,115l124-38L772,222z"/>
	<path fill="#89D48E" stroke="#89D48E" d="M772,222l104,77l-21-94L772,222z"/>
	<path fill="#84CF8A" stroke="#84CF8A" d="M855,205l21,94l78-88L855,205z"/>
	<path fill="#74CA7E" stroke="#74CA7E" d="M954,211l-78,88l93,39L954,211z"/>
	<path fill="#75C780" stroke="#75C780" d="M954,211l15,127l51-110L954,211z"/>
	<path fill="#6AC377" stroke="#6AC377" d="M1020,228l-51,110l68-29L1020,228z"/>
	<path fill="#6FC27D" stroke="#6FC27D" d="M1020,228l17,81l94-108L1020,228z"/>
	<path fill="#61BC73" stroke="#61BC73" d="M1131,201l-94,108l98,30L1131,201z"/>
	<path fill="#63B976" stroke="#63B976" d="M1131,201l4,138l77-125L1131,201z"/>
	<path fill="#56B56C" stroke="#56B56C" d="M1212,214l-77,125l89-28L1212,214z"/>
	<path fill="#5AB270" stroke="#5AB270" d="M1212,214l12,97l87-82L1212,214z"/>
	<path fill="#54AE68" stroke="#54AE68" d="M1311,229l-87,82l95-19L1311,229z"/>
	<path fill="#5AAC6A" stroke="#5AAC6A" d="M1311,229l8,63l68-61L1311,229z"/>
	<path fill="#51A761" stroke="#51A761" d="M1387,231l-68,61l61,44L1387,231z"/>
	<path fill="#51A35C" stroke="#51A35C" d="M1387,231l-7,105l115-40L1387,231z"/>
	<path fill="#5AA261" stroke="#5AA261" d="M1387,231l108,65l-16-62L1387,231z"/>
	<path fill="#ACE7B3" stroke="#ACE7B3" d="M-22,310l-14,119l63,1L-22,310z"/>
	<path fill="#B8EFB8" stroke="#B8EFB8" d="M-22,310l49,120l9-136L-22,310z"/>
	<path fill="#B2ECB3" stroke="#B2ECB3" d="M36,294l-9,136l95-92L36,294z"/>
	<path fill="#A3E2A9" stroke="#A3E2A9" d="M122,338l-95,92l114-7L122,338z"/>
	<path fill="#A8E6AA" stroke="#A8E6AA" d="M122,338l19,85l63-86L122,338z"/>
	<path fill="#9EE0A3" stroke="#9EE0A3" d="M204,337l-63,86l74-2L204,337z"/>
	<path fill="#9CE0A0" stroke="#9CE0A0" d="M204,337l11,84l116-31L204,337z"/>
	<path fill="#A6E8A5" stroke="#A6E8A5" d="M204,337l127,53l-33-94L204,337z"/>
	<path fill="#A6E8A4" stroke="#A6E8A4" d="M298,296l33,94l62-99L298,296z"/>
	<path fill="#9AE29A" stroke="#9AE29A" d="M393,291l-62,99l87-2L393,291z"/>
	<path fill="#99E399" stroke="#99E399" d="M393,291l25,97l93-52L393,291z"/>
	<path fill="#89D88E" stroke="#89D88E" d="M511,336l-93,52l85,38L511,336z"/>
	<path fill="#83D589" stroke="#83D589" d="M511,336l-8,90l63-31L511,336z"/>
	<path fill="#8ADB8C" stroke="#8ADB8C" d="M511,336l55,59l22-66L511,336z"/>
	<path fill="#7DD383" stroke="#7DD383" d="M588,329l-22,66l104,17L588,329z"/>
	<path fill="#83D886" stroke="#83D886" d="M588,329l82,83l-9-103L588,329z"/>
	<path fill="#7CD581" stroke="#7CD581" d="M661,309l9,103l82-75L661,309z"/>
	<path fill="#6ECB77" stroke="#6ECB77" d="M752,337l-82,75l110,10L752,337z"/>
	<path fill="#69C774" stroke="#69C774" d="M752,337l28,85l68-32L752,337z"/>
	<path fill="#71CD79" stroke="#71CD79" d="M752,337l96,53l28-91L752,337z"/>
	<path fill="#64C471" stroke="#64C471" d="M876,299l-28,91l97,7L876,299z"/>
	<path fill="#65C571" stroke="#65C571" d="M876,299l69,98l24-59L876,299z"/>
	<path fill="#56BB69" stroke="#56BB69" d="M969,338l-24,59l85-10L969,338z"/>
	<path fill="#5BBE6C" stroke="#5BBE6C" d="M969,338l61,49l7-78L969,338z"/>
	<path fill="#55BA68" stroke="#55BA68" d="M1037,309l-7,78l105-48L1037,309z"/>
	<path fill="#48B060" stroke="#48B060" d="M1135,339l-105,48l118,16L1135,339z"/>
	<path fill="#48B060" stroke="#48B060" d="M1135,339l13,64l76-92L1135,339z"/>
	<path fill="#3CA859" stroke="#3CA859" d="M1224,311l-76,92l90,15L1224,311z"/>
	<path fill="#3AA556" stroke="#3AA556" d="M1224,311l14,107l58-26L1224,311z"/>
	<path fill="#46AB5C" stroke="#46AB5C" d="M1224,311l72,81l23-100L1224,311z"/>
	<path fill="#44A657" stroke="#44A657" d="M1319,292l-23,100l84-56L1319,292z"/>
	<path fill="#3A9D50" stroke="#3A9D50" d="M1380,336l-84,56l95-5L1380,336z"/>
	<path fill="#3A994C" stroke="#3A994C" d="M1380,336l11,51l89,6L1380,336z"/>
	<path fill="#439C4E" stroke="#439C4E" d="M1380,336l100,57l15-97L1380,336z"/>
	<path fill="#368F44" stroke="#368F44" d="M1495,296l-15,97l18,82L1495,296z"/>
	<path fill="#228137" stroke="#228137" d="M1495,296l3,179l3,119L1495,296z"/>
	<path fill="#9DDBA9" stroke="#9DDBA9" d="M-36,429l-2,44l65-43L-36,429z"/>
	<path fill="#92D4A2" stroke="#92D4A2" d="M27,430l-65,43l89,46L27,430z"/>
	<path fill="#8ED29D" stroke="#8ED29D" d="M27,430l24,89l75-39L27,430z"/>
	<path fill="#95D8A0" stroke="#95D8A0" d="M27,430l99,50l15-57L27,430z"/>
	<path fill="#91D79C" stroke="#91D79C" d="M141,423l-15,57l89-59L141,423z"/>
	<path fill="#86CF94" stroke="#86CF94" d="M215,421l-89,59l109,40L215,421z"/>
	<path fill="#82CF90" stroke="#82CF90" d="M215,421l20,99l89-48L215,421z"/>
	<path fill="#8CD695" stroke="#8CD695" d="M215,421l109,51l7-82L215,421z"/>
	<path fill="#8AD792" stroke="#8AD792" d="M331,390l-7,82l94-84L331,390z"/>
	<path fill="#7ECE89" stroke="#7ECE89" d="M418,388l-94,84l103,17L418,388z"/>
	<path fill="#7DCF87" stroke="#7DCF87" d="M418,388l9,101l76-63L418,388z"/>
	<path fill="#70C77F" stroke="#70C77F" d="M503,426l-76,63l83-3L503,426z"/>
	<path fill="#75CB80" stroke="#75CB80" d="M503,426l7,60l56-91L503,426z"/>
	<path fill="#6BC57A" stroke="#6BC57A" d="M566,395l-56,91l85,13L566,395z"/>
	<path fill="#6DC879" stroke="#6DC879" d="M566,395l29,104l75-87L566,395z"/>
	<path fill="#5FBF6F" stroke="#5FBF6F" d="M670,412l-75,87l99-2L670,412z"/>
	<path fill="#5BBE6C" stroke="#5BBE6C" d="M670,412l24,85l64-21L670,412z"/>
	<path fill="#60C16F" stroke="#60C16F" d="M670,412l88,64l22-54L670,412z"/>
	<path fill="#52B866" stroke="#52B866" d="M780,422l-22,54l94,9L780,422z"/>
	<path fill="#57BB69" stroke="#57BB69" d="M780,422l72,63l-4-95L780,422z"/>
	<path fill="#53B867" stroke="#53B867" d="M848,390l4,95l93-88L848,390z"/>
	<path fill="#47AF5F" stroke="#47AF5F" d="M945,397l-93,88l91-1L945,397z"/>
	<path fill="#49B161" stroke="#49B161" d="M945,397l-2,87l87-97L945,397z"/>
	<path fill="#3BA758" stroke="#3BA758" d="M1030,387l-87,97l102,26L1030,387z"/>
	<path fill="#3BA758" stroke="#3BA758" d="M1030,387l15,123l103-107L1030,387z"/>
	<path fill="#2C9D4F" stroke="#2C9D4F" d="M1148,403l-103,107l98-13L1148,403z"/>
	<path fill="#26994C" stroke="#26994C" d="M1148,403l-5,94l50,13L1148,403z"/>
	<path fill="#2B9C4E" stroke="#2B9C4E" d="M1148,403l45,107l45-92L1148,403z"/>
	<path fill="#1F9246" stroke="#1F9246" d="M1238,418l-45,92l127-38L1238,418z"/>
	<path fill="#2A984B" stroke="#2A984B" d="M1238,418l82,54l-24-80L1238,418z"/>
	<path fill="#2D9649" stroke="#2D9649" d="M1296,392l24,80l71-85L1296,392z"/>
	<path fill="#238B41" stroke="#238B41" d="M1391,387l-71,85l73,31L1391,387z"/>
	<path fill="#2A8D42" stroke="#2A8D42" d="M1391,387l2,116l87-110L1391,387z"/>
	<path fill="#22843A" stroke="#22843A" d="M1480,393l-87,110l105-28L1480,393z"/>
	<path fill="#7AC093" stroke="#7AC093" d="M-38,473l-18,189l27-55L-38,473z"/>
	<path fill="#83C999" stroke="#83C999" d="M-38,473l9,134l80-88L-38,473z"/>
	<path fill="#75C090" stroke="#75C090" d="M51,519l-80,88l97-22L51,519z"/>
	<path fill="#73C18D" stroke="#73C18D" d="M51,519l17,66l81-5L51,519z"/>
	<path fill="#7DC791" stroke="#7DC791" d="M51,519l98,61l-23-100L51,519z"/>
	<path fill="#78C68D" stroke="#78C68D" d="M126,480l23,100l86-60L126,480z"/>
	<path fill="#6DBF85" stroke="#6DBF85" d="M235,520l-86,60l97-19L235,520z"/>
	<path fill="#74C587" stroke="#74C587" d="M235,520l11,41l78-89L235,520z"/>
	<path fill="#6BBF80" stroke="#6BBF80" d="M324,472l-78,89l82,28L324,472z"/>
	<path fill="#66BD7C" stroke="#66BD7C" d="M324,472l4,117l87-16L324,472z"/>
	<path fill="#6CC27F" stroke="#6CC27F" d="M324,472l91,101l12-84L324,472z"/>
	<path fill="#5EB974" stroke="#5EB974" d="M427,489l-12,84l68-6L427,489z"/>
	<path fill="#63BE77" stroke="#63BE77" d="M427,489l56,78l27-81L427,489z"/>
	<path fill="#5DBB72" stroke="#5DBB72" d="M510,486l-27,81l112-68L510,486z"/>
	<path fill="#4FB169" stroke="#4FB169" d="M595,499l-112,68l91,40L595,499z"/>
	<path fill="#47AD62" stroke="#47AD62" d="M595,499l-21,108l92-14L595,499z"/>
	<path fill="#4DB365" stroke="#4DB365" d="M595,499l71,94l28-96L595,499z"/>
	<path fill="#40AB5B" stroke="#40AB5B" d="M694,497l-28,96l115-19L694,497z"/>
	<path fill="#48B060" stroke="#48B060" d="M694,497l87,77l-23-98L694,497z"/>
	<path fill="#43AD5E" stroke="#43AD5E" d="M758,476l23,98l71-89L758,476z"/>
	<path fill="#34A254" stroke="#34A254" d="M852,485l-71,89l65,28L852,485z"/>
	<path fill="#2C9D50" stroke="#2C9D50" d="M852,485l-6,117l85-10L852,485z"/>
	<path fill="#34A254" stroke="#34A254" d="M852,485l79,107l12-108L852,485z"/>
	<path fill="#2A9C4F" stroke="#2A9C4F" d="M943,484l-12,108l114-82L943,484z"/>
	<path fill="#1C9145" stroke="#1C9145" d="M1045,510l-114,82l124,4L1045,510z"/>
	<path fill="#148C40" stroke="#148C40" d="M1045,510l10,86l85-3L1045,510z"/>
	<path fill="#1A9044" stroke="#1A9044" d="M1045,510l95,83l3-96L1045,510z"/>
	<path fill="#148C41" stroke="#148C41" d="M1143,497l-3,96l53-83L1143,497z"/>
	<path fill="#0A853B" stroke="#0A853B" d="M1193,510l-53,83l96-26L1193,510z"/>
	<path fill="#11883E" stroke="#11883E" d="M1193,510l43,57l84-95L1193,510z"/>
	<path fill="#098036" stroke="#098036" d="M1320,472l-84,95l90,20L1320,472z"/>
	<path fill="#0F8036" stroke="#0F8036" d="M1320,472l6,115l67-84L1320,472z"/>
	<path fill="#05772F" stroke="#05772F" d="M1393,503l-67,84l59-10L1393,503z"/>
	<path fill="#04722A" stroke="#04722A" d="M1393,503l-8,74l116,17L1393,503z"/>
	<path fill="#0E762E" stroke="#0E762E" d="M1393,503l108,91l-3-119L1393,503z"/>
	<path fill="#78B386" stroke="#78B386" d="M-29,607l-27,55l103,2L-29,607z"/>
	<path fill="#75B687" stroke="#75B687" d="M-29,607l76,57l21-79L-29,607z"/>
	<path fill="#71B17F" stroke="#71B17F" d="M68,585l-21,79l89-1L68,585z"/>
	<path fill="#6EB682" stroke="#6EB682" d="M68,585l68,78l13-83L68,585z"/>
	<path fill="#6BAF79" stroke="#6BAF79" d="M149,580l-13,83l91,6L149,580z"/>
	<path fill="#68B57C" stroke="#68B57C" d="M149,580l78,89l19-108L149,580z"/>
	<path fill="#64B277" stroke="#64B277" d="M246,561l-19,108l101-80L246,561z"/>
	<path fill="#62A96E" stroke="#62A96E" d="M328,589l-101,80l83,22L328,589z"/>
	<path fill="#5FA769" stroke="#5FA769" d="M328,589l-18,102l70-7L328,589z"/>
	<path fill="#5CAE6E" stroke="#5CAE6E" d="M328,589l52,95l35-111L328,589z"/>
	<path fill="#57A463" stroke="#57A463" d="M415,573l-35,111l101,5L415,573z"/>
	<path fill="#54AB67" stroke="#54AB67" d="M415,573l66,116l2-122L415,573z"/>
	<path fill="#4EA661" stroke="#4EA661" d="M483,567l-2,122l93-82L483,567z"/>
	<path fill="#4A9E58" stroke="#4A9E58" d="M574,607l-93,82l126-26L574,607z"/>
	<path fill="#44A258" stroke="#44A258" d="M574,607l33,56l59-70L574,607z"/>
	<path fill="#419D52" stroke="#419D52" d="M666,593l-59,70l87-8L666,593z"/>
	<path fill="#3BA052" stroke="#3BA052" d="M666,593l28,62l87-81L666,593z"/>
	<path fill="#38984B" stroke="#38984B" d="M781,574l-87,81l62,30L781,574z"/>
	<path fill="#32974A" stroke="#32974A" d="M781,574l-25,111l90-83L781,574z"/>
	<path fill="#308E42" stroke="#308E42" d="M846,602l-90,83l86,2L846,602z"/>
	<path fill="#29893E" stroke="#29893E" d="M846,602l-4,85l101-6L846,602z"/>
	<path fill="#258D42" stroke="#258D42" d="M846,602l97,79l-12-89L846,602z"/>
	<path fill="#1F853A" stroke="#1F853A" d="M931,592l12,89l83-20L931,592z"/>
	<path fill="#1A873D" stroke="#1A873D" d="M931,592l95,69l29-65L931,592z"/>
	<path fill="#137D34" stroke="#137D34" d="M1055,596l-29,65l106-3L1055,596z"/>
	<path fill="#0E7F36" stroke="#0E7F36" d="M1055,596l77,62l8-65L1055,596z"/>
	<path fill="#08772F" stroke="#08772F" d="M1140,593l-8,65l86-4L1140,593z"/>
	<path fill="#047A32" stroke="#047A32" d="M1140,593l78,61l18-87L1140,593z"/>
	<path fill="#00762E" stroke="#00762E" d="M1236,567l-18,87l108-67L1236,567z"/>
	<path fill="#006C26" stroke="#006C26" d="M1326,587l-108,67l95,22L1326,587z"/>
	<path fill="#006E26" stroke="#006E26" d="M1326,587l-13,89l72-99L1326,587z"/>
	<path fill="#00651F" stroke="#00651F" d="M1385,577l-72,99l106-2L1385,577z"/>
	<path fill="#006620" stroke="#006620" d="M1385,577l34,97l82-80L1385,577z"/>
	<path fill="#005D18" stroke="#005D18" d="M1501,594l-82,80l65-4L1501,594z"/>
	<path fill="#005511" stroke="#005511" d="M1501,594l-17,76l-19,102L1501,594z"/>
	<path fill="#79A97F" stroke="#79A97F" d="M-56,662l-13,82l116-80L-56,662z"/>
	<path fill="#76A276" stroke="#76A276" d="M47,664l-116,80l116,24V664z"/>
	<path fill="#719F70" stroke="#719F70" d="M47,664v104l89-5L47,664z"/>
	<path fill="#6FA573" stroke="#6FA573" d="M47,664l89,99V663L47,664z"/>
	<path fill="#6B9E6B" stroke="#6B9E6B" d="M136,663v100l78-23L136,663z"/>
	<path fill="#69A36E" stroke="#69A36E" d="M136,663l78,77l13-71L136,663z"/>
	<path fill="#65A068" stroke="#65A068" d="M227,669l-13,71l96-49L227,669z"/>
	<path fill="#639961" stroke="#639961" d="M310,691l-96,49l89,25L310,691z"/>
	<path fill="#5F9B5F" stroke="#5F9B5F" d="M310,691l-7,74l77-81L310,691z"/>
	<path fill="#5E945A" stroke="#5E945A" d="M380,684l-77,81l83,18L380,684z"/>
	<path fill="#589758" stroke="#589758" d="M380,684l6,99l95-94L380,684z"/>
	<path fill="#548D52" stroke="#548D52" d="M481,689l-95,94l114,7L481,689z"/>
	<path fill="#4E8C4D" stroke="#4E8C4D" d="M481,689l19,101l62-29L481,689z"/>
	<path fill="#4B944F" stroke="#4B944F" d="M481,689l81,72l45-98L481,689z"/>
	<path fill="#458B45" stroke="#458B45" d="M607,663l-45,98l97,18L607,663z"/>
	<path fill="#419047" stroke="#419047" d="M607,663l52,116l35-124L607,663z"/>
	<path fill="#3C883E" stroke="#3C883E" d="M694,655l-35,124l98-35L694,655z"/>
	<path fill="#388D41" stroke="#388D41" d="M694,655l63,89l-1-59L694,655z"/>
	<path fill="#33873C" stroke="#33873C" d="M756,685l1,59l85-57L756,685z"/>
	<path fill="#2F7E35" stroke="#2F7E35" d="M842,687l-85,57l96,29L842,687z"/>
	<path fill="#287E34" stroke="#287E34" d="M842,687l11,86l90-92L842,687z"/>
	<path fill="#25752E" stroke="#25752E" d="M943,681l-90,92l87,1L943,681z"/>
	<path fill="#1E702A" stroke="#1E702A" d="M943,681l-3,93l97,1L943,681z"/>
	<path fill="#1B752D" stroke="#1B752D" d="M943,681l94,94l-11-114L943,681z"/>
	<path fill="#146B24" stroke="#146B24" d="M1026,661l11,114l90-13L1026,661z"/>
	<path fill="#107129" stroke="#107129" d="M1026,661l101,101l5-104L1026,661z"/>
	<path fill="#09651F" stroke="#09651F" d="M1132,658l-5,104l83,4L1132,658z"/>
	<path fill="#066923" stroke="#066923" d="M1132,658l78,108l8-112L1132,658z"/>
	<path fill="#00641E" stroke="#00641E" d="M1218,654l-8,112l103-90L1218,654z"/>
	<path fill="#005915" stroke="#005915" d="M1313,676l-103,90l107,2L1313,676z"/>
	<path fill="#005612" stroke="#005612" d="M1313,676l4,92l79-23L1313,676z"/>
	<path fill="#005915" stroke="#005915" d="M1313,676l83,69l23-71L1313,676z"/>
	<path fill="#004F0C" stroke="#004F0C" d="M1419,674l-23,71l69,27L1419,674z"/>
	<path fill="#00510E" stroke="#00510E" d="M1419,674l46,98l19-102L1419,674z"/>
	<path fill="#618E5D" stroke="#618E5D" d="M47,768l453,22l-114-7L47,768z"/>
	<path fill="#699367" stroke="#699367" d="M47,768l339,15l-250-20L47,768z"/>
	<path fill="#639160" stroke="#639160" d="M136,763l250,20l-83-18L136,763z"/>
	<path fill="#679664" stroke="#679664" d="M136,763l167,2l-89-25L136,763z"/>
	<path fill="#1B6728" stroke="#1B6728" d="M500,790l965-18l-428,3L500,790z"/>
	<path fill="#2E7434" stroke="#2E7434" d="M500,790l537-15l-97-1L500,790z"/>
	<path fill="#3C7D3D" stroke="#3C7D3D" d="M500,790l440-16l-281,5L500,790z"/>
	<path fill="#488448" stroke="#488448" d="M500,790l159-11l-97-18L500,790z"/>
	<path fill="#2F7635" stroke="#2F7635" d="M659,779l281-5l-87-1L659,779z"/>
	<path fill="#367D39" stroke="#367D39" d="M659,779l194-6l-96-29L659,779z"/>
	<path fill="#005216" stroke="#005216" d="M1037,775l428-3l-148-4L1037,775z"/>
	<path fill="#065A1B" stroke="#065A1B" d="M1037,775l280-7l-107-2L1037,775z"/>
	<path fill="#0D5F20" stroke="#0D5F20" d="M1037,775l173-9l-83-4L1037,775z"/>
	<path fill="#004B0D" stroke="#004B0D" d="M1317,768l148,4l-69-27L1317,768z"/>
</g>
</svg>
