<?xml version="1.0" encoding="UTF-8" standalone="no"?>
<svg width="48px" height="48px" viewBox="0 0 48 48" version="1.1" xmlns="http://www.w3.org/2000/svg" xmlns:xlink="http://www.w3.org/1999/xlink">
    <!-- Generator: Sketch 3.6.1 (26313) - http://www.bohemiancoding.com/sketch -->
    <title>finance_icon_invoice</title>
    <desc>Created with Sketch.</desc>
    <defs></defs>
    <g id="Page-1" stroke="none" stroke-width="1" fill="none" fill-rule="evenodd">
        <g id="finance_icon_invoice" stroke="#2DBCA6">
            <g id="1467800260_INVOICE_OF_SERVICE" transform="translate(4.000000, 4.000000)">
                <g id="Layer_1_1_">
                    <g id="Group">
                        <path d="M24,40 L0,40 L0,0 L30.6666667,0 L30.6666667,12" id="Shape"></path>
                        <path d="M28.6666667,2 L17.3333333,2" id="Shape"></path>
                        <path d="M28.6666667,5 L20,5" id="Shape"></path>
                        <path d="M24,22.6666667 L2.66666667,22.6666667 L2.66666667,9.33333333 L28,9.33333333 L28,12" id="Shape"></path>
                        <path d="M2.66666667,12 L26.6666667,12" id="Shape"></path>
                        <path d="M20,9.33333333 L20,22.6666667" id="Shape"></path>
                        <path d="M17,9.33333333 L17,22.6666667" id="Shape"></path>
                        <rect id="Rectangle-path" x="2.66666667" y="26.6666667" width="14.6666667" height="4.66666667"></rect>
                        <path d="M2,34 L24,34" id="Shape"></path>
                        <path d="M19.3333333,37 L24,37" id="Shape"></path>
                        <rect id="Rectangle-path" x="24" y="14.6666667" width="13.3333333" height="25.3333333"></rect>
                        <path d="M26.6666667,14.6666667 L26.6666667,12 L40,12 L40,37.3333333 L37.3333333,37.3333333" id="Shape"></path>
                        <circle id="Oval" cx="30.6666667" cy="27.3333333" r="4"></circle>
                        <path d="M33.456,17.3333333 L27.878,17.3333333 C27.6766667,17.8986667 27.2326667,18.3433333 26.6673333,18.544 L26.6673333,36.122 C27.2326667,36.3233333 27.6773333,36.7673333 27.878,37.3326667 L33.456,37.3326667 C33.6573333,36.7673333 34.1013333,36.3226667 34.6666667,36.122 L34.6666667,18.544 C34.1013333,18.3433333 33.6566667,17.8986667 33.456,17.3333333 L33.456,17.3333333 Z" id="Shape"></path>
                    </g>
                </g>
            </g>
        </g>
    </g>
</svg>