<?xml version="1.0" encoding="UTF-8" standalone="no"?>
<svg width="48px" height="48px" viewBox="0 0 48 48" version="1.1" xmlns="http://www.w3.org/2000/svg" xmlns:xlink="http://www.w3.org/1999/xlink">
    <!-- Generator: Sketch 3.6.1 (26313) - http://www.bohemiancoding.com/sketch -->
    <title>menu_icon_postal</title>
    <desc>Created with Sketch.</desc>
    <defs></defs>
    <g id="Page-1" stroke="none" stroke-width="1" fill="none" fill-rule="evenodd">
        <g id="menu_icon_postal" fill="#2DBCA6">
            <g id="1467800304_124" transform="translate(4.000000, 4.000000)">
                <g id="Layer_1">
                    <g id="Group">
                        <path d="M38.3673469,39.1836735 L0.816326531,39.1836735 C0.326530612,39.1836735 0,38.8571429 0,38.3673469 L0,16.244898 C0,16 0.0816326531,15.755102 0.326530612,15.5918367 L5.2244898,11.5918367 C5.55102041,11.2653061 6.12244898,11.3469388 6.36734694,11.6734694 C6.6122449,12 6.6122449,12.5714286 6.28571429,12.8163265 L1.63265306,16.6530612 L1.63265306,37.5510204 L37.5510204,37.5510204 L37.5510204,16.6530612 L32.9795918,12.8979592 C32.6530612,12.6530612 32.5714286,12.0816327 32.8979592,11.755102 C33.1428571,11.4285714 33.7142857,11.3469388 34.0408163,11.6734694 L38.9387755,15.6734694 C39.1020408,15.8367347 39.2653061,16.0816327 39.2653061,16.3265306 L39.2653061,38.3673469 C39.1836735,38.8571429 38.8571429,39.1836735 38.3673469,39.1836735 L38.3673469,39.1836735 Z" id="Shape"></path>
                        <path d="M25.3877551,6.53061224 C25.2244898,6.53061224 25.0612245,6.44897959 24.8979592,6.36734694 L19.3469388,1.87755102 L13.9591837,6.36734694 C13.6326531,6.69387755 13.0612245,6.6122449 12.8163265,6.28571429 C12.4897959,5.95918367 12.5714286,5.3877551 12.8979592,5.14285714 L18.7755102,0.244897959 C19.1020408,-1.34822709e-14 19.5102041,-1.34822709e-14 19.8367347,0.244897959 L25.877551,5.14285714 C26.2040816,5.3877551 26.2857143,5.95918367 25.9591837,6.28571429 C25.877551,6.44897959 25.6326531,6.53061224 25.3877551,6.53061224 L25.3877551,6.53061224 Z" id="Shape"></path>
                        <path d="M0.816326531,39.1836735 C0.571428571,39.1836735 0.244897959,39.0204082 0.0816326531,38.7755102 C-0.0816326531,38.3673469 1.06529369e-13,37.877551 0.408163265,37.6326531 L37.9591837,15.9183673 C38.3673469,15.6734694 38.8571429,15.8367347 39.1020408,16.244898 C39.3469388,16.6530612 39.1836735,17.1428571 38.7755102,17.3877551 L1.2244898,39.1020408 C1.06122449,39.1836735 0.979591837,39.1836735 0.816326531,39.1836735 L0.816326531,39.1836735 Z" id="Shape"></path>
                        <path d="M38.3673469,39.1836735 C38.2040816,39.1836735 38.122449,39.1836735 37.9591837,39.1020408 L0.408163265,17.3877551 C1.06518093e-13,17.1428571 -0.0816326531,16.6530612 0.0816326531,16.244898 C0.326530612,15.8367347 0.816326531,15.755102 1.2244898,15.9183673 L38.7755102,37.6326531 C39.1836735,37.877551 39.2653061,38.3673469 39.1020408,38.7755102 C38.9387755,39.0204082 38.6122449,39.1836735 38.3673469,39.1836735 L38.3673469,39.1836735 Z" id="Shape"></path>
                        <path d="M33.2244898,19.9183673 C32.7346939,19.9183673 32.4081633,19.5918367 32.4081633,19.1020408 L32.4081633,6.6122449 L6.7755102,6.6122449 L6.7755102,19.1020408 C6.7755102,19.5918367 6.44897959,19.9183673 5.95918367,19.9183673 C5.46938776,19.9183673 5.14285714,19.5918367 5.14285714,19.1020408 L5.14285714,5.79591837 C5.14285714,5.30612245 5.46938776,4.97959184 5.95918367,4.97959184 L33.2244898,4.97959184 C33.7142857,4.97959184 34.0408163,5.30612245 34.0408163,5.79591837 L34.0408163,19.1020408 C34.0408163,19.5918367 33.7142857,19.9183673 33.2244898,19.9183673 L33.2244898,19.9183673 Z" id="Shape"></path>
                        <path d="M28.4897959,12.244898 L10.6938776,12.244898 C10.2040816,12.244898 9.87755102,11.9183673 9.87755102,11.4285714 C9.87755102,10.9387755 10.2040816,10.6122449 10.6938776,10.6122449 L28.4897959,10.6122449 C28.9795918,10.6122449 29.3061224,10.9387755 29.3061224,11.4285714 C29.3061224,11.9183673 28.9795918,12.244898 28.4897959,12.244898 L28.4897959,12.244898 Z" id="Shape"></path>
                        <path d="M28.4897959,17.4693878 L10.6938776,17.4693878 C10.2040816,17.4693878 9.87755102,17.1428571 9.87755102,16.6530612 C9.87755102,16.1632653 10.2040816,15.8367347 10.6938776,15.8367347 L28.4897959,15.8367347 C28.9795918,15.8367347 29.3061224,16.1632653 29.3061224,16.6530612 C29.3061224,17.1428571 28.9795918,17.4693878 28.4897959,17.4693878 L28.4897959,17.4693878 Z" id="Shape"></path>
                    </g>
                </g>
            </g>
        </g>
    </g>
</svg>