<?xml version="1.0" encoding="UTF-8" standalone="no"?>
<svg width="48px" height="48px" viewBox="0 0 48 48" version="1.1" xmlns="http://www.w3.org/2000/svg" xmlns:xlink="http://www.w3.org/1999/xlink">
    <!-- Generator: Sketch 3.6.1 (26313) - http://www.bohemiancoding.com/sketch -->
    <title>menu_icon_vote</title>
    <desc>Created with Sketch.</desc>
    <defs></defs>
    <g id="Page-1" stroke="none" stroke-width="1" fill="none" fill-rule="evenodd">
        <g id="menu_icon_vote">
            <g id="1467800308_car-repair-shop_84" transform="translate(-10.000000, 0.000000)">
                <g id="Group">
                    <path d="M55.3055556,15.5222222 L49.8055556,13.2611111 L43.8166667,27.6833333 L44.0611111,27.7444444 L49.1333333,29.8222222 L49.3777778,29.8833333 L55.3055556,15.5222222 L55.3055556,15.5222222 L55.3055556,15.5222222 Z M50.3555556,12.0388889 L55.7333333,14.2388889 C55.9777778,12.8333333 55.2444444,11.4888889 53.9611111,10.9388889 C53.5944444,10.8166667 53.2277778,10.6944444 52.8611111,10.6944444 C51.8833333,10.7555556 50.9666667,11.2444444 50.3555556,12.0388889 L50.3555556,12.0388889 L50.3555556,12.0388889 Z M56.8333333,15.4611111 L50.2944444,31.1055556 C50.2333333,31.2888889 50.1111111,31.4111111 49.9277778,31.4722222 C49.8666667,31.5333333 49.7444444,31.5333333 49.6833333,31.5333333 C49.6222222,31.5333333 49.5,31.5333333 49.4388889,31.4722222 L49.3166667,31.4111111 L48.5222222,34.9555556 C48.4611111,35.2 48.3388889,35.3833333 48.0944444,35.4444444 C46.3833333,36.1777778 43.9388889,37.8888889 42.7777778,39.7222222 C42.6555556,39.9055556 42.4111111,40.0277778 42.2277778,40.0277778 C42.1666667,40.0277778 42.0444444,40.0277778 41.9833333,39.9666667 C41.6777778,39.8444444 41.4944444,39.5388889 41.5555556,39.1722222 C42.0444444,37.0333333 41.4944444,34.1 40.7611111,32.3888889 C40.7,32.2055556 40.7,31.9611111 40.8222222,31.7777778 L42.7777778,28.7222222 L42.6555556,28.6611111 C42.2888889,28.5388889 42.1666667,28.1111111 42.2888889,27.8055556 L48.7666667,12.1611111 C49.4388889,10.5111111 51.0277778,9.41111111 52.8,9.41111111 C53.35,9.41111111 53.9,9.53333333 54.45,9.71666667 C56.7111111,10.6333333 57.75,13.2 56.8333333,15.4611111 L56.8333333,15.4611111 L56.8333333,15.4611111 Z M44.0611111,32.0833333 C44.3055556,31.5333333 44.8555556,31.2888889 45.4055556,31.5333333 C45.9555556,31.7777778 46.2,32.3277778 45.9555556,32.8777778 C45.8333333,33.1833333 45.5888889,33.3666667 45.3444444,33.4888889 L44.1833333,36.3 C45.2222222,35.5055556 46.3222222,34.8333333 47.2388889,34.4055556 L47.9722222,30.9222222 L43.9388889,29.2722222 L42.0444444,32.2666667 C42.4111111,33.2444444 42.7166667,34.4666667 42.9,35.75 L44.0611111,33 C44,32.6944444 43.9388889,32.3888889 44.0611111,32.0833333 L44.0611111,32.0833333 L44.0611111,32.0833333 Z M16.3166667,10.7555556 L16.3166667,9.59444444 C16.3166667,8.43333333 17.2333333,7.51666667 18.3944444,7.51666667 L20.9,7.51666667 C21.5111111,5.92777778 23.0388889,4.88888889 24.75,4.88888889 C26.4611111,4.88888889 27.9888889,5.92777778 28.6611111,7.51666667 L31.1666667,7.51666667 C32.3277778,7.51666667 33.2444444,8.43333333 33.2444444,9.59444444 L33.2444444,10.7555556 L35.5055556,10.7555556 C37.1555556,10.7555556 38.5,12.1 38.5,13.75 L38.5,41.4944444 C38.5,43.1444444 37.1555556,44.4888889 35.5055556,44.4888889 L14.0555556,44.4888889 C12.4055556,44.4888889 11.0611111,43.1444444 11.0611111,41.4944444 L11.0611111,13.75 C11.0611111,12.1 12.4055556,10.7555556 14.0555556,10.7555556 L16.3166667,10.7555556 L16.3166667,10.7555556 L16.3166667,10.7555556 Z M31.2277778,14.1777778 L18.3944444,14.1777778 C17.2333333,14.1777778 16.3166667,13.2611111 16.3166667,12.1 L14.0555556,12.1 C13.1388889,12.1 12.4055556,12.8333333 12.4055556,13.75 L12.4055556,41.4944444 C12.4055556,42.4111111 13.1388889,43.1444444 14.0555556,43.1444444 L35.5055556,43.1444444 C36.4222222,43.1444444 37.1555556,42.4111111 37.1555556,41.4944444 L37.1555556,13.75 C37.1555556,12.8333333 36.4222222,12.1 35.5055556,12.1 L33.2444444,12.1 C33.3055556,13.2611111 32.3277778,14.1777778 31.2277778,14.1777778 L31.2277778,14.1777778 L31.2277778,14.1777778 Z M18.3944444,8.86111111 C17.9666667,8.86111111 17.6611111,9.16666667 17.6611111,9.59444444 L17.6611111,12.1 C17.6611111,12.5277778 17.9666667,12.8333333 18.3944444,12.8333333 L31.1666667,12.8333333 C31.5944444,12.8333333 31.9,12.5277778 31.9,12.1 L31.9,9.59444444 C31.9,9.16666667 31.5944444,8.86111111 31.1666667,8.86111111 L28.1722222,8.86111111 C27.8666667,8.86111111 27.5611111,8.67777778 27.5,8.37222222 C27.1944444,7.08888889 26.0944444,6.23333333 24.75,6.23333333 C23.4666667,6.23333333 22.3055556,7.08888889 22,8.37222222 C21.9388889,8.67777778 21.6333333,8.86111111 21.3277778,8.86111111 L18.3944444,8.86111111 L18.3944444,8.86111111 L18.3944444,8.86111111 Z M32.8777778,37.4611111 L23.8333333,37.4611111 C23.4666667,37.4611111 23.1611111,37.1555556 23.1611111,36.7888889 C23.1611111,36.4222222 23.4666667,36.1166667 23.8333333,36.1166667 L32.8777778,36.1166667 C33.2444444,36.1166667 33.55,36.4222222 33.55,36.7888889 C33.55,37.1555556 33.2444444,37.4611111 32.8777778,37.4611111 L32.8777778,37.4611111 L32.8777778,37.4611111 Z M32.8777778,22.7333333 L23.8333333,22.7333333 C23.4666667,22.7333333 23.1611111,22.4277778 23.1611111,22.0611111 C23.1611111,21.6944444 23.4055556,21.3888889 23.8333333,21.3888889 L32.8777778,21.3888889 C33.2444444,21.3888889 33.55,21.6944444 33.55,22.0611111 C33.55,22.4277778 33.2444444,22.7333333 32.8777778,22.7333333 L32.8777778,22.7333333 L32.8777778,22.7333333 Z M32.8777778,31.4722222 L23.8333333,31.4722222 C23.4666667,31.4722222 23.1611111,31.1666667 23.1611111,30.8 C23.1611111,30.4333333 23.4666667,30.1277778 23.8333333,30.1277778 L32.8777778,30.1277778 C33.2444444,30.1277778 33.55,30.4333333 33.55,30.8 C33.55,31.1666667 33.2444444,31.4722222 32.8777778,31.4722222 L32.8777778,31.4722222 L32.8777778,31.4722222 Z M32.8777778,40.2111111 L23.8333333,40.2111111 C23.4666667,40.2111111 23.1611111,39.9055556 23.1611111,39.5388889 C23.1611111,39.1722222 23.4666667,38.8666667 23.8333333,38.8666667 L32.8777778,38.8666667 C33.2444444,38.8666667 33.55,39.1722222 33.55,39.5388889 C33.55,39.9055556 33.2444444,40.2111111 32.8777778,40.2111111 L32.8777778,40.2111111 L32.8777778,40.2111111 Z M20.8388889,22.7333333 L16.7444444,22.7333333 C16.3777778,22.7333333 16.0722222,22.4277778 16.0722222,22.0611111 L16.0722222,17.9666667 C16.0722222,17.6 16.3777778,17.2944444 16.7444444,17.2944444 L20.8388889,17.2944444 C21.2055556,17.2944444 21.5111111,17.6 21.5111111,17.9666667 L21.5111111,22.0611111 C21.5111111,22.4277778 21.2055556,22.7333333 20.8388889,22.7333333 L20.8388889,22.7333333 L20.8388889,22.7333333 Z M17.4166667,21.3888889 L20.1666667,21.3888889 L20.1666667,18.6388889 L17.4166667,18.6388889 L17.4166667,21.3888889 L17.4166667,21.3888889 L17.4166667,21.3888889 Z M20.8388889,31.4722222 L16.7444444,31.4722222 C16.3777778,31.4722222 16.0722222,31.1666667 16.0722222,30.8 L16.0722222,26.7055556 C16.0722222,26.3388889 16.3777778,26.0333333 16.7444444,26.0333333 L20.8388889,26.0333333 C21.2055556,26.0333333 21.5111111,26.3388889 21.5111111,26.7055556 L21.5111111,30.8 C21.5111111,31.1666667 21.2055556,31.4722222 20.8388889,31.4722222 L20.8388889,31.4722222 L20.8388889,31.4722222 Z M17.4166667,30.1277778 L20.1666667,30.1277778 L20.1666667,27.3777778 L17.4166667,27.3777778 L17.4166667,30.1277778 L17.4166667,30.1277778 L17.4166667,30.1277778 Z M20.8388889,40.2111111 L16.7444444,40.2111111 C16.3777778,40.2111111 16.0722222,39.9055556 16.0722222,39.5388889 L16.0722222,35.4444444 C16.0722222,35.0777778 16.3777778,34.7722222 16.7444444,34.7722222 L20.8388889,34.7722222 C21.2055556,34.7722222 21.5111111,35.0777778 21.5111111,35.4444444 L21.5111111,39.5388889 C21.5111111,39.9055556 21.2055556,40.2111111 20.8388889,40.2111111 L20.8388889,40.2111111 L20.8388889,40.2111111 Z M17.4166667,38.8666667 L20.1666667,38.8666667 L20.1666667,36.1166667 L17.4166667,36.1166667 L17.4166667,38.8666667 L17.4166667,38.8666667 L17.4166667,38.8666667 Z M32.8777778,19.9833333 L23.8333333,19.9833333 C23.4666667,19.9833333 23.1611111,19.6777778 23.1611111,19.3111111 C23.1611111,18.9444444 23.4666667,18.6388889 23.8333333,18.6388889 L32.8777778,18.6388889 C33.2444444,18.6388889 33.55,18.9444444 33.55,19.3111111 C33.55,19.6777778 33.2444444,19.9833333 32.8777778,19.9833333 L32.8777778,19.9833333 L32.8777778,19.9833333 Z M32.8777778,28.7222222 L23.8333333,28.7222222 C23.4666667,28.7222222 23.1611111,28.4166667 23.1611111,28.05 C23.1611111,27.6833333 23.4666667,27.3777778 23.8333333,27.3777778 L32.8777778,27.3777778 C33.2444444,27.3777778 33.55,27.6833333 33.55,28.05 C33.55,28.4166667 33.2444444,28.7222222 32.8777778,28.7222222 L32.8777778,28.7222222 L32.8777778,28.7222222 Z M24.8111111,11 C23.7111111,11 22.8555556,10.1444444 22.8555556,9.04444444 C22.8555556,7.94444444 23.7111111,7.08888889 24.8111111,7.08888889 C25.9111111,7.08888889 26.7666667,7.94444444 26.7666667,9.04444444 C26.7666667,10.0833333 25.9111111,11 24.8111111,11 L24.8111111,11 L24.8111111,11 Z M24.8111111,8.43333333 C24.5055556,8.43333333 24.2,8.67777778 24.2,9.04444444 C24.2,9.35 24.4444444,9.65555556 24.8111111,9.65555556 C25.1777778,9.65555556 25.4222222,9.41111111 25.4222222,9.04444444 C25.4222222,8.67777778 25.1166667,8.43333333 24.8111111,8.43333333 L24.8111111,8.43333333 L24.8111111,8.43333333 Z" id="Shape" fill="#2DBCA6"></path>
                    <rect id="_x3C_Slice_x3E__30_" x="0" y="0" width="64.7777778" height="55"></rect>
                </g>
            </g>
        </g>
    </g>
</svg>